<svg width="15" height="20" viewBox="0 0 15 20" fill="none" xmlns="http://www.w3.org/2000/svg">
<path d="M7.75 16.525C7.55 16.525 7.35 16.4917 7.15 16.425C6.95 16.3583 6.76667 16.2583 6.6 16.125C4.63333 14.5583 3.16667 13.0292 2.2 11.5375C1.23333 10.0458 0.75 8.58333 0.75 7.15C0.75 5.06667 1.4 3.35417 2.7 2.0125C4 0.670833 5.68333 0 7.75 0C9.81667 0 11.5 0.670833 12.8 2.0125C14.1 3.35417 14.75 5.06667 14.75 7.15C14.75 8.58333 14.2667 10.0458 13.3 11.5375C12.3333 13.0292 10.8667 14.5583 8.9 16.125C8.73333 16.2583 8.55 16.3583 8.35 16.425C8.15 16.4917 7.95 16.525 7.75 16.525ZM7.75 9C8.3 9 8.77083 8.80417 9.1625 8.4125C9.55417 8.02083 9.75 7.55 9.75 7C9.75 6.45 9.55417 5.97917 9.1625 5.5875C8.77083 5.19583 8.3 5 7.75 5C7.2 5 6.72917 5.19583 6.3375 5.5875C5.94583 5.97917 5.75 6.45 5.75 7C5.75 7.55 5.94583 8.02083 6.3375 8.4125C6.72917 8.80417 7.2 9 7.75 9ZM1.75 20C1.46667 20 1.22917 19.9042 1.0375 19.7125C0.845833 19.5208 0.75 19.2833 0.75 19C0.75 18.7167 0.845833 18.4792 1.0375 18.2875C1.22917 18.0958 1.46667 18 1.75 18H13.75C14.0333 18 14.2708 18.0958 14.4625 18.2875C14.6542 18.4792 14.75 18.7167 14.75 19C14.75 19.2833 14.6542 19.5208 14.4625 19.7125C14.2708 19.9042 14.0333 20 13.75 20H1.75Z" fill="#126CC0"/>
</svg>
