<svg width="17" height="20" viewBox="0 0 17 20" fill="none" xmlns="http://www.w3.org/2000/svg">
<path d="M1.75 17C1.46667 17 1.22917 16.9042 1.0375 16.7125C0.845833 16.5208 0.75 16.2833 0.75 16C0.75 15.7167 0.845833 15.4792 1.0375 15.2875C1.22917 15.0958 1.46667 15 1.75 15H2.75V8C2.75 6.61667 3.16667 5.3875 4 4.3125C4.83333 3.2375 5.91667 2.53333 7.25 2.2V1.5C7.25 1.08333 7.39583 0.729167 7.6875 0.4375C7.97917 0.145833 8.33333 0 8.75 0C9.16667 0 9.52083 0.145833 9.8125 0.4375C10.1042 0.729167 10.25 1.08333 10.25 1.5V2.2C11.5833 2.53333 12.6667 3.2375 13.5 4.3125C14.3333 5.3875 14.75 6.61667 14.75 8V15H15.75C16.0333 15 16.2708 15.0958 16.4625 15.2875C16.6542 15.4792 16.75 15.7167 16.75 16C16.75 16.2833 16.6542 16.5208 16.4625 16.7125C16.2708 16.9042 16.0333 17 15.75 17H1.75ZM8.75 20C8.2 20 7.72917 19.8042 7.3375 19.4125C6.94583 19.0208 6.75 18.55 6.75 18H10.75C10.75 18.55 10.5542 19.0208 10.1625 19.4125C9.77083 19.8042 9.3 20 8.75 20Z" fill="#126CC0"/>
</svg>
