<svg width="23" height="16" viewBox="0 0 23 16" fill="none" xmlns="http://www.w3.org/2000/svg">
<path d="M5.25 16C4.41667 16 3.70833 15.7083 3.125 15.125C2.54167 14.5417 2.25 13.8333 2.25 13H1.25C0.966667 13 0.729167 12.9042 0.5375 12.7125C0.345833 12.5208 0.25 12.2833 0.25 12V2C0.25 1.45 0.445833 0.979167 0.8375 0.5875C1.22917 0.195833 1.7 0 2.25 0H14.25C14.8 0 15.2708 0.195833 15.6625 0.5875C16.0542 0.979167 16.25 1.45 16.25 2V4H18.25C18.5667 4 18.8667 4.07083 19.15 4.2125C19.4333 4.35417 19.6667 4.55 19.85 4.8L22.05 7.725C22.1167 7.80833 22.1667 7.9 22.2 8C22.2333 8.1 22.25 8.20833 22.25 8.325V12C22.25 12.2833 22.1542 12.5208 21.9625 12.7125C21.7708 12.9042 21.5333 13 21.25 13H20.25C20.25 13.8333 19.9583 14.5417 19.375 15.125C18.7917 15.7083 18.0833 16 17.25 16C16.4167 16 15.7083 15.7083 15.125 15.125C14.5417 14.5417 14.25 13.8333 14.25 13H8.25C8.25 13.8333 7.95833 14.5417 7.375 15.125C6.79167 15.7083 6.08333 16 5.25 16ZM5.25 14C5.53333 14 5.77083 13.9042 5.9625 13.7125C6.15417 13.5208 6.25 13.2833 6.25 13C6.25 12.7167 6.15417 12.4792 5.9625 12.2875C5.77083 12.0958 5.53333 12 5.25 12C4.96667 12 4.72917 12.0958 4.5375 12.2875C4.34583 12.4792 4.25 12.7167 4.25 13C4.25 13.2833 4.34583 13.5208 4.5375 13.7125C4.72917 13.9042 4.96667 14 5.25 14ZM17.25 14C17.5333 14 17.7708 13.9042 17.9625 13.7125C18.1542 13.5208 18.25 13.2833 18.25 13C18.25 12.7167 18.1542 12.4792 17.9625 12.2875C17.7708 12.0958 17.5333 12 17.25 12C16.9667 12 16.7292 12.0958 16.5375 12.2875C16.3458 12.4792 16.25 12.7167 16.25 13C16.25 13.2833 16.3458 13.5208 16.5375 13.7125C16.7292 13.9042 16.9667 14 17.25 14ZM16.25 9H20.5L18.25 6H16.25V9Z" fill="#126CC0"/>
</svg>
