<svg width="20" height="20" viewBox="0 0 20 20" fill="none" xmlns="http://www.w3.org/2000/svg">
<path d="M9.07498 20C8.62498 20 8.23748 19.85 7.91248 19.55C7.58748 19.25 7.39165 18.8833 7.32498 18.45L7.09998 16.8C6.88331 16.7167 6.67915 16.6167 6.48748 16.5C6.29581 16.3833 6.10831 16.2583 5.92498 16.125L4.37498 16.775C3.95831 16.9583 3.54165 16.975 3.12498 16.825C2.70831 16.675 2.38331 16.4083 2.14998 16.025L0.97498 13.975C0.741647 13.5917 0.67498 13.1833 0.77498 12.75C0.87498 12.3167 1.09998 11.9583 1.44998 11.675L2.77498 10.675C2.75831 10.5583 2.74998 10.4458 2.74998 10.3375V9.6625C2.74998 9.55417 2.75831 9.44167 2.77498 9.325L1.44998 8.325C1.09998 8.04167 0.87498 7.68333 0.77498 7.25C0.67498 6.81667 0.741647 6.40833 0.97498 6.025L2.14998 3.975C2.38331 3.59167 2.70831 3.325 3.12498 3.175C3.54165 3.025 3.95831 3.04167 4.37498 3.225L5.92498 3.875C6.10831 3.74167 6.29998 3.61667 6.49998 3.5C6.69998 3.38333 6.89998 3.28333 7.09998 3.2L7.32498 1.55C7.39165 1.11667 7.58748 0.75 7.91248 0.45C8.23748 0.15 8.62498 0 9.07498 0H11.425C11.875 0 12.2625 0.15 12.5875 0.45C12.9125 0.75 13.1083 1.11667 13.175 1.55L13.4 3.2C13.6166 3.28333 13.8208 3.38333 14.0125 3.5C14.2041 3.61667 14.3916 3.74167 14.575 3.875L16.125 3.225C16.5416 3.04167 16.9583 3.025 17.375 3.175C17.7916 3.325 18.1166 3.59167 18.35 3.975L19.525 6.025C19.7583 6.40833 19.825 6.81667 19.725 7.25C19.625 7.68333 19.4 8.04167 19.05 8.325L17.725 9.325C17.7416 9.44167 17.75 9.55417 17.75 9.6625V10.3375C17.75 10.4458 17.7333 10.5583 17.7 10.675L19.025 11.675C19.375 11.9583 19.6 12.3167 19.7 12.75C19.8 13.1833 19.7333 13.5917 19.5 13.975L18.3 16.025C18.0666 16.4083 17.7416 16.675 17.325 16.825C16.9083 16.975 16.4916 16.9583 16.075 16.775L14.575 16.125C14.3916 16.2583 14.2 16.3833 14 16.5C13.8 16.6167 13.6 16.7167 13.4 16.8L13.175 18.45C13.1083 18.8833 12.9125 19.25 12.5875 19.55C12.2625 19.85 11.875 20 11.425 20H9.07498ZM9.24998 18H11.225L11.575 15.35C12.0916 15.2167 12.5708 15.0208 13.0125 14.7625C13.4541 14.5042 13.8583 14.1917 14.225 13.825L16.7 14.85L17.675 13.15L15.525 11.525C15.6083 11.2917 15.6666 11.0458 15.7 10.7875C15.7333 10.5292 15.75 10.2667 15.75 10C15.75 9.73333 15.7333 9.47083 15.7 9.2125C15.6666 8.95417 15.6083 8.70833 15.525 8.475L17.675 6.85L16.7 5.15L14.225 6.2C13.8583 5.81667 13.4541 5.49583 13.0125 5.2375C12.5708 4.97917 12.0916 4.78333 11.575 4.65L11.25 2H9.27498L8.92498 4.65C8.40831 4.78333 7.92915 4.97917 7.48748 5.2375C7.04581 5.49583 6.64165 5.80833 6.27498 6.175L3.79998 5.15L2.82498 6.85L4.97498 8.45C4.89165 8.7 4.83331 8.95 4.79998 9.2C4.76665 9.45 4.74998 9.71667 4.74998 10C4.74998 10.2667 4.76665 10.525 4.79998 10.775C4.83331 11.025 4.89165 11.275 4.97498 11.525L2.82498 13.15L3.79998 14.85L6.27498 13.8C6.64165 14.1833 7.04581 14.5042 7.48748 14.7625C7.92915 15.0208 8.40831 15.2167 8.92498 15.35L9.24998 18ZM10.3 13.5C11.2666 13.5 12.0916 13.1583 12.775 12.475C13.4583 11.7917 13.8 10.9667 13.8 10C13.8 9.03333 13.4583 8.20833 12.775 7.525C12.0916 6.84167 11.2666 6.5 10.3 6.5C9.31665 6.5 8.48748 6.84167 7.81248 7.525C7.13748 8.20833 6.79998 9.03333 6.79998 10C6.79998 10.9667 7.13748 11.7917 7.81248 12.475C8.48748 13.1583 9.31665 13.5 10.3 13.5Z" fill="#787680"/>
</svg>
