<svg width="31" height="24" viewBox="0 0 31 24" fill="none" xmlns="http://www.w3.org/2000/svg">
<path d="M9.50759 9.33325C9.1367 9.33325 8.83325 9.62996 8.83325 10.0076V14.8561C8.83325 15.2337 9.1367 15.5304 9.50759 15.5304C9.87847 15.5304 10.1819 15.2337 10.1819 14.8561V10.0076C10.1819 9.62996 9.87847 9.33325 9.50759 9.33325ZM14.3628 9.33325C13.9919 9.33325 13.6885 9.62996 13.6885 10.0076V14.8561C13.6885 15.2337 13.9919 15.5304 14.3628 15.5304C14.7337 15.5304 15.0371 15.2337 15.0371 14.8561V10.0076C15.0371 9.62996 14.7337 9.33325 14.3628 9.33325ZM19.218 9.33325C18.8471 9.33325 18.5437 9.62996 18.5437 10.0076V14.8561C18.5437 15.2337 18.8471 15.5304 19.218 15.5304C19.5889 15.5304 19.8923 15.2337 19.8923 14.8561V10.0076C19.8923 9.62996 19.5889 9.33325 19.218 9.33325Z" fill="black"/>
<path d="M27.1463 9.25646C26.9189 9.01229 26.6221 8.88343 26.3 8.88343H25.2263V7.11997C25.2263 5.3972 23.9189 4 22.3211 4H6.40526C4.80736 4 3.5 5.3972 3.5 7.11997V16.88C3.5 18.6028 4.80736 20 6.40526 20H22.3211C23.9189 20 25.2263 18.6028 25.2263 16.88V15.1166H26.3C26.6158 15.1166 26.9189 14.9877 27.1463 14.7435C27.3737 14.4994 27.5 14.1738 27.5 13.8347V10.1721C27.5 9.8262 27.3737 9.50064 27.1463 9.25646ZM23.9632 16.88C23.9632 17.8567 23.2242 18.6435 22.3211 18.6435H6.40526C5.5021 18.6435 4.76316 17.8567 4.76316 16.88V7.11997C4.76316 6.14328 5.5021 5.35651 6.40526 5.35651H22.3211C23.2242 5.35651 23.9632 6.14328 23.9632 7.11997V16.88ZM26.2368 13.7601H25.2263V10.2399H26.2368V13.7601Z" fill="black"/>
</svg>
