<svg width="31" height="24" viewBox="0 0 31 24" fill="none" xmlns="http://www.w3.org/2000/svg">
<path d="M17.647 17.8951H12.9364L9.4163 14.3749V6.45096H10.8623L10.0079 5.01953H9.4163C9.03653 5.01953 8.67867 5.1729 8.40845 5.43581C8.13823 5.70603 7.98485 6.07119 7.98485 6.45096V11.0958H5.84502V8.95596C5.84502 8.76608 5.76465 8.5835 5.6332 8.44474C5.50174 8.31328 5.3192 8.24025 5.12932 8.24025C4.93944 8.24025 4.75685 8.31328 4.61809 8.44474C4.48663 8.5835 4.41357 8.76608 4.41357 8.95596V14.6744C4.41357 14.8643 4.48663 15.0468 4.61809 15.1783C4.75685 15.3171 4.93944 15.3901 5.12932 15.3901C5.3192 15.3901 5.50174 15.3171 5.6332 15.1783C5.76465 15.0468 5.84502 14.8643 5.84502 14.6744V12.5272H7.98485V14.3749C7.98485 14.5648 8.02139 14.7547 8.09442 14.9227C8.16745 15.098 8.27699 15.2586 8.40845 15.3901L11.9213 18.9029C12.0528 19.0344 12.2134 19.1439 12.3887 19.217C12.5566 19.29 12.7465 19.3265 12.9364 19.3265H18.4942L17.647 17.8951Z" fill="black"/>
<path d="M26.163 9.0143C25.9001 8.74408 25.5349 8.59801 25.1551 8.59801H24.0232L20.8609 5.43573C20.7294 5.30427 20.576 5.20202 20.4008 5.12899C20.2255 5.05596 20.0429 5.01944 19.853 5.01944H16.216V2.8723H18.3632C18.5531 2.8723 18.7283 2.79927 18.8671 2.66051C18.9986 2.52905 19.0716 2.34647 19.0716 2.15658C19.0716 1.9667 18.9986 1.78412 18.8671 1.65266C18.7283 1.52121 18.5531 1.44087 18.3632 1.44087H12.6374C12.4476 1.44087 12.265 1.52121 12.1335 1.65266C12.0021 1.78412 11.9217 1.9667 11.9217 2.15658C11.9217 2.34647 12.0021 2.52905 12.1335 2.66051C12.265 2.79927 12.4476 2.8723 12.6374 2.8723H14.7846V5.01944H11.856L9.66503 1.2729C9.51166 1.00998 9.17574 0.922343 8.91282 1.07571C8.80328 1.14144 8.72293 1.23638 8.67912 1.35323C8.62069 1.4993 8.62798 1.67457 8.71562 1.82794L10.5852 5.01944L11.4178 6.45087L18.1148 17.895L18.9474 19.3264L20.9412 22.7297C21.0434 22.905 21.2333 22.9999 21.4159 22.9999C21.4451 22.9999 21.4743 22.9999 21.5035 22.9926C21.5693 22.9853 21.635 22.9634 21.6934 22.9269C21.9564 22.7735 22.044 22.4376 21.8906 22.1747L20.1962 19.2753C20.2693 19.268 20.335 19.2461 20.4008 19.2169C20.576 19.1438 20.7294 19.0343 20.8609 18.9028L24.0232 15.7479H25.1551C25.5349 15.7479 25.9001 15.5945 26.163 15.3316C26.4332 15.0614 26.5865 14.6962 26.5865 14.3164V10.0221C26.5865 9.64237 26.4332 9.28452 26.163 9.0143ZM25.1551 14.3164H23.7237C23.6288 14.3164 23.5338 14.3383 23.4535 14.3675C23.3659 14.4041 23.2855 14.4625 23.2198 14.5282L19.853 17.895H19.3856L12.6959 6.45087H19.853L23.2198 9.81765C23.2855 9.88338 23.3659 9.9345 23.4535 9.97102C23.5338 10.0075 23.6288 10.0221 23.7237 10.0221H25.1551V14.3164Z" fill="black"/>
</svg>
