<svg width="31" height="24" viewBox="0 0 31 24" fill="none" xmlns="http://www.w3.org/2000/svg">
<path d="M11.0226 5.38676H10.5045L10.4883 3.77596C10.4802 3.33077 10.1241 2.97461 9.67888 2.97461H9.67079C9.2175 2.97461 8.86134 3.34695 8.86943 3.79215L8.88562 5.38676H7.1615L7.14531 3.79215C7.13721 3.34695 6.78106 2.9908 6.33586 2.9908H6.32777C5.88257 2.99889 5.51832 3.36314 5.52641 3.80834L5.54261 5.38676H4.99219C4.15846 5.38676 3.47852 6.06669 3.47852 6.90042V8.38171C3.47852 10.4782 5.13788 12.1942 7.21006 12.2913L7.23435 20.2158C7.23435 20.661 7.5986 21.0253 8.04379 21.0253C8.48899 21.0253 8.85324 20.661 8.85324 20.2158L8.82896 12.2913C10.893 12.178 12.5362 10.4701 12.5362 8.38171V6.90042C12.5362 6.06669 11.8563 5.38676 11.0226 5.38676ZM10.9173 8.38171C10.9173 9.64445 9.88124 10.6805 8.61041 10.6805H7.40433C6.1335 10.6805 5.09741 9.64445 5.09741 8.38171V7.00565H10.9173V8.38171Z" fill="black"/>
<path d="M22.147 19.7896H11.4785V18.1707H22.147C23.3288 18.1707 24.292 17.2075 24.292 16.0257V7.9231C24.292 7.3484 24.0654 6.80607 23.6607 6.40135C23.2559 5.99662 22.7298 5.78617 22.1389 5.77807L14.5463 5.81854V4.19965L22.1227 4.15918C23.1588 4.15918 24.0816 4.53962 24.7939 5.25193C25.5062 5.96425 25.9028 6.9113 25.9028 7.9231V16.0257C25.9028 18.0978 24.2111 19.7896 22.1389 19.7896H22.147Z" fill="black"/>
<path d="M26.7123 14.3018C26.2671 14.3018 25.9028 13.9375 25.9028 13.4923V10.4569C25.9028 10.0117 26.2671 9.64746 26.7123 9.64746C27.1575 9.64746 27.5217 10.0117 27.5217 10.4569V13.4923C27.5217 13.9375 27.1575 14.3018 26.7123 14.3018Z" fill="black"/>
</svg>
