<svg width="31" height="24" viewBox="0 0 31 24" fill="none" xmlns="http://www.w3.org/2000/svg">
<path d="M6.41569 9.79005C6.12539 10.0803 5.8951 10.4248 5.73798 10.8041C5.58087 11.1833 5.5 11.5898 5.5 12.0002C5.5 12.4107 5.58087 12.8172 5.73798 13.1964C5.8951 13.5757 6.12539 13.9202 6.41569 14.2105L13.29 21.0846C13.5802 21.3748 13.9248 21.605 14.3039 21.7621C14.6831 21.9192 15.0896 22 15.5 22C15.9104 22 16.3169 21.9192 16.6961 21.7621C17.0752 21.605 17.4198 21.3748 17.71 21.0846L24.5848 14.2095C25.1708 13.6234 25.5 12.8285 25.5 11.9998C25.5 11.171 25.1708 10.3761 24.5848 9.79005L17.7105 2.91542C17.4203 2.62519 17.0757 2.39498 16.6966 2.23791C16.3174 2.08084 15.9109 2 15.5005 2C15.0901 2 14.6836 2.08084 14.3044 2.23791C13.9253 2.39498 13.5807 2.62519 13.2905 2.91542L6.41569 9.79005ZM7.29929 13.3269C7.12511 13.1527 6.98694 12.946 6.89267 12.7185C6.7984 12.4909 6.74988 12.247 6.74988 12.0007C6.74988 11.7545 6.7984 11.5106 6.89267 11.283C6.98694 11.0555 7.12511 10.8488 7.29929 10.6746L14.1751 3.7995C14.5268 3.44788 15.0037 3.25035 15.501 3.25035C15.9983 3.25035 16.4752 3.44788 16.8269 3.7995L23.7012 10.6741C23.8754 10.8483 24.0136 11.055 24.1078 11.2825C24.2021 11.5101 24.2506 11.754 24.2506 12.0002C24.2506 12.2465 24.2021 12.4904 24.1078 12.718C24.0136 12.9455 23.8754 13.1522 23.7012 13.3264L16.8264 20.201C16.4747 20.5526 15.9978 20.7502 15.5005 20.7502C15.0032 20.7502 14.5263 20.5526 14.1746 20.201L7.29929 13.3269ZM16.8169 6.68326C16.699 6.56944 16.5411 6.50648 16.3772 6.50795C16.2133 6.50942 16.0565 6.5752 15.9407 6.69112C15.8248 6.80705 15.7591 6.96384 15.7577 7.12773C15.7564 7.29162 15.8194 7.44949 15.9333 7.56734L17.3665 8.99997H15.6253C14.7964 8.99997 14.0014 9.32924 13.4153 9.91535C12.8292 10.5015 12.4999 11.2964 12.4999 12.1253V15.3756C12.4999 15.5413 12.5658 15.7003 12.683 15.8175C12.8002 15.9348 12.9592 16.0006 13.125 16.0006C13.2908 16.0006 13.4497 15.9348 13.567 15.8175C13.6842 15.7003 13.75 15.5413 13.75 15.3756V12.1253C13.75 11.6279 13.9476 11.151 14.2993 10.7993C14.651 10.4477 15.1279 10.2501 15.6253 10.2501H17.3665L15.9333 11.6832C15.8194 11.8011 15.7564 11.959 15.7577 12.1228C15.7591 12.2867 15.8248 12.4435 15.9407 12.5594C16.0565 12.6754 16.2133 12.7411 16.3772 12.7426C16.5411 12.7441 16.699 12.6811 16.8169 12.5673L19.3172 10.0671C19.3753 10.009 19.4213 9.94012 19.4527 9.86427C19.4842 9.78842 19.5003 9.70713 19.5003 9.62503C19.5003 9.54293 19.4842 9.46164 19.4527 9.3858C19.4213 9.30995 19.3753 9.24104 19.3172 9.18299L16.8169 6.68326Z" fill="black"/>
</svg>
