<svg width="31" height="24" viewBox="0 0 31 24" fill="none" xmlns="http://www.w3.org/2000/svg">
<path d="M10.1164 19.0329C9.1196 19.0329 5.49976 14.1737 5.49976 11.8785C5.49976 9.33418 7.572 7.26196 10.1164 7.26196C12.6607 7.26196 14.7329 9.33418 14.7329 11.8785C14.7329 14.2196 11.1721 19.0329 10.1164 19.0329ZM10.1164 8.3243C8.15563 8.3243 6.56213 9.91781 6.56213 11.8785C6.56213 13.636 9.25732 17.1837 10.1229 17.8985C10.9885 17.2033 13.6772 13.6819 13.6772 11.8785C13.6772 9.91781 12.0837 8.3243 10.1229 8.3243H10.1164Z" fill="black"/>
<path d="M10.1167 14.2131C8.92316 14.2131 7.95264 13.2425 7.95264 12.049C7.95264 10.8555 8.92316 9.88501 10.1167 9.88501C11.3101 9.88501 12.2807 10.8555 12.2807 12.049C12.2807 13.2425 11.3101 14.2131 10.1167 14.2131ZM10.1167 10.9408C9.50679 10.9408 9.01497 11.4392 9.01497 12.0425C9.01497 12.6458 9.51335 13.1442 10.1167 13.1442C10.72 13.1442 11.2183 12.6458 11.2183 12.0425C11.2183 11.4392 10.72 10.9408 10.1167 10.9408Z" fill="black"/>
<path d="M20.8839 13.0654C19.8871 13.0654 16.2673 8.20619 16.2673 5.91101C16.2673 3.36665 18.3395 1.29443 20.8839 1.29443C23.4283 1.29443 25.5005 3.36665 25.5005 5.91101C25.5005 8.25209 21.9397 13.0654 20.8839 13.0654ZM20.8839 2.35677C18.9232 2.35677 17.3297 3.95028 17.3297 5.91101C17.3297 7.66846 20.0249 11.2161 20.8905 11.9309C21.7561 11.2358 24.4447 7.71437 24.4447 5.91101C24.4447 3.95028 22.8512 2.35677 20.8905 2.35677H20.8839Z" fill="black"/>
<path d="M20.8842 8.24577C19.6907 8.24577 18.7202 7.27524 18.7202 6.08175C18.7202 4.88826 19.6907 3.91772 20.8842 3.91772C22.0777 3.91772 23.0482 4.88826 23.0482 6.08175C23.0482 7.27524 22.0777 8.24577 20.8842 8.24577ZM20.8842 4.98006C20.2744 4.98006 19.7825 5.47844 19.7825 6.08175C19.7825 6.68505 20.2809 7.18343 20.8842 7.18343C21.4875 7.18343 21.9859 6.68505 21.9859 6.08175C21.9859 5.47844 21.4875 4.98006 20.8842 4.98006Z" fill="black"/>
<path d="M20.8841 13.5639C20.0053 13.5639 19.2905 14.2787 19.2905 15.1509C19.2905 15.2624 19.3037 15.3738 19.3233 15.4722L18.6873 15.846L19.0938 16.528L19.684 16.1804C19.9725 16.5214 20.4053 16.7378 20.8906 16.7378C21.7693 16.7378 22.4776 16.023 22.4776 15.1443C22.4776 14.2656 21.7628 13.5574 20.8906 13.5574L20.8841 13.5639ZM20.8841 15.9509C20.4447 15.9509 20.0906 15.5968 20.0906 15.1574C20.0906 14.7181 20.4447 14.364 20.8841 14.364C21.3234 14.364 21.6775 14.7181 21.6775 15.1574C21.6775 15.5968 21.3234 15.9509 20.8841 15.9509Z" fill="black"/>
<path d="M13.5006 19.8269L13.094 19.1383L14.9564 18.0432L15.363 18.7317L13.5006 19.8269ZM16.2941 18.1809L15.8876 17.4923L17.7499 16.3972L18.1565 17.0858L16.2941 18.1809Z" fill="black"/>
<path d="M12.5692 20.3776L12.1627 19.6891L11.3758 20.1547C11.0807 19.7743 10.6282 19.5251 10.1101 19.5251C9.23141 19.5251 8.52319 20.2399 8.52319 21.1121C8.52319 21.9843 9.23797 22.7056 10.1101 22.7056C10.9823 22.7056 11.7036 21.9908 11.7036 21.1121C11.7036 21.04 11.7037 20.9613 11.684 20.8891L12.5627 20.3711L12.5692 20.3776ZM10.1167 21.9121C9.68389 21.9121 9.32321 21.558 9.32321 21.1187C9.32321 20.6793 9.67733 20.3252 10.1167 20.3252C10.5561 20.3252 10.9101 20.6793 10.9101 21.1187C10.9101 21.558 10.5561 21.9121 10.1167 21.9121Z" fill="black"/>
</svg>
