<svg width="31" height="24" viewBox="0 0 31 24" fill="none" xmlns="http://www.w3.org/2000/svg">
<path d="M17.9113 21.9758H6.30645C5.8629 21.9758 5.5 21.6131 5.5 21.1697C5.5 20.7263 5.8629 20.3636 6.30645 20.3636H6.46775V4.63603C6.46775 3.9347 6.76612 3.2495 7.28225 2.75776C7.79838 2.26602 8.48387 2 9.20968 2H15.0161C15.7419 2 16.4274 2.26602 16.9436 2.75776C17.4597 3.2495 17.758 3.9347 17.758 4.64409V12.1088H18.8871C19.6129 12.1088 20.2903 12.3748 20.8064 12.8666C21.3306 13.3583 21.629 14.0516 21.629 14.7529V16.5909C21.629 16.8569 21.7419 17.1149 21.9435 17.3083C22.3709 17.7114 23.1452 17.7114 23.5726 17.3083C23.7742 17.1149 23.8871 16.865 23.8871 16.5909V10.0048C23.8871 9.87586 23.8629 9.74688 23.8064 9.6179C23.75 9.48892 23.6693 9.38412 23.5726 9.28738L20.2742 6.15155C19.9516 5.84522 19.9355 5.33736 20.2419 5.01491C20.5484 4.69246 21.0565 4.67634 21.379 4.98267L24.6774 8.1185C24.9355 8.36034 25.1451 8.65054 25.2822 8.98106C25.4274 9.31157 25.5 9.65014 25.5 10.0129V16.599C25.5 17.3003 25.2016 17.9936 24.6855 18.4853C23.6532 19.4688 21.8709 19.4688 20.8387 18.4853C20.3226 17.9936 20.0242 17.3083 20.0242 16.599V14.761C20.0242 14.495 19.9113 14.237 19.7097 14.0435C19.5 13.842 19.2016 13.7291 18.8952 13.7291H17.7661V20.3877H17.9274C18.371 20.3877 18.7339 20.7505 18.7339 21.1939C18.7339 21.6372 18.371 22 17.9274 22L17.9113 21.9758ZM8.08065 20.3636H16.1452V10.0371H8.08065V20.3636ZM8.08065 8.42483H16.1452V4.63603C16.1452 4.37001 16.0322 4.11205 15.8306 3.91858C15.621 3.71705 15.3226 3.60419 15.0161 3.60419H9.20968C8.90323 3.60419 8.60483 3.71705 8.39516 3.91858C8.19354 4.11205 8.08065 4.36195 8.08065 4.63603V8.42483Z" fill="black"/>
</svg>
