<svg width="31" height="24" viewBox="0 0 31 24" fill="none" xmlns="http://www.w3.org/2000/svg">
<path d="M7.45803 15.3327C7.33326 15.3327 7.20274 15.301 7.07168 15.237C6.15327 14.7898 6.08669 12.3975 6.15222 11.8266C6.15746 11.7795 6.16323 11.7288 6.16899 11.6743C6.25077 10.9173 6.40279 9.50781 7.38516 9.50781C7.63993 9.50781 8.14002 9.6754 8.20817 10.3109C8.26217 10.8147 8.22495 13.679 8.21237 14.545C8.2087 14.7845 8.10752 15.006 7.93401 15.153C7.79247 15.2724 7.63049 15.3327 7.45803 15.3327ZM7.38306 10.0365C6.87301 10.0402 6.74982 11.1821 6.69058 11.7314C6.68482 11.7869 6.67905 11.8393 6.67328 11.8874C6.58993 12.6127 6.77603 14.5059 7.29972 14.7607C7.45698 14.8374 7.53823 14.7972 7.59694 14.7475C7.65356 14.6994 7.68658 14.6227 7.68816 14.5371C7.71437 12.7681 7.72747 10.7444 7.68711 10.368C7.65618 10.0793 7.46537 10.0402 7.38254 10.0365H7.38306Z" fill="black" stroke="black" stroke-width="0.5"/>
<path d="M22.8687 9.79746C22.8461 9.74883 22.8152 9.70495 22.7775 9.66688L22.7528 9.64203C22.7125 9.60133 22.6574 9.57807 22.6003 9.57807H14.463C13.6059 8.14008 12.0432 7.17578 10.2614 7.17578H8.19708C6.0777 7.17578 4.35986 8.90824 4.35986 11.0457V13.7958C4.35986 15.9295 6.08085 17.6657 8.19708 17.6657H10.2614C12.1313 17.6657 13.7595 16.6041 14.5846 15.0472H17.2696C17.3902 15.0472 17.5002 14.979 17.5553 14.8711L18.0197 13.9518C18.0444 13.9037 18.0937 13.873 18.1476 13.873H19.1997C19.2522 13.873 19.3004 13.9021 19.3255 13.9481L19.8293 14.8791C19.8854 14.9827 19.9934 15.0472 20.1103 15.0472H22.4016C22.4745 15.0472 22.5447 15.016 22.594 14.9615C23.276 14.2119 23.4925 13.3137 23.4925 12.4741C23.4925 11.2212 23.0102 10.0993 22.8687 9.79746ZM10.2614 17.137H8.19708C6.36759 17.137 4.88407 15.6414 4.88407 13.7963V11.0457C4.88407 9.20006 6.36759 7.70445 8.19708 7.70445H10.2614C11.9148 7.70445 13.3553 8.63439 14.0992 10.0026V14.8405C13.3553 16.2081 11.9143 17.137 10.2614 17.137ZM22.2826 14.5185H20.3132C20.2628 14.5185 20.2167 14.491 20.1926 14.4461L19.6894 13.5161C19.6317 13.4104 19.5216 13.3443 19.4016 13.3443H17.939C17.8158 13.3443 17.7031 13.4141 17.647 13.5246L17.1831 14.4429C17.1595 14.4894 17.1118 14.5185 17.0599 14.5185H14.6234V11.3745H20.1475V10.8458H14.6234V10.1078H14.7408V10.1067H22.4315C22.6899 10.702 23.557 12.998 22.2826 14.5185Z" fill="black" stroke="black" stroke-width="0.5"/>
<path d="M25.3977 6.75161C24.5705 5.29935 23.4544 4.5 22.2556 4.5C21.0567 4.5 19.9406 5.29935 19.1134 6.75161C18.8314 7.24645 18.5945 7.79732 18.4058 8.39049H18.9572C19.1255 7.8946 19.3299 7.43307 19.5679 7.01489C20.2976 5.73392 21.2522 5.02867 22.2556 5.02867C23.2589 5.02867 24.2135 5.73392 24.9432 7.01489C25.6996 8.34239 26.1158 10.1129 26.1158 11.9997C26.1158 13.8866 25.6996 15.6576 24.9432 16.9846C24.2135 18.2661 23.2589 18.9713 22.2556 18.9713C21.2522 18.9713 20.2976 18.2661 19.5679 16.9846C19.4426 16.7647 19.3268 16.5326 19.2204 16.2894H18.6511C18.7884 16.6277 18.9426 16.9486 19.1134 17.2484C19.9406 18.7001 21.0567 19.5 22.2556 19.5C23.4544 19.5 24.5705 18.7001 25.3977 17.2484C26.1987 15.8421 26.6401 13.978 26.6401 11.9997C26.6401 10.0214 26.1987 8.15788 25.3977 6.75161Z" fill="black" stroke="black" stroke-width="0.5"/>
</svg>
