<svg width="31" height="24" viewBox="0 0 31 24" fill="none" xmlns="http://www.w3.org/2000/svg">
<path d="M15.4959 2C9.98317 2 5.5 6.49128 5.5 12.0041C5.5 17.5168 9.98317 22 15.4959 22C21.0087 22 25.5 17.5168 25.5 12.0041C25.5 6.49128 21.0087 2 15.4959 2ZM15.4959 3.6214C17.9362 3.6214 20.1332 4.66721 21.6654 6.33725H9.3346C10.8587 4.66721 13.0557 3.6214 15.4959 3.6214ZM8.16722 7.95055C8.16722 7.95055 8.20773 7.95865 8.22395 7.95865H22.4842C22.5977 7.95865 22.7274 7.95865 22.8328 7.95055C23.4165 8.98824 23.757 10.0989 23.8543 11.3474H7.14572C7.24301 10.1232 7.59972 8.97203 8.16722 7.95055ZM15.4959 20.3786C13.2179 20.3786 11.1506 19.4625 9.64267 17.987H21.3573C19.8413 19.4625 17.774 20.3786 15.4959 20.3786ZM22.6463 16.3656H8.35366C7.72942 15.3522 7.31598 14.2011 7.17816 12.9688H23.8219C23.684 14.2011 23.2706 15.3522 22.6463 16.3656Z" fill="black"/>
</svg>
