<svg width="31" height="24" viewBox="0 0 31 24" fill="none" xmlns="http://www.w3.org/2000/svg">
<path d="M15.5 22.0002C13.8088 22.0002 7.6731 13.732 7.6731 9.82671C7.6731 5.5129 11.1862 1.99976 15.5 1.99976C19.8138 1.99976 23.327 5.5129 23.327 9.82671C23.327 13.732 17.1912 22.0002 15.5 22.0002ZM15.5 3.63378C12.0849 3.63378 9.30712 6.41161 9.30712 9.82671C9.30712 13.2418 14.1847 19.1896 15.5164 20.2599C16.9543 19.1651 21.7011 12.9313 21.7011 9.82671C21.7011 6.41161 18.9233 3.63378 15.5082 3.63378H15.5Z" fill="black"/>
<path d="M15.4997 13.7399C13.5062 13.7399 11.8804 12.1141 11.8804 10.1206C11.8804 8.12707 13.5062 6.50122 15.4997 6.50122C17.4932 6.50122 19.1191 8.12707 19.1191 10.1206C19.1191 12.1141 17.4932 13.7399 15.4997 13.7399ZM15.4997 8.12707C14.4049 8.12707 13.5144 9.01761 13.5144 10.1124C13.5144 11.2072 14.4049 12.0977 15.4997 12.0977C16.5945 12.0977 17.4851 11.2072 17.4851 10.1124C17.4851 9.01761 16.5945 8.12707 15.4997 8.12707Z" fill="black"/>
</svg>
