<svg width="31" height="24" viewBox="0 0 31 24" fill="none" xmlns="http://www.w3.org/2000/svg">
<path d="M15.7166 22.0487V22.082C15.7166 22.082 15.7277 22.0598 15.7388 22.0487H15.7166Z" fill="black"/>
<path d="M15.5041 1.91797C9.9913 1.91797 5.5 6.40925 5.5 11.922C5.5 17.4348 9.9913 21.918 15.5041 21.918C21.0168 21.918 25.5 17.4348 25.5 11.922C25.5 6.40925 21.0168 1.91797 15.5041 1.91797ZM7.1214 11.922C7.1214 8.38736 9.32652 5.35534 12.4315 4.12308C11.2965 5.51748 10.0886 7.55234 9.69945 10.1871C9.08332 14.3866 10.8993 17.751 12.3342 19.6723C9.27788 18.4238 7.1214 15.4161 7.1214 11.922ZM14.8474 20.1101C14.0853 19.3643 10.5426 15.6107 11.3046 10.4222C11.7829 7.16321 13.7205 4.93378 14.8474 3.90419V20.1101ZM16.5823 20.1263C16.5823 20.1263 16.5093 20.1993 16.485 20.2398C16.4769 20.2479 16.4688 20.256 16.4688 20.2641V3.73394C16.5012 3.79069 16.5417 3.84744 16.5985 3.89608C17.7173 4.92567 19.663 7.1551 20.1413 10.4222C20.9114 15.6512 17.3119 19.421 16.5823 20.1263ZM19.3549 19.348C20.7412 17.3861 22.3302 14.1596 21.7465 10.1871C21.3897 7.74691 20.3196 5.80933 19.2738 4.43925C22.0059 5.82555 23.8786 8.65489 23.8786 11.922C23.8786 15.1891 22.0383 17.9536 19.3549 19.348Z" fill="black"/>
</svg>
