<svg width="31" height="24" viewBox="0 0 31 24" fill="none" xmlns="http://www.w3.org/2000/svg">
<path d="M10.5983 14.9152L13.7584 12.1212V20.5M20.2858 17.7076L17.1241 20.5V12.1212M10.4956 18.1177C9.1572 18.1772 7.84868 17.7105 6.85005 16.8175C5.85141 15.9244 5.24198 14.676 5.15217 13.3393C5.06236 12.0026 5.4993 10.6839 6.36949 9.66528C7.23969 8.64668 8.474 8.00913 9.80831 7.88908C9.87821 7.89024 9.947 7.87155 10.0067 7.83516C10.0664 7.79878 10.1145 7.7462 10.1455 7.68354C10.6092 6.34099 11.519 5.19791 12.7233 4.44484C13.9276 3.69178 15.3536 3.37423 16.7636 3.54514C18.1737 3.71604 19.4826 4.36506 20.4721 5.38403C21.4616 6.40299 22.072 7.73032 22.2015 9.14477C22.2131 9.21892 22.2453 9.28831 22.2944 9.34508C22.3435 9.40185 22.4076 9.44371 22.4793 9.46592C23.3701 9.67544 24.1731 10.1585 24.7755 10.8474C25.378 11.5364 25.7497 12.3965 25.8386 13.3074C25.9275 14.2182 25.7291 15.1341 25.2712 15.9265C24.8133 16.7189 24.1189 17.3481 23.2853 17.7259" stroke="black" stroke-width="1.2" stroke-linecap="round" stroke-linejoin="round"/>
</svg>
