<svg width="31" height="24" viewBox="0 0 31 24" fill="none" xmlns="http://www.w3.org/2000/svg">
<path d="M25.9119 12.8328L24.2378 13.4162V13.4331C24.2378 15.6229 23.4346 17.6943 21.9635 19.3091H9.0363C7.56518 17.6943 6.76198 15.6229 6.76198 13.4331C6.76198 8.61392 10.6765 4.69094 15.4957 4.69094C17.9814 4.69094 20.2303 5.73932 21.8282 7.41335L23.553 6.82152C21.6423 4.48803 18.7338 3 15.4957 3C9.7465 3 5.07104 7.6839 5.07104 13.4331C5.07104 16.1893 6.13635 18.7849 8.07248 20.7464L8.31764 21H22.6822L22.9273 20.7464C24.8635 18.7849 25.9288 16.1893 25.9288 13.4331C25.9288 13.2302 25.9288 13.0357 25.9119 12.8328Z" fill="black"/>
<path d="M25.8021 9.45963L25.2609 9.75555L23.7476 10.5587L16.2398 14.5832C14.16 15.5808 12.9509 12.3258 15.183 11.7255L23.4855 9.89082L25.168 9.51882L25.7767 9.38354C25.819 9.37509 25.8443 9.44272 25.8021 9.45963Z" fill="black"/>
</svg>
