<svg width="25" height="24" viewBox="0 0 25 24" fill="none" xmlns="http://www.w3.org/2000/svg">
<path d="M6.13608 18.364C5.30034 17.5283 4.63739 16.5361 4.18509 15.4442C3.7328 14.3522 3.5 13.1819 3.5 12C3.5 10.8181 3.7328 9.64775 4.18509 8.55581C4.63739 7.46387 5.30034 6.47172 6.13608 5.63599M18.8641 5.63599C19.6998 6.47172 20.3628 7.46387 20.8151 8.55581C21.2674 9.64775 21.5002 10.8181 21.5002 12C21.5002 13.1819 21.2674 14.3522 20.8151 15.4442C20.3628 16.5361 19.6998 17.5283 18.8641 18.364M8.96408 15.536C8.49965 15.0717 8.13123 14.5204 7.87987 13.9137C7.62852 13.307 7.49915 12.6567 7.49915 12C7.49915 11.3433 7.62852 10.693 7.87987 10.0863C8.13123 9.47955 8.49965 8.9283 8.96408 8.46399M16.0361 8.46399C16.5005 8.9283 16.8689 9.47955 17.1203 10.0863C17.3716 10.693 17.501 11.3433 17.501 12C17.501 12.6567 17.3716 13.307 17.1203 13.9137C16.8689 14.5204 16.5005 15.0717 16.0361 15.536M13.5001 12C13.5001 12.2652 13.3947 12.5196 13.2072 12.7071C13.0196 12.8946 12.7653 13 12.5001 13C12.2349 13 11.9805 12.8946 11.793 12.7071C11.6054 12.5196 11.5001 12.2652 11.5001 12C11.5001 11.7348 11.6054 11.4804 11.793 11.2929C11.9805 11.1053 12.2349 11 12.5001 11C12.7653 11 13.0196 11.1053 13.2072 11.2929C13.3947 11.4804 13.5001 11.7348 13.5001 12Z" stroke="black" stroke-width="1.5" stroke-linecap="round" stroke-linejoin="round"/>
</svg>
