<svg width="31" height="24" viewBox="0 0 31 24" fill="none" xmlns="http://www.w3.org/2000/svg">
<path d="M11.9405 5.59369C11.9405 4.63861 12.3178 3.724 12.9842 3.05221C13.6507 2.38041 14.566 2 15.5054 2C16.4448 2 17.3602 2.38041 18.0266 3.05221C18.693 3.724 19.0704 4.63861 19.0704 5.59369V13.4367C19.7609 14.1489 20.2266 15.0393 20.4112 16.0186C20.5959 16.9899 20.4916 18.0016 20.1062 18.9162C19.7288 19.8308 19.0864 20.6079 18.2675 21.1582C17.4485 21.7086 16.485 22 15.4974 22C14.5098 22 13.5543 21.7086 12.7273 21.1582C11.9084 20.6079 11.266 19.8308 10.8886 18.9162C10.5113 18.0016 10.4069 16.9899 10.5835 16.0186C10.7682 15.0473 11.2339 14.1489 11.9244 13.4367V5.59369H11.9405ZM15.5135 3.44071C14.9434 3.44071 14.3974 3.66734 13.9959 4.07204C13.5945 4.47673 13.3697 5.02711 13.3697 5.60178V14.0761L13.1288 14.2946C12.5908 14.7803 12.2134 15.4197 12.0368 16.1319C11.8682 16.8442 11.9164 17.5807 12.1733 18.2687C12.4302 18.9567 12.8879 19.5395 13.4821 19.9522C14.0762 20.365 14.7828 20.5836 15.5054 20.5836C16.228 20.5836 16.9346 20.365 17.5288 19.9522C18.1229 19.5395 18.5806 18.9567 18.8375 18.2687C19.0945 17.5888 19.1426 16.8442 18.974 16.1319C18.8054 15.4197 18.42 14.7803 17.8821 14.2946L17.6412 14.0761V5.60178C17.6412 5.02711 17.4164 4.47673 17.0149 4.07204C16.6135 3.66734 16.0675 3.44071 15.4974 3.44071H15.5135ZM16.228 9.19547C16.228 9.00121 16.1558 8.82315 16.0193 8.68555C15.8828 8.54796 15.7062 8.47511 15.5135 8.47511C15.3208 8.47511 15.1441 8.54796 15.0076 8.68555C14.8711 8.82315 14.7988 9.00121 14.7988 9.19547V15.0797C14.3251 15.2497 13.9237 15.5815 13.6667 16.0267C13.4098 16.4638 13.3215 16.9818 13.4018 17.4836C13.4821 17.9854 13.747 18.4387 14.1324 18.7705C14.5178 19.1024 15.0076 19.2805 15.5135 19.2805C16.0193 19.2805 16.5091 19.1024 16.8945 18.7705C17.2799 18.4387 17.5368 17.9854 17.6251 17.4836C17.7135 16.9818 17.6251 16.4638 17.3602 16.0267C17.1032 15.5896 16.7018 15.2497 16.228 15.0797V9.19547Z" fill="black"/>
</svg>
