<svg width="31" height="24" viewBox="0 0 31 24" fill="none" xmlns="http://www.w3.org/2000/svg">
<path d="M15.504 2C9.99126 2 5.5 6.49126 5.5 12.004C5.5 17.5167 9.99126 21.9999 15.504 21.9999C21.0167 21.9999 25.4999 17.5167 25.4999 12.004C25.4999 6.49126 21.0167 2 15.504 2ZM15.504 20.3785C10.883 20.3785 7.12139 16.625 7.12139 12.004C7.12139 7.38303 10.883 3.62139 15.504 3.62139C20.125 3.62139 23.8785 7.38303 23.8785 12.004C23.8785 16.625 20.1169 20.3785 15.504 20.3785Z" fill="black"/>
<path d="M19.7604 15.3521C19.6226 15.6277 19.3389 15.7898 19.0389 15.7898C18.9173 15.7898 18.7876 15.7574 18.6741 15.7007L14.5314 13.5685C14.5314 13.5685 14.4666 13.5361 14.4422 13.5037C14.4017 13.4794 14.3612 13.4388 14.3206 13.4064C14.2882 13.374 14.2558 13.3334 14.2234 13.2848C14.2072 13.2605 14.1909 13.2361 14.1828 13.2118C14.1585 13.1632 14.1342 13.1145 14.1261 13.0659C14.0937 12.9929 14.0855 12.9119 14.0855 12.8308L14.0693 8.1774C14.0693 7.73151 14.4341 7.3667 14.88 7.3667C15.3259 7.3667 15.6907 7.72341 15.6907 8.16929L15.7069 12.3525L19.4118 14.2576C19.8091 14.4603 19.9631 14.9548 19.7604 15.3521Z" fill="black"/>
</svg>
