<svg width="31" height="24" viewBox="0 0 31 24" fill="none" xmlns="http://www.w3.org/2000/svg">
<path d="M8.34014 12.0577C7.43318 12.0577 4.38672 7.95315 4.38672 5.959C4.38672 3.7788 6.15994 1.99976 8.34014 1.99976C10.5203 1.99976 12.2994 3.77298 12.2994 5.959C12.2994 7.95315 9.25292 12.0577 8.34014 12.0577ZM8.34014 2.98811C6.70063 2.98811 5.36926 4.31949 5.36926 5.95318C5.36926 7.46479 7.6076 10.3543 8.34596 10.988C9.09595 10.3543 11.311 7.41828 11.311 5.95318C11.311 4.31949 9.97965 2.98811 8.34014 2.98811Z" fill="black"/>
<path d="M8.34032 7.97705C7.30529 7.97705 6.46216 7.13391 6.46216 6.09888C6.46216 5.06385 7.30529 4.2207 8.34032 4.2207C9.37535 4.2207 10.2185 5.06385 10.2185 6.09888C10.2185 7.13391 9.37535 7.97705 8.34032 7.97705ZM8.34032 5.2034C7.85188 5.2034 7.45068 5.60462 7.45068 6.09306C7.45068 6.5815 7.85188 6.98272 8.34032 6.98272C8.82876 6.98272 9.23 6.5815 9.23 6.09306C9.23 5.60462 8.82876 5.2034 8.34032 5.2034Z" fill="black"/>
<path d="M8.34025 15.8548C7.43896 15.8548 6.7063 15.1222 6.7063 14.2209C6.7063 13.3196 7.43896 12.5869 8.34025 12.5869C9.24154 12.5869 9.9742 13.3196 9.9742 14.2209C9.9742 15.1222 9.24154 15.8548 8.34025 15.8548ZM8.34025 13.5812C7.98555 13.5812 7.69482 13.872 7.69482 14.2267C7.69482 14.5814 7.98555 14.8721 8.34025 14.8721C8.69495 14.8721 8.98568 14.5814 8.98568 14.2267C8.98568 13.872 8.69495 13.5812 8.34025 13.5812Z" fill="black"/>
<path d="M22.6541 18.203C21.7471 18.203 18.7007 14.0984 18.7007 12.1043C18.7007 9.92406 20.4739 8.14502 22.6541 8.14502C24.8343 8.14502 26.6133 9.91825 26.6133 12.1043C26.6133 14.0984 23.5669 18.203 22.6541 18.203ZM22.6541 9.13338C21.0146 9.13338 19.6832 10.4648 19.6832 12.0984C19.6832 13.61 21.9216 16.4995 22.6599 17.1333C23.4099 16.4995 25.625 13.5635 25.625 12.0984C25.625 10.4648 24.2936 9.13338 22.6541 9.13338Z" fill="black"/>
<path d="M22.6545 14.1221C21.6195 14.1221 20.7764 13.2789 20.7764 12.2439C20.7764 11.2089 21.6195 10.3657 22.6545 10.3657C23.6896 10.3657 24.5327 11.2089 24.5327 12.2439C24.5327 13.2789 23.6896 14.1221 22.6545 14.1221ZM22.6545 11.3484C22.1661 11.3484 21.7649 11.7496 21.7649 12.2381C21.7649 12.7265 22.1661 13.1277 22.6545 13.1277C23.143 13.1277 23.5442 12.7265 23.5442 12.2381C23.5442 11.7496 23.143 11.3484 22.6545 11.3484Z" fill="black"/>
<path d="M22.6545 22.0003C21.7532 22.0003 21.0205 21.2677 21.0205 20.3664C21.0205 19.4651 21.7532 18.7324 22.6545 18.7324C23.5557 18.7324 24.2884 19.4651 24.2884 20.3664C24.2884 21.2677 23.5557 22.0003 22.6545 22.0003ZM22.6545 19.7267C22.2998 19.7267 22.009 20.0175 22.009 20.3722C22.009 20.7269 22.2998 21.0176 22.6545 21.0176C23.0092 21.0176 23.2999 20.7269 23.2999 20.3722C23.2999 20.0175 23.0092 19.7267 22.6545 19.7267Z" fill="black"/>
<path d="M21.5549 20.9184H10.8923C9.90974 20.9184 9.10742 20.116 9.10742 19.1335C9.10742 18.151 9.90974 17.3486 10.8923 17.3486H12.9271C13.6539 17.3486 14.2411 16.7614 14.2411 16.0347C14.2411 15.308 13.6539 14.7208 12.9271 14.7208H9.47952V13.7324H12.9271C14.1946 13.7324 15.2294 14.7673 15.2294 16.0347C15.2294 17.3021 14.1946 18.337 12.9271 18.337H10.8923C10.4504 18.337 10.0958 18.6975 10.0958 19.1335C10.0958 19.5695 10.4562 19.93 10.8923 19.93H21.5549V20.9184Z" fill="black"/>
</svg>
