<svg width="26" height="25" viewBox="0 0 26 25" fill="none" xmlns="http://www.w3.org/2000/svg">
<g clip-path="url(#clip0_488_608)">
<path d="M25.8248 10.2636C25.7357 9.71511 25.35 9.26052 24.8288 9.08399C23.1768 8.52409 21.9862 6.9444 21.9862 5.08514C21.9862 4.7442 22.0266 4.41235 22.1015 4.09566C22.2325 3.54561 22.0513 2.9698 21.6335 2.59401C20.4443 1.52421 19.0589 0.671861 17.5395 0.099082C16.9801 -0.111543 16.3429 0.0157412 15.9242 0.445326C15.1776 1.20979 14.1442 1.68786 13 1.69923C11.8558 1.68786 10.8223 1.20979 10.0757 0.445326C9.65714 0.0157412 9.01987 -0.111543 8.46048 0.099082C6.94107 0.671861 5.5557 1.52421 4.36653 2.59401C3.94867 2.9698 3.76745 3.54561 3.8985 4.09566C3.97339 4.41235 4.01382 4.7442 4.01382 5.08514C4.01382 6.9444 2.82316 8.52409 1.1712 9.08399C0.65 9.26052 0.264343 9.71511 0.17523 10.2636C0.0599078 10.9675 0 11.6903 0 12.4282C0 13.52 0.131048 14.5807 0.378917 15.5952C0.500979 16.0922 0.872408 16.4816 1.35167 16.6483C2.98715 17.2173 4.16359 18.7879 4.16359 20.6373C4.16359 20.8176 4.15236 20.9957 4.13064 21.1699C4.06699 21.676 4.26319 22.1814 4.6496 22.5095C5.89793 23.5686 7.3462 24.3952 8.92851 24.9225C9.39055 25.0764 9.90276 24.9991 10.2892 24.6998C10.9908 24.1581 11.867 23.8361 12.818 23.8361C12.8794 23.8361 12.9401 23.8376 13 23.8399C13.0599 23.8376 13.1206 23.8361 13.182 23.8361C14.133 23.8361 15.0092 24.1581 15.7108 24.6998C16.0972 24.9991 16.6094 25.0764 17.0715 24.9225C18.6538 24.3952 20.1021 23.5686 21.3504 22.5095C21.7368 22.1814 21.933 21.676 21.8694 21.1699C21.8476 20.9957 21.8364 20.8176 21.8364 20.6373C21.8364 18.7879 23.0128 17.2173 24.6483 16.6483C25.1276 16.4816 25.499 16.0922 25.6211 15.5952C25.8689 14.5807 26 13.52 26 12.4282C26 11.6903 25.9401 10.9675 25.8248 10.2636ZM17.3478 12.5722C17.2752 14.8762 15.4203 16.7529 13.143 16.8271C13.0951 16.8286 13.0479 16.8294 13 16.8294C12.9521 16.8294 12.9049 16.8286 12.857 16.8271C10.5797 16.7529 8.72483 14.8762 8.65219 12.5722C8.57281 10.0757 10.5498 8.02632 13 8.02707C15.4502 8.02632 17.4272 10.0757 17.3478 12.5722Z" fill="#126CC0"/>
</g>
<defs>
<clipPath id="clip0_488_608">
<rect width="26" height="25" fill="white"/>
</clipPath>
</defs>
</svg>
