<svg width="26" height="29" viewBox="0 0 26 29" fill="none" xmlns="http://www.w3.org/2000/svg">
<g clip-path="url(#clip0_80_745)">
<path d="M25.375 24.1718C25.375 25.5555 23.9896 26.8096 21.4737 27.7031C19.1192 28.5397 15.9987 29 12.6879 29C9.37699 29 6.25583 28.5397 3.90199 27.7031C1.38545 26.8096 0 25.5555 0 24.1718C0 23.1749 0.732511 22.2194 2.11867 21.4092C3.36841 20.6788 5.08068 20.0974 7.07004 19.7283L7.37982 19.6706L11.6783 25.6403C11.9532 25.9781 12.3156 26.1669 12.7006 26.1712C13.0829 26.1754 13.4573 25.9916 13.75 25.651L18.0264 19.6884L18.3369 19.7461C20.3234 20.1166 22.0286 20.6952 23.2684 21.4199C24.6468 22.2251 25.375 23.1763 25.375 24.1718Z" fill="#126CC0"/>
<path d="M12.6871 0C7.57378 0 3.41318 4.17268 3.41318 9.3016C3.41318 10.9398 3.84373 12.5508 4.65866 13.9602L4.66932 13.9773C4.8853 14.3507 5.13042 14.7113 5.39685 15.0504L11.669 24.2958C11.8978 24.6342 12.2779 24.8366 12.6857 24.8373H12.6886C13.0957 24.8373 13.4765 24.6364 13.7067 24.2986L20.2332 14.7098L20.2403 14.7006C21.3664 13.1187 21.9618 11.2518 21.9618 9.3016C21.9618 4.17268 17.8012 0 12.6871 0ZM12.6871 12.5138C10.9209 12.5138 9.48428 11.073 9.48428 9.3016C9.48428 7.53021 10.9209 6.08872 12.6871 6.08872C14.4534 6.08872 15.8907 7.53021 15.8907 9.3016C15.8907 11.073 14.4534 12.5138 12.6871 12.5138Z" fill="#126CC0"/>
</g>
<defs>
<clipPath id="clip0_80_745">
<rect width="25.375" height="29" fill="white"/>
</clipPath>
</defs>
</svg>
