<svg width="24" height="30" viewBox="0 0 24 30" fill="none" xmlns="http://www.w3.org/2000/svg">
<g clip-path="url(#clip0_488_539)">
<path d="M0.3018 23.6516C0.672665 24.2736 1.31963 24.6444 2.03032 24.6444H21.9696C22.695 24.6444 23.3477 24.262 23.7161 23.6219C24.0927 22.9661 24.0951 22.1822 23.7243 21.5239L21.9696 18.4117C21.816 18.0639 21.7352 17.6807 21.7368 17.3016L21.7629 10.128C21.7629 7.37838 20.7132 4.80714 18.8058 2.88593C16.958 1.0242 14.5188 0 11.935 0H11.9007C6.50112 0.0198232 2.10793 4.6089 2.10793 10.2296V17.3453C2.10793 17.7278 2.02542 18.1118 1.86858 18.4587L0.241348 21.5867C-0.100109 22.2442 -0.0780506 23.0164 0.3018 23.6516Z" fill="#126CC0"/>
<path d="M8.42454 25.8065V26.3847C8.42454 28.3778 10.0281 30 12 30C13.972 30 15.5747 28.3778 15.5747 26.3847V25.8065H8.42454Z" fill="#126CC0"/>
</g>
<defs>
<clipPath id="clip0_488_539">
<rect width="24" height="30" fill="white" transform="matrix(-1 0 0 1 24 0)"/>
</clipPath>
</defs>
</svg>
