<svg width="31" height="28" viewBox="0 0 31 28" fill="none" xmlns="http://www.w3.org/2000/svg">
<g clip-path="url(#clip0_87_1329)">
<path d="M30.8 8.88823V25.7524C30.8 26.9916 29.8035 28 28.5788 28H2.2212C0.995502 28 0 26.9916 0 25.7524V8.88823C0 7.64898 0.995502 6.64062 2.2212 6.64062H28.5788C29.8035 6.64062 30.8 7.64898 30.8 8.88823Z" fill="#126CC0"/>
<path d="M26.2607 3.33871H3.52366C3.12999 3.33871 2.81085 3.66164 2.81085 4.05999C2.81085 4.45834 3.12999 4.78127 3.52366 4.78127H26.2607C26.6544 4.78127 26.9735 4.45834 26.9735 4.05999C26.9735 3.66164 26.6544 3.33871 26.2607 3.33871Z" fill="#126CC0"/>
<path d="M23.8547 0H5.9296C5.53593 0 5.2168 0.322926 5.2168 0.721276C5.2168 1.11963 5.53593 1.44255 5.9296 1.44255H23.8547C24.2484 1.44255 24.5675 1.11963 24.5675 0.721276C24.5675 0.322926 24.2484 0 23.8547 0Z" fill="#126CC0"/>
</g>
<defs>
<clipPath id="clip0_87_1329">
<rect width="30.8" height="28" fill="white"/>
</clipPath>
</defs>
</svg>
