<svg width="24" height="29" viewBox="0 0 24 29" fill="none" xmlns="http://www.w3.org/2000/svg">
<g clip-path="url(#clip0_87_1333)">
<path d="M21.9695 23.8236H2.03172C1.30635 23.8236 0.653684 23.4539 0.285283 22.8343C-0.0912869 22.2011 -0.0945543 21.4426 0.276298 20.8062L2.0309 17.7968C2.18447 17.4623 2.26534 17.0926 2.2637 16.7245L2.23757 9.7899C2.23757 7.13183 3.28804 4.64623 5.19458 2.78901C7.0423 0.990088 9.48061 0 12.0651 0C12.0766 0 12.088 0 12.1003 0C17.4997 0.0183645 21.8927 4.4546 21.8927 9.8889V16.7676C21.8927 17.1373 21.9752 17.5094 22.1321 17.8439L23.7592 20.8669C24.1015 21.5025 24.0794 22.249 23.6996 22.8638C23.3279 23.4651 22.6818 23.8236 21.9711 23.8236H21.9695ZM12.0651 1.11784C9.78612 1.11784 7.63371 1.99215 6.00163 3.58108C4.31156 5.22671 3.38116 7.43125 3.38116 9.7883L3.4073 16.7213C3.40893 17.2587 3.28886 17.8 3.06014 18.2863L3.03727 18.3294L1.26959 21.3604C1.10295 21.647 1.10377 21.9879 1.27368 22.273C1.43705 22.5485 1.71314 22.7058 2.0309 22.7058H21.9695C22.2807 22.7058 22.5544 22.5525 22.7194 22.2858C22.8901 22.0095 22.8999 21.6733 22.7463 21.3867L21.0996 18.3254C20.87 17.8407 20.7491 17.3018 20.7491 16.7668V9.88811C20.7491 5.06861 16.8674 1.13381 12.0962 1.11704C12.0864 1.11704 12.0758 1.11704 12.0651 1.11704V1.11784Z" fill="#535353"/>
<path d="M12.0004 29C10.0294 29 8.42505 27.4326 8.42505 25.5051V24.9462H15.575V25.5051C15.575 27.4318 13.9715 29 11.9996 29H12.0004ZM9.63644 26.0641C9.89457 27.1061 10.856 27.8822 12.0004 27.8822C13.1448 27.8822 14.1063 27.1061 14.3644 26.0641H9.63726H9.63644Z" fill="#535353"/>
</g>
<defs>
<clipPath id="clip0_87_1333">
<rect width="24" height="29" fill="white"/>
</clipPath>
</defs>
</svg>
