<svg width="31" height="28" viewBox="0 0 31 28" fill="none" xmlns="http://www.w3.org/2000/svg">
<g clip-path="url(#clip0_231_282)">
<path d="M28.7644 28H2.23563C1.00298 28 0 26.9916 0 25.7524V8.88823C0 7.64898 1.00298 6.64062 2.23563 6.64062H28.7644C29.997 6.64062 31 7.64898 31 8.88823V25.7514C31 26.9906 29.997 27.999 28.7644 27.999V28ZM2.23563 8.07092C1.78748 8.07092 1.42267 8.43768 1.42267 8.88823V25.7514C1.42267 26.2019 1.78748 26.5687 2.23563 26.5687H28.7644C29.2125 26.5687 29.5773 26.2019 29.5773 25.7514V8.88823C29.5773 8.43768 29.2125 8.07092 28.7644 8.07092H2.23563Z" fill="#535353"/>
<path d="M26.4322 3.33871H3.54751C3.15128 3.33871 2.83008 3.66164 2.83008 4.05999C2.83008 4.45834 3.15128 4.78127 3.54751 4.78127H26.4322C26.8284 4.78127 27.1496 4.45834 27.1496 4.05999C27.1496 3.66164 26.8284 3.33871 26.4322 3.33871Z" fill="#535353"/>
<path d="M24.0104 0H5.9689C5.57267 0 5.25146 0.322926 5.25146 0.721276C5.25146 1.11963 5.57267 1.44255 5.9689 1.44255H24.0104C24.4066 1.44255 24.7278 1.11963 24.7278 0.721276C24.7278 0.322926 24.4066 0 24.0104 0Z" fill="#535353"/>
</g>
<defs>
<clipPath id="clip0_231_282">
<rect width="31" height="28" fill="white"/>
</clipPath>
</defs>
</svg>
