<svg width="26" height="29" viewBox="0 0 26 29" fill="none" xmlns="http://www.w3.org/2000/svg">
<g clip-path="url(#clip0_87_1325)">
<path d="M12.656 5.12122C10.3288 5.12122 8.43451 7.02062 8.43451 9.35653C8.43451 11.6924 10.3288 13.5911 12.656 13.5911C14.9833 13.5911 16.8783 11.691 16.8783 9.35653C16.8783 7.02206 14.9847 5.12122 12.656 5.12122ZM12.656 12.5877C10.8804 12.5877 9.43487 11.1377 9.43487 9.35653C9.43487 7.57539 10.8804 6.12468 12.656 6.12468C14.4317 6.12468 15.8779 7.57396 15.8779 9.35653C15.8779 11.1391 14.4331 12.5877 12.656 12.5877ZM12.656 5.12122C10.3288 5.12122 8.43451 7.02062 8.43451 9.35653C8.43451 11.6924 10.3288 13.5911 12.656 13.5911C14.9833 13.5911 16.8783 11.691 16.8783 9.35653C16.8783 7.02206 14.9847 5.12122 12.656 5.12122ZM12.656 12.5877C10.8804 12.5877 9.43487 11.1377 9.43487 9.35653C9.43487 7.57539 10.8804 6.12468 12.656 6.12468C14.4317 6.12468 15.8779 7.57396 15.8779 9.35653C15.8779 11.1391 14.4331 12.5877 12.656 12.5877ZM12.656 5.12122C10.3288 5.12122 8.43451 7.02062 8.43451 9.35653C8.43451 11.6924 10.3288 13.5911 12.656 13.5911C14.9833 13.5911 16.8783 11.691 16.8783 9.35653C16.8783 7.02206 14.9847 5.12122 12.656 5.12122ZM12.656 12.5877C10.8804 12.5877 9.43487 11.1377 9.43487 9.35653C9.43487 7.57539 10.8804 6.12468 12.656 6.12468C14.4317 6.12468 15.8779 7.57396 15.8779 9.35653C15.8779 11.1391 14.4331 12.5877 12.656 12.5877Z" fill="#231F20"/>
<path d="M22.7097 21.0418C21.2206 20.3509 19.2634 19.8391 17.0112 19.5496L20.2459 14.7967L20.2524 14.7874C21.3849 13.1962 21.9837 11.3176 21.9837 9.35655C21.9837 4.19733 17.7993 0 12.656 0C7.51273 0 3.32907 4.19733 3.32907 9.35655C3.32907 11.0044 3.7628 12.625 4.58238 14.0427L4.58953 14.0549C4.80818 14.4319 5.05541 14.7967 5.32479 15.1393L8.33232 19.5739C3.24189 20.2563 0 22.0166 0 24.1433C0 25.5352 1.39408 26.7967 3.92428 27.6955C6.29229 28.537 9.43057 29 12.7604 29C16.0901 29 19.2291 28.5363 21.5964 27.6955C24.1266 26.7967 25.52 25.5352 25.52 24.1433C25.52 23.3233 25.0327 22.1191 22.7097 21.0418ZM6.14152 14.5602L6.12008 14.5308C5.87357 14.219 5.64777 13.8857 5.44913 13.5417L5.44198 13.5295C4.71457 12.2666 4.32943 10.8238 4.32943 9.35655C4.32943 4.75067 8.06508 1.00346 12.656 1.00346C17.247 1.00346 20.9833 4.75067 20.9833 9.35655C20.9833 11.1026 20.4524 12.7748 19.4464 14.1925L12.8561 23.8752C12.7939 23.9669 12.7053 23.9805 12.6575 23.9805H12.6567C12.6096 23.9805 12.5217 23.9669 12.4595 23.8752L6.14152 14.5602ZM12.7604 27.9965C5.82998 27.9965 1.00036 25.9652 1.00036 24.1433C1.00036 23.4079 1.7735 22.6388 3.17758 21.9772C4.62525 21.2949 6.671 20.7752 8.96398 20.5057L11.6321 24.4393C11.8629 24.7797 12.2452 24.9833 12.6553 24.984H12.6575C13.0669 24.984 13.4499 24.7819 13.6821 24.4414L16.3752 20.4842C18.714 20.7451 20.8047 21.2633 22.2903 21.9521C23.7279 22.6194 24.5196 23.3978 24.5196 24.1433C24.5196 25.9652 19.6907 27.9965 12.7604 27.9965Z" fill="#231F20"/>
</g>
<defs>
<clipPath id="clip0_87_1325">
<rect width="25.52" height="29" fill="white"/>
</clipPath>
</defs>
</svg>
