<svg width="27" height="26" viewBox="0 0 27 26" fill="none" xmlns="http://www.w3.org/2000/svg">
<g clip-path="url(#clip0_87_1336)">
<path d="M9.91141 26C9.69838 26 9.48236 25.966 9.27307 25.8964C7.64434 25.3537 6.14941 24.511 4.82938 23.3916C4.30391 22.9456 4.0423 22.2699 4.12826 21.5828C4.14695 21.4302 4.15666 21.2737 4.15666 21.118C4.15666 19.5473 3.17075 18.149 1.70273 17.6388C1.04645 17.4106 0.556863 16.8784 0.393915 16.2156C0.132302 15.1468 0 14.041 0 12.9284C0 12.1748 0.0612923 11.419 0.181634 10.682C0.301977 9.94054 0.816981 9.32981 1.52558 9.09021C3.0093 8.58757 4.00568 7.18623 4.00568 5.60274C4.00568 5.31174 3.97204 5.02149 3.90477 4.7388C3.72911 4.00185 3.9698 3.22862 4.53339 2.72221C5.78988 1.59448 7.22053 0.72375 8.78722 0.133434C9.54665 -0.152276 10.398 0.0321506 10.9549 0.602814C11.6328 1.29668 12.5373 1.68519 13.5015 1.69577C14.465 1.68519 15.3694 1.29668 16.0481 0.602059C16.605 0.0313947 17.4556 -0.153032 18.215 0.132678C19.7817 0.722994 21.2124 1.59448 22.4666 2.72221C23.0302 3.22862 23.2709 4.00185 23.0945 4.73956C23.028 5.02149 22.9943 5.31174 22.9943 5.60274C22.9943 7.18623 23.9907 8.58757 25.4744 9.09021C26.1823 9.32981 26.6973 9.93978 26.8184 10.682C26.9387 11.4182 27 12.1741 27 12.9284C27 14.041 26.8677 15.1468 26.6068 16.2148C26.4439 16.8784 25.9543 17.4106 25.298 17.6388C23.8307 18.149 22.8441 19.5473 22.8441 21.118C22.8441 21.2737 22.8538 21.4302 22.8725 21.5828C22.9592 22.2691 22.6968 22.9449 22.1714 23.3908C20.8513 24.5102 19.3564 25.353 17.7277 25.8957C17.0938 26.1066 16.4062 25.9924 15.8874 25.5911C15.2498 25.099 14.4867 24.8383 13.6816 24.8383C13.6271 24.8383 13.5733 24.8398 13.5194 24.842H13.5H13.4806C13.4275 24.8398 13.3737 24.8383 13.3184 24.8383C12.5133 24.8383 11.7502 25.099 11.1118 25.5911C10.765 25.8594 10.3427 25.9992 9.91141 25.9992V26ZM9.51525 1.05859C9.39416 1.05859 9.27083 1.08051 9.15198 1.1251C7.70713 1.66931 6.38785 2.47278 5.23077 3.51358C4.95645 3.75998 4.8391 4.13488 4.92431 4.4924C5.01027 4.85672 5.05362 5.2301 5.05362 5.60349C5.05362 7.64276 3.77022 9.44697 1.85895 10.0947C1.5196 10.2096 1.27219 10.5014 1.21463 10.8559C1.10326 11.5361 1.04645 12.2338 1.04645 12.9299C1.04645 13.9571 1.16829 14.9775 1.40972 15.9624C1.48671 16.2753 1.72366 16.5285 2.04283 16.6396C3.93317 17.2964 5.20237 19.0969 5.20237 21.1195C5.20237 21.319 5.18966 21.5201 5.165 21.7174C5.12389 22.0462 5.24871 22.3689 5.49986 22.5821C6.71748 23.6145 8.09656 24.3923 9.59822 24.8919C9.90319 24.9932 10.2306 24.9411 10.475 24.7521C11.298 24.1172 12.2809 23.7816 13.3169 23.7816C13.3782 23.7816 13.4387 23.7831 13.4985 23.7854C13.5583 23.7831 13.6188 23.7816 13.6801 23.7816C14.7169 23.7816 15.699 24.1172 16.522 24.7513C16.7664 24.9411 17.0946 24.9932 17.3995 24.8919C18.9012 24.3916 20.2803 23.6145 21.4979 22.5821C21.749 22.3689 21.8746 22.0462 21.8328 21.7181C21.8081 21.5209 21.7954 21.3198 21.7954 21.1203C21.7954 19.0976 23.0653 17.2972 24.9549 16.6404C25.2748 16.5292 25.511 16.276 25.588 15.9624C25.8287 14.9775 25.9506 13.9579 25.9506 12.9307C25.9506 12.2345 25.8937 11.5369 25.7824 10.8574C25.7248 10.5021 25.4782 10.2104 25.1381 10.0955C23.2275 9.44848 21.9434 7.64352 21.9434 5.60425C21.9434 5.23086 21.9867 4.85747 22.0727 4.49391C22.1579 4.13564 22.0406 3.76074 21.767 3.51433C20.6092 2.47353 19.2899 1.67007 17.8458 1.12586C17.472 0.985272 17.0572 1.07219 16.7889 1.34657C15.9136 2.243 14.746 2.74261 13.5022 2.75471H13.497H13.4918C12.248 2.74261 11.0812 2.24224 10.2059 1.34657C10.0228 1.15836 9.77164 1.05859 9.51152 1.05859H9.51525ZM13.5007 17.849C13.4477 17.849 13.3946 17.8482 13.3415 17.8467C10.7852 17.7635 8.7192 15.6736 8.63773 13.0901C8.59512 11.7447 9.08023 10.4719 10.0048 9.50668C10.9295 8.54146 12.1703 8.01011 13.4985 8.01011C13.4993 8.01011 13.5 8.01011 13.5015 8.01011C14.8297 8.01011 16.0705 8.54146 16.9952 9.50668C17.9198 10.4719 18.4056 11.7447 18.3623 13.0901C18.2808 15.6744 16.2148 17.7635 13.6592 17.8467C13.6054 17.8482 13.5531 17.849 13.4993 17.849H13.5007ZM13.5 9.06753C12.4573 9.06753 11.4833 9.48476 10.7575 10.2421C10.0318 10.9995 9.65055 11.9987 9.68418 13.0554C9.74846 15.0833 11.369 16.7227 13.3752 16.7885C13.4589 16.7915 13.5426 16.7915 13.6278 16.7885C15.6333 16.7235 17.2545 15.0833 17.3181 13.0554C17.3517 11.9987 16.9705 10.9995 16.2447 10.2421C15.5189 9.48476 14.545 9.06753 13.5022 9.06753C13.5015 9.06753 13.5007 9.06753 13.5 9.06753Z" fill="#535353"/>
</g>
<defs>
<clipPath id="clip0_87_1336">
<rect width="27" height="26" fill="white"/>
</clipPath>
</defs>
</svg>
