<svg width="12" height="18" viewBox="0 0 12 18" fill="none" xmlns="http://www.w3.org/2000/svg">
<path d="M5.99935 17.3332C5.80491 17.3332 5.63824 17.2776 5.49935 17.1665C5.36046 17.0554 5.25629 16.9096 5.18685 16.729C4.92296 15.9512 4.58963 15.2221 4.18685 14.5415C3.79796 13.8609 3.24935 13.0623 2.54102 12.1457C1.83268 11.229 1.25629 10.354 0.811849 9.52067C0.381293 8.68734 0.166016 7.68039 0.166016 6.49984C0.166016 4.87484 0.728516 3.49984 1.85352 2.37484C2.9924 1.23595 4.37435 0.666504 5.99935 0.666504C7.62435 0.666504 8.99935 1.23595 10.1243 2.37484C11.2632 3.49984 11.8327 4.87484 11.8327 6.49984C11.8327 7.76373 11.5896 8.81928 11.1035 9.6665C10.6313 10.4998 10.0827 11.3262 9.45768 12.1457C8.70768 13.1457 8.13824 13.979 7.74935 14.6457C7.37435 15.2984 7.06185 15.9929 6.81185 16.729C6.74241 16.9234 6.63129 17.0762 6.47852 17.1873C6.33963 17.2846 6.17991 17.3332 5.99935 17.3332ZM5.99935 8.58317C6.58268 8.58317 7.07574 8.38178 7.47852 7.979C7.88129 7.57623 8.08268 7.08317 8.08268 6.49984C8.08268 5.9165 7.88129 5.42345 7.47852 5.02067C7.07574 4.61789 6.58268 4.4165 5.99935 4.4165C5.41602 4.4165 4.92296 4.61789 4.52018 5.02067C4.11741 5.42345 3.91602 5.9165 3.91602 6.49984C3.91602 7.08317 4.11741 7.57623 4.52018 7.979C4.92296 8.38178 5.41602 8.58317 5.99935 8.58317Z" fill="#30A46C"/>
</svg>
