<svg width="32" height="32" viewBox="0 0 32 32" fill="none" xmlns="http://www.w3.org/2000/svg">
<rect width="32" height="32" rx="16" fill="#02BA3C" fill-opacity="0.087"/>
<rect x="6" y="6" width="20" height="20" rx="10" fill="#30A46C"/>
<g clip-path="url(#clip0_754_4749)">
<path d="M16 10.5C14.9122 10.5 13.8488 10.8226 12.9444 11.4269C12.0399 12.0313 11.3349 12.8902 10.9187 13.8952C10.5024 14.9002 10.3935 16.0061 10.6057 17.073C10.8179 18.1399 11.3417 19.1199 12.1109 19.8891C12.8801 20.6583 13.8601 21.1821 14.927 21.3943C15.9939 21.6065 17.0998 21.4976 18.1048 21.0813C19.1098 20.6651 19.9687 19.9601 20.5731 19.0556C21.1774 18.1512 21.5 17.0878 21.5 16C21.4983 14.5418 20.9183 13.1439 19.8872 12.1128C18.8561 11.0817 17.4582 10.5017 16 10.5ZM17.8535 17.8535C17.7597 17.9472 17.6326 17.9999 17.5 17.9999C17.3674 17.9999 17.2403 17.9472 17.1465 17.8535L15.6465 16.3535C15.5527 16.2598 15.5 16.1326 15.5 16V13C15.5 12.8674 15.5527 12.7402 15.6464 12.6464C15.7402 12.5527 15.8674 12.5 16 12.5C16.1326 12.5 16.2598 12.5527 16.3536 12.6464C16.4473 12.7402 16.5 12.8674 16.5 13V15.793L17.8535 17.1465C17.9472 17.2403 17.9999 17.3674 17.9999 17.5C17.9999 17.6326 17.9472 17.7597 17.8535 17.8535Z" fill="white"/>
</g>
<defs>
<clipPath id="clip0_754_4749">
<rect width="12" height="12" fill="white" transform="translate(10 10)"/>
</clipPath>
</defs>
</svg>
