<svg width="32" height="32" viewBox="0 0 32 32" fill="none" xmlns="http://www.w3.org/2000/svg">
<rect width="32" height="32" rx="16" fill="#FF9101" fill-opacity="0.165"/>
<rect x="6" y="6" width="20" height="20" rx="10" fill="#F76808"/>
<path fill-rule="evenodd" clip-rule="evenodd" d="M16.0008 14.2214C13.9877 14.2214 12.3498 15.8594 12.3498 17.8724C12.3498 18.0901 12.1734 18.2665 11.9557 18.2665C11.7383 18.2665 11.5617 18.0901 11.5617 17.8724C11.5617 15.4247 13.5531 13.4333 16.0008 13.4333C16.5271 13.4333 17.0424 13.5247 17.5322 13.7047C17.7365 13.7798 17.841 14.0061 17.7662 14.2104C17.6911 14.4146 17.4645 14.5193 17.2602 14.4442C16.858 14.2965 16.4341 14.2214 16.0008 14.2214ZM16.0008 12.4789C13.027 12.4789 10.6074 14.8987 10.6074 17.8724C10.6074 18.3017 10.6581 18.729 10.7581 19.1424C10.8127 19.369 11.0061 19.5211 11.239 19.5211H20.7629C20.9958 19.5211 21.1892 19.369 21.2439 19.1424C21.3439 18.729 21.3944 18.3017 21.3944 17.8724C21.3944 14.8987 18.9748 12.4789 16.0008 12.4789ZM14.8895 17.8724C14.8895 18.4855 15.3882 18.9839 16.0009 18.9839C16.8124 18.9839 17.3432 18.1421 17.0141 17.4166L19.1399 15.2907C19.2939 15.137 19.2939 14.8876 19.1399 14.7336C18.986 14.5797 18.7365 14.5797 18.5826 14.7336L16.4569 16.8593C15.7261 16.5292 14.8895 17.065 14.8895 17.8724Z" fill="white"/>
</svg>
