<svg width="32" height="32" viewBox="0 0 32 32" fill="none" xmlns="http://www.w3.org/2000/svg">
<rect width="32" height="32" rx="16" fill="#02BA3C" fill-opacity="0.087"/>
<rect x="6" y="6" width="20" height="20" rx="10" fill="#30A46C"/>
<g clip-path="url(#clip0_754_4725)">
<path d="M20 10C18.8972 10 18 10.8972 18 12C18 12.9566 19.4172 14.8926 19.7493 15.3333C19.7492 15.4756 19.7493 15.6154 19.7459 15.7436C19.7422 15.8816 19.8511 15.9966 19.9893 16.0002C19.9915 16.0002 19.9937 16.0002 19.9961 16.0002C20.1309 16.0002 20.2422 15.8926 20.2459 15.7568C20.2493 15.6252 20.2492 15.4815 20.2493 15.3351C20.5792 14.8975 22 12.9577 22 12C22 10.8972 21.1028 10 20 10ZM20 12.5C19.7244 12.5 19.5 12.2756 19.5 12C19.5 11.7244 19.7244 11.5 20 11.5C20.2756 11.5 20.5 11.7244 20.5 12C20.5 12.2756 20.2756 12.5 20 12.5Z" fill="white"/>
<path d="M17.6529 17.2053C17.2403 17.4394 17.0111 17.8459 16.8743 18.131C16.8145 18.2556 16.867 18.405 16.9915 18.4645C17.0264 18.4814 17.0633 18.4892 17.0994 18.4892C17.1927 18.4892 17.282 18.4369 17.325 18.3473C17.4986 17.9853 17.6758 17.7673 17.8999 17.6398C18.0198 17.5717 18.0621 17.4191 17.9937 17.299C17.9258 17.1789 17.7737 17.1367 17.6529 17.2053Z" fill="white"/>
<path d="M15.3773 20.8347C15.1268 21.0332 14.8422 21.1826 14.5067 21.2918C14.3754 21.3345 14.3036 21.4756 14.3463 21.607C14.3808 21.7124 14.4787 21.7796 14.5841 21.7796C14.6098 21.7796 14.6359 21.7757 14.6615 21.7674C15.049 21.6414 15.3942 21.4595 15.6879 21.2268C15.7961 21.1409 15.8144 20.9837 15.7287 20.8755C15.6422 20.7676 15.4852 20.7483 15.3773 20.8347Z" fill="white"/>
<path d="M16.7877 19.0103C16.6583 18.96 16.5142 19.0242 16.4642 19.1531C16.3521 19.4427 16.212 19.7803 16.023 20.0896C15.951 20.2076 15.9883 20.3614 16.106 20.4334C16.1468 20.4583 16.1917 20.47 16.2361 20.47C16.3204 20.47 16.4026 20.4275 16.4498 20.3504C16.6593 20.0071 16.8104 19.6439 16.9305 19.3338C16.9803 19.2051 16.9163 19.0603 16.7877 19.0103Z" fill="white"/>
<path d="M19.9073 16.5865C19.7938 16.5096 19.6378 16.5391 19.5601 16.6533C19.4779 16.7749 19.3094 16.9422 18.7999 16.9878C18.6624 17.0003 18.5609 17.1216 18.5733 17.2593C18.585 17.3892 18.6941 17.4868 18.8221 17.4868C18.8297 17.4868 18.8372 17.4866 18.8448 17.4858C19.3861 17.4373 19.7554 17.2566 19.9742 16.9336C20.0516 16.8194 20.0216 16.6638 19.9073 16.5865Z" fill="white"/>
<path d="M13.5924 21.5032C14.3812 20.662 16 18.7267 16 17C16 15.3179 14.6821 14 13 14C11.3179 14 10 15.3179 10 17C10 19.2175 12.6735 21.7847 12.8229 21.9263C12.8229 21.9263 12.8235 21.9269 12.8238 21.9272C12.8246 21.928 12.8277 21.931 12.8284 21.9316C12.8387 21.9415 12.8516 21.946 12.8631 21.9537C12.8773 21.9633 12.8901 21.9745 12.9061 21.9811C12.9362 21.9933 12.968 22 13 22C13.1821 22 13.3552 21.9936 13.5193 21.9812C13.657 21.9707 13.7602 21.8508 13.7497 21.7131C13.7422 21.6146 13.6785 21.5377 13.5924 21.5032ZM13 18.5C12.1728 18.5 11.5 17.8272 11.5 17C11.5 16.1728 12.1728 15.5 13 15.5C13.8272 15.5 14.5 16.1728 14.5 17C14.5 17.8271 13.8272 18.5 13 18.5Z" fill="white"/>
</g>
<defs>
<clipPath id="clip0_754_4725">
<rect width="12" height="12" fill="white" transform="translate(10 10)"/>
</clipPath>
</defs>
</svg>
