<svg width="45" height="43" viewBox="0 0 45 43" fill="none" xmlns="http://www.w3.org/2000/svg">
<g clip-path="url(#clip0_1463_7)">
<path d="M41.3461 17.4688H39.1599L33.0769 11.5378C32.8219 11.2871 32.5183 11.0884 32.1838 10.9532C31.8493 10.8179 31.4906 10.7489 31.1285 10.75H24.1186V6.71875H28.2532C28.6187 6.71875 28.9693 6.57718 29.2277 6.32517C29.4862 6.07317 29.6314 5.73138 29.6314 5.375C29.6314 5.01862 29.4862 4.67683 29.2277 4.42483C28.9693 4.17282 28.6187 4.03125 28.2532 4.03125H17.2275C16.862 4.03125 16.5115 4.17282 16.253 4.42483C15.9945 4.67683 15.8493 5.01862 15.8493 5.375C15.8493 5.73138 15.9945 6.07317 16.253 6.32517C16.5115 6.57718 16.862 6.71875 17.2275 6.71875H21.3621V10.75H11.0256C10.2946 10.75 9.59346 11.0331 9.07653 11.5372C8.55961 12.0412 8.2692 12.7247 8.2692 13.4375V22.1719H4.13458V18.1406C4.13458 17.7842 3.98938 17.4425 3.73092 17.1905C3.47245 16.9384 3.1219 16.7969 2.75638 16.7969C2.39086 16.7969 2.0403 16.9384 1.78184 17.1905C1.52338 17.4425 1.37817 17.7842 1.37817 18.1406V28.8906C1.37817 29.247 1.52338 29.5888 1.78184 29.8408C2.0403 30.0928 2.39086 30.2344 2.75638 30.2344C3.1219 30.2344 3.47245 30.0928 3.73092 29.8408C3.98938 29.5888 4.13458 29.247 4.13458 28.8906V24.8594H8.2692V28.3346C8.26804 28.6877 8.33888 29.0375 8.47758 29.3636C8.61629 29.6897 8.8201 29.9857 9.07717 30.2344L15.8493 36.8372C16.1044 37.0879 16.4079 37.2866 16.7424 37.4218C17.0769 37.5571 17.4357 37.6261 17.7978 37.625H31.1285C31.4906 37.6261 31.8493 37.5571 32.1838 37.4218C32.5183 37.2866 32.8219 37.0879 33.0769 36.8372L39.1599 30.9062H41.3461C42.0772 30.9062 42.7783 30.6231 43.2952 30.1191C43.8121 29.6151 44.1025 28.9315 44.1025 28.2188V20.1562C44.1025 19.4435 43.8121 18.7599 43.2952 18.2559C42.7783 17.7519 42.0772 17.4688 41.3461 17.4688ZM41.3461 28.2188H38.5897C38.4087 28.2186 38.2294 28.2533 38.0621 28.3207C37.8948 28.3881 37.7427 28.4871 37.6146 28.6118L31.1285 34.9375H17.7978L11.0256 28.3346V13.4375H31.1285L37.6146 19.7632C37.7427 19.8879 37.8948 19.9869 38.0621 20.0543C38.2294 20.1217 38.4087 20.1564 38.5897 20.1562H41.3461V28.2188Z" fill="black"/>
</g>
<defs>
<clipPath id="clip0_1463_7">
<rect width="44.1026" height="43" fill="white"/>
</clipPath>
</defs>
</svg>
