<svg width="59" height="59" viewBox="0 0 59 59" fill="none" xmlns="http://www.w3.org/2000/svg">
<circle cx="29.5" cy="29.5" r="28.5" stroke="black" stroke-width="2"/>
<path d="M21.7246 34.298C21.7246 36.0215 24.3009 37.1113 26.4614 37.7218C29.3773 38.5456 33.2488 39 37.3622 39C41.4757 39 45.3472 38.5456 48.2622 37.7218C50.4235 37.1113 52.9999 36.0215 52.9999 34.298C52.9999 32.5745 50.4235 31.4847 48.2622 30.8741C48.2007 30.8568 48.1384 30.8394 48.0761 30.8221L49.2367 29.1085L49.2383 29.1069C49.6886 28.4723 49.9536 27.6948 49.9536 26.8554C49.9536 24.7122 48.2286 22.9755 46.101 22.9755C43.9741 22.9755 42.25 24.7122 42.25 26.8554C42.25 27.5635 42.4386 28.2269 42.7675 28.7978V28.7995C42.861 28.9606 42.9644 29.1143 43.0784 29.2589L43.5525 29.9603C42.679 29.8529 41.7685 29.7687 40.8351 29.7083V30.4668C41.9842 30.542 43.0694 30.6535 44.0791 30.7948C44.093 30.7965 44.1062 30.799 44.1201 30.8006L44.5975 31.507L45.1216 32.2837L45.6121 33.0091L45.8352 33.3404C45.9632 33.5304 46.2404 33.5304 46.3692 33.3412L46.5102 33.133L46.922 32.5257L47.6175 31.4988L47.6266 31.4855C50.581 32.2531 52.3191 33.3065 52.3191 34.298C52.3191 36.1636 46.1764 38.2415 37.3622 38.2415C28.5481 38.2415 22.4054 36.1636 22.4054 34.298C22.4054 34.2145 22.4177 34.1311 22.4423 34.0468C22.4513 34.0138 22.4636 33.9799 22.4768 33.9468C22.2389 33.9452 22.001 33.9435 21.7623 33.9419C21.755 33.9766 21.7476 34.0113 21.7427 34.0468C21.7304 34.1286 21.7246 34.2129 21.7246 34.298ZM47.7258 26.8554C47.7258 27.7585 46.9983 28.4905 46.101 28.4905C45.2044 28.4905 44.4777 27.7585 44.4777 26.8554C44.4777 25.9524 45.2044 25.2195 46.101 25.2195C46.9983 25.2195 47.7258 25.9515 47.7258 26.8554Z" fill="#231F20" stroke="black" stroke-width="0.4"/>
<path d="M35.3034 28.8954C34.808 28.5351 34.2002 28.322 33.5473 28.322C32.6525 28.322 31.8478 28.7194 31.2933 29.349C30.8119 29.8951 30.5191 30.6164 30.5191 31.4062C30.5191 31.6021 30.5371 31.7921 30.5724 31.9772H16.4948L16.5038 31.9689C16.6556 30.899 16.2438 29.7836 15.3342 29.0953C13.9997 28.0857 12.0885 28.3699 11.0747 29.7299C10.7745 30.1322 10.5867 30.585 10.5055 31.0493L8.7863 30.5676C8.33764 30.4429 7.9874 30.0785 7.86765 29.6158C7.84714 29.4233 7.84632 28.5376 7.85699 27.6627H8.47298C8.70756 27.6627 8.89786 27.4511 8.89786 27.1909C8.89786 27.0603 8.85028 26.9422 8.77318 26.8563C8.69608 26.7712 8.59027 26.7183 8.47298 26.7183H7.87257C7.88323 26.2556 7.89554 25.8937 7.91112 25.7871C8.02021 25.184 9.15295 25.051 9.68445 25.0815L9.71562 25.084L9.74679 25.0799C10.1553 25.0378 12.228 24.7932 12.9604 24.1636C13.0326 24.1008 13.1245 24.0289 13.2328 23.9521C13.5346 24.3933 14.5492 25.7582 15.595 25.9516C15.969 26.021 16.3234 26.0449 16.6318 26.0449C16.8549 26.0449 17.0542 26.0325 17.2174 26.0168C17.4692 25.9929 17.6464 25.7318 17.5988 25.4558C17.5595 25.2327 17.3839 25.0725 17.183 25.0725C17.1715 25.0725 17.1584 25.0733 17.1469 25.0741C16.8737 25.1005 16.4768 25.1179 16.0347 25.0658L16.9148 22.0419C17.0944 22.0419 17.4938 22.032 18.0467 22.0171C18.7783 21.9973 19.8438 21.9684 20.8806 21.9535V24.9394H20.9536C21.1972 24.9345 21.4572 24.9295 21.7303 24.9246V21.9452C22.8212 21.9394 23.7579 21.9584 24.0655 22.032C25.0326 22.2641 27.3431 23.7959 28.8441 24.8543C29.406 24.8543 29.9375 24.8601 30.4182 24.8676C29.2805 24.0083 25.6937 21.4561 24.2443 21.1091C23.5397 20.9389 20.6648 21.0009 18.0262 21.0719C17.4938 21.086 17.0747 21.0975 16.909 21.0975C15.9731 21.0975 13.0622 22.8813 12.4404 23.4159C12.0278 23.7712 10.5531 24.0446 9.69676 24.1364C9.33832 24.1198 7.34845 24.0967 7.07777 25.6021C7.0302 25.8706 6.95064 29.4655 7.0425 29.8447C7.23854 30.6461 7.82582 31.2732 8.57797 31.4839L10.4883 32.0193C10.5104 32.1837 10.5465 32.3465 10.5957 32.5059C10.777 33.0942 11.1354 33.6321 11.6579 34.027C12.3732 34.5682 13.2533 34.7376 14.0727 34.569C14.783 34.4236 15.4474 34.0237 15.9182 33.3925C16.0306 33.2413 16.1265 33.0843 16.2077 32.9215H30.9111C31.4311 33.8568 32.4187 34.4897 33.5473 34.4897C35.2165 34.4897 36.5756 33.1066 36.5756 31.4062C36.5756 30.3718 36.072 29.4547 35.3034 28.8954ZM15.9206 22.3889L15.3104 24.4817C15.2653 24.6362 15.0963 24.6974 14.9798 24.599C14.8593 24.4966 14.7412 24.3826 14.6288 24.2652C14.3614 23.9876 14.126 23.6885 13.9669 23.4646C14.5779 23.0846 15.3211 22.6715 15.9206 22.3889ZM15.2374 32.8786C14.5082 33.8568 13.1335 34.0617 12.173 33.3355C11.2134 32.6092 11.0239 31.222 11.7539 30.2429C12.4823 29.2655 13.8578 29.0614 14.8174 29.7869C15.7787 30.5139 15.9666 31.9003 15.2374 32.8786ZM33.5465 33.6246C32.3449 33.6246 31.368 32.6291 31.368 31.4062C31.368 30.1834 32.3449 29.187 33.5465 29.187C34.7481 29.187 35.725 30.1826 35.725 31.4062C35.725 32.6299 34.7473 33.6246 33.5465 33.6246Z" fill="#231F20" stroke="black" stroke-width="0.4"/>
<path d="M30.1903 25.8359C30.1796 25.8284 30.1665 25.8177 30.1509 25.8069H30.1722L30.1673 25.8127C30.1706 25.8177 30.1788 25.8251 30.1903 25.8367V25.8359Z" fill="#231F20" stroke="black" stroke-width="0.4"/>
<path d="M39.4841 31.9086C39.2684 32.2985 38.7484 32.4977 38.3251 32.5968C38.0807 32.6546 37.8453 32.4605 37.8191 32.1845V32.1812C37.7953 31.9433 37.9364 31.7218 38.1463 31.6698C38.2825 31.6367 38.4104 31.5963 38.5163 31.5549C38.6762 31.4905 38.7845 31.3261 38.7943 31.1361C38.8206 30.6354 38.7599 29.7191 38.7336 29.3217C38.7336 29.3175 38.7336 29.3126 38.7336 29.3076C38.7172 29.0614 38.5327 28.8697 38.3096 28.8697H37.5812C37.354 28.8697 37.1686 28.6714 37.158 28.4219C37.1563 28.4145 37.1563 28.4054 37.1563 28.3971C37.1563 28.2666 37.2039 28.1484 37.281 28.0633C37.3581 27.9774 37.4639 27.9245 37.5812 27.9245H38.2603C38.2308 27.8907 38.2013 27.8584 38.1718 27.8287L38.1652 27.8221C38.0389 27.6882 37.8888 27.5635 37.7182 27.4478C36.5485 26.6546 34.4487 26.2647 33.1249 26.0185C32.9346 25.9829 32.7599 25.9367 32.6 25.9185C32.171 25.8706 31.386 25.8218 30.1729 25.8061H30.1524C27.2176 25.7698 22.4365 25.8474 19.3803 25.9168C19.1458 25.9218 18.9522 25.7144 18.9473 25.4541V25.4459C18.9473 25.1881 19.1302 24.9766 19.3631 24.9725C19.7183 24.9634 20.2719 24.9526 20.9544 24.9394H21.7311V24.9245C23.771 24.8882 26.5631 24.8485 28.8449 24.8543C29.4068 24.8543 29.9383 24.8601 30.419 24.8675C31.5525 24.8849 31.8782 24.8816 32.7476 24.989C32.9051 25.0088 33.0773 25.0518 33.2652 25.0865C34.9803 25.4054 37.5714 25.8879 38.7484 27.1347C38.8033 27.1909 38.8895 27.2834 38.9871 27.4024C39.1806 27.6395 39.4128 27.9791 39.5054 28.3343C39.5325 28.4351 39.5481 28.5368 39.5481 28.6384C39.5481 28.7458 39.5645 28.992 39.5817 29.2531C39.6818 30.7552 39.6916 31.5359 39.4849 31.9086H39.4841Z" fill="#231F20" stroke="black" stroke-width="0.4"/>
<path d="M21.7304 24.9245V24.9394H20.9536C21.1972 24.9345 21.4572 24.9295 21.7304 24.9245Z" fill="#231F20" stroke="black" stroke-width="0.4"/>
<path d="M29.0855 30.0215C29.0855 30.2826 28.8952 30.4941 28.6606 30.4941H18.4036C18.1691 30.4941 17.9788 30.2826 17.9788 30.0215C17.9788 29.8909 18.0263 29.7728 18.1034 29.6869C18.1797 29.6018 18.2863 29.5489 18.4036 29.5489H28.6606C28.6827 29.5489 28.7041 29.5505 28.7246 29.5547C28.9296 29.5885 29.0855 29.7852 29.0855 30.0215Z" fill="#231F20" stroke="black" stroke-width="0.4"/>
<path d="M34.234 31.9185C34.0699 32.1052 33.8017 32.1093 33.6336 31.9267L33.0848 31.3319C32.9167 31.1501 32.9134 30.851 33.0775 30.6635C33.2415 30.4767 33.5097 30.4726 33.6779 30.6552L34.2266 31.2501C34.3947 31.4318 34.398 31.7309 34.234 31.9185Z" fill="#231F20" stroke="black" stroke-width="0.4"/>
<path d="M14.066 31.3327L13.5181 31.9267C13.35 32.1085 13.081 32.1052 12.9177 31.9185C12.7537 31.7318 12.7578 31.4327 12.9251 31.2509L13.473 30.6568C13.6412 30.4751 13.9102 30.4784 14.0734 30.6651C14.2375 30.8518 14.2334 31.1509 14.066 31.3327Z" fill="#231F20" stroke="black" stroke-width="0.4"/>
</svg>
