<svg width="59" height="59" viewBox="0 0 59 59" fill="none" xmlns="http://www.w3.org/2000/svg">
<circle cx="29.5" cy="29.5" r="28.5" stroke="black" stroke-width="2"/>
<path d="M38.3231 33.0468C38.3182 33.0113 38.3108 32.9766 38.3034 32.9419C38.0642 32.9435 37.8259 32.9452 37.5875 32.9469C37.6006 32.9799 37.613 33.0138 37.622 33.0468C37.6467 33.1311 37.659 33.2145 37.659 33.298C37.659 35.1636 31.5034 37.2415 22.6706 37.2415C13.8379 37.2415 7.68222 35.1636 7.68222 33.298C7.68222 32.3065 9.42395 31.2531 12.3846 30.4855L12.3937 30.4988L13.0907 31.5258L13.5033 32.133L13.6447 32.3412C13.7737 32.5304 14.0516 32.5304 14.1798 32.3404L14.4034 32.0091L14.8949 31.2837L15.4201 30.507L15.8985 29.8006C15.9125 29.799 15.9256 29.7965 15.9396 29.7948C16.9514 29.6535 18.0389 29.542 19.1904 29.4668V28.7084C18.2551 28.7687 17.3427 28.8529 16.4673 28.9603L16.9424 28.2589C17.0566 28.1143 17.1602 27.9606 17.2531 27.7995V27.7979C17.5835 27.2269 17.7726 26.5635 17.7726 25.8554C17.7726 23.7122 16.0448 21.9755 13.9135 21.9755C11.7821 21.9755 10.0527 23.7122 10.0527 25.8554C10.0527 26.6949 10.3182 27.4723 10.7695 28.1069L10.7711 28.1085L11.9342 29.8221C11.8717 29.8394 11.8093 29.8568 11.7476 29.8741C9.58177 30.4847 7 31.5745 7 33.298C7 35.0215 9.58177 36.1113 11.7476 36.7218C14.6689 37.5456 18.5485 38 22.6706 38C26.7927 38 30.6724 37.5456 33.5944 36.7218C35.7594 36.1113 38.3412 35.0215 38.3412 33.298C38.3412 33.2129 38.3355 33.1286 38.3231 33.0468ZM13.9135 24.2195C14.8119 24.2195 15.5401 24.9515 15.5401 25.8554C15.5401 26.7593 14.8119 27.4905 13.9135 27.4905C13.0151 27.4905 12.2852 26.7585 12.2852 25.8554C12.2852 24.9524 13.0143 24.2195 13.9135 24.2195Z" fill="#231F20" stroke="black" stroke-width="0.4"/>
<path d="M48.6444 27.8954C48.1479 27.5351 47.5388 27.322 46.8846 27.322C45.9878 27.322 45.1815 27.7194 44.6258 28.3489C44.1433 28.8951 43.8499 29.6164 43.8499 30.4062C43.8499 30.602 43.868 30.7921 43.9033 30.9771H29.7961L29.8051 30.9689C29.9572 29.8989 29.5446 28.7835 28.633 28.0953C27.2957 27.0857 25.3805 27.3699 24.3646 28.7298C24.0637 29.1322 23.8755 29.585 23.7941 30.0493L22.0713 29.5676C21.6217 29.4429 21.2707 29.0785 21.1507 28.6158C21.1302 28.4233 21.1294 27.5376 21.14 26.6626H21.7573C21.9924 26.6626 22.1831 26.4511 22.1831 26.1909C22.1831 26.0603 22.1354 25.9422 22.0582 25.8562C21.9809 25.7711 21.8749 25.7183 21.7573 25.7183H21.1557C21.1663 25.2556 21.1787 24.8937 21.1943 24.7871C21.3036 24.184 22.4387 24.051 22.9714 24.0815L23.0026 24.084L23.0338 24.0799C23.4432 24.0377 25.5203 23.7932 26.2543 23.1636C26.3266 23.1008 26.4187 23.0289 26.5272 22.9521C26.8296 23.3933 27.8464 24.7582 28.8944 24.9515C29.2692 25.0209 29.6243 25.0449 29.9333 25.0449C30.1569 25.0449 30.3566 25.0325 30.5202 25.0168C30.7726 24.9928 30.9501 24.7318 30.9024 24.4558C30.863 24.2327 30.6871 24.0724 30.4857 24.0724C30.4742 24.0724 30.461 24.0733 30.4495 24.0741C30.1758 24.1005 29.778 24.1179 29.335 24.0658L30.2169 21.0419C30.3969 21.0419 30.7972 21.032 31.3512 21.0171C32.0844 20.9973 33.1521 20.9683 34.1911 20.9535V23.9394H34.2642C34.5084 23.9345 34.7689 23.9295 35.0426 23.9245V20.9452C36.1358 20.9394 37.0745 20.9584 37.3827 21.032C38.3518 21.2641 40.6673 22.7959 42.1715 23.8543C42.7345 23.8543 43.2671 23.8601 43.7488 23.8675C42.6087 23.0083 39.0143 20.4561 37.5619 20.1091C36.8559 19.9389 33.9749 20.0008 31.3307 20.0719C30.7972 20.0859 30.3772 20.0975 30.2112 20.0975C29.2733 20.0975 26.3562 21.8813 25.7331 22.4159C25.3197 22.7711 23.8418 23.0446 22.9837 23.1363C22.6245 23.1198 20.6304 23.0967 20.3592 24.602C20.3115 24.8706 20.2318 28.4654 20.3238 28.8447C20.5203 29.6461 21.1088 30.2732 21.8625 30.4839L23.7769 31.0193C23.7991 31.1837 23.8352 31.3465 23.8846 31.5059C24.0662 32.0942 24.4254 32.6321 24.949 33.027C25.6657 33.5682 26.5477 33.7375 27.3688 33.569C28.0806 33.4236 28.7464 33.0237 29.2182 32.3925C29.3308 32.2413 29.427 32.0843 29.5084 31.9215H44.2428C44.7639 32.8568 45.7535 33.4897 46.8846 33.4897C48.5572 33.4897 49.9192 32.1066 49.9192 30.4062C49.9192 29.3718 49.4145 28.4547 48.6444 27.8954ZM29.2215 21.3889L28.61 23.4817C28.5648 23.6362 28.3955 23.6973 28.2787 23.599C28.1579 23.4966 28.0396 23.3825 27.9269 23.2652C27.659 22.9876 27.4231 22.6885 27.2636 22.4646C27.876 22.0846 28.6207 21.6714 29.2215 21.3889ZM28.5368 31.8786C27.8061 32.8568 26.4285 33.0617 25.466 32.3355C24.5043 31.6092 24.3144 30.222 25.046 29.2429C25.7759 28.2655 27.1543 28.0614 28.116 28.7868C29.0793 29.5139 29.2676 30.9003 28.5368 31.8786ZM46.8846 32.6246C45.6804 32.6246 44.7014 31.629 44.7014 30.4062C44.7014 29.1834 45.6804 28.187 46.8846 28.187C48.0887 28.187 49.0677 29.1826 49.0677 30.4062C49.0677 31.6299 48.0879 32.6246 46.8846 32.6246Z" fill="#231F20" stroke="black" stroke-width="0.4"/>
<path d="M43.5193 24.8359C43.5089 24.8284 43.496 24.8177 43.4807 24.8069H43.5016L43.4968 24.8127C43.5 24.8177 43.5081 24.8251 43.5193 24.8367V24.8359Z" fill="#231F20" stroke="black" stroke-width="0.4"/>
<path d="M52.8338 30.9086C52.6176 31.2985 52.0965 31.4977 51.6724 31.5968C51.4275 31.6546 51.1916 31.4605 51.1652 31.1845V31.1812C51.1414 30.9433 51.2828 30.7218 51.4932 30.6698C51.6297 30.6367 51.7579 30.5963 51.8639 30.5549C52.0242 30.4905 52.1327 30.3261 52.1426 30.1361C52.1689 29.6354 52.108 28.7191 52.0817 28.3217C52.0817 28.3175 52.0817 28.3126 52.0817 28.3076C52.0653 28.0614 51.8804 27.8697 51.6568 27.8697H50.9269C50.6992 27.8697 50.5134 27.6714 50.5028 27.4219C50.5011 27.4145 50.5011 27.4054 50.5011 27.3971C50.5011 27.2666 50.5488 27.1484 50.626 27.0633C50.7033 26.9774 50.8093 26.9245 50.9269 26.9245H51.6075C51.5779 26.8907 51.5483 26.8584 51.5187 26.8287L51.5121 26.8221C51.3855 26.6882 51.2351 26.5635 51.0641 26.4478C49.892 25.6546 47.7878 25.2647 46.4612 25.0185C46.2705 24.9829 46.0954 24.9367 45.9351 24.9185C45.5053 24.8706 44.7186 24.8218 43.503 24.8061H43.4824C40.5415 24.7698 35.7503 24.8474 32.6877 24.9168C32.4526 24.9218 32.2586 24.7144 32.2537 24.4541V24.4459C32.2537 24.1881 32.437 23.9766 32.6704 23.9725C33.0263 23.9634 33.5811 23.9526 34.265 23.9394H35.0434V23.9245C37.0876 23.8882 39.8855 23.8485 42.1722 23.8543C42.7353 23.8543 43.2679 23.8601 43.7496 23.8675C44.8855 23.8849 45.2118 23.8816 46.0831 23.989C46.2409 24.0088 46.4135 24.0518 46.6017 24.0865C48.3205 24.4054 50.917 24.8879 52.0965 26.1347C52.1516 26.1909 52.2379 26.2834 52.3357 26.4024C52.5297 26.6395 52.7623 26.9791 52.8552 27.3343C52.8823 27.4351 52.8979 27.5368 52.8979 27.6384C52.8979 27.7458 52.9144 27.992 52.9316 28.2531C53.0319 29.7552 53.0418 30.5359 52.8346 30.9086H52.8338Z" fill="#231F20" stroke="black" stroke-width="0.4"/>
<path d="M35.0426 23.9245V23.9394H34.2642C34.5083 23.9345 34.7688 23.9295 35.0426 23.9245Z" fill="#231F20" stroke="black" stroke-width="0.4"/>
<path d="M42.4141 29.0215C42.4141 29.2826 42.2234 29.4941 41.9883 29.4941H31.7097C31.4746 29.4941 31.2839 29.2826 31.2839 29.0215C31.2839 28.8909 31.3316 28.7728 31.4089 28.6869C31.4853 28.6018 31.5922 28.5489 31.7097 28.5489H41.9883C42.0105 28.5489 42.0318 28.5505 42.0524 28.5547C42.2579 28.5885 42.4141 28.7852 42.4141 29.0215Z" fill="#231F20" stroke="black" stroke-width="0.4"/>
<path d="M47.5733 30.9185C47.4089 31.1052 47.1402 31.1093 46.9717 30.9268L46.4218 30.3319C46.2533 30.1501 46.25 29.851 46.4144 29.6635C46.5788 29.4767 46.8476 29.4726 47.0161 29.6552L47.5659 30.2501C47.7344 30.4318 47.7377 30.7309 47.5733 30.9185Z" fill="#231F20" stroke="black" stroke-width="0.4"/>
<path d="M27.3632 30.3327L26.8141 30.9268C26.6456 31.1085 26.376 31.1052 26.2124 30.9185C26.048 30.7318 26.0521 30.4327 26.2198 30.2509L26.7689 29.6569C26.9374 29.4751 27.207 29.4784 27.3706 29.6651C27.5349 29.8518 27.5308 30.1509 27.3632 30.3327Z" fill="#231F20" stroke="black" stroke-width="0.4"/>
</svg>
