<svg width="59" height="59" viewBox="0 0 59 59" fill="none" xmlns="http://www.w3.org/2000/svg">
<circle cx="29.5" cy="29.5" r="28.5" stroke="black" stroke-width="2"/>
<g clip-path="url(#clip0_1256_6)">
<path d="M15.422 35.9232C15.2036 35.9232 14.9751 35.8693 14.7457 35.7607C13.1381 35.0011 13.0216 30.9383 13.1363 29.9687C13.1454 29.8888 13.1555 29.8026 13.1656 29.711C13.3088 28.4253 13.5749 26.0316 15.2945 26.0316C15.7404 26.0316 16.6158 26.3162 16.7351 27.3955C16.8296 28.2511 16.7645 33.1156 16.7424 34.5863C16.736 34.993 16.5589 35.3692 16.2552 35.6188C16.0074 35.8217 15.7239 35.9241 15.422 35.9241V35.9232ZM15.2954 26.9286C14.3989 26.9286 14.1823 28.8733 14.0786 29.8071C14.0685 29.9013 14.0585 29.9893 14.0484 30.071C13.9015 31.3029 14.2282 34.5181 15.1449 34.9508C15.4202 35.081 15.5624 35.0128 15.6652 34.9284C15.7643 34.8467 15.8221 34.7165 15.8248 34.571C15.8707 31.5668 15.8937 28.1299 15.823 27.4897C15.7624 26.9429 15.3422 26.9268 15.2945 26.9268L15.2954 26.9286Z" fill="#231F20" stroke="black" stroke-width="0.4"/>
<path d="M42.3988 26.5218C42.3593 26.4392 42.3052 26.3647 42.2391 26.3001L42.196 26.2579C42.1244 26.1887 42.029 26.1492 41.928 26.1492H27.685C26.1847 23.7071 23.4493 22.0694 20.3304 22.0694H16.7169C13.007 22.0694 10 25.0117 10 28.6417V33.3123C10 36.936 13.0125 39.8845 16.7169 39.8845H20.3304C23.6035 39.8845 26.4536 38.0816 27.8979 35.4375H32.5978C32.808 35.4375 33.0016 35.3216 33.097 35.1385L33.9109 33.5771C33.9541 33.4954 34.0403 33.4433 34.1339 33.4433H35.9764C36.0682 33.4433 36.1526 33.4927 36.1967 33.5708L37.0776 35.1519C37.1758 35.3279 37.3648 35.4375 37.5703 35.4375H41.5812C41.7087 35.4375 41.8317 35.3845 41.9179 35.292C43.1117 34.0189 43.4907 32.4934 43.4907 31.0676C43.4907 28.9397 42.6456 27.0345 42.3988 26.5218ZM27.0472 35.0882C25.7452 37.41 23.2227 38.9866 20.3304 38.9866H16.7169C13.5135 38.9866 10.9176 36.4466 10.9176 33.3132V28.6417C10.9176 25.5073 13.5135 22.9673 16.7159 22.9673H20.3304C23.2236 22.9673 25.7452 24.5457 27.0472 26.8684V35.0882ZM41.3729 34.5396H37.9254C37.8374 34.5396 37.7557 34.4929 37.7135 34.4166L36.8335 32.8373C36.7326 32.6577 36.5399 32.5455 36.3297 32.5455H33.7696C33.554 32.5455 33.3567 32.664 33.2585 32.8517L32.4455 34.4112C32.4042 34.4902 32.3216 34.5396 32.2308 34.5396H27.9648V29.2001H37.6355V28.3023H27.9648V27.0489H28.1704V27.0471H41.6335C42.0859 28.0581 43.6036 31.9574 41.3729 34.5396Z" fill="#231F20" stroke="black" stroke-width="0.4"/>
<path d="M46.8252 21.3494C45.3772 18.883 43.4236 17.5254 41.3251 17.5254C39.2265 17.5254 37.2729 18.883 35.8249 21.3494C35.3313 22.1897 34.9165 23.1253 34.5862 24.1327H35.5515C35.8461 23.2905 36.2039 22.5067 36.6205 21.7965C37.8978 19.621 39.5688 18.4233 41.3251 18.4233C43.0814 18.4233 44.7523 19.621 46.0296 21.7965C47.3537 24.051 48.0823 27.0579 48.0823 30.2623C48.0823 33.4667 47.3537 36.4745 46.0296 38.7281C44.7523 40.9044 43.0814 42.1022 41.3251 42.1022C39.5688 42.1022 37.8978 40.9044 36.6205 38.7281C36.4012 38.3545 36.1984 37.9604 36.0121 37.5474H35.0156C35.256 38.122 35.5258 38.667 35.8249 39.1761C37.2729 41.6416 39.2265 43 41.3251 43C43.4236 43 45.3772 41.6416 46.8252 39.1761C48.2273 36.7878 48.9999 33.622 48.9999 30.2623C48.9999 26.9025 48.2273 23.7376 46.8252 21.3494Z" fill="#231F20" stroke="black" stroke-width="0.4"/>
<path d="M30.9232 18.936L33.2751 21.2371L32.6263 21.8719L30.2745 19.5707L27.9227 21.8719L27.2739 21.2371L29.6257 18.936L27.2739 16.6348L27.9227 16L30.2745 18.3012L32.6263 16L33.2751 16.6348L30.9232 18.936Z" fill="#231F20" stroke="black" stroke-width="0.4"/>
</g>
<defs>
<clipPath id="clip0_1256_6">
<rect width="41" height="29" fill="white" transform="translate(9 15)"/>
</clipPath>
</defs>
</svg>
