<svg width="59" height="59" viewBox="0 0 59 59" fill="none" xmlns="http://www.w3.org/2000/svg">
<circle cx="29.5" cy="29.5" r="28.5" stroke="black" stroke-width="2"/>
<g clip-path="url(#clip0_1256_5)">
<path d="M15.423 35.055C15.2046 35.055 14.9761 35.0022 14.7467 34.8955C13.1391 34.1501 13.0225 30.163 13.1372 29.2114C13.1464 29.133 13.1565 29.0484 13.1666 28.9577C13.3097 27.6959 13.5759 25.3468 15.2954 25.3468C15.7414 25.3468 16.6168 25.6262 16.7361 26.6853C16.8306 27.525 16.7654 32.2989 16.7434 33.7422C16.737 34.1413 16.5599 34.5105 16.2562 34.7554C16.0084 34.9546 15.7249 35.055 15.423 35.055ZM15.2918 26.228C14.3989 26.2341 14.1833 28.1374 14.0796 29.0528C14.0695 29.1454 14.0594 29.2326 14.0493 29.3128C13.9034 30.5217 14.2292 33.6769 15.1459 34.1016C15.4212 34.2294 15.5634 34.1624 15.6662 34.0796C15.7653 33.9994 15.8231 33.8717 15.8258 33.7289C15.8717 30.7807 15.8946 27.4078 15.824 26.7804C15.7698 26.2993 15.4358 26.2341 15.2909 26.228H15.2918Z" fill="#231F20" stroke="black" stroke-width="0.4"/>
<path d="M42.3988 25.8288C42.3593 25.7478 42.3052 25.6746 42.2391 25.6112L42.196 25.5698C42.1253 25.5019 42.029 25.4632 41.9289 25.4632H27.685C26.1847 23.0665 23.4493 21.4594 20.3304 21.4594H16.7169C13.007 21.4594 10 24.3468 10 27.9091V32.4927C10 36.0489 13.0125 38.9425 16.7169 38.9425H20.3304C23.6035 38.9425 26.4536 37.1732 27.8979 34.5783H32.5978C32.8089 34.5783 33.0016 34.4647 33.0979 34.2849L33.9109 32.7527C33.954 32.6725 34.0403 32.6214 34.1348 32.6214H35.9764C36.0682 32.6214 36.1526 32.6698 36.1967 32.7465L37.0785 34.2981C37.1767 34.4708 37.3657 34.5783 37.5703 34.5783H41.5812C41.7087 34.5783 41.8317 34.5264 41.9179 34.4356C43.1117 33.1862 43.4907 31.6891 43.4907 30.2899C43.4907 28.2017 42.6465 26.3319 42.3988 25.8288ZM20.3304 38.0614H16.7169C13.5144 38.0614 10.9176 35.5687 10.9176 32.4936V27.9091C10.9176 24.8332 13.5144 22.3405 16.7169 22.3405H20.3304C23.2245 22.3405 25.7461 23.8904 27.0482 26.1707V34.2338C25.7461 36.5133 23.2236 38.0614 20.3304 38.0614ZM41.3729 33.6972H37.9254C37.8373 33.6972 37.7566 33.6514 37.7144 33.5765L36.8335 32.0266C36.7326 31.8504 36.5399 31.7402 36.3297 31.7402H33.7696C33.554 31.7402 33.3567 31.8566 33.2585 32.0407L32.4464 33.5712C32.4051 33.6488 32.3216 33.6972 32.2308 33.6972H27.9658V28.4572H37.6355V27.5761H27.9658V26.346H28.1713V26.3443H41.6335C42.0859 27.3364 43.6036 31.1631 41.3729 33.6972Z" fill="#231F20" stroke="black" stroke-width="0.4"/>
<path d="M46.8252 20.7527C45.3772 18.3323 43.4236 17 41.3251 17C39.2265 17 37.2729 18.3323 35.8249 20.7527C35.3313 21.5774 34.9165 22.4955 34.5862 23.4842H35.5515C35.8461 22.6577 36.2039 21.8885 36.6205 21.1915C37.8978 19.0565 39.5688 17.8811 41.3251 17.8811C43.0814 17.8811 44.7523 19.0565 46.0296 21.1915C47.3537 23.404 48.0823 26.3548 48.0823 29.4996C48.0823 32.6443 47.3537 35.596 46.0296 37.8076C44.7523 39.9435 43.0814 41.1189 41.3251 41.1189C39.5688 41.1189 37.8978 39.9435 36.6205 37.8076C36.4012 37.4411 36.1984 37.0543 36.0121 36.649H35.0156C35.256 37.2129 35.5258 37.7477 35.8249 38.2473C37.2729 40.6669 39.2265 42 41.3251 42C43.4236 42 45.3772 40.6669 46.8252 38.2473C48.2273 35.9035 48.9999 32.7967 48.9999 29.4996C48.9999 26.2024 48.2273 23.0965 46.8252 20.7527Z" fill="#231F20" stroke="black" stroke-width="0.4"/>
</g>
<defs>
<clipPath id="clip0_1256_5">
<rect width="41" height="27" fill="white" transform="translate(9 16)"/>
</clipPath>
</defs>
</svg>
