<svg width="43" height="43" viewBox="0 0 43 43" fill="none" xmlns="http://www.w3.org/2000/svg">
<rect x="1" y="1" width="41" height="41" rx="8" stroke="#126CC0" stroke-width="2"/>
<g clip-path="url(#clip0_1257_5)">
<path d="M26.7083 17.1562C26.7083 19.5023 23.5356 23.6832 22.1424 25.4062C21.8082 25.8188 21.1875 25.8188 20.8576 25.4062C19.4644 23.6832 16.2917 19.5023 16.2917 17.1562C16.2917 14.3074 18.6224 12 21.5 12C24.3776 12 26.7083 14.3074 26.7083 17.1562ZM27.0556 20.6109C27.2075 20.3145 27.3464 20.018 27.4722 19.7258C27.4939 19.6742 27.5156 19.6184 27.5373 19.5668L32.572 17.573C33.2578 17.3023 34 17.8008 34 18.5312V30.1672C34 30.5883 33.7396 30.9664 33.3446 31.1254L27.0556 33.6133V20.6109ZM14.9722 17.9426C15.0764 18.5484 15.2847 19.1586 15.5278 19.7258C15.6536 20.018 15.7925 20.3145 15.9444 20.6109V31.4133L10.428 33.6004C9.74219 33.8711 9 33.3727 9 32.6422V21.0063C9 20.5852 9.26042 20.207 9.65538 20.048L14.9766 17.9426H14.9722ZM23.2274 26.2656C23.8307 25.518 24.7769 24.302 25.6667 22.957V33.6691L17.3333 31.3102V22.957C18.2231 24.302 19.1693 25.518 19.7726 26.2656C20.6623 27.3656 22.3377 27.3656 23.2274 26.2656ZM21.5 18.5312C21.9604 18.5312 22.402 18.3502 22.7276 18.0278C23.0532 17.7055 23.2361 17.2683 23.2361 16.8125C23.2361 16.3567 23.0532 15.9195 22.7276 15.5972C22.402 15.2748 21.9604 15.0938 21.5 15.0938C21.0396 15.0938 20.598 15.2748 20.2724 15.5972C19.9468 15.9195 19.7639 16.3567 19.7639 16.8125C19.7639 17.2683 19.9468 17.7055 20.2724 18.0278C20.598 18.3502 21.0396 18.5312 21.5 18.5312Z" fill="#126CC0"/>
</g>
<defs>
<clipPath id="clip0_1257_5">
<rect width="25" height="22" fill="white" transform="translate(9 12)"/>
</clipPath>
</defs>
</svg>
