<svg width="42" height="42" viewBox="0 0 42 42" fill="none" xmlns="http://www.w3.org/2000/svg">
<path d="M8.88125 21H14C14.3208 21 14.6271 21.0805 14.9188 21.2415C15.2104 21.4025 15.4292 21.6428 15.575 21.9625L17.5 25.8125L22.925 14.9625C23.2458 14.2917 23.7708 13.9563 24.5 13.9563C25.2292 13.9563 25.7542 14.2917 26.075 14.9625L29.0938 21H33.1187C32.6812 18.025 31.325 15.5312 29.05 13.5188C26.775 11.5062 24.0917 10.5 21 10.5C17.9083 10.5 15.225 11.5062 12.95 13.5188C10.675 15.5312 9.31875 18.025 8.88125 21ZM21 35C24.0917 35 26.775 33.9937 29.05 31.9812C31.325 29.9688 32.6812 27.475 33.1187 24.5H28C27.6792 24.5 27.3729 24.4195 27.0813 24.2585C26.7896 24.0975 26.5708 23.8572 26.425 23.5375L24.5 19.6875L19.075 30.5375C18.7542 31.2083 18.2292 31.5437 17.5 31.5437C16.7708 31.5437 16.2458 31.2083 15.925 30.5375L12.9063 24.5H8.88125C9.31875 27.475 10.675 29.9688 12.95 31.9812C15.225 33.9937 17.9083 35 21 35ZM21 38.5C18.8417 38.5 16.807 38.0841 14.896 37.2523C12.985 36.4204 11.3155 35.2905 9.8875 33.8625C8.45834 32.4333 7.32784 30.7632 6.496 28.8522C5.66417 26.9412 5.24884 24.9072 5.25 22.75H8.75C8.75 26.1333 9.94584 29.0208 12.3375 31.4125C14.7292 33.8042 17.6167 35 21 35C24.3833 35 27.2708 33.8042 29.6625 31.4125C32.0542 29.0208 33.25 26.1333 33.25 22.75H36.75C36.75 24.9083 36.3341 26.943 35.5023 28.854C34.6704 30.765 33.5405 32.4345 32.1125 33.8625C30.6833 35.2917 29.0133 36.4222 27.1023 37.254C25.1913 38.0858 23.1572 38.5012 21 38.5ZM5.25 22.75C5.25 20.5917 5.66592 18.557 6.49775 16.646C7.32959 14.735 8.4595 13.0655 9.8875 11.6375C11.3167 10.2083 12.9868 9.07783 14.8978 8.246C16.8088 7.41417 18.8428 6.99883 21 7C22.8083 7 24.5438 7.29167 26.2063 7.875C27.8688 8.45833 29.4292 9.30417 30.8875 10.4125L33.3375 7.9625L35.7875 10.4125L33.3375 12.8625C34.4458 14.3208 35.2917 15.8812 35.875 17.5437C36.4583 19.2062 36.75 20.9417 36.75 22.75H33.25C33.25 19.3667 32.0542 16.4792 29.6625 14.0875C27.2708 11.6958 24.3833 10.5 21 10.5C17.6167 10.5 14.7292 11.6958 12.3375 14.0875C9.94584 16.4792 8.75 19.3667 8.75 22.75H5.25ZM15.75 5.25V1.75H26.25V5.25H15.75ZM21 35C17.6167 35 14.7292 33.8042 12.3375 31.4125C9.94584 29.0208 8.75 26.1333 8.75 22.75C8.75 19.3667 9.94584 16.4792 12.3375 14.0875C14.7292 11.6958 17.6167 10.5 21 10.5C24.3833 10.5 27.2708 11.6958 29.6625 14.0875C32.0542 16.4792 33.25 19.3667 33.25 22.75C33.25 26.1333 32.0542 29.0208 29.6625 31.4125C27.2708 33.8042 24.3833 35 21 35Z" fill="black"/>
</svg>
