<svg width="47" height="47" viewBox="0 0 47 47" fill="none" xmlns="http://www.w3.org/2000/svg">
<g clip-path="url(#clip0_167_113)">
<path d="M9.87 15.04C4.44573 15.04 0 19.4721 0 24.8818C0 26.978 0.66928 28.9262 1.80245 30.5274L8.66586 42.3921C9.62701 43.648 10.2662 43.4097 11.0657 42.3263L18.6355 29.4436C18.7882 29.1663 18.9081 28.8721 19.0129 28.5713C19.4933 27.4006 19.7403 26.1473 19.74 24.8818C19.74 19.4721 15.2957 15.04 9.87 15.04ZM9.87 19.6516C12.7915 19.6516 15.1152 21.9692 15.1152 24.8823C15.1152 27.7953 12.7915 30.112 9.87 30.112C6.94895 30.112 4.6248 27.7949 4.6248 24.8823C4.6248 21.9692 6.94895 19.6516 9.87 19.6516ZM41.2425 0C38.0785 0 35.485 2.58547 35.485 5.74152C35.485 6.96399 35.8751 8.10045 36.5364 9.03434L40.5403 15.9556C41.101 16.6878 41.4737 16.5487 41.94 15.917L46.3556 8.40172C46.4449 8.24051 46.515 8.06896 46.5756 7.89318C46.8559 7.21046 47.0001 6.47954 47 5.74152C47 2.585 44.4075 0 41.2425 0ZM41.2425 2.69028C42.9467 2.69028 44.3022 4.042 44.3022 5.74152C44.3022 7.44057 42.9467 8.79182 41.2425 8.79182C39.5387 8.79182 38.1828 7.44057 38.1828 5.74152C38.1828 4.042 39.5387 2.69028 41.2425 2.69028Z" fill="black"/>
<path fill-rule="evenodd" clip-rule="evenodd" d="M41.4581 17.5836C40.402 17.6071 39.3431 17.6518 38.2823 17.7303L38.4459 20.3303C39.4649 20.2565 40.4856 20.209 41.507 20.1879L41.4581 17.5836ZM35.8299 17.969C34.199 18.1716 32.554 18.4602 30.9278 18.9241L31.5402 21.4438C33.0179 21.0226 34.5491 20.7505 36.1043 20.5573L35.8299 17.969ZM28.4927 19.7964C28.0054 20.0115 27.5337 20.2601 27.0808 20.5404L27.0789 20.5428L27.0761 20.5437C26.4299 20.9507 25.7488 21.4673 25.1928 22.2178C24.79 22.7616 24.4606 23.4492 24.3835 24.2623L26.7781 24.5279C26.796 24.3371 26.8938 24.0852 27.0695 23.8483H27.0705V23.8473C27.3539 23.4638 27.7788 23.1155 28.284 22.7969L28.2859 22.7959C28.646 22.5737 29.021 22.3764 29.4082 22.2056L28.4927 19.7964ZM27.2599 25.6879L25.7075 27.6783C26.0755 28.0148 26.4614 28.2733 26.8341 28.4895L26.8388 28.4919L26.8435 28.4947C28.0805 29.1983 29.3561 29.5954 30.5386 29.9724L31.2182 27.4729C30.0362 27.096 28.9218 26.7322 27.9668 26.1898C27.6932 26.031 27.4535 25.865 27.2599 25.6879ZM33.5273 28.176L32.8637 30.6797L33.1777 30.7775L33.5631 30.9006C34.8386 31.3156 36.0606 31.7588 37.1529 32.3722L38.2612 30.0598C36.9405 29.3177 35.5695 28.8326 34.2483 28.403L34.2446 28.4021L33.8488 28.2757L33.5273 28.176ZM40.5148 31.795L38.812 33.6374C39.2143 34.0731 39.5156 34.5972 39.6622 35.1386L39.6632 35.1414L39.6641 35.1457C39.839 35.7778 39.8394 36.5214 39.7027 37.2724L42.0639 37.7763C42.2566 36.7159 42.2877 35.5517 41.9709 34.4026C41.695 33.3865 41.1686 32.5038 40.5148 31.795ZM38.8783 38.8422C38.6181 39.117 38.3305 39.3646 38.0201 39.581H38.0191C37.1731 40.1761 36.1918 40.6245 35.1493 41.0098L35.9267 43.4745C37.0669 43.0529 38.2377 42.5359 39.3318 41.7661L39.3347 41.7637L39.3361 41.7628C39.7854 41.4482 40.2011 41.0879 40.5764 40.6879L38.8783 38.8422ZM32.9375 41.704C31.4274 42.1101 29.8839 42.4194 28.3216 42.6816L28.6901 45.2568C30.298 44.9865 31.9124 44.6636 33.517 44.2322L32.9375 41.704ZM25.9711 43.037C24.3985 43.2518 22.8174 43.4271 21.2317 43.5765L21.4394 46.1719C23.0496 46.0205 24.6627 45.8424 26.2733 45.622L25.9711 43.037ZM18.8483 43.781C17.2592 43.9069 15.6664 44.0094 14.0721 44.0959L14.1925 46.6978C15.8022 46.6108 17.4134 46.507 19.0241 46.3791L18.8483 43.781ZM11.6766 44.2134C10.721 44.258 9.76319 44.2947 8.80298 44.3285L8.88194 46.9328C9.84815 46.8996 10.8142 46.861 11.78 46.8172L11.6766 44.2134Z" fill="black"/>
</g>
<defs>
<clipPath id="clip0_167_113">
<rect width="47" height="47" fill="white"/>
</clipPath>
</defs>
</svg>
