<svg width="43" height="43" viewBox="0 0 43 43" fill="none" xmlns="http://www.w3.org/2000/svg">
<path d="M19.7083 14.3333H23.2917V25.0833H19.7083V14.3333ZM21.5 35.8333C14.5663 35.8333 8.95833 30.2254 8.95833 23.2917C8.95833 16.3579 14.5663 10.75 21.5 10.75C28.4338 10.75 34.0417 16.3579 34.0417 23.2917C35.2958 23.2917 36.4783 23.5246 37.625 23.9188V23.2917C37.625 19.4933 36.2992 15.9996 34.0954 13.2404L36.6396 10.6963C35.8333 9.7825 35.0271 8.95834 34.1133 8.17L31.5692 10.75C28.7921 8.49251 25.2983 7.16667 21.5 7.16667C17.2234 7.16667 13.1219 8.86555 10.0979 11.8896C7.07388 14.9136 5.375 19.0151 5.375 23.2917C5.375 27.5683 7.07388 31.6697 10.0979 34.6938C13.1219 37.7178 17.2234 39.4167 21.5 39.4167C22.5571 39.4167 23.5783 39.3092 24.5638 39.1121C24.0083 38.0729 23.6142 36.9083 23.435 35.6721C22.79 35.7617 22.1629 35.8333 21.5 35.8333ZM26.875 1.79167H16.125V5.37501H26.875V1.79167ZM29.5625 29.5625V38.5208H38.5208V29.5625H29.5625Z" fill="black"/>
</svg>
