<svg width="27" height="25" viewBox="0 0 27 25" fill="none" xmlns="http://www.w3.org/2000/svg">
<path d="M16.1653 20.8333H7.07855C5.5768 20.8333 4.35601 19.6656 4.35601 18.2292C4.35601 16.7927 5.5768 15.625 7.07855 15.625H14.7017C16.8035 15.625 18.5132 13.9896 18.5132 11.9792C18.5132 9.96875 16.8035 8.33333 14.7017 8.33333H9.40795C9.00813 9.08327 8.51286 9.78303 7.93342 10.4167H14.7017C15.6023 10.4167 16.3352 11.1177 16.3352 11.9792C16.3352 12.8406 15.6023 13.5417 14.7017 13.5417H7.07855C4.3767 13.5417 2.17798 15.6448 2.17798 18.2292C2.17798 20.8135 4.3767 22.9167 7.07855 22.9167H17.5255C16.991 22.2738 16.5346 21.5749 16.1653 20.8333ZM5.44502 2.08333C3.64379 2.08333 2.17798 3.48541 2.17798 5.20833C2.17798 8.52916 5.44502 10.4167 5.44502 10.4167C5.44502 10.4167 8.71207 8.52812 8.71207 5.20833C8.71207 3.48541 7.24626 2.08333 5.44502 2.08333ZM5.44502 6.77083C5.23044 6.77076 5.01796 6.73026 4.81974 6.65165C4.62151 6.57304 4.44141 6.45785 4.28972 6.31266C4.13804 6.16747 4.01773 5.99513 3.93568 5.80547C3.85363 5.61581 3.81143 5.41255 3.8115 5.20729C3.81157 5.00203 3.85391 4.79879 3.9361 4.60918C4.01828 4.41958 4.13871 4.24731 4.29049 4.10222C4.44228 3.95713 4.62246 3.84205 4.82074 3.76357C5.01902 3.68508 5.23152 3.64472 5.44611 3.64479C5.87949 3.64492 6.29507 3.80973 6.60141 4.10295C6.90776 4.39617 7.07978 4.79379 7.07964 5.20833C7.07949 5.62287 6.90719 6.02037 6.60064 6.3134C6.29409 6.60642 5.87841 6.77097 5.44502 6.77083Z" fill="black"/>
<path d="M20.6914 14.5833C18.8901 14.5833 17.4243 15.9854 17.4243 17.7083C17.4243 21.0292 20.6914 22.9167 20.6914 22.9167C20.6914 22.9167 23.9584 21.0281 23.9584 17.7083C23.9584 15.9854 22.4926 14.5833 20.6914 14.5833ZM20.6914 19.2708C20.4768 19.2708 20.2643 19.2303 20.0661 19.1517C19.8678 19.073 19.6877 18.9578 19.5361 18.8127C19.3844 18.6675 19.2641 18.4951 19.182 18.3055C19.1 18.1158 19.0578 17.9125 19.0578 17.7073C19.0579 17.502 19.1002 17.2988 19.1824 17.1092C19.2646 16.9196 19.385 16.7473 19.5368 16.6022C19.6886 16.4571 19.8688 16.3421 20.0671 16.2636C20.2654 16.1851 20.4779 16.1447 20.6925 16.1448C21.1258 16.1449 21.5414 16.3097 21.8478 16.603C22.1541 16.8962 22.3261 17.2938 22.326 17.7083C22.3258 18.1229 22.1535 18.5204 21.847 18.8134C21.5404 19.1064 21.1247 19.271 20.6914 19.2708Z" fill="black"/>
</svg>
