<svg width="59" height="59" viewBox="0 0 59 59" fill="none" xmlns="http://www.w3.org/2000/svg">
<circle cx="29.5" cy="29.5" r="28.5" stroke="black" stroke-width="2"/>
<path d="M36.0655 46H22.9345C21.7435 46 20.7744 44.9018 20.7744 43.552V16.448C20.7744 15.0982 21.7435 14 22.9345 14H36.0655C37.2565 14 38.2256 15.0982 38.2256 16.448V43.552C38.2256 44.9018 37.2565 46 36.0655 46ZM22.9345 15.0894C22.2737 15.0894 21.7361 15.6984 21.7361 16.448V43.552C21.7361 44.3016 22.2737 44.9106 22.9345 44.9106H36.0655C36.7262 44.9106 37.2639 44.3016 37.2639 43.552V16.448C37.2639 15.6984 36.7262 15.0894 36.0655 15.0894H22.9345Z" fill="#231F20" stroke="black" stroke-width="0.4"/>
<path d="M42.5341 19.7751C42.5341 19.4743 42.2986 19.2304 42.008 19.2304C41.7175 19.2304 41.4819 19.4743 41.4819 19.7751V40.2238C41.4819 40.5246 41.7175 40.7685 42.008 40.7685C42.2986 40.7685 42.5341 40.5246 42.5341 40.2238V19.7751Z" fill="#231F20" stroke="black" stroke-width="0.4"/>
<path d="M45.9999 23.6807C45.9999 23.3799 45.7644 23.136 45.4738 23.136C45.1833 23.136 44.9478 23.3799 44.9478 23.6807V36.3193C44.9478 36.6201 45.1833 36.864 45.4738 36.864C45.7644 36.864 45.9999 36.6201 45.9999 36.3193V23.6807Z" fill="#231F20" stroke="black" stroke-width="0.4"/>
<path d="M17.518 19.7751C17.518 19.4743 17.2824 19.2304 16.9919 19.2304C16.7014 19.2304 16.4658 19.4743 16.4658 19.7751V40.2238C16.4658 40.5246 16.7014 40.7685 16.9919 40.7685C17.2824 40.7685 17.518 40.5246 17.518 40.2238V19.7751Z" fill="#231F20" stroke="black" stroke-width="0.4"/>
<path d="M14.0522 23.6807C14.0522 23.3799 13.8166 23.136 13.5261 23.136C13.2355 23.136 13 23.3799 13 23.6807V36.3193C13 36.6201 13.2355 36.864 13.5261 36.864C13.8166 36.864 14.0522 36.6201 14.0522 36.3193V23.6807Z" fill="#231F20" stroke="black" stroke-width="0.4"/>
</svg>
