<svg width="24" height="24" viewBox="0 0 24 24" fill="none" xmlns="http://www.w3.org/2000/svg">
<path d="M6.375 15.75C6.03 15.75 5.75 16.03 5.75 16.375V21.375C5.75 21.72 6.03 22 6.375 22C6.72 22 7 21.72 7 21.375V16.375C7 16.03 6.72 15.75 6.375 15.75Z" fill="#808080"/>
<path d="M21.375 15.75C21.03 15.75 20.75 16.03 20.75 16.375V21.375C20.75 21.72 21.03 22 21.375 22C21.72 22 22 21.72 22 21.375V16.375C22 16.03 21.72 15.75 21.375 15.75Z" fill="#808080"/>
<path d="M18.875 17C19.22 17 19.5 16.72 19.5 16.375C19.5 16.03 19.22 15.75 18.875 15.75H16.375C16.03 15.75 15.75 16.03 15.75 16.375V21.375C15.75 21.72 16.03 22 16.375 22H18.875C19.22 22 19.5 21.72 19.5 21.375C19.5 21.03 19.22 20.75 18.875 20.75H17V19.5H18.875C19.22 19.5 19.5 19.22 19.5 18.875C19.5 18.53 19.22 18.25 18.875 18.25H17V17H18.875Z" fill="#808080"/>
<path d="M14.1137 15.7975C13.8825 15.7013 13.6125 15.7538 13.4325 15.9325L11.375 17.9913L9.3175 15.9338C9.1375 15.7538 8.87125 15.7013 8.63625 15.7988C8.4025 15.8938 8.25 16.1225 8.25 16.375V21.375C8.25 21.72 8.53 22 8.875 22C9.22 22 9.5 21.72 9.5 21.375V17.8838L10.9325 19.3163C11.1762 19.56 11.5725 19.56 11.8163 19.3163L13.25 17.8838V21.375C13.25 21.72 13.53 22 13.875 22C14.22 22 14.5 21.72 14.5 21.375V16.375C14.5 16.1225 14.3475 15.8938 14.1137 15.7975Z" fill="#808080"/>
<path d="M5.75 2H7V14.5H5.75V2Z" fill="#808080"/>
<path d="M15.75 2H17V14.5H15.75V2Z" fill="#808080"/>
<path d="M13.25 2H14.5V14.5H13.25V2Z" fill="#808080"/>
<path d="M18.25 2H22V14.5H18.25V2Z" fill="#808080"/>
<path d="M8.25 2H12V14.5H8.25V2Z" fill="#808080"/>
<path d="M2 2H4.5V19.5H2V2Z" fill="#808080"/>
</svg>
