<svg width="22" height="14" viewBox="0 0 22 14" fill="none" xmlns="http://www.w3.org/2000/svg">
<path d="M20.5622 11.5333H18.6263C18.2008 11.5333 17.8358 11.2144 17.796 10.7908C17.6204 8.9245 16.7899 7.24857 15.5357 5.99441C14.1172 4.57593 12.1593 3.69936 9.99674 3.69936C8.24354 3.69936 6.60834 4.299 5.31033 5.28399L8.38937 7.99372C9.02456 8.55272 9.76573 8.99695 10.5858 9.20553C10.989 9.30811 11.371 9.51824 11.6801 9.82589C12.6668 10.8151 12.6142 12.4402 11.5224 13.3589C10.9041 13.8792 10.0425 14.0356 9.27059 13.7965C8.4275 13.5353 7.91429 12.9217 7.70832 12.2289C7.46859 11.4224 7.10441 10.6584 6.55023 10.0253L1.04296 3.73422C0.752943 3.40292 0.769515 2.90349 1.08086 2.59214C1.3917 2.2813 1.89015 2.26421 2.22155 2.55303L2.56973 2.85647C4.56616 1.12732 7.15983 0.0942383 9.99674 0.0942383C15.9857 0.0942383 20.911 4.74787 21.3966 10.6232C21.4371 11.1124 21.0531 11.5333 20.5622 11.5333Z" fill="#808080"/>
</svg>
