<svg width="24" height="24" viewBox="0 0 24 24" fill="none" xmlns="http://www.w3.org/2000/svg">
<path d="M0.375 8.89819V15.1395H18.0263V8.89819H0.375ZM3.00413 9.76528C3.48457 9.76528 3.87635 10.0868 4.12357 10.4989C4.37079 10.911 4.50649 11.4394 4.5065 12.0188C4.50649 12.5982 4.37079 13.1282 4.12357 13.5403C3.87635 13.9524 3.48457 14.2724 3.00413 14.2724C2.52369 14.2724 2.13192 13.9524 1.8847 13.5403C1.63748 13.1282 1.50177 12.5982 1.50177 12.0188C1.50177 11.4394 1.63748 10.911 1.8847 10.4989C2.13192 10.0868 2.52369 9.76528 3.00413 9.76528ZM7.13563 9.76528C7.61607 9.76528 8.00784 10.0868 8.25507 10.4989C8.50229 10.911 8.63799 11.4394 8.63799 12.0188C8.63799 12.5982 8.50229 13.1282 8.25507 13.5403C8.00784 13.9524 7.61607 14.2724 7.13563 14.2724C6.65519 14.2724 6.26487 13.9524 6.01766 13.5403C5.77044 13.1282 5.63327 12.5982 5.63327 12.0188C5.63327 11.4394 5.77044 10.911 6.01766 10.4989C6.26487 10.0868 6.65519 9.76528 7.13563 9.76528ZM11.2671 9.76528C11.7476 9.76528 12.1393 10.0868 12.3866 10.4989C12.6338 10.911 12.7695 11.4394 12.7695 12.0188C12.7695 12.5982 12.6338 13.1282 12.3866 13.5403C12.1393 13.9524 11.7476 14.2724 11.2671 14.2724C10.7867 14.2724 10.3964 13.9524 10.1492 13.5403C9.90194 13.1282 9.76476 12.5982 9.76476 12.0188C9.76476 11.4394 9.90194 10.911 10.1492 10.4989C10.3964 10.0868 10.7867 9.76528 11.2671 9.76528ZM15.3986 9.76528C15.8791 9.76528 16.2708 10.0868 16.5181 10.4989C16.7653 10.911 16.901 11.4394 16.901 12.0188C16.901 12.5982 16.7653 13.1282 16.5181 13.5403C16.2708 13.9524 15.8791 14.2724 15.3986 14.2724C14.9182 14.2724 14.5279 13.9524 14.2807 13.5403C14.0334 13.1282 13.8963 12.5982 13.8963 12.0188C13.8963 11.4394 14.0334 10.911 14.2807 10.4989C14.5279 10.0868 14.9182 9.76528 15.3986 9.76528Z" fill="#808080"/>
<path d="M3.00049 10.5024C2.85918 10.5024 2.68747 10.6031 2.52735 10.8701C2.36722 11.1371 2.25195 11.5443 2.25195 12.001C2.25195 12.4578 2.36722 12.8664 2.52735 13.1333C2.68747 13.4003 2.85918 13.5009 3.00049 13.5009C3.1418 13.5009 3.31351 13.4003 3.47364 13.1333C3.63376 12.8663 3.74903 12.4578 3.74903 12.001C3.74903 11.5443 3.63376 11.137 3.47364 10.8701C3.31351 10.6031 3.1418 10.5024 3.00049 10.5024Z" fill="#808080"/>
<path d="M7.12549 10.5024C6.98418 10.5024 6.81393 10.6031 6.65381 10.8701C6.49368 11.1371 6.37695 11.5443 6.37695 12.001C6.37695 12.4578 6.49368 12.8664 6.65381 13.1333C6.81393 13.4003 6.98418 13.5009 7.12549 13.5009C7.2668 13.5009 7.43851 13.4003 7.59864 13.1333C7.75876 12.8663 7.87548 12.4578 7.87549 12.001C7.87548 11.5443 7.75876 11.137 7.59864 10.8701C7.43851 10.6031 7.2668 10.5024 7.12549 10.5024Z" fill="#808080"/>
<path d="M11.2505 10.5024C11.1092 10.5024 10.9389 10.6031 10.7788 10.8701C10.6187 11.1371 10.502 11.5443 10.502 12.001C10.502 12.4578 10.6187 12.8664 10.7788 13.1333C10.9389 13.4003 11.1092 13.5009 11.2505 13.5009C11.3918 13.5009 11.5635 13.4003 11.7236 13.1333C11.8838 12.8663 12.0005 12.4578 12.0005 12.001C12.0005 11.5443 11.8838 11.137 11.7236 10.8701C11.5635 10.6031 11.3918 10.5024 11.2505 10.5024Z" fill="#808080"/>
<path d="M15.3755 10.5024C15.2342 10.5024 15.0639 10.6031 14.9038 10.8701C14.7437 11.1371 14.627 11.5443 14.627 12.001C14.627 12.4578 14.7437 12.8664 14.9038 13.1333C15.0639 13.4003 15.2342 13.5009 15.3755 13.5009C15.5168 13.5009 15.6885 13.4003 15.8486 13.1333C16.0088 12.8663 16.1255 12.4578 16.1255 12.001C16.1255 11.5443 16.0088 11.137 15.8486 10.8701C15.6885 10.6031 15.5168 10.5024 15.3755 10.5024Z" fill="#808080"/>
<path d="M18.748 8.88518V15.1167H19.7925C19.5887 14.2414 19.7075 13.2498 20.207 12.6C20.4644 12.2654 20.8232 12.0491 21.2061 12.0566C21.5889 12.0594 21.9436 12.2792 22.1978 12.6177C22.6901 13.2733 22.7717 14.2586 22.5742 15.1167H23.623V8.88518H22.6855V9.10491C22.6853 9.85694 22.4649 10.5611 22.0029 11.0019C21.7718 11.2224 21.4784 11.3534 21.1753 11.3534C20.8722 11.3534 20.5822 11.2111 20.3535 10.9872C19.8965 10.5398 19.6808 9.83341 19.6855 9.08147V8.88501L18.748 8.88518Z" fill="#808080"/>
<path d="M20.4375 8.88518V9.08588C20.4338 9.67747 20.6419 10.2196 20.8799 10.4526C20.9989 10.5688 21.0967 10.6034 21.1832 10.6034C21.2696 10.6041 21.3661 10.5734 21.4849 10.4597C21.7225 10.2332 21.9346 9.69647 21.9346 9.10474V8.88501L20.4375 8.88518Z" fill="#808080"/>
<path d="M21.199 12.8081C21.0894 12.8073 20.955 12.8597 20.802 13.0587C20.5053 13.4447 20.3552 14.3755 20.5398 15.0494C20.5453 15.0715 20.5487 15.0941 20.5501 15.1169H21.8128C21.8145 15.1083 21.8165 15.0998 21.8188 15.0914C22.0094 14.4161 21.8852 13.4528 21.5976 13.0699C21.4451 12.8669 21.3086 12.8081 21.199 12.8081Z" fill="#808080"/>
</svg>
