<svg width="24" height="24" viewBox="0 0 24 24" fill="none" xmlns="http://www.w3.org/2000/svg">
<path d="M11.2966 1.64795C8.58617 1.80353 6.04442 2.85676 4.01562 4.66487L7.15325 7.8025C8.33403 6.81948 9.76775 6.22543 11.2966 6.08575V1.64795Z" fill="#808080"/>
<path d="M6.15834 8.79651L3.02077 5.65894C1.21111 7.68717 0.156562 10.2291 0 12.9402H4.43798C4.57861 11.4111 5.17392 9.9772 6.15834 8.79651Z" fill="#808080"/>
<path d="M19.5622 12.9402H24.0001C23.8436 10.2291 22.7891 7.68717 20.9794 5.65894L17.8418 8.79651C18.8262 9.97715 19.4215 11.4111 19.5622 12.9402Z" fill="#808080"/>
<path d="M19.5605 14.3464C19.462 15.4294 19.1529 16.3327 18.7874 17.0572C19.144 17.6071 19.4412 18.0718 19.6376 18.3805C20.1725 19.221 20.0541 20.3 19.3496 21.0045C19.1786 21.1755 18.9832 21.3133 18.7715 21.4152L19.5022 22.146C19.6397 22.2835 19.82 22.3523 20.0003 22.3523C20.1805 22.3523 20.3608 22.2835 20.4983 22.146C22.6041 20.0404 23.832 17.2928 24 14.3464H19.5605Z" fill="#808080"/>
<path d="M4.43953 14.3464H0C0.168047 17.2928 1.39594 20.0404 3.5017 22.146C3.63923 22.2835 3.81947 22.3523 3.9997 22.3523C4.17994 22.3523 4.36022 22.2835 4.49775 22.146L6.63113 20.0125C6.90614 19.7374 6.90614 19.2915 6.63113 19.0164C6.07439 18.4597 4.67203 16.901 4.43953 14.3464Z" fill="#808080"/>
<path d="M19.9841 4.66487C17.9553 2.85671 15.4135 1.80353 12.7031 1.64795V6.08575C14.2319 6.22543 15.6657 6.81948 16.8465 7.8025L19.9841 4.66487Z" fill="#808080"/>
<path d="M13.5616 12.0928C12.7002 11.2314 11.2985 11.2314 10.4371 12.0928C9.57566 12.9543 9.57566 14.3559 10.4371 15.2173C11.5253 16.3056 16.8735 19.7204 17.4798 20.1062C17.7578 20.2832 18.1214 20.2432 18.3545 20.0102C18.5875 19.7772 18.6275 19.4136 18.4505 19.1355C18.0647 18.5293 14.6498 13.181 13.5616 12.0928Z" fill="#808080"/>
</svg>
