<svg width="24" height="24" viewBox="0 0 24 24" fill="none" xmlns="http://www.w3.org/2000/svg">
<g clip-path="url(#clip0_792_114)">
<path d="M17.5077 10.77C17.2214 10.77 17.0527 10.9285 17.0527 11.2812V12.6358C17.0527 12.9885 17.2215 13.147 17.5077 13.147C17.7939 13.147 17.9678 12.9885 17.9678 12.6358V11.2812C17.9678 10.9285 17.794 10.77 17.5077 10.77Z" fill="#808080"/>
<path d="M20.4159 10.77C20.1296 10.77 19.9609 10.9285 19.9609 11.2812V12.6358C19.9609 12.9885 20.1297 13.147 20.4159 13.147C20.7021 13.147 20.876 12.9885 20.876 12.6358V11.2812C20.876 10.9285 20.7022 10.77 20.4159 10.77Z" fill="#808080"/>
<path d="M14.5995 10.77C14.3132 10.77 14.1445 10.9285 14.1445 11.2812V12.6358C14.1445 12.9885 14.3133 13.147 14.5995 13.147C14.8857 13.147 15.0596 12.9885 15.0596 12.6358V11.2812C15.0596 10.9285 14.8858 10.77 14.5995 10.77Z" fill="#808080"/>
<path d="M21.5947 7.7124H2.40525C1.07902 7.7124 0 8.79137 0 10.1176V13.8823C0 15.2086 1.07902 16.2876 2.40525 16.2876H21.5948C22.921 16.2876 24 15.2086 24 13.8823V10.1176C24 8.79137 22.921 7.7124 21.5947 7.7124ZM5.67319 8.49672C5.96198 8.49672 6.19608 8.73081 6.19608 9.01961C6.19608 9.3084 5.96198 9.5425 5.67319 9.5425C5.38439 9.5425 5.1503 9.3084 5.1503 9.01961C5.15034 8.73081 5.38444 8.49672 5.67319 8.49672ZM4.73489 13.7605L3.98859 12.4928L3.24225 13.7604C3.20648 13.8167 3.13491 13.8422 3.05311 13.8422C2.83336 13.8422 2.5215 13.6684 2.5215 13.4486C2.5215 13.4026 2.53683 13.3566 2.56753 13.3055L3.45187 11.9407L2.6033 10.5809C2.56748 10.5247 2.55216 10.4736 2.55216 10.4224C2.55216 10.2078 2.84348 10.0442 3.06844 10.0442C3.18084 10.0442 3.25758 10.0851 3.30872 10.1771L3.98855 11.3631L4.66842 10.1771C4.71956 10.0851 4.7962 10.0442 4.9087 10.0442C5.13366 10.0442 5.42498 10.2078 5.42498 10.4224C5.42498 10.4736 5.40966 10.5247 5.37384 10.5809L4.52527 11.9407L5.40961 13.3055C5.44027 13.3567 5.45564 13.4026 5.45564 13.4486C5.45564 13.6684 5.14378 13.8422 4.92398 13.8422C4.84223 13.8422 4.76559 13.8167 4.73489 13.7605ZM5.67319 15.5555C5.38439 15.5555 5.1503 15.3214 5.1503 15.0326C5.1503 14.7438 5.38439 14.5097 5.67319 14.5097C5.96198 14.5097 6.19608 14.7438 6.19608 15.0326C6.19608 15.3214 5.96198 15.5555 5.67319 15.5555ZM8.47664 10.4582L7.42355 12.2116C7.41333 12.2269 7.40311 12.2525 7.40311 12.2831V13.5662C7.40311 13.7297 7.20375 13.8115 7.00434 13.8115C6.80494 13.8115 6.60567 13.7297 6.60567 13.5662V12.2831C6.60567 12.2525 6.59545 12.2269 6.58519 12.2116L5.52708 10.4582C5.51681 10.4378 5.51681 10.4174 5.51681 10.402C5.51681 10.2129 5.83884 10.0749 6.05869 10.0749C6.18647 10.0749 6.2325 10.126 6.2887 10.2231L7.00434 11.5368L7.71488 10.2231C7.76606 10.126 7.81716 10.0749 7.94489 10.0749C8.16469 10.0749 8.48676 10.2129 8.48676 10.402C8.48691 10.4173 8.48691 10.4378 8.47664 10.4582ZM10.966 13.8116H8.78845C8.62486 13.8116 8.55844 13.7247 8.55844 13.602C8.55844 13.5202 8.58914 13.418 8.64534 13.3208L10.0868 10.7701H8.90086C8.74748 10.7701 8.66058 10.6065 8.66058 10.4224C8.66058 10.2537 8.73216 10.0749 8.90086 10.0749H10.874C11.0274 10.0749 11.104 10.1618 11.104 10.2845C11.104 10.3662 11.0733 10.4634 11.0171 10.5656L9.57562 13.1164H10.966C11.1194 13.1164 11.2063 13.3004 11.2063 13.464C11.2063 13.6276 11.1194 13.8116 10.966 13.8116ZM15.8565 12.6359C15.8565 13.5151 15.3045 13.8422 14.599 13.8422C13.8936 13.8422 13.3466 13.5151 13.3466 12.6359V11.2813C13.3466 10.402 13.8936 10.0749 14.599 10.0749C15.3045 10.0749 15.8565 10.402 15.8565 11.2813V12.6359ZM16.2551 12.6359V11.2813C16.2551 10.402 16.8021 10.0749 17.5075 10.0749C18.2129 10.0749 18.765 10.402 18.765 11.2813V12.6359C18.765 13.5151 18.2129 13.8422 17.5075 13.8422C16.8021 13.8422 16.2551 13.5152 16.2551 12.6359ZM18.3268 15.5555C18.038 15.5555 17.8039 15.3214 17.8039 15.0326C17.8039 14.7438 18.038 14.5097 18.3268 14.5097C18.6156 14.5097 18.8497 14.7438 18.8497 15.0326C18.8497 15.3214 18.6156 15.5555 18.3268 15.5555ZM18.3268 9.54245C18.038 9.54245 17.8039 9.30836 17.8039 9.01956C17.8039 8.73076 18.038 8.49667 18.3268 8.49667C18.6156 8.49667 18.8497 8.73076 18.8497 9.01956C18.8497 9.30836 18.6156 9.54245 18.3268 9.54245ZM21.6734 12.6359C21.6734 13.5151 21.1213 13.8422 20.4159 13.8422C19.7105 13.8422 19.1635 13.5151 19.1635 12.6359V11.2813C19.1635 10.402 19.7105 10.0749 20.4159 10.0749C21.1213 10.0749 21.6734 10.402 21.6734 11.2813V12.6359Z" fill="#808080"/>
</g>
<defs>
<clipPath id="clip0_792_114">
<rect width="24" height="24" fill="white"/>
</clipPath>
</defs>
</svg>
