<svg width="276" height="152" viewBox="0 0 276 152" fill="none" xmlns="http://www.w3.org/2000/svg">
<path d="M257.313 142.356C255.888 143.626 254.398 144.787 252.847 145.843C249.36 148.23 245.576 150.1 241.61 151.568H35.7399C28.8319 151.568 22.6939 149.599 17.5514 146.189C9.88992 141.113 4.44492 132.824 1.98092 123.084C-1.24768 110.313 1.90932 96.0956 10.2419 85.8929C16.7319 77.9509 25.6639 76.334 35.1514 74.024C44.9139 71.648 55.0504 67.3524 60.1544 58.6956C63.7404 52.6179 64.3124 45.2755 66.5839 38.5986C76.5939 9.07996 117.134 -7.23304 144.75 6.78646C151.025 9.97096 156.712 14.47 163.477 16.417C177.194 20.3605 187.468 11.9785 200.756 10.8619C212.697 9.85536 224.83 17.7149 228.79 29.0284C231.457 36.6405 229.318 44.907 233.195 52.0405C241.176 66.698 261.223 67.1985 269.886 81.471C281.425 100.49 273.087 128.27 257.313 142.356Z" fill="#F3F3F3"/>
<path d="M14.7043 66.4256C14.2987 66.122 13.9171 65.7814 13.5631 65.4008C8.00591 59.4256 12.1991 51.6966 16.929 46.7792C22.9222 40.5485 33.2193 35.7175 41.8225 35.1551C52.9984 34.4246 56.1444 45.6277 50.7938 54.1851C47.1344 60.0377 40.77 64.0814 34.348 66.2864C28.8265 68.1823 19.8403 70.2699 14.7043 66.4256Z" fill="#EBECFF"/>
<path d="M96.862 138.123L96.8535 137.499C97.4594 137.491 98.0665 137.476 98.6742 137.452C98.894 137.444 99.1138 137.435 99.3324 137.423L99.3653 138.045C99.143 138.057 98.9208 138.067 98.6979 138.076C98.0847 138.099 97.4727 138.115 96.862 138.123ZM94.3569 138.113C93.5105 138.094 92.6684 138.06 91.853 138.011L91.8908 137.388C92.6976 137.437 93.5318 137.471 94.3703 137.49L94.3569 138.113ZM101.866 137.852L101.803 137.232C102.607 137.151 103.435 137.048 104.264 136.927L104.354 137.545C103.516 137.667 102.679 137.77 101.866 137.852ZM89.3527 137.809C88.516 137.724 87.6788 137.619 86.864 137.499L86.9553 136.882C87.7609 137.001 88.589 137.105 89.416 137.189L89.3527 137.809ZM106.823 137.138L106.711 136.524C107.528 136.375 108.339 136.213 109.147 136.041L109.276 136.652C108.463 136.825 107.646 136.988 106.823 137.138ZM84.3912 137.068C83.5618 136.902 82.7386 136.713 81.9439 136.507L82.101 135.903C82.8841 136.106 83.6958 136.292 84.5142 136.457L84.3912 137.068ZM111.715 136.106L111.574 135.498C112.382 135.311 113.188 135.116 113.996 134.919L114.143 135.525C113.335 135.722 112.526 135.917 111.715 136.106ZM79.5326 135.798C78.7255 135.532 77.9311 135.24 77.1724 134.93L77.4087 134.352C78.154 134.657 78.9341 134.945 79.7275 135.206L79.5326 135.798ZM116.566 134.93L116.417 134.325C117.222 134.126 118.03 133.93 118.844 133.737L118.987 134.343C118.176 134.536 117.369 134.733 116.566 134.93ZM74.8823 133.885C74.1224 133.501 73.3834 133.085 72.6865 132.65L73.0165 132.121C73.6979 132.546 74.4204 132.953 75.1636 133.329L74.8823 133.885ZM121.414 133.787L121.279 133.178C122.089 132.999 122.905 132.828 123.73 132.667L123.849 133.279C123.029 133.439 122.218 133.609 121.414 133.787ZM209.512 133.369V132.746C210.344 132.746 211.176 132.72 211.984 132.67L212.023 133.293C211.201 133.344 210.357 133.369 209.512 133.369ZM207.002 133.297C206.189 133.251 205.348 133.182 204.501 133.091L204.568 132.471C205.404 132.561 206.234 132.629 207.037 132.675L207.002 133.297ZM214.526 133.057L214.448 132.438C215.263 132.334 216.084 132.202 216.888 132.044L217.008 132.656C216.19 132.817 215.355 132.951 214.526 133.057ZM126.297 132.829L126.185 132.215C127.002 132.066 127.817 131.91 128.631 131.752L128.751 132.363C127.934 132.523 127.116 132.678 126.297 132.829ZM202.016 132.765C201.219 132.643 200.389 132.5 199.548 132.34L199.665 131.727C200.498 131.886 201.32 132.028 202.109 132.149L202.016 132.765ZM219.457 132.091L219.296 131.488C220.082 131.278 220.877 131.035 221.659 130.766L221.862 131.355C221.067 131.629 220.257 131.877 219.457 132.091ZM131.2 131.87L131.073 131.26C131.885 131.092 132.698 130.92 133.51 130.745L133.642 131.355C132.827 131.53 132.013 131.702 131.2 131.87ZM197.097 131.833C196.286 131.652 195.475 131.461 194.664 131.262L194.812 130.657C195.619 130.855 196.426 131.045 197.232 131.224L197.097 131.833ZM70.6143 131.214C69.9433 130.697 69.2987 130.144 68.6986 129.57L69.1297 129.12C69.7137 129.678 70.3412 130.217 70.9948 130.719L70.6143 131.214ZM136.08 130.822L135.945 130.213C136.756 130.033 137.567 129.852 138.377 129.67L138.515 130.277C137.703 130.461 136.892 130.642 136.08 130.822ZM192.243 130.645C191.441 130.435 190.637 130.218 189.832 129.999L189.997 129.397C190.799 129.617 191.601 129.832 192.401 130.042L192.243 130.645ZM224.21 130.455L223.967 129.881C224.723 129.561 225.478 129.211 226.21 128.842L226.491 129.398C225.746 129.774 224.979 130.129 224.21 130.455ZM140.947 129.726L140.809 129.119L143.241 128.566L143.378 129.173L140.947 129.726ZM187.428 129.341C186.63 129.121 185.829 128.901 185.024 128.683L185.187 128.082C185.992 128.3 186.794 128.519 187.594 128.739L187.428 129.341ZM145.811 128.624L145.673 128.016C146.484 127.833 147.296 127.652 148.109 127.474L148.243 128.083C147.431 128.261 146.621 128.442 145.811 128.624ZM228.697 128.193L228.38 127.656C229.089 127.238 229.791 126.793 230.469 126.332L230.82 126.848C230.13 127.316 229.417 127.769 228.697 128.193ZM182.617 128.056C181.805 127.854 180.999 127.665 180.197 127.488L180.331 126.879C181.139 127.057 181.95 127.248 182.767 127.451L182.617 128.056ZM66.9757 127.726C66.4389 127.082 65.9338 126.398 65.4744 125.696L65.9962 125.355C66.4425 126.037 66.9333 126.701 67.4549 127.326L66.9757 127.726ZM150.678 127.556L150.548 126.946C151.362 126.772 152.176 126.602 152.992 126.435L153.116 127.046C152.303 127.212 151.49 127.383 150.678 127.556ZM177.764 126.987C176.945 126.832 176.13 126.691 175.317 126.564L175.413 125.947C176.233 126.076 177.055 126.218 177.879 126.375L177.764 126.987ZM155.557 126.593L155.455 125.978C156.28 125.84 157.114 125.718 157.934 125.615L158.012 126.234C157.2 126.336 156.374 126.456 155.557 126.593ZM172.857 126.223C172.026 126.123 171.195 126.039 170.388 125.973L170.439 125.352C171.253 125.418 172.092 125.503 172.932 125.604L172.857 126.223ZM160.478 125.975L160.426 125.354C161.251 125.285 162.093 125.232 162.927 125.197L162.953 125.82C162.128 125.855 161.295 125.907 160.478 125.975ZM167.912 125.821C167.087 125.786 166.253 125.768 165.432 125.768V125.145C166.261 125.145 167.104 125.162 167.938 125.197L167.912 125.821ZM64.2167 123.509C63.8453 122.768 63.507 121.99 63.2111 121.195L63.7957 120.977C64.0837 121.751 64.4128 122.509 64.7739 123.228L64.2167 123.509ZM62.4541 118.791C62.2468 117.998 62.0711 117.169 61.9316 116.329L62.5466 116.226C62.683 117.048 62.8547 117.858 63.0575 118.634L62.4541 118.791ZM68.723 90.4251L68.206 90.0768C68.6685 89.3899 69.1596 88.7031 69.6656 88.0339L70.1631 88.4102C69.6638 89.0702 69.1791 89.748 68.723 90.4251ZM246.902 90.0835C246.76 89.2791 246.585 88.4674 246.382 87.6709L246.986 87.5162C247.193 88.3285 247.371 89.1554 247.516 89.975L246.902 90.0835ZM71.7104 86.4762L71.2342 86.0731C71.7697 85.4398 72.3318 84.8096 72.9048 84.1994L73.3591 84.6269C72.7937 85.2285 72.2389 85.8502 71.7104 86.4762ZM245.683 85.3022C245.421 84.5252 245.128 83.7476 244.81 82.9913L245.385 82.7502C245.708 83.5205 246.007 84.3121 246.274 85.1037L245.683 85.3022ZM75.0975 82.8598L74.6621 82.4129C75.2588 81.8314 75.8672 81.2596 76.4834 80.6957L76.9042 81.156C76.2928 81.715 75.6894 82.2819 75.0975 82.8598ZM243.774 80.7481C243.401 80.0119 242.999 79.283 242.582 78.5815L243.117 78.2624C243.542 78.9761 243.95 79.7171 244.33 80.4655L243.774 80.7481ZM78.7571 79.4967L78.3461 79.0278C78.9712 78.4792 79.6008 77.9348 80.2319 77.3916L80.6387 77.8641C80.0094 78.4061 79.381 78.9493 78.7571 79.4967ZM241.246 76.502C240.783 75.8328 240.288 75.163 239.773 74.5126L240.263 74.1253C240.786 74.7872 241.289 75.4674 241.758 76.1475L241.246 76.502ZM82.5297 76.2384L82.1229 75.7659C82.7519 75.2233 83.3785 74.6784 83.9996 74.1291L84.4124 74.5968C83.7902 75.1472 83.1612 75.6934 82.5297 76.2384ZM86.2685 72.9191L85.8447 72.4612C86.4895 71.8645 87.0759 71.3024 87.638 70.744L88.0776 71.1861C87.5101 71.75 86.9182 72.3169 86.2685 72.9191ZM238.178 72.6207C237.632 72.013 237.056 71.4102 236.467 70.8305L236.905 70.386C237.503 70.9748 238.087 71.5868 238.642 72.2042L238.178 72.6207ZM89.8173 69.3794L89.3582 68.958C89.9269 68.3375 90.4719 67.7079 90.9785 67.0874L91.462 67.482C90.9475 68.1117 90.3946 68.7498 89.8173 69.3794ZM234.655 69.1407C234.049 68.6042 233.412 68.0678 232.76 67.5459L233.149 67.0588C233.81 67.5873 234.456 68.1305 235.069 68.6743L234.655 69.1407ZM230.789 66.0419C230.127 65.5621 229.442 65.0865 228.751 64.6286L229.096 64.1086C229.794 64.572 230.487 65.0524 231.155 65.5377L230.789 66.0419ZM92.9819 65.4805L92.4728 65.1212C92.7474 64.7315 93.0147 64.3357 93.2729 63.932C93.4598 63.6403 93.6383 63.3474 93.8094 63.0515L94.3489 63.3645C94.1729 63.6677 93.9896 63.9692 93.7978 64.2681C93.5348 64.6792 93.2626 65.0835 92.9819 65.4805ZM226.657 63.2993C225.96 62.8761 225.238 62.4553 224.512 62.0492L224.816 61.5048C225.55 61.9146 226.278 62.339 226.981 62.7659L226.657 63.2993ZM95.4986 61.12L94.9299 60.8643C95.2569 60.1366 95.5601 59.3657 95.8305 58.5729L96.4212 58.7738C96.144 59.5855 95.8335 60.3747 95.4986 61.12ZM222.325 60.8728C221.59 60.4934 220.847 60.1244 220.1 59.7664L220.369 59.2038C221.122 59.5649 221.87 59.9369 222.611 60.3187L222.325 60.8728ZM217.844 58.7214C217.088 58.3828 216.327 58.0534 215.563 57.7325L215.804 57.1577C216.573 57.481 217.339 57.8117 218.099 58.1527L217.844 58.7214ZM213.26 56.7924C212.488 56.4873 211.713 56.189 210.938 55.8973L211.158 55.314C211.936 55.6069 212.713 55.9065 213.489 56.2128L213.26 56.7924ZM97.1311 56.3588L96.527 56.2066C96.72 55.4412 96.896 54.6283 97.0488 53.7904L97.6626 53.9024C97.5068 54.7543 97.3278 55.5806 97.1311 56.3588ZM208.603 55.046C207.823 54.7756 207.036 54.5181 206.243 54.2721L206.428 53.6766C207.227 53.925 208.02 54.1838 208.808 54.4566L208.603 55.046ZM203.86 53.5669C203.063 53.3422 202.262 53.1248 201.458 52.9141L201.616 52.3113C202.424 52.5232 203.228 52.7406 204.029 52.9665L203.86 53.5669ZM199.045 52.2967C198.24 52.0951 197.432 51.8966 196.625 51.6981L196.774 51.0928C197.582 51.2913 198.39 51.4898 199.196 51.6914L199.045 52.2967ZM98.0506 51.4247L97.4319 51.3431C97.5336 50.5777 97.6255 49.7709 97.7126 48.8763L98.3337 48.9372C98.2454 49.8385 98.1529 50.6526 98.0506 51.4247ZM194.202 51.1026C193.393 50.9029 192.587 50.7001 191.781 50.4931L191.937 49.889C192.74 50.096 193.545 50.2976 194.352 50.4973L194.202 51.1026ZM189.367 49.8531C188.562 49.6321 187.76 49.4037 186.963 49.1656L187.142 48.5676C187.934 48.8045 188.731 49.0316 189.532 49.2514L189.367 49.8531ZM184.576 48.413C183.765 48.1439 182.971 47.8631 182.214 47.5788L182.433 46.9955C183.182 47.2768 183.969 47.5545 184.772 47.8212L184.576 48.413ZM179.887 46.6459C179.125 46.3189 178.377 45.9755 177.663 45.6241L177.607 45.5967L177.746 45.3178L177.936 45.0639C178.642 45.411 179.381 45.7502 180.133 46.0723L179.887 46.6459ZM98.5517 46.448L97.9306 46.3981C97.9824 45.7453 98.0317 45.0913 98.081 44.4368L98.12 43.9125L98.7423 43.96L98.7027 44.4831C98.6534 45.1388 98.6041 45.794 98.5517 46.448ZM175.387 44.4288C174.669 44.0287 173.943 43.5994 173.227 43.1531L173.557 42.6246C174.264 43.0649 174.981 43.4887 175.69 43.8845L175.387 44.4288ZM171.131 41.7787C170.455 41.3141 169.771 40.8221 169.096 40.3148L169.47 39.8167C170.138 40.3178 170.816 40.8056 171.484 41.2647L171.131 41.7787ZM98.9408 41.4767L98.3197 41.4231C98.3916 40.5913 98.4713 39.7613 98.5645 38.9332L99.1844 39.0026C99.0912 39.8259 99.0127 40.651 98.9408 41.4767ZM167.123 38.7707C166.486 38.2525 165.842 37.7081 165.209 37.154L165.62 36.6851C166.248 37.2343 166.886 37.7732 167.516 38.2872L167.123 38.7707ZM99.509 36.5438L98.8928 36.4488C99.0274 35.5774 99.1735 34.7694 99.3404 33.979L99.9505 34.1081C99.786 34.8869 99.6417 35.6834 99.509 36.5438ZM163.352 35.4733C162.743 34.9033 162.143 34.3237 161.552 33.7348L161.991 33.2927C162.578 33.8767 163.174 34.4527 163.778 35.0178L163.352 35.4733ZM159.802 31.9458C159.227 31.3411 158.66 30.7298 158.101 30.1123L158.009 30.01L158.474 29.5947L158.561 29.6909C159.119 30.3071 159.682 30.9148 160.254 31.5158L159.802 31.9458ZM100.543 31.7102L99.9437 31.5385C100.161 30.7792 100.404 30.0338 100.668 29.3232L100.734 29.1472L101.316 29.3701L101.252 29.5394C100.995 30.2354 100.756 30.9661 100.543 31.7102ZM156.373 28.1157C155.839 27.4763 155.314 26.8284 154.792 26.1787L155.278 25.7878C155.798 26.4351 156.32 27.0793 156.851 27.7163L156.373 28.1157ZM102.294 27.1073L101.734 26.8345C102.097 26.0886 102.503 25.3439 102.938 24.6204L103.472 24.9419C103.046 25.6496 102.65 26.3784 102.294 27.1073ZM153.233 24.2326C152.713 23.5853 152.189 22.9417 151.658 22.3066L152.137 21.9071C152.67 22.5446 153.196 23.1913 153.719 23.8417L153.233 24.2326ZM104.837 22.8881L104.333 22.5215C104.824 21.8462 105.352 21.1831 105.901 20.5498L106.373 20.959C105.834 21.5783 105.318 22.2274 104.837 22.8881ZM150.033 20.4329C149.441 19.7801 148.881 19.1956 148.321 18.6469L148.757 18.2012C149.326 18.759 149.895 19.3521 150.495 20.014L150.033 20.4329ZM108.066 19.1651L107.631 18.7181C108.231 18.1341 108.863 17.5691 109.509 17.0381L109.905 17.5204C109.272 18.0398 108.653 18.5933 108.066 19.1651ZM146.492 16.9901C145.845 16.4506 145.184 15.9519 144.528 15.508L144.877 14.9916C145.55 15.4471 146.228 15.958 146.892 16.5109L146.492 16.9901ZM111.875 16.0365L111.521 15.5232C112.211 15.047 112.928 14.5964 113.654 14.1823L113.964 14.7242C113.252 15.1292 112.55 15.5706 111.875 16.0365ZM142.419 14.2462C142.21 14.1372 141.998 14.0306 141.784 13.9283C141.258 13.6768 140.719 13.4387 140.18 13.2195L140.415 12.6422C140.965 12.8657 141.516 13.1092 142.053 13.3656C142.274 13.4716 142.492 13.5806 142.708 13.6932L142.419 14.2462ZM116.156 13.5977L115.896 13.0314C116.659 12.6801 117.445 12.361 118.231 12.0821L118.439 12.6691C117.671 12.9419 116.903 13.2543 116.156 13.5977ZM137.857 12.3878C137.078 12.1436 136.276 11.9287 135.475 11.7478L135.612 11.1401C136.43 11.324 137.248 11.5438 138.043 11.7923L137.857 12.3878ZM120.798 11.953L120.643 11.3489C121.447 11.1425 122.276 10.9653 123.105 10.8222L123.211 11.4372C122.398 11.5773 121.587 11.7509 120.798 11.953ZM133.047 11.3009C132.234 11.1846 131.408 11.0993 130.591 11.0464L130.632 10.4241C131.465 10.4777 132.307 10.5654 133.135 10.6835L133.047 11.3009ZM125.659 11.1145L125.601 10.4934C126.436 10.4167 127.281 10.3722 128.115 10.3613L128.124 10.9848C127.306 10.9958 126.476 11.039 125.659 11.1145Z" fill="#D7D7D7"/>
<path d="M83.614 33.9219H51.0449V68.1998H83.614C93.0795 68.1998 100.753 60.5265 100.753 51.0612C100.753 41.5955 93.0795 33.9219 83.614 33.9219Z" fill="#0880EA"/>
<path d="M83.6152 71.6425H51.0467C39.6981 71.6425 30.4648 62.4092 30.4648 51.0605C30.4648 39.7118 39.6981 30.4785 51.0467 30.4785H83.6152C94.9638 30.4785 104.197 39.7118 104.197 51.0605C104.197 62.4092 94.9638 71.6425 83.6152 71.6425ZM51.0467 31.4622C40.2399 31.4622 31.4484 40.2537 31.4484 51.0605C31.4484 61.8673 40.2399 70.6588 51.0467 70.6588H83.6152C94.422 70.6588 103.213 61.8673 103.213 51.0605C103.213 40.2537 94.422 31.4622 83.6152 31.4622H51.0467Z" fill="#0880EA"/>
<path d="M51.0452 68.1997C60.5107 68.1997 68.1841 60.5263 68.1841 51.0608C68.1841 41.5952 60.5107 33.9219 51.0452 33.9219C41.5796 33.9219 33.9062 41.5952 33.9062 51.0608C33.9062 60.5263 41.5796 68.1997 51.0452 68.1997Z" fill="white"/>
<path d="M62.7918 55.929C62.4034 56.8501 61.9213 57.7134 61.3458 58.5119C59.0363 61.699 55.2881 63.7783 51.0435 63.7783C45.7411 63.7783 41.1871 60.5192 39.2878 55.9005C38.9713 55.1234 38.7266 54.3034 38.5684 53.4615C39.9065 52.4616 41.5541 51.6701 43.4606 51.2241C44.2592 51.037 45.5901 50.9004 45.5901 50.9004C45.5901 50.9004 48.4246 50.9292 50.3456 51.1233C51.1298 51.2097 53.2162 51.1737 53.9859 51.3392C56.0076 51.7781 57.9932 52.4184 59.7199 53.5551C60.0724 53.7852 60.3962 54.0659 60.7199 54.368C61.5112 54.7276 62.2235 55.26 62.7918 55.929Z" fill="#0880EA"/>
<path d="M51.2344 57.0479C50.8396 57.0479 50.4375 57.0051 50.0384 56.9165C47.8488 56.4287 45.8039 54.6354 44.5684 52.1188L44.7923 52.0098C45.9942 54.4583 47.9759 56.202 50.0929 56.6732C51.3722 56.9565 53.1407 56.7657 54.2028 55.6957C55.0371 54.8545 55.2937 53.6084 54.9442 52.0925L55.1866 52.036C55.6539 54.062 55.006 55.24 54.3795 55.8709C53.6279 56.6283 52.4674 57.0479 51.2344 57.0479Z" fill="#587CF8"/>
<path d="M45.5898 50.8986C45.5898 50.8986 46.0953 51.8116 46.4355 52.3038C46.9524 53.0495 47.5829 53.6998 48.294 54.2013C48.7686 54.5386 49.2793 54.8093 49.8131 54.9946C50.805 55.3389 51.9926 55.3747 52.92 54.8259C54.1518 54.097 54.4065 52.6095 53.9864 51.3389L50.0425 50.4238L45.5898 50.8986Z" fill="#FFC4B6"/>
<path d="M50.4445 53.8508C52.0469 53.9015 53.4167 53.675 53.4392 51.9264L53.457 50.5499L53.4583 50.489L53.459 50.4493L53.5344 44.6461L47.7318 44.2539L47.7129 45.6878L47.7124 45.6897L47.713 45.7318L47.7121 45.8191L47.6351 51.7396C47.6126 53.4879 48.8409 53.7985 50.4445 53.8508Z" fill="#FFC4B6"/>
<path d="M47.7135 45.7317C47.7297 45.7772 47.7457 45.8218 47.7609 45.8621C48.0309 46.5504 48.3542 47.2078 48.7479 47.783C49.8743 49.4297 51.6353 50.3209 53.4575 50.5499L53.4588 50.489L53.4595 50.4493L53.5349 44.6461L47.7323 44.2539L47.7134 45.6878L47.7129 45.6897L47.7135 45.7317Z" fill="#EA8883"/>
<path d="M48.9547 47.0042C49.1249 47.033 49.2918 47.039 49.4418 47.011C49.9856 46.9095 50.4865 46.3807 50.881 46.0309C51.7778 45.2358 52.6648 45.2657 53.8034 45.3288C55.1871 45.4055 56.4337 45.1948 57.3585 44.0881C58.4246 42.8123 59.1669 40.6751 58.085 39.1849C57.3879 38.2248 57.0189 37.4026 56.61 36.2735C55.7545 33.9112 52.7399 32.5096 50.3226 33.1588C49.1005 33.487 47.9093 34.176 46.9524 34.99C45.709 36.0478 44.2529 37.7929 44.1501 39.4877C44.0972 40.3606 44.3388 41.2461 44.4254 42.1116C44.4991 42.8483 44.3398 43.6671 44.7477 44.3355C45.1656 45.0202 46.0059 45.2877 46.6854 45.7141C47.1146 45.9834 47.4922 46.3285 47.9207 46.5988C48.1824 46.7638 48.5766 46.9402 48.9547 47.0042Z" fill="#181818"/>
<path d="M45.0896 33.7248C45.1946 34.8756 46.09 35.9414 47.0073 36.5771C47.8193 37.1398 49.4068 37.3785 50.2863 36.8459C51.6339 36.0298 51.4297 33.6337 50.8429 32.4352C50.42 31.5714 49.6112 31.0266 48.6978 30.78C46.8315 30.2763 44.9116 31.7747 45.0896 33.7248Z" fill="#181818"/>
<path d="M45.6682 44.0075C45.8023 44.181 45.9728 44.3289 46.1699 44.4354C46.4989 44.6109 46.8718 44.7037 47.2441 44.6998C47.2627 45.1496 47.3398 45.5896 47.4707 46.015C47.4755 46.0277 47.4788 46.0419 47.4836 46.0545C47.5224 46.1747 47.5659 46.2932 47.6125 46.4102C47.6157 46.4213 47.6206 46.4324 47.6254 46.4418C47.6994 46.6204 47.7812 46.7958 47.8726 46.9663C47.895 47.0058 47.9175 47.0468 47.9415 47.0863C47.9687 47.1353 47.9976 47.1842 48.0279 47.2315C48.1255 47.3893 48.2358 47.5424 48.3555 47.689C48.6524 48.0579 49.0109 48.3885 49.4103 48.6713C50.3236 49.3169 51.443 49.7062 52.5077 49.714C53.1637 49.7195 53.7283 49.5577 54.2146 49.2775C54.3236 49.2166 54.4277 49.1479 54.5286 49.0728C55.2779 48.5264 55.8146 47.6787 56.1892 46.7448C56.5716 45.7919 56.7825 44.7734 56.892 43.754C56.991 42.8297 57.1568 41.6975 56.6653 40.8575C56.47 40.5228 56.1926 40.2456 55.9657 39.9317C55.6302 39.4663 55.4082 38.9179 55.3239 38.3496C52.6631 41.384 49.4623 42.6202 47.5188 42.7159C47.4691 42.607 47.4138 42.4854 47.3327 42.3968C46.9931 42.0258 46.3559 41.8801 45.8941 42.0825C45.1499 42.4088 45.2545 43.4697 45.6682 44.0075Z" fill="#FFC4B6"/>
<path d="M55.4617 37.9707C54.9206 39.5038 54.2435 40.9918 52.7744 41.834C51.2569 42.704 49.396 42.9136 47.6924 42.6109C47.5922 42.5931 47.6335 42.4401 47.7335 42.4579C49.3944 42.753 51.2148 42.5456 52.6937 41.6977C54.1271 40.876 54.7814 39.4237 55.3087 37.9295C55.3425 37.8341 55.4958 37.8742 55.4617 37.9707Z" fill="#181818"/>
<path d="M47.1943 43.4221C47.1332 42.8715 46.5951 42.564 46.0838 42.7609C46.0124 42.7884 45.9807 42.6738 46.0515 42.6465C46.6415 42.4192 47.244 42.799 47.3131 43.4213C47.3215 43.4973 47.2026 43.4975 47.1943 43.4221Z" fill="#EA8883"/>
<path d="M92.9654 50.8516H71.5801V51.405H92.9654V50.8516Z" fill="#DCDFEA"/>
<path d="M92.9654 55.1172H71.5801V55.6706H92.9654V55.1172Z" fill="#DCDFEA"/>
<path d="M92.9654 59.3828H71.5801V59.9362H92.9654V59.3828Z" fill="#DCDFEA"/>
<path d="M73.6343 46.8117H72.9004V42.1855H73.6343V44.175H76.1194V42.1855H76.8456V46.8118H76.1194V44.8224H73.6343V46.8117Z" fill="#DCDFEA"/>
<path d="M81.0817 46.8117H78.1211V42.1855H81.0817V42.8398H78.855V44.175H81.0154V44.8224H78.855V46.1576H81.0817V46.8117Z" fill="#DCDFEA"/>
<path d="M85.2262 46.8117H82.2656V42.1855H82.9995V46.1576H85.2262V46.8117Z" fill="#DCDFEA"/>
<path d="M86.978 46.8117H86.2441V42.1855H88.0942C88.5659 42.1855 88.9491 42.3238 89.245 42.6014C89.5399 42.879 89.6878 43.2296 89.6878 43.6523C89.6878 44.0711 89.5399 44.4169 89.245 44.6898C88.9491 44.9636 88.5659 45.1 88.0942 45.1H86.978V46.8117ZM86.978 42.8396V44.4458H88.0942C88.3411 44.4458 88.5428 44.3698 88.6994 44.218C88.856 44.0653 88.9338 43.8752 88.9338 43.6456C88.9338 43.4122 88.856 43.22 88.6994 43.0672C88.5428 42.9154 88.3411 42.8396 88.0942 42.8396L86.978 42.8396Z" fill="#DCDFEA"/>
<path d="M90.7793 46.4286C90.7793 46.3143 90.8225 46.2134 90.908 46.1279C90.9945 46.0414 91.0963 45.9992 91.2154 45.9992C91.3345 45.9992 91.4354 46.0415 91.519 46.1279C91.6035 46.2134 91.6448 46.3143 91.6448 46.4286C91.6448 46.5477 91.6035 46.6494 91.519 46.7359C91.4354 46.8214 91.3346 46.8646 91.2154 46.8646C91.0962 46.8646 90.9945 46.8214 90.908 46.7359C90.8225 46.6494 90.7793 46.5477 90.7793 46.4286ZM91.4729 45.4506H90.9513L90.8322 43.4344V42.1855H91.5988V43.4344L91.4729 45.4506Z" fill="#DCDFEA"/>
<path d="M167.272 28.777C175.099 28.777 181.443 22.4325 181.443 14.6062C181.443 6.77999 175.099 0.435547 167.272 0.435547C159.446 0.435547 153.102 6.77999 153.102 14.6062C153.102 22.4325 159.446 28.777 167.272 28.777Z" fill="#0880EA"/>
<path d="M173.883 9.34961H160.662C160.159 9.34961 159.752 9.75711 159.752 10.2599V19.6694C159.752 20.172 160.159 20.5795 160.662 20.5795H173.883C174.385 20.5795 174.793 20.172 174.793 19.6694V10.2599C174.793 9.75711 174.386 9.34961 173.883 9.34961ZM174.243 12.0591H160.302V10.2599C160.302 10.0612 160.463 9.89951 160.662 9.89951H173.883C174.081 9.89951 174.243 10.0612 174.243 10.2599V12.0591Z" fill="#F7F7F7"/>
<path d="M170.04 16.8672H167.852V19.0556H170.04V16.8672Z" fill="#91AAF7"/>
<path d="M163.405 13.584H161.217V15.7724H163.405V13.584Z" fill="#DADADA"/>
<path d="M166.722 13.584H164.533V15.7724H166.722V13.584Z" fill="#DADADA"/>
<path d="M170.04 13.584H167.852V15.7724H170.04V13.584Z" fill="#DADADA"/>
<path d="M173.356 13.584H171.168V15.7724H173.356V13.584Z" fill="#DADADA"/>
<path d="M163.405 16.8672H161.217V19.0556H163.405V16.8672Z" fill="#DADADA"/>
<path d="M166.722 16.8672H164.533V19.0556H166.722V16.8672Z" fill="#DADADA"/>
<path d="M173.356 16.8672H171.168V19.0556H173.356V16.8672Z" fill="#DADADA"/>
<path d="M165.918 9.9707H165.035C165.016 9.9707 165 9.9865 165 10.0059V10.8889C165 10.9083 165.016 10.9241 165.035 10.9241H165.918C165.938 10.9241 165.953 10.9083 165.953 10.8889V10.0059C165.953 9.9864 165.938 9.9707 165.918 9.9707Z" fill="#A9A9A9"/>
<path d="M165.715 10.704H165.24C165.229 10.704 165.221 10.6955 165.221 10.6851V8.65171C165.221 8.64121 165.229 8.63281 165.24 8.63281H165.715C165.725 8.63281 165.734 8.64131 165.734 8.65171V10.6851C165.734 10.6956 165.725 10.704 165.715 10.704Z" fill="#F7F7F7"/>
<path d="M169.508 9.9707H168.625C168.606 9.9707 168.59 9.9865 168.59 10.0059V10.8889C168.59 10.9083 168.606 10.9241 168.625 10.9241H169.508C169.527 10.9241 169.543 10.9083 169.543 10.8889V10.0059C169.543 9.9864 169.528 9.9707 169.508 9.9707Z" fill="#A9A9A9"/>
<path d="M169.304 10.704H168.829C168.819 10.704 168.811 10.6955 168.811 10.6851V8.65171C168.811 8.64121 168.819 8.63281 168.829 8.63281H169.304C169.315 8.63281 169.323 8.64131 169.323 8.65171V10.6851C169.323 10.6956 169.315 10.704 169.304 10.704Z" fill="#F7F7F7"/>
<path d="M167.251 27.121C166.107 27.121 164.986 26.9637 163.918 26.653C158.868 25.2384 155.202 20.7872 154.796 15.5758C154.537 12.2522 155.591 9.02125 157.764 6.47765C159.938 3.93275 162.965 2.38864 166.287 2.12954C166.619 2.10314 166.947 2.08984 167.275 2.08984C173.758 2.08984 179.237 7.15454 179.747 13.6205C180.002 16.9679 178.95 20.2029 176.787 22.7279C175.158 24.6343 173.028 25.9907 170.626 26.6517C169.821 26.8738 169.041 27.0153 168.241 27.0814C167.907 27.1077 167.586 27.121 167.251 27.121ZM167.278 2.83544C166.976 2.83544 166.66 2.84864 166.346 2.87514C159.882 3.38144 155.036 9.05295 155.542 15.5163C155.9 20.2835 159.236 24.4386 163.84 25.8559C164.948 26.1996 166.094 26.3741 167.247 26.3741C167.556 26.3741 167.868 26.3609 168.182 26.3358C169.04 26.2671 169.887 26.1058 170.702 25.8559C172.827 25.216 174.736 23.9707 176.22 22.2547C178.26 19.8592 179.247 16.8146 179.001 13.6814C178.521 7.59865 173.372 2.83544 167.278 2.83544Z" fill="white"/>
<path d="M229.489 73.193C237.315 73.193 243.66 66.8485 243.66 59.0223C243.66 51.196 237.315 44.8516 229.489 44.8516C221.663 44.8516 215.318 51.196 215.318 59.0223C215.318 66.8485 221.663 73.193 229.489 73.193Z" fill="#0880EA"/>
<path d="M220.626 67.8606C219.817 67.052 219.136 66.148 218.6 65.173C216.029 60.6018 216.584 54.862 219.983 50.89C222.149 48.3567 225.179 46.817 228.515 46.5553C231.851 46.2926 235.083 47.3415 237.616 49.5074C237.869 49.7233 238.11 49.9458 238.342 50.1777C242.927 54.762 243.219 62.2171 239.008 67.1501C236.821 69.6975 233.79 71.2408 230.475 71.497C227.975 71.6933 225.51 71.1464 223.344 69.9153C222.618 69.5031 221.966 69.0515 221.354 68.5327C221.099 68.3149 220.862 68.0971 220.626 67.8606ZM237.817 50.7068C237.604 50.4937 237.371 50.2796 237.13 50.0758C232.201 45.8635 224.764 46.4469 220.552 51.3752C217.434 54.9995 216.854 60.2961 219.108 64.5542C219.649 65.5806 220.336 66.5145 221.151 67.3297C221.37 67.5484 221.6 67.7597 221.839 67.9635C222.494 68.5216 223.208 69.0067 223.96 69.4059C225.916 70.4566 228.146 70.9259 230.408 70.7614C233.545 70.5099 236.396 69.0554 238.437 66.666C242.399 62.0255 242.126 55.0163 237.817 50.7068Z" fill="white"/>
<path d="M234.672 57.3328L233.374 58.6311L233.374 58.6312L231.356 60.6488L228.6 59.9104L227.862 57.1543L229.813 55.2033L229.813 55.2031L231.177 53.8385C229.419 53.32 227.439 53.7544 226.051 55.1422C224.03 57.163 224.03 60.4392 226.051 62.4599C228.071 64.4806 231.348 64.4807 233.368 62.4599C234.757 61.072 235.191 59.0917 234.672 57.3328Z" fill="white"/>
<path d="M229.251 62.8449L223.163 68.9329C222.595 68.6713 222.068 68.3545 221.584 67.9662C221.386 67.8066 221.205 67.6445 221.026 67.4657C220.411 66.8505 219.925 66.1349 219.58 65.3497L225.668 59.2617L229.251 62.8449Z" fill="white"/>
<path d="M208.735 36.4781C216.561 36.4781 222.906 30.1337 222.906 22.3074C222.906 14.4812 216.561 8.13672 208.735 8.13672C200.909 8.13672 194.564 14.4812 194.564 22.3074C194.564 30.1337 200.909 36.4781 208.735 36.4781Z" fill="#0880EA"/>
<path d="M208.716 34.8242C207.572 34.8242 206.451 34.6669 205.383 34.3562C200.333 32.9416 196.667 28.4904 196.261 23.279C196.002 19.9554 197.056 16.7244 199.229 14.1808C201.402 11.6359 204.43 10.0918 207.752 9.83267C208.084 9.80627 208.412 9.79297 208.74 9.79297C215.223 9.79297 220.701 14.8577 221.212 21.3237C221.467 24.6711 220.414 27.9061 218.252 30.4311C216.623 32.3375 214.493 33.6939 212.091 34.3549C211.286 34.577 210.506 34.7185 209.706 34.7846C209.372 34.811 209.05 34.8242 208.716 34.8242ZM208.742 10.5386C208.441 10.5386 208.125 10.5518 207.81 10.5783C201.347 11.0846 196.5 16.7561 197.007 23.2195C197.365 27.9867 200.7 32.1418 205.305 33.559C206.413 33.9027 207.559 34.0772 208.712 34.0772C209.021 34.0772 209.333 34.064 209.647 34.0389C210.505 33.9702 211.352 33.8089 212.166 33.559C214.292 32.9191 216.201 31.6738 217.685 29.9578C219.724 27.5623 220.712 24.5177 220.466 21.3845C219.986 15.3019 214.837 10.5386 208.742 10.5386Z" fill="white"/>
<path d="M204.449 22.7164L203.057 24.0129H205.305V24.6856H201.964V24.0948L203.967 22.1934C204.284 21.8853 204.443 21.5838 204.443 21.2898C204.443 21.0637 204.366 20.8837 204.216 20.7499C204.063 20.6161 203.865 20.5492 203.621 20.5492C203.34 20.5492 203.122 20.6321 202.965 20.797C202.809 20.9628 202.731 21.1918 202.731 21.4867H201.957C201.957 20.993 202.11 20.5991 202.415 20.3052C202.721 20.0103 203.129 19.8633 203.641 19.8633C204.117 19.8633 204.497 19.9914 204.782 20.2468C205.067 20.5031 205.21 20.846 205.21 21.2757C205.211 21.7694 204.956 22.25 204.449 22.7164Z" fill="white"/>
<path d="M208.688 19.9316V23.0155H209.32V23.6807H208.688V24.686H207.934V23.6807H205.482V23.0155L207.894 19.9316H208.688ZM207.934 20.9237L206.304 23.0154H207.934V20.9237Z" fill="white"/>
<path d="M210.196 25.3651H209.482L211.092 19.252H211.805L210.196 25.3651Z" fill="white"/>
<path d="M212.207 19.9316H215.514V20.5224L213.579 24.686H212.757L214.699 20.6043H212.207L212.207 19.9316Z" fill="white"/>
<path d="M209.073 12.4795L208.396 12.4742L208.411 10.2598L209.088 10.2651L209.073 12.4795Z" fill="white"/>
<path d="M209.073 34.3583L208.396 34.353L208.411 32.1387L209.088 32.1439L209.073 34.3583Z" fill="white"/>
<path d="M218.579 21.9579L218.574 22.6348L220.789 22.6507L220.793 21.9738L218.579 21.9579Z" fill="white"/>
<path d="M196.7 21.9579L196.695 22.6348L198.91 22.6507L198.915 21.9738L196.7 21.9579Z" fill="white"/>
<path d="M134.72 55.5894C142.546 55.5894 148.89 49.245 148.89 41.4187C148.89 33.5925 142.546 27.248 134.72 27.248C126.893 27.248 120.549 33.5925 120.549 41.4187C120.549 49.245 126.893 55.5894 134.72 55.5894Z" fill="#0880EA"/>
<path d="M134.7 53.9335C133.557 53.9335 132.436 53.7762 131.368 53.4655C126.317 52.0509 122.651 47.5997 122.246 42.3883C121.986 39.0647 123.04 35.8337 125.213 33.2901C127.387 30.7452 130.414 29.2011 133.737 28.942C134.068 28.9156 134.396 28.9023 134.724 28.9023C141.207 28.9023 146.686 33.967 147.196 40.433C147.451 43.7804 146.399 47.0154 144.236 49.5404C142.607 51.4468 140.478 52.8032 138.075 53.4642C137.27 53.6863 136.49 53.8278 135.691 53.8939C135.356 53.9203 135.035 53.9335 134.7 53.9335ZM134.727 29.6479C134.425 29.6479 134.109 29.6611 133.795 29.6876C127.331 30.1939 122.485 35.8654 122.991 42.3288C123.349 47.096 126.685 51.2511 131.289 52.6683C132.397 53.012 133.544 53.1865 134.696 53.1865C135.006 53.1865 135.318 53.1733 135.631 53.1482C136.489 53.0795 137.336 52.9182 138.151 52.6683C140.277 52.0284 142.186 50.7831 143.669 49.0671C145.709 46.6716 146.696 43.627 146.45 40.4938C145.971 34.4111 140.821 29.6479 134.727 29.6479Z" fill="white"/>
<path d="M135.66 44.1933H133.706C133.706 43.622 133.789 43.1098 133.957 42.6567C134.124 42.2036 134.331 41.8445 134.58 41.5763C134.828 41.3096 135.098 41.0459 135.391 40.7853C135.682 40.5247 135.951 40.2989 136.2 40.1064C136.448 39.9139 136.656 39.6745 136.824 39.3896C136.992 39.1032 137.076 38.7865 137.076 38.4395C137.076 37.9061 136.877 37.4682 136.48 37.1272C136.082 36.7847 135.548 36.615 134.879 36.615C134.085 36.615 133.469 36.8408 133.034 37.2939C132.601 37.747 132.383 38.3774 132.383 39.1835H130.26C130.26 37.8318 130.68 36.7514 131.518 35.9437C132.356 35.1375 133.475 34.7344 134.879 34.7344C136.194 34.7344 137.239 35.0663 138.015 35.73C138.791 36.3937 139.179 37.2545 139.179 38.3091C139.179 38.8425 139.093 39.3244 138.919 39.7517C138.746 40.1805 138.525 40.5185 138.258 40.767C137.991 41.0155 137.706 41.2701 137.402 41.5307C137.097 41.7913 136.815 42.0293 136.555 42.2475C136.294 42.4642 136.079 42.74 135.912 43.0764C135.744 43.4114 135.66 43.7826 135.66 44.1933ZM133.463 46.8739C133.463 46.5511 133.581 46.2693 133.816 46.0268C134.053 45.7843 134.339 45.6646 134.674 45.6646C135.009 45.6646 135.294 45.7843 135.53 46.0268C135.765 46.2693 135.883 46.5511 135.883 46.8739C135.883 47.2088 135.765 47.4982 135.53 47.7407C135.294 47.9816 135.009 48.1029 134.674 48.1029C134.339 48.1029 134.053 47.9817 133.816 47.7407C133.581 47.4983 133.463 47.2088 133.463 46.8739Z" fill="white"/>
<path d="M241.285 102.425C235.703 116.703 237.155 132.851 237.369 148.702H165.132C165.11 147.371 165.083 146.04 165.044 144.709C165.022 143.768 164.994 142.822 164.967 141.882L164.95 141.238C164.906 139.841 164.868 138.45 164.84 137.059C164.818 136.112 164.802 135.161 164.791 134.215V134.209C164.791 134.017 164.785 133.824 164.785 133.632C164.692 126.779 164.675 120.487 165.973 114.31C166.276 112.875 166.65 111.439 167.112 110.009C167.689 108.222 168.405 106.434 169.284 104.636C169.284 104.636 169.29 104.636 169.29 104.63H169.416L171.27 104.576L172.953 104.52L178.783 104.339L184.486 104.163L204.847 103.536L205.233 103.525L205.403 103.52L206.03 103.498L211.172 103.344L216.887 103.168L220.886 103.041L225.159 102.909L226.419 102.871L240.85 102.425C240.955 102.414 241.06 102.414 241.181 102.414H241.285L241.285 102.425Z" fill="#9295A0"/>
<path d="M172.595 107.892C172.595 108.129 172.573 108.376 172.513 108.624C170.731 116.395 169.609 124.711 169.609 134.259V148.702H163.053V133.918C163.053 133.726 163.053 133.533 163.058 133.341C163.097 127.236 163.559 121.67 164.356 116.39C164.543 115.13 164.752 113.887 164.983 112.655C165.324 110.802 165.704 108.97 166.122 107.161C166.468 105.648 167.805 104.642 169.284 104.636C169.284 104.636 169.29 104.636 169.29 104.631H169.416C169.68 104.631 169.95 104.68 170.208 104.752C170.461 104.823 170.703 104.922 170.923 105.043C171.363 105.291 171.732 105.632 172.007 106.033C172.386 106.567 172.595 107.216 172.595 107.892Z" fill="#A9ABB8"/>
<path d="M244.348 106.418C242.561 114.19 241.439 124.711 241.439 134.259V148.702H234.883V134.259C234.883 124.112 236.043 113.244 237.957 104.95C238.276 103.52 239.481 102.54 240.85 102.425C240.955 102.414 241.059 102.414 241.18 102.414C241.213 102.414 241.252 102.414 241.285 102.425C241.532 102.425 241.78 102.469 242.044 102.541C243.721 103.013 244.733 104.713 244.348 106.418Z" fill="#A9ABB8"/>
<path d="M222.436 148.702H162.2L162.332 145.71L162.403 143.988L162.469 142.377L162.706 136.899L162.832 133.973L162.86 133.269L163.157 126.372L162.194 119.47L162.15 119.128L161.974 117.863L161.782 116.499L158.504 92.9321L158.57 92.5744L159.928 85.1164L159.945 85.0119L160.093 84.2034C160.478 83.6424 160.94 83.1144 161.474 82.6138C161.551 82.5479 161.622 82.4763 161.699 82.4104C164.603 79.8309 169.372 78.071 174.476 77.0369C175.114 76.9049 175.757 76.7894 176.401 76.6793L176.5 76.6629L176.599 76.6464C177 76.5803 177.407 76.5199 177.809 76.4649L177.985 76.4539L189.188 75.8929L190.607 75.8215L190.772 75.8105L191.311 75.816C191.685 75.8215 192.065 75.838 192.45 75.86C192.928 75.8874 193.418 75.9259 193.918 75.9755C193.962 75.981 194.006 75.9865 194.05 75.9919C194.083 75.9975 194.122 75.9975 194.155 76.0029C194.765 76.0635 195.381 76.1404 196.014 76.234C204.605 77.5044 214.846 81.415 219.653 84.924C219.702 84.957 219.752 84.9954 219.801 85.0285C220.054 85.2154 220.285 85.4026 220.505 85.5841C220.643 85.6996 220.769 85.8151 220.896 85.9305C220.929 85.958 220.956 85.9855 220.984 86.013C221.067 86.0954 221.149 86.1725 221.231 86.255C221.253 86.2825 221.281 86.3101 221.309 86.3321C221.424 86.4529 221.534 86.5741 221.633 86.6951L221.606 87.2727L221.369 92.4811L221 100.577L220.885 103.041L220.192 118.221L219.939 123.793L220.065 125.041L220.681 131.179L221.385 138.197L222.1 145.314L222.21 146.425L222.436 148.702Z" fill="white"/>
<path d="M181.645 139.398L186.999 133.419L183.174 88.8468L186.769 86.3599L181.978 83.0781L176.916 85.771L180.11 88.8468L176.285 133.419L181.645 139.398Z" fill="#0880EA"/>
<path d="M138.566 92.571C140.196 90.9418 140.196 88.3004 138.566 86.6712C136.937 85.042 134.296 85.042 132.667 86.6712C131.038 88.3004 131.038 90.9418 132.667 92.571C134.296 94.2001 136.937 94.2001 138.566 92.571Z" fill="#E8A695"/>
<path d="M131.523 90.4137C131.449 89.5974 131.372 88.7277 131.147 87.9397C130.668 86.2631 129.546 84.8566 128.751 83.3048C127.741 81.334 127.716 78.7954 127.327 76.6313C127.152 75.6573 126.658 74.8717 126.336 73.9307C125.978 72.8852 125.713 71.8106 125.455 70.7369C125.346 70.2841 125.238 69.8225 125.269 69.3579C125.306 68.8178 125.746 67.736 126.437 68.2932C126.647 68.4626 126.76 68.7211 126.865 68.9696C127.476 70.415 128.162 71.9993 129.332 73.0443C128.506 70.9766 127.977 68.7907 127.766 66.5742C127.683 65.7042 127.672 64.7505 128.194 64.0501C128.331 63.8673 128.529 63.691 128.757 63.6382C129.361 63.4981 129.619 64.2177 129.723 64.6643C130.259 66.9673 130.686 69.2983 131.912 71.5997C131.793 68.7759 131.474 65.9589 131.711 63.1425C131.761 62.5388 131.839 61.8915 132.242 61.4388C132.644 60.9861 133.491 60.8945 133.803 61.4141C134.046 61.8206 134.018 62.609 134.08 63.0842C134.246 64.3623 134.4 65.6457 134.602 66.9253C134.707 67.59 134.838 68.2506 134.994 68.9051C135.12 69.4278 135.529 70.2112 135.504 70.735C135.572 69.2994 135.787 67.5889 136.477 66.3024C136.772 65.7535 137.295 65.3361 137.924 65.2805C138.518 65.228 138.843 65.6398 139.21 66.0594C139.869 66.8106 140.531 67.5667 141.049 68.4205C141.355 68.9249 141.765 69.9569 141.248 70.4731C140.634 71.0861 139.679 70.0516 139.278 69.6347C139.093 70.5072 139.186 71.3882 139.284 72.2654C139.39 73.2035 139.586 74.1314 139.87 75.0317C139.915 75.1745 139.98 75.3353 140.123 75.3811C140.362 75.458 140.541 75.1579 140.601 74.9137C140.914 73.6369 140.795 72.2846 141.106 71.0072C141.207 70.59 141.485 69.9732 142.022 70.0706C142.419 70.1427 142.585 70.6104 142.674 71.0041C143.122 72.9908 143.467 74.985 143.713 77.0048C143.806 77.7637 143.897 78.5483 143.678 79.2808C143.494 79.8958 143.106 80.4251 142.748 80.9579C141.903 82.2143 141.192 83.5599 140.628 84.9646C140.505 85.2708 139.457 89.1384 139.755 89.0905C139.752 89.091 131.523 90.4137 131.523 90.4137Z" fill="#E8A695"/>
<path d="M139.494 77.6854C137.095 78.6326 135.514 80.885 135.438 83.4632C135.432 83.662 135.74 83.6464 135.746 83.4488C135.818 81.0198 137.326 78.8724 139.586 77.9799C139.77 77.9072 139.679 77.6124 139.494 77.6854Z" fill="#EA8883"/>
<path d="M160.113 84.75C157.049 89.2821 158.092 95.3843 162.393 98.6562C162.546 98.7729 162.704 98.8859 162.865 98.9952C167.559 102.169 173.937 100.937 177.11 96.2431C180.284 91.5494 179.052 85.1716 174.358 81.9979C169.665 78.8241 163.287 80.0563 160.113 84.75Z" fill="#E8A695"/>
<path d="M145.061 131.878C149.106 131.878 152.386 128.599 152.386 124.553C152.386 120.508 149.106 117.229 145.061 117.229C141.016 117.229 137.736 120.508 137.736 124.553C137.736 128.599 141.016 131.878 145.061 131.878Z" fill="#E8A695"/>
<path d="M177.108 96.2411C168.608 108.984 161.452 117.064 151.264 128.502L151.128 128.655L138.992 120.45C147.652 107.815 153.199 98.6464 160.019 84.9314L160.11 84.748L177.108 96.2411Z" fill="#E8A695"/>
<path d="M159.834 84.5041C163.122 79.6416 169.729 78.3652 174.592 81.653C178.36 84.201 179.974 88.7424 178.98 92.9204C178.685 94.1614 178.121 95.3123 177.496 96.4175C175.321 100.267 173.348 104.27 170.759 107.882C167.365 112.619 163.051 118.221 159.149 122.674L142.02 112.861C147.839 104.596 153.259 96.0565 158.259 87.2718L159.834 84.5041Z" fill="white"/>
<path d="M131.469 91.0745L140.576 88.7148C142.003 94.2225 144.11 99.0755 146.976 106.888C149.414 113.535 151.324 119.458 152.19 122.801L137.894 126.505C134.874 113.002 133.661 104.82 131.482 91.1565L131.469 91.0745Z" fill="#E8A695"/>
<path d="M145.001 131.877C149.079 131.877 152.385 128.571 152.385 124.493C152.385 120.415 149.079 117.109 145.001 117.109C140.923 117.109 137.617 120.415 137.617 124.493C137.617 128.571 140.923 131.877 145.001 131.877Z" fill="#E8A695"/>
<path d="M135.981 94.4389C138.579 94.4389 140.685 92.3329 140.685 89.735C140.685 87.1372 138.579 85.0312 135.981 85.0312C133.383 85.0312 131.277 87.1372 131.277 89.735C131.277 92.3329 133.383 94.4389 135.981 94.4389Z" fill="#E8A695"/>
<path d="M180.54 147.032L179.607 137.901C185.13 137.337 195.546 135.479 203.504 133.867C210.275 132.496 216.27 131.528 219.622 131.186L221.086 145.52C207.616 146.442 194.122 146.946 180.621 147.032L180.54 147.032Z" fill="#E8A695"/>
<path d="M220.195 145.573C224.174 145.573 227.4 142.348 227.4 138.369C227.4 134.39 224.174 131.164 220.195 131.164C216.216 131.164 212.99 134.39 212.99 138.369C212.99 142.348 216.216 145.573 220.195 145.573Z" fill="#E8A695"/>
<path d="M179.914 147.072C182.449 147.072 184.504 145.017 184.504 142.482C184.504 139.947 182.449 137.893 179.914 137.893C177.379 137.893 175.324 139.947 175.324 142.482C175.324 145.017 177.379 147.072 179.914 147.072Z" fill="#E8A695"/>
<path d="M203.744 95.0224C204.512 100.348 209.31 104.099 214.605 103.634C214.794 103.617 214.983 103.595 215.173 103.568C220.689 102.772 224.515 97.6545 223.718 92.1386C222.922 86.6227 217.805 82.7968 212.289 83.5931C206.773 84.3894 202.947 89.5065 203.744 95.0224Z" fill="#E8A695"/>
<path d="M220.193 145.573C224.172 145.573 227.398 142.348 227.398 138.369C227.398 134.39 224.172 131.164 220.193 131.164C216.214 131.164 212.988 134.39 212.988 138.369C212.988 142.348 216.214 145.573 220.193 145.573Z" fill="#E8A695"/>
<path d="M223.715 92.1387C225.962 107.036 227.168 122.072 227.322 137.137L227.325 137.339L213.063 139.398C211.005 124.473 207.908 109.71 203.795 95.2163L203.74 95.0225L223.715 92.1387Z" fill="#E8A695"/>
<path d="M180.045 138.08C176.426 136.233 170.961 134.55 166.979 133.738C162.931 132.913 157.151 135.922 154.616 138.993C153.927 139.828 153.238 140.663 152.549 141.498C152.363 141.723 152.172 142.049 152.35 142.281C152.644 142.662 154.073 142.749 154.494 142.729C154.876 142.71 155.244 142.584 155.594 142.433C156.246 142.153 156.858 141.782 157.409 141.336C157.087 141.597 156.338 142.79 156.565 143.204C156.91 143.832 158.168 143.937 158.807 143.954C159.635 143.977 160.434 143.743 161.136 143.308C161.852 142.863 162.494 142.301 163.233 141.896C164.471 141.218 165.905 141.017 167.303 140.827C165.351 141.261 164.105 142.54 162.581 143.835C161.876 144.435 160.781 145.535 162.383 145.717C163.462 145.84 164.321 145.079 165.221 144.617C166.08 144.178 166.939 143.499 167.923 143.375C169.117 143.225 170.038 144.226 171.012 144.77C171.707 145.158 172.414 145.715 173.166 145.968C174.034 146.259 174.859 146.032 175.734 146.042C176.175 146.048 176.693 146.268 177.116 146.389C177.604 146.529 178.089 146.684 178.569 146.852C179.178 145.738 179.365 144.444 179.453 143.177C179.515 142.303 179.534 141.425 179.636 140.554C179.733 139.721 179.99 138.919 180.045 138.08Z" fill="#E8A695"/>
<path d="M160.538 132.71C159.429 132.651 158.477 133.45 157.68 134.223C157.159 134.729 156.648 135.245 156.178 135.798C155.304 136.83 154.581 137.989 154.038 139.227C153.959 139.407 153.883 139.593 153.874 139.789C153.838 140.555 154.854 140.991 155.579 140.739C156.304 140.486 156.799 139.836 157.337 139.289C159.124 137.469 161.813 136.582 164.332 136.983C164.864 137.067 165.476 137.185 165.886 136.836C166.253 136.523 166.28 135.942 166.079 135.503C165.403 134.026 162.057 132.791 160.538 132.71Z" fill="#E8A695"/>
<path d="M179.914 147.07C182.449 147.07 184.504 145.015 184.504 142.48C184.504 139.946 182.449 137.891 179.914 137.891C177.379 137.891 175.324 139.946 175.324 142.48C175.324 145.015 177.379 147.07 179.914 147.07Z" fill="#E8A695"/>
<path d="M130.041 91.1454L140.835 87.3125L146.971 105.619L159.15 122.674L152.609 129.278C150.273 131.636 147.091 132.962 143.772 132.962C140.277 132.962 137.283 130.461 136.661 127.022L130.041 91.1454Z" fill="white"/>
<path d="M184.009 84.7486C181.429 85.3572 178.613 82.0464 178.111 78.5587L177.714 75.8141L177.695 75.6929L177.684 75.6132L175.773 62.383L175.287 59.0205L187.915 57.1953L188.08 58.3439L188.997 64.6632L188.997 64.667L189.007 64.7505L189.032 64.9249L190.738 76.7336C191.24 80.2212 188.184 83.7633 184.009 84.7486Z" fill="#E8A695"/>
<path d="M189.007 64.7505C188.984 64.8466 188.961 64.9388 188.937 65.0234C188.526 66.4664 187.992 67.8603 187.28 69.108C185.248 72.6799 181.633 74.9008 177.714 75.8141L177.695 75.6929L177.684 75.6132L175.773 62.383L175.287 59.0205L187.915 57.1953L188.08 58.3439L188.997 64.6632L188.997 64.667L189.007 64.7505Z" fill="#EA8883"/>
<path d="M196.926 49.2915C198.845 52.9844 195.603 57.1108 193.082 59.569C190.294 62.2884 186.276 63.5301 182.551 61.9868C181.001 61.3447 179.662 60.296 178.258 59.378C175.341 57.471 171.909 56.7231 169.034 54.9035C166.687 53.4184 164.237 52.1672 164.316 48.9627C164.463 43.0375 171.596 40.1387 176.47 39.0998C180.224 38.2997 185.02 37.6222 188.787 38.5832C190.994 39.1461 193.089 40.5669 193.939 42.6794C194.589 44.2945 194.456 46.1041 194.306 47.8386C195.358 47.6388 196.433 48.3413 196.926 49.2915Z" fill="#181818"/>
<path d="M194.109 61.3615C193.783 61.7327 193.38 62.0387 192.919 62.2486C192.156 62.5959 191.305 62.7495 190.469 62.6837C190.255 64.6986 189.523 66.5994 188.339 68.2566C188.097 68.5967 187.827 68.9241 187.536 69.2358C186.816 70.0207 185.962 70.7103 185.024 71.2867C182.879 72.6025 180.309 73.3126 177.917 73.1742C176.443 73.0906 175.199 72.6444 174.149 71.944C173.913 71.7914 173.689 71.6217 173.473 71.4384C171.871 70.1019 170.79 68.1199 170.086 65.9683C169.443 64.0044 169.161 61.9438 169.046 59.8862C168.933 57.8509 168.891 54.4862 169.417 52.4967C169.924 52.595 170.432 52.6933 170.944 52.7679C176.052 53.5124 181.327 51.8089 185.526 48.8066C185.849 52.0415 187.176 56.4831 189.345 58.9048C189.79 58.2859 190.524 57.4373 191.143 57.123C191.976 56.6997 193.035 56.5697 193.884 57.0084C195.506 57.847 195.117 60.2137 194.109 61.3615Z" fill="#E8A695"/>
<path d="M190.759 59.8552C190.979 58.6165 192.221 57.9781 193.36 58.5042C193.516 58.5763 193.594 58.3204 193.44 58.2491C192.174 57.6641 190.748 58.4014 190.504 59.7748C190.475 59.9421 190.729 60.0241 190.759 59.8552Z" fill="#EA8883"/>
<path d="M190.577 63.3665C190.542 64.1632 190.313 64.9415 190.017 65.6826C189.238 67.6346 187.971 69.3881 186.37 70.7506C184.106 72.6784 181.271 73.4928 178.325 73.4879C174.359 73.4812 171.719 70.27 170.396 66.8631C170.897 65.7516 171.681 64.7818 172.675 64.1773C174.708 62.9392 177.351 63.0134 179.06 64.7542C180.086 65.799 181.01 67.3387 182.498 67.7602C184.908 68.4426 187.08 66.2267 187.83 64.1536C188.593 62.0461 188.664 59.3099 188.387 57.0996C188.249 56.0007 188.291 53.8546 188.718 52.7891C188.836 53.2378 188.722 54.7751 188.969 55.1677C189.291 55.6795 189.818 56.068 190.012 56.6408C190.238 57.3071 189.935 58.0718 189.875 58.7472C189.734 60.3411 190.629 61.7555 190.579 63.3071C190.579 63.3269 190.578 63.3467 190.577 63.3665Z" fill="#181818"/>
<path d="M179.482 69.4527L179.285 68.5891L184.518 67.3919C187.372 66.7388 189.708 64.7165 190.766 61.9844L191.593 62.3032C190.428 65.3119 187.857 67.537 184.715 68.2555L179.482 69.4527Z" fill="#587CF8"/>
<path d="M194.253 59.3305C194.315 56.9017 193.287 54.9052 191.958 54.8713C190.628 54.8374 189.5 56.7789 189.438 59.2077C189.376 61.6365 190.404 63.633 191.734 63.6669C193.063 63.7008 194.191 61.7593 194.253 59.3305Z" fill="#3768F4"/>
<path d="M195.019 59.3488C195.067 57.4542 194.266 55.8968 193.229 55.8704C192.192 55.8439 191.312 57.3584 191.263 59.253C191.215 61.1477 192.017 62.705 193.054 62.7315C194.091 62.758 194.971 61.2435 195.019 59.3488Z" fill="#587CF8"/>
<path d="M180.093 70.0651L178.096 70.567C177.825 70.6353 177.549 70.4705 177.481 70.1989L177.197 69.0701C177.129 68.7985 177.294 68.523 177.565 68.4548L179.562 67.9529C179.833 67.8846 180.109 68.0494 180.177 68.321L180.461 69.4498C180.529 69.7213 180.364 69.9968 180.093 70.0651Z" fill="#587CF8"/>
<path d="M194.155 76.0056L189.816 89.937L181.819 84.602L174.141 88.5344L176.5 76.6653C176.533 76.6599 176.566 76.6544 176.599 76.6489C177.001 76.5828 177.408 76.5224 177.809 76.4674L177.985 76.4564L181.978 84.2994L191.312 75.8184C191.686 75.8239 192.065 75.8403 192.45 75.8623C192.929 75.8898 193.418 75.9284 193.919 75.9778C193.963 75.9834 194.007 75.9888 194.051 75.9945C194.083 76 194.122 76 194.155 76.0056Z" fill="#ECECEC"/>
<path d="M191.034 76.9363L190.688 76.3846L190.605 75.8125L191.312 75.818L191.034 76.9363Z" fill="#ECECEC"/>
<path d="M226.669 104.832C225.934 100.523 225.077 96.2426 224.114 92.0088C223.837 90.7914 223.486 89.5808 222.88 88.4823C220.839 84.7839 216.659 82.5474 212.23 83.1867C206.516 84.0117 202.553 89.3128 203.378 95.027L204.063 98.0836C206.237 107.785 207.944 117.586 209.178 127.451L210.237 131.184L181.225 136.759L183.7 147.703L221.846 146.447C226.196 146.304 229.649 142.736 229.649 138.383C229.648 127.226 228.564 115.936 226.669 104.832Z" fill="white"/>
<path d="M162.771 93.7936L161.918 119.467L162.468 119.485L163.321 93.8119L162.771 93.7936Z" fill="#CCCEDD"/>
<path d="M183.482 147.986L180.895 136.543L209.918 130.965L204.114 99.5843L204.654 99.4844L210.558 131.403L181.556 136.976L183.919 147.421L221.837 146.173L221.856 146.723L183.482 147.986Z" fill="#CCCEDD"/>
<path d="M132.504 94.5701C132.934 94.5701 133.283 94.2213 133.283 93.7909C133.283 93.3606 132.934 93.0117 132.504 93.0117C132.073 93.0117 131.725 93.3606 131.725 93.7909C131.725 94.2213 132.073 94.5701 132.504 94.5701Z" fill="#9295A0"/>
<path d="M133.283 97.9568C133.713 97.9568 134.062 97.608 134.062 97.1776C134.062 96.7473 133.713 96.3984 133.283 96.3984C132.853 96.3984 132.504 96.7473 132.504 97.1776C132.504 97.608 132.853 97.9568 133.283 97.9568Z" fill="#9295A0"/>
<path d="M190.523 145.785C190.954 145.785 191.303 145.436 191.303 145.006C191.303 144.575 190.954 144.227 190.523 144.227C190.093 144.227 189.744 144.575 189.744 145.006C189.744 145.436 190.093 145.785 190.523 145.785Z" fill="#9295A0"/>
<path d="M187.049 145.883C187.479 145.883 187.828 145.534 187.828 145.103C187.828 144.673 187.479 144.324 187.049 144.324C186.618 144.324 186.27 144.673 186.27 145.103C186.27 145.534 186.618 145.883 187.049 145.883Z" fill="#9295A0"/>
<path d="M192.619 105.54C196.292 105.54 199.965 105.54 203.638 105.54C203.992 105.54 203.993 104.99 203.638 104.99C199.965 104.99 196.292 104.99 192.619 104.99C192.265 104.99 192.265 105.54 192.619 105.54Z" fill="#9295A0"/>
<path d="M40.167 111.351C40.3145 112.863 40.4904 114.374 40.695 115.879C41.0184 118.248 41.3514 121.147 42.3765 123.376C42.5525 123.756 42.7475 124.12 42.9663 124.455C43.0543 124.389 43.1375 124.32 43.2208 124.241C43.3635 124.113 43.4991 123.972 43.6322 123.82C43.6869 123.756 43.7416 123.692 43.7939 123.625C43.8462 123.561 43.8962 123.492 43.9461 123.425C44.046 123.29 44.1411 123.15 44.2315 123.007C44.2339 123.002 44.2386 122.995 44.2434 122.99C44.2886 122.917 44.3362 122.84 44.379 122.764C44.4194 122.698 44.4598 122.629 44.4955 122.56C44.5787 122.415 44.6572 122.265 44.731 122.113C44.7619 122.051 44.7928 121.989 44.8237 121.925C44.9736 121.611 45.1091 121.29 45.2351 120.966C45.2399 120.954 45.2446 120.942 45.2494 120.93C45.3231 120.745 45.3921 120.557 45.4587 120.369C45.4682 120.345 45.4777 120.322 45.4849 120.298C45.5277 120.174 45.5705 120.05 45.611 119.927C45.6205 119.905 45.6277 119.884 45.6324 119.863C45.6776 119.729 45.7204 119.594 45.7632 119.458C45.7727 119.435 45.7798 119.411 45.7846 119.389C46.0105 118.654 46.2103 117.891 46.3935 117.13C46.4815 116.768 46.5624 116.409 46.6409 116.048C46.6623 115.948 46.6837 115.85 46.7051 115.751C46.7527 115.525 46.8002 115.299 46.8478 115.073C46.8573 115.018 46.8692 114.966 46.8811 114.911C47.0446 114.119 47.1928 113.362 47.3327 112.675C47.3976 112.36 47.4604 112.045 47.5304 111.731C47.547 111.653 47.5661 111.574 47.5827 111.496C47.6112 111.372 47.6398 111.246 47.6659 111.122C47.8229 110.416 47.9751 109.707 48.1178 108.999C48.9145 105.022 49.4925 100.984 49.8777 96.9286C50.3534 91.9817 50.3962 86.4379 47.5279 82.6896C46.2983 81.0818 44.241 79.9331 42.5691 80.8844C40.94 81.8095 40.4833 84.176 40.2621 86.238C39.3775 94.5668 39.3465 103.015 40.167 111.351Z" fill="#9CB4F7"/>
<path d="M26.8206 99.005C28.1667 102.748 29.7127 106.423 31.4512 110.002C31.4536 110.005 31.4536 110.007 31.456 110.009C33.5751 114.371 35.9796 118.595 38.6528 122.643C39.3164 123.649 40.5578 124.536 41.3498 124.139C41.6804 123.975 41.9325 123.59 42.0347 122.9C42.2321 121.573 41.7184 119.711 41.2356 118.06C41.2309 118.048 41.2285 118.034 41.2237 118.022C41.0025 117.273 40.7908 116.571 40.6552 115.979C39.4946 110.935 37.9915 105.971 36.153 101.134C35.0923 98.3438 33.6819 95.3424 30.9397 94.1651C29.4818 93.5372 27.4959 93.6799 26.6587 95.0285C25.9358 96.1962 26.3568 97.7112 26.8206 99.005Z" fill="#9CB4F7"/>
<path d="M43.6033 90.6323C43.7959 90.0529 43.8511 89.4405 43.7046 88.8428C43.6826 88.7531 43.6378 88.4705 43.5657 88.4251C43.4398 88.4654 43.314 88.5058 43.1881 88.5461C43.1856 88.6107 43.1831 88.6752 43.1805 88.7398C43.0918 89.049 43.2358 89.5613 43.3002 89.8614C43.3267 89.9849 43.1399 90.0832 43.0829 89.953C43.0091 89.7846 42.9204 89.5474 42.7827 89.425C42.6615 89.3692 42.5403 89.3133 42.4191 89.2575C42.1835 89.6309 42.2241 89.8997 42.5409 90.0637C42.6608 90.1555 42.5424 90.3622 42.4209 90.2691C42.1 90.0233 41.5852 89.4608 42.0978 89.1145C42.6516 88.7403 43.1006 89.4047 43.2883 89.8329C43.2159 89.8634 43.1434 89.894 43.071 89.9245C43.003 89.6078 42.6602 87.647 43.5154 88.0401C43.87 88.2031 43.9511 88.7841 43.9962 89.1157C44.0693 89.654 44.0033 90.1823 43.8328 90.6954C43.7846 90.8401 43.5548 90.7781 43.6033 90.6323Z" fill="#0880EA"/>
<path d="M47.3978 97.4696C47.9671 97.1005 48.3361 96.4772 48.3353 95.7904C48.3351 95.6622 48.3314 95.2908 48.2251 95.2148C48.0099 95.2699 47.7946 95.325 47.5794 95.3801C47.5286 95.4556 47.4828 95.534 47.4421 95.6153C47.2349 96.0103 47.1437 96.4191 47.1247 96.863C47.1182 97.0155 46.8803 97.0163 46.8869 96.863C46.9127 96.2608 47.0702 95.5614 47.4934 95.1037C47.7438 94.8329 48.1342 94.7021 48.3888 95.0396C49.0215 95.8782 48.2461 97.2027 47.5178 97.6749C47.3891 97.7585 47.2697 97.5527 47.3978 97.4696Z" fill="#0880EA"/>
<path d="M34.0708 98.6593C34.3581 98.4665 34.5914 98.2303 34.7657 97.9302C34.8858 97.7234 35.1278 97.2271 35.0544 96.9672C34.9304 96.5282 34.6382 96.6176 34.4391 96.8111C34.3126 96.9341 34.2743 97.1102 34.224 97.2721C34.1432 97.5321 34.0877 97.77 33.9298 97.9971C33.8536 98.1067 33.6824 98.0411 33.7125 97.9055C33.7461 97.7537 33.7984 97.5845 33.7765 97.4272C33.747 97.0379 33.5541 96.9706 33.1976 97.2255C33.1849 97.3048 33.1816 97.3841 33.1878 97.4637C33.199 97.8246 33.3295 98.1566 33.5194 98.4587C33.6011 98.5886 33.3954 98.7081 33.314 98.5787C33.0768 98.2014 32.5984 97.0337 33.26 96.7875C33.4876 96.7028 33.7445 96.8272 33.8819 97.0123C34.0866 97.2881 34.0101 97.6601 33.9418 97.9687C33.8694 97.9382 33.7969 97.9076 33.7245 97.8771C34.0046 97.4742 33.9514 96.8687 34.37 96.5593C34.594 96.3937 34.9567 96.3061 35.171 96.5357C35.44 96.8239 35.2489 97.4261 35.1239 97.7379C34.9357 98.2076 34.6082 98.5846 34.1909 98.8647C34.0634 98.9502 33.9443 98.7443 34.0708 98.6593Z" fill="#0880EA"/>
<path d="M57.3293 106.791C57.3279 106.681 57.3334 106.549 57.2695 106.452C57.2263 106.387 57.1312 106.325 57.0634 106.393C56.971 106.486 57.0214 106.696 57.0505 106.804C57.0903 106.952 56.8609 107.016 56.8212 106.868C56.7585 106.634 56.7311 106.27 57.0004 106.154C57.1456 106.091 57.3062 106.143 57.4136 106.253C57.5527 106.396 57.5647 106.603 57.5672 106.791C57.5691 106.944 57.3313 106.945 57.3293 106.791Z" fill="#2B7769"/>
<path d="M43.1121 105.859C43.2416 105.578 43.3193 105.288 43.3165 104.978C43.3026 104.86 43.2886 104.741 43.2747 104.623C43.2845 104.339 43.1657 104.242 42.9183 104.331C42.7195 104.26 42.6137 104.318 42.6011 104.507C42.5514 104.621 42.5137 104.739 42.4879 104.861C42.4303 105.104 42.42 105.352 42.424 105.601C42.4265 105.758 42.2049 105.748 42.1862 105.601C42.1275 105.141 41.9369 104.712 41.6109 104.378C41.4686 104.233 41.2959 104.1 41.1152 104.006C40.7672 103.824 40.4234 104.015 40.5351 104.418C40.7533 105.207 41.5193 105.725 42.1576 106.158C42.2836 106.243 42.1647 106.449 42.0376 106.363C41.512 106.007 40.963 105.628 40.6008 105.095C40.389 104.783 40.04 104.11 40.3817 103.768C40.7222 103.428 41.3232 103.82 41.5975 104.046C42.0791 104.442 42.346 104.989 42.4241 105.601C42.3448 105.601 42.2655 105.601 42.1863 105.601C42.1796 105.185 42.2728 103.708 42.9982 103.875C43.8183 104.063 43.5506 105.474 43.3176 105.979C43.2534 106.118 43.0483 105.997 43.1121 105.859Z" fill="#0880EA"/>
<path d="M37.7109 111.332C38.2323 111.211 38.1051 110.985 37.3296 110.654C37.1873 110.82 37.1373 110.999 37.1794 111.191C37.1001 111.191 37.0208 111.191 36.9416 111.191C36.876 110.575 36.6731 109.968 36.3014 109.466C36.241 109.394 36.1806 109.322 36.1202 109.25C35.9675 109.295 35.8148 109.34 35.6621 109.386C35.6056 109.455 35.7026 109.817 35.7177 109.888C35.7912 110.233 35.9411 110.546 36.1326 110.839C36.2165 110.968 36.0106 111.087 35.9272 110.959C35.6983 110.608 34.9116 108.86 35.8488 108.861C36.2389 108.862 36.5339 109.358 36.6963 109.64C36.9731 110.119 37.121 110.643 37.1793 111.191C37.1955 111.343 36.9577 111.342 36.9415 111.191C36.8762 110.584 37.4771 110.013 38.0562 110.406C38.5973 110.773 38.3005 111.507 37.7108 111.57C37.5589 111.586 37.5601 111.348 37.7109 111.332Z" fill="#0880EA"/>
<path d="M51.0696 118.384C51.3557 118.419 51.6251 118.379 51.8801 118.238C52.0197 118.16 52.7401 117.581 52.3174 117.359C52.1071 117.249 51.6578 117.513 51.4906 117.592C51.2172 117.722 50.9587 117.877 50.7087 118.048C50.5819 118.134 50.4628 117.928 50.5887 117.842C50.9142 117.621 52.3883 116.615 52.67 117.371C52.7958 117.708 52.442 118.118 52.2016 118.307C51.8772 118.563 51.4785 118.672 51.0696 118.622C50.9197 118.603 50.9178 118.365 51.0696 118.384Z" fill="#2B7769"/>
<path d="M33.4576 112.532C33.4157 112.742 33.509 112.954 33.6063 113.145C35.251 116.372 37.062 119.508 39.0683 122.546C39.6248 123.39 40.5857 124.149 41.3491 124.139C41.6797 123.975 41.9318 123.59 42.034 122.9C42.2314 121.573 41.7177 119.711 41.2349 118.06C41.2302 118.048 41.2278 118.034 41.223 118.022C41.2016 118.027 41.1802 118.034 41.1588 118.041C40.8734 118.139 40.6261 118.329 40.3407 118.431C39.5392 118.721 38.6616 118.274 37.9956 117.741C36.24 116.343 35.0569 114.344 33.649 112.629C33.6003 112.57 33.529 112.504 33.4576 112.532Z" fill="#0880EA"/>
<path d="M41.0862 115.88C41.267 117.2 41.55 118.517 41.6879 119.83C41.8116 121.029 42.0423 122.218 42.3776 123.376C42.5536 123.757 42.7486 124.121 42.9674 124.456C43.0554 124.389 43.1386 124.32 43.2219 124.242C43.3646 124.113 43.5002 123.973 43.6333 123.821C43.688 123.757 43.7427 123.692 43.795 123.626C43.8473 123.562 43.8973 123.493 43.9472 123.426C44.0471 123.291 44.1422 123.15 44.2326 123.007C44.235 123.003 44.2397 122.996 44.2445 122.991C44.2897 122.917 44.3373 122.841 44.3801 122.765C44.4205 122.698 44.4609 122.629 44.4966 122.56C44.5798 122.415 44.6583 122.265 44.7321 122.113C44.763 122.051 44.7939 121.989 44.8248 121.925C44.9747 121.611 45.1102 121.29 45.2362 120.967C45.241 120.955 45.2457 120.943 45.2505 120.931C45.3242 120.746 45.3932 120.558 45.4598 120.37C45.4693 120.346 45.4788 120.322 45.486 120.298C45.5288 120.175 45.5716 120.051 45.6121 119.927C45.6216 119.906 45.6288 119.885 45.6335 119.863C45.6811 119.73 45.7238 119.594 45.7643 119.459C45.7738 119.435 45.7809 119.411 45.7857 119.39C46.0188 118.646 46.2162 117.889 46.3946 117.131C46.4826 116.769 46.5635 116.41 46.642 116.048C46.6634 115.949 46.6848 115.851 46.7062 115.751C46.7538 115.525 46.8013 115.299 46.8489 115.073C46.8584 115.019 46.8703 114.966 46.8822 114.912C47.0962 113.851 47.296 112.788 47.5315 111.732C47.5481 111.653 47.5672 111.575 47.5838 111.496C47.6123 111.373 47.6409 111.247 47.667 111.123C47.3221 111.951 46.9416 112.783 46.3542 113.461C45.7097 114.205 44.1875 115.525 43.1125 115.337C41.959 115.135 41.5809 113.872 41.1242 112.973C41.0933 112.909 41.0219 112.835 40.9648 112.878C40.8175 113.872 40.9506 114.893 41.0862 115.88Z" fill="#0880EA"/>
<path d="M43.8973 123.009C43.9639 123.397 44.1613 123.775 44.4919 123.986C45.0437 124.343 45.7405 123.991 46.2447 123.706C48.8371 122.253 51.1726 120.355 53.1466 118.133C55.1397 115.891 56.7617 113.32 57.9033 110.544C58.2862 109.614 58.6192 108.637 58.5788 107.633C58.5384 106.629 58.0532 105.59 57.1566 105.138C56.3503 104.734 55.3514 104.872 54.5523 105.295C53.7555 105.718 53.1205 106.391 52.5307 107.074C50.4068 109.538 48.6612 112.299 47.1676 115.182C46.5659 116.347 45.9285 117.493 45.3387 118.663C45.3268 118.685 45.3173 118.709 45.3054 118.73C44.7965 119.734 44.2209 120.728 43.9712 121.841C43.8878 122.224 43.8331 122.621 43.8973 123.009Z" fill="#9CB4F7"/>
<path d="M43.8973 123.008C43.9639 123.396 44.1613 123.774 44.4919 123.986C45.0437 124.343 45.7405 123.991 46.2447 123.705C48.8371 122.252 51.1726 120.354 53.1466 118.133C52.5211 118.58 51.8623 118.987 51.1821 119.343C50.0833 119.921 48.7182 120.366 47.6432 119.745C47.158 119.465 46.7894 118.987 46.2638 118.787C45.957 118.67 45.6264 118.661 45.3053 118.73C44.7964 119.733 44.2208 120.728 43.9711 121.841C43.8878 122.224 43.8331 122.621 43.8973 123.008Z" fill="#0880EA"/>
<path d="M53.4038 123.764L53.0514 126.885L52.9834 127.516L52.7485 129.624L52.5878 131.003L51.9201 136.974L51.8769 137.382L51.506 140.658L51.4627 141.042L50.9249 145.839H34.4691L34.3207 144.553L34.2775 144.17L34.0487 142.148L34.0116 141.765L33.5418 137.636L33.4986 137.234L33.1586 134.211L33.1153 133.784L32.7505 130.564L32.664 129.816L32.5033 128.344L32.4538 127.899L32.1139 124.858L32.0644 124.438L31.9902 123.764H53.4038Z" fill="#CCCCCC"/>
<path d="M46.1958 145.839H34.4691L34.3207 144.553L34.2775 144.17L34.0488 142.148L34.0117 141.765L33.5419 137.636L33.4987 137.234L33.1587 134.211L33.1154 133.784L32.7506 130.564L32.6641 129.816L32.5034 128.344L32.4539 127.899L32.1139 124.858L32.0645 124.438L31.9902 123.764H38.3018C37.0531 126.966 37.3498 130.279 37.9309 133.574C38.7654 138.26 41.8069 142.63 46.1958 145.839Z" fill="#ABABAB"/>
<path d="M43.502 145.842H44.0493C44.7829 145.089 45.3284 144.164 45.5416 143.136C45.6376 142.675 45.6645 142.205 45.6165 141.738C45.5473 141.087 45.3265 140.459 45.2958 139.806C45.2401 138.64 45.9488 137.519 47.0108 137.04C48.5856 136.334 50.2565 137.33 51.8755 137.38L51.9216 136.977C51.6835 136.979 51.4376 136.958 51.1918 136.918C49.375 136.622 47.4256 135.854 45.9046 137.344C45.2958 137.941 44.9117 138.771 44.9059 139.627C44.8982 140.793 45.4129 141.853 45.1709 143.034C44.9482 144.125 44.3298 145.093 43.502 145.842Z" fill="#B3B3B3"/>
<path d="M48.834 145.842H49.2104C49.0414 145.02 48.8474 144.204 48.857 143.372C48.8647 142.732 49.0567 142.043 49.5119 141.572C50.0439 141.023 50.7583 141.062 51.4651 141.04L51.5073 140.658C50.983 140.676 50.451 140.633 49.9498 140.827C49.0395 141.181 48.5728 142.16 48.4864 143.082C48.4018 144.01 48.6381 144.926 48.834 145.842Z" fill="#B3B3B3"/>
<path d="M32.668 129.813L32.7525 130.564C34.0066 132.087 35.8906 133.097 37.8784 133.199C39.0096 133.257 40.1408 133.044 41.2374 132.838C42.6567 132.569 43.9972 132.316 45.3416 132.598C45.8352 132.702 46.3364 132.882 46.8204 133.055C47.5925 133.332 48.3837 133.616 49.1941 133.616C49.4169 133.616 49.6397 133.595 49.8663 133.547C51.1588 133.266 51.9904 132.239 52.5915 131.004L52.747 129.625C52.1574 131.265 51.3181 132.838 49.7836 133.17C48.8445 133.374 47.9245 133.044 46.9489 132.694C46.4534 132.515 45.9387 132.331 45.4202 132.222C44.0009 131.926 42.5586 132.197 41.1643 132.46C40.0927 132.663 38.9807 132.873 37.8994 132.817C35.8042 132.708 33.8338 131.536 32.668 129.813Z" fill="#B3B3B3"/>
<path d="M42.3913 137.319C43.148 138.477 43.0366 140.138 42.1339 141.185C41.4175 142.017 40.3171 142.439 39.3453 142.812C38.0297 143.317 36.67 143.839 35.2642 144.066C34.9684 144.114 34.6362 144.152 34.279 144.169L34.3232 144.552C34.6497 144.536 34.9839 144.5 35.3257 144.446C36.7719 144.212 38.1508 143.684 39.4836 143.171C40.4957 142.781 41.6442 142.339 42.4258 141.437C43.436 140.265 43.5589 138.404 42.712 137.11C41.7056 135.571 39.7294 135.074 38.3294 134.834C37.8954 134.759 37.444 134.692 37.0062 134.626C35.6791 134.429 34.3252 134.225 33.1152 133.787L33.1613 134.212C34.3559 134.619 35.6638 134.815 36.9505 135.007C37.3845 135.072 37.834 135.137 38.2642 135.212C39.593 135.441 41.4675 135.905 42.3913 137.319Z" fill="#B3B3B3"/>
<path d="M38.5855 138.771C38.6796 138.946 38.6681 139.161 38.6431 139.31C38.5125 140.083 37.8192 140.628 37.2603 140.951C36.275 141.517 35.1381 141.79 34.0088 141.763L34.0511 142.147C34.0876 142.149 34.1241 142.149 34.1606 142.149C35.3072 142.149 36.4537 141.859 37.4524 141.283C38.0823 140.92 38.8659 140.296 39.0234 139.374C39.0733 139.074 39.0388 138.803 38.9235 138.588C38.8102 138.375 38.6201 138.229 38.4895 138.137C37.5715 137.496 36.4326 137.453 35.3322 137.411C34.6907 137.386 34.0723 137.363 33.5 137.232L33.5442 137.634C34.1204 137.749 34.7254 137.772 35.3168 137.795C36.4115 137.835 37.4428 137.876 38.2687 138.452C38.428 138.561 38.5279 138.663 38.5855 138.771Z" fill="#B3B3B3"/>
<path d="M39.1875 123.766C39.5217 123.946 39.8405 124.156 40.1401 124.398C40.9064 125.02 41.5171 125.849 42.1086 126.654C42.8634 127.682 43.645 128.744 44.7704 129.402C45.5597 129.863 46.4931 130.096 47.4687 130.096C48.2561 130.096 49.0704 129.944 49.8559 129.637C50.9448 129.21 51.9934 128.5 52.9825 127.515L53.0536 126.887C52.0012 128.02 50.8815 128.824 49.7176 129.28C48.0679 129.925 46.2895 129.846 44.9643 129.07C43.9061 128.452 43.184 127.469 42.4177 126.426C41.8127 125.604 41.1866 124.751 40.38 124.1C40.2321 123.981 40.0804 123.869 39.9248 123.766H39.1875Z" fill="#B3B3B3"/>
<path d="M36.9158 126.875C37.3844 127.493 37.4823 128.509 36.8812 129.035C36.524 129.348 35.9574 129.45 35.364 129.306C34.8666 129.185 34.398 128.92 33.9447 128.663L33.7968 128.58C33.3359 128.321 32.8884 128.094 32.4544 127.898L32.5043 128.346C32.8634 128.513 33.2303 128.703 33.6086 128.914L33.7565 128.999C34.2328 129.268 34.7245 129.546 35.2737 129.679C35.4792 129.728 35.6847 129.753 35.8825 129.753C36.3703 129.753 36.814 129.606 37.1347 129.323C37.8971 128.657 37.7954 127.399 37.2211 126.642C36.6238 125.853 35.652 125.475 34.8742 125.233C34.4344 125.096 33.9735 124.973 33.5279 124.854C33.0382 124.724 32.5446 124.593 32.0645 124.439L32.1125 124.856C32.5485 124.991 32.9902 125.11 33.43 125.225C33.8717 125.344 34.3288 125.465 34.7609 125.6C35.4851 125.824 36.3819 126.172 36.9158 126.875Z" fill="#B3B3B3"/>
<path d="M51.1964 143.62C49.2901 143.62 47.3839 143.62 45.4776 143.62C42.4186 143.62 39.3596 143.62 36.3006 143.62C35.5988 143.62 34.8971 143.62 34.1953 143.62C33.9481 143.62 33.9477 143.236 34.1953 143.236C36.1016 143.236 38.0078 143.236 39.9141 143.236C42.9731 143.236 46.0321 143.236 49.0911 143.236C49.7929 143.236 50.4946 143.236 51.1964 143.236C51.4436 143.236 51.444 143.62 51.1964 143.62Z" fill="#E1E1E1"/>
<path d="M52.9505 127.986C50.6479 127.986 48.3453 127.986 46.0427 127.986C42.3534 127.986 38.6641 127.986 34.9748 127.986C34.1303 127.986 33.2859 127.986 32.4414 127.986C32.1942 127.986 32.1938 127.602 32.4414 127.602C34.744 127.602 37.0466 127.602 39.3492 127.602C43.0385 127.602 46.7278 127.602 50.4171 127.602C51.2615 127.602 52.106 127.602 52.9504 127.602C53.1977 127.602 53.1981 127.986 52.9505 127.986Z" fill="#E1E1E1"/>
<path d="M55.5803 121.82V124.188C55.5803 125.028 54.899 125.709 54.0586 125.709H31.3322C30.4918 125.709 29.8105 125.028 29.8105 124.188V121.82H55.5803Z" fill="#B3B3B3"/>
<path d="M57.9831 107.682C58.1206 107.799 58.2795 107.905 58.4647 107.917C58.6342 107.928 58.8628 107.832 58.8765 107.633C58.9071 107.188 58.2431 107.247 57.9802 107.282C57.8289 107.302 57.8304 107.064 57.9802 107.044C58.2887 107.004 58.6244 106.976 58.8839 107.181C59.0623 107.322 59.164 107.551 59.0868 107.774C59.0134 107.987 58.7922 108.132 58.5745 108.154C58.2846 108.185 58.0275 108.03 57.8148 107.85C57.698 107.751 57.8669 107.584 57.9831 107.682Z" fill="#0880EA"/>
<path d="M57.9663 107.02C58.5493 106.761 58.9343 106.159 58.8639 105.513C58.8033 104.956 58.2961 105.713 58.1809 105.887C57.9739 106.2 57.813 106.534 57.6861 106.887C57.6347 107.03 57.4048 106.968 57.4568 106.824C57.563 106.529 58.565 104.382 59.0199 105.149C59.2056 105.463 59.1114 105.972 58.9869 106.286C58.8191 106.709 58.5011 107.041 58.0864 107.225C57.9477 107.287 57.8265 107.082 57.9663 107.02Z" fill="#587CF8"/>
<path d="M51.9183 110.339C52.0025 109.917 52.0203 109.494 51.9387 109.069C51.8831 108.779 51.7646 108.232 51.538 108.029C51.3993 107.984 51.2606 107.938 51.1218 107.893C51.1215 107.96 51.1212 108.027 51.1209 108.094C51.0707 108.272 51.161 108.582 51.1955 108.762C51.2763 109.183 51.4384 109.578 51.6442 109.952C51.5757 109.992 51.5073 110.032 51.4388 110.072C51.0441 109.199 50.0425 110.263 50.8098 110.482C50.9567 110.524 50.8943 110.754 50.7466 110.711C50.3175 110.589 50.1036 110.036 50.3973 109.667C50.7615 109.209 51.4407 109.502 51.6442 109.952C51.7059 110.089 51.514 110.209 51.4388 110.072C51.2538 109.735 50.3246 107.418 51.2435 107.47C51.6468 107.492 51.8964 108.156 52.0093 108.453C52.2491 109.084 52.2788 109.745 52.1475 110.402C52.1177 110.552 51.8884 110.489 51.9183 110.339Z" fill="#0880EA"/>
<path d="M108.393 145.842H93.379C92.3278 145.842 91.7135 144.613 92.3986 143.822C93.06 143.042 93.9343 142.381 94.962 141.849C95.8716 141.389 96.8875 141.046 97.9979 140.845C98.7301 140.703 99.5098 140.633 100.313 140.633C104.259 140.633 107.625 142.405 108.972 144.897C109.208 145.322 108.877 145.842 108.393 145.842Z" fill="#9396A7"/>
<path d="M94.6272 143.444H94.8497C95.1159 143.444 95.4077 143.287 95.5508 143.068C96.1355 142.194 97.0414 141.301 97.9971 140.846C96.8866 141.046 95.8708 141.389 94.9612 141.85C94.6486 142.24 94.4081 142.638 94.2071 143.026C94.1106 143.238 94.3237 143.444 94.6272 143.444Z" fill="#A9ABB8"/>
<path d="M161.898 145.841H130.08V143.841C130.08 143.763 130.143 143.699 130.222 143.699H161.898L161.898 145.841Z" fill="#9396A7"/>
<path d="M173.725 145.841H158.725V143.699H173.6C173.669 143.699 173.725 143.755 173.725 143.823V145.841Z" fill="#A9ABB8"/>
<path d="M153.816 128.718H92.7554C90.6507 128.718 88.8658 127.172 88.5659 125.089L83.5733 90.4081C83.206 87.8568 85.1852 85.5723 87.7628 85.5723H148.823C150.928 85.5723 152.713 87.1187 153.013 89.2019L158.005 123.883C158.373 126.434 156.394 128.718 153.816 128.718Z" fill="#A9ABB8"/>
<path d="M152.076 128.718H91.0152C88.9105 128.718 87.1256 127.172 86.8257 125.089L81.8331 90.4081C81.4658 87.8568 83.445 85.5723 86.0226 85.5723H147.083C149.188 85.5723 150.973 87.1187 151.273 89.2019L156.265 123.883C156.633 126.434 154.653 128.718 152.076 128.718Z" fill="#C1C3D1"/>
<path d="M118.663 104.175C120.55 104.175 122.081 102.644 122.081 100.756C122.081 98.8684 120.55 97.3379 118.663 97.3379C116.775 97.3379 115.244 98.8684 115.244 100.756C115.244 102.644 116.775 104.175 118.663 104.175Z" fill="white"/>
<path d="M123.928 111.941L126.689 128.719H116.123L123.928 111.941Z" fill="#8D8F99"/>
<path d="M123.928 111.941L121.709 143.7L121.56 145.842H108.318L108.637 143.7L113.398 111.941H123.928Z" fill="#A9ABB8"/>
<path d="M133.246 145.841H99C99 144.658 99.7136 143.699 100.594 143.699H131.651C132.532 143.699 133.246 144.658 133.246 145.841Z" fill="#A9ABB8"/>
<path d="M260.04 145.844H17.5508V151.569H260.04V145.844Z" fill="#DCDFEA"/>
</svg>
