<svg width="32" height="32" viewBox="0 0 32 32" fill="none" xmlns="http://www.w3.org/2000/svg">
<path d="M5.64587 11.2969C2.32087 12.5224 0 15.2996 0 18.5301C0 20.9071 1.25638 23.0391 3.24475 24.4879L3.24587 24.4858L2.08556 27.1873C1.88531 27.6534 2.24269 28.1799 2.71412 28.1066C5.71056 27.6405 7.4105 26.2544 7.41838 26.248C8.07675 26.3691 8.76069 26.4335 9.46262 26.4335C10.9366 26.4335 12.3316 26.1517 13.5751 25.6494L5.64587 11.2969Z" fill="#FFCF4D"/>
<path d="M6.84391 10.9336C6.43241 11.0323 6.03259 11.1542 5.64616 11.2966C5.13984 12.4825 4.86328 13.7594 4.86328 15.0905C4.86328 19.9126 8.48209 24.0281 13.5748 25.6477C14.0244 25.4661 14.4548 25.2565 14.8613 25.0202L6.84391 10.9336Z" fill="#FFB629"/>
<path d="M27.5439 22.9124L27.5454 22.9154C27.5439 22.9124 28.1077 21.7886 28.1077 21.7886C30.2274 19.858 31.9994 17.5632 31.9994 14.7373C31.9994 14.55 31.9937 14.3639 31.9825 14.179C31.6346 8.44692 25.9599 3.88867 19.0105 3.88867C12.0697 3.88867 6.40036 8.43573 6.03973 14.1579C6.02767 14.3497 6.02148 14.543 6.02148 14.7374C6.02148 20.7289 12.9997 24.881 19.0104 25.0065C19.9738 25.0267 20.9127 24.9182 21.8165 24.7519C21.8272 24.7607 24.1607 26.6633 28.2738 27.303C28.9209 27.4037 29.0372 26.3892 29.0372 26.3892L27.5439 22.9124Z" fill="#FF5876"/>
<path d="M29.0372 26.3896C28.8666 26.6265 28.5889 26.773 28.2738 26.724C24.6676 26.163 22.4295 24.6314 21.9253 24.2565C21.854 24.2035 21.7645 24.1825 21.677 24.1978C20.8163 24.3479 19.9245 24.4274 19.0104 24.4274C12.0696 24.4274 6.40061 19.8803 6.03998 14.1582C6.02786 14.3501 6.02148 14.5433 6.02148 14.7377C6.02148 20.7293 11.8369 25.5864 19.0104 25.5864C19.974 25.5864 20.9127 25.4981 21.8165 25.3318C21.8272 25.3406 24.1607 27.2432 28.2738 27.883C28.9209 27.9836 29.4114 27.261 29.1366 26.621L29.0372 26.3896Z" fill="#E6485D"/>
<path d="M27.6752 21.6596C27.5937 21.7206 27.5449 21.8158 27.5449 21.9176V22.9147C30.2743 20.926 31.9989 17.9996 31.9989 14.7367C31.9989 14.542 31.9924 14.3485 31.9803 14.1562C31.7929 17.1338 30.1686 19.7933 27.6752 21.6596Z" fill="#E6485D"/>
<path d="M23.3732 18.1949L23.833 16.5449H26.2077L26.6675 18.1949C26.8624 18.8069 27.7486 18.5545 27.5979 17.9357L25.973 12.1043C25.8524 11.6715 25.4696 11.3809 25.0204 11.3809C24.5711 11.3809 24.1883 11.6715 24.0677 12.1044L22.4428 17.9357C22.2926 18.5576 23.1807 18.8046 23.3732 18.1949ZM24.9981 12.3636C25.0007 12.3541 25.0032 12.3503 25.0032 12.3503C25.0101 12.3455 25.0309 12.3455 25.0371 12.3498C25.0371 12.3498 25.0397 12.3534 25.0426 12.3635L25.9386 15.579H24.1021L24.9981 12.3636Z" fill="#F2FDFF"/>
<path d="M15.3296 13.5487C15.3296 12.3523 14.3563 11.3789 13.1599 11.3789C11.9635 11.3789 10.9902 12.3523 10.9902 13.5487V16.3822C10.9902 17.5786 11.9635 18.5519 13.1599 18.5519C13.673 18.5519 14.1447 18.3725 14.5165 18.0737L14.8546 18.4109C15.0435 18.5993 15.3492 18.5988 15.5376 18.41C15.7259 18.2211 15.7255 17.9153 15.5366 17.727L15.12 17.3116C15.2542 17.0297 15.3296 16.7147 15.3296 16.3822V13.5487ZM13.9834 16.1782C13.7945 15.9898 13.4887 15.9903 13.3004 16.1792C13.1121 16.368 13.1125 16.6738 13.3014 16.8621L13.8253 17.3845C13.6345 17.5115 13.4058 17.586 13.1599 17.586C12.496 17.586 11.956 17.0459 11.956 16.3822V13.5486C11.956 12.8847 12.496 12.3447 13.1599 12.3447C13.8237 12.3447 14.3637 12.8847 14.3637 13.5486V16.3822C14.3637 16.4375 14.3587 16.4917 14.3514 16.545L13.9834 16.1782Z" fill="#F2FDFF"/>
<path d="M16.9026 17.39C17.0276 18.0094 17.5404 18.4761 18.1786 18.5514C18.2431 18.559 18.3073 18.5627 18.3714 18.5627C19.0379 18.5627 19.6822 18.1562 20.1949 17.4265L20.7478 18.3202C20.8881 18.5471 21.1857 18.6173 21.4125 18.4768C21.6393 18.3365 21.7094 18.0389 21.5692 17.8121L20.7277 16.4517C20.9695 15.9438 21.2616 15.365 21.2649 15.3583C21.3851 15.1202 21.2896 14.8298 21.0515 14.7095C20.8135 14.5895 20.523 14.6849 20.4028 14.923C20.3939 14.9407 20.2746 15.177 20.126 15.479L19.5539 14.554C19.6417 14.4533 19.7436 14.3317 19.8458 14.199C20.2638 13.6569 20.4585 13.2398 20.4585 12.8862C20.4585 12.055 19.7823 11.3789 18.9512 11.3789C18.1201 11.3789 17.4439 12.0551 17.4439 12.8862C17.4439 13.2397 17.6386 13.6569 18.0566 14.199C18.1342 14.2997 18.2114 14.3938 18.2826 14.4775C17.7107 15.0738 16.6863 16.318 16.9026 17.39ZM18.9511 12.3447C19.2497 12.3447 19.4926 12.5876 19.4926 12.8861C19.4904 13.0304 19.2584 13.4005 18.9511 13.7742C18.6438 13.4005 18.4118 13.0305 18.4096 12.8862C18.4097 12.5877 18.6526 12.3447 18.9511 12.3447ZM18.8627 15.2727L19.6273 16.5088C19.1712 17.3644 18.6473 17.6339 18.2916 17.5921C18.0658 17.5655 17.8922 17.4111 17.8494 17.199C17.7448 16.6807 18.3441 15.8443 18.8627 15.2727Z" fill="#F2FDFF"/>
</svg>
