<svg width="284" height="160" viewBox="0 0 284 160" fill="none" xmlns="http://www.w3.org/2000/svg">
<g clip-path="url(#clip0_1955_153641)">
<path d="M227.462 142.292H53.8427C53.8427 142.292 17.5457 70.0524 55.2916 37.7917C91.9287 6.47715 137.762 49.0726 162.32 54.7204C186.863 60.3683 211.879 47.0323 229.636 66.918C255.982 96.414 227.462 142.292 227.462 142.292Z" fill="#EEFFFD"/>
<path d="M220.587 22.4745H127.309V143.548H220.587V22.4745Z" fill="white" stroke="#B3E5E1" stroke-width="1.43229" stroke-miterlimit="10" stroke-linecap="round" stroke-linejoin="round"/>
<path d="M173.941 22.4892V143.888" stroke="#B3E5E1" stroke-width="1.43229" stroke-miterlimit="10" stroke-linecap="round" stroke-linejoin="round"/>
<path d="M127.531 64.5229H221.149" stroke="#B3E5E1" stroke-width="1.43229" stroke-miterlimit="10" stroke-linecap="round" stroke-linejoin="round"/>
<path d="M127.531 103.836H221.149" stroke="#B3E5E1" stroke-width="1.43229" stroke-miterlimit="10" stroke-linecap="round" stroke-linejoin="round"/>
<path d="M197.375 22.7554C197.375 22.7554 197.434 29.6452 197.419 32.5134C197.375 60.6344 212.84 88.0753 213.328 90.5443C213.801 92.9247 207.739 129 206.837 143.474C213.062 143.652 225.526 143.474 225.526 143.474V22.7554H197.375Z" fill="white" stroke="#B3E5E1" stroke-width="1.43229" stroke-miterlimit="10" stroke-linecap="round" stroke-linejoin="round"/>
<path d="M224.727 84.586C220.099 85.621 215.767 87.8683 212.367 91.047C215.664 89.6573 220.41 90.1304 223.973 89.5981M204.427 28.8911C202.461 45.0511 204.974 61.6841 211.642 76.6465M212.943 36.3575C212.455 46.9288 214.599 57.6035 219.123 67.2581" stroke="#B3E5E1" stroke-width="1.43229" stroke-miterlimit="10" stroke-linecap="round" stroke-linejoin="round"/>
<path d="M148.319 22.7554C148.319 22.7554 148.259 29.6452 148.259 32.5134C148.319 60.6344 132.203 88.0753 131.7 90.5443C131.212 92.9247 137.511 129 138.457 143.474C131.966 143.652 119 143.474 119 143.474V22.7554H148.319Z" fill="white" stroke="#B3E5E1" stroke-width="1.43229" stroke-miterlimit="10" stroke-linecap="round" stroke-linejoin="round"/>
<path d="M119.843 84.586C124.662 85.621 129.172 87.8683 132.72 91.047C129.29 89.6573 124.352 90.1304 120.641 89.5981M140.985 28.8911C143.025 45.0511 140.408 61.6841 133.474 76.6465M132.099 36.3575C132.602 46.9288 130.384 57.6035 125.668 67.2581" stroke="#B3E5E1" stroke-width="1.43229" stroke-miterlimit="10" stroke-linecap="round" stroke-linejoin="round"/>
<path d="M227.684 18.2016H116.294V24.6479H227.684V18.2016Z" fill="#CAEFEB" stroke="#B3E5E1" stroke-width="1.43229" stroke-miterlimit="10" stroke-linecap="round" stroke-linejoin="round"/>
<path d="M126.067 96.0296C126.54 108.05 127.546 120.04 129.083 131.957" stroke="#B3E5E1" stroke-width="1.43229" stroke-miterlimit="10" stroke-linecap="round" stroke-linejoin="round"/>
<path d="M179.337 47.1653L194.344 27.5161" stroke="#D3F2EF" stroke-width="1.43229" stroke-miterlimit="10" stroke-linecap="round" stroke-linejoin="round"/>
<path d="M182.9 50.4476C182.9 50.4476 191.387 37.4073 193.368 35.2043M180.579 97.4933C187.365 88.9624 193.753 80.0914 199.696 70.9543M187.927 98.0847C190.367 95.4825 192.511 92.5995 194.314 89.5242M187.646 139.675C192.318 135.091 196.369 129.872 199.652 124.224M136.816 93.0578C141.887 85.1626 147.372 77.5188 153.242 70.1855M141.222 98.4839C143.853 94.7433 160.102 75.6707 162.985 72.1223M141.296 127.699C144.356 123.544 147.431 119.375 150.492 115.22M142.567 133.953C145.066 130.612 147.431 127.167 149.664 123.648M153.804 42.2715C157.973 36.7124 162.482 31.4046 167.273 26.3777" stroke="#D3F2EF" stroke-width="1.43229" stroke-miterlimit="10" stroke-linecap="round" stroke-linejoin="round"/>
<path d="M78.7405 88.4301C79.1101 90.9435 79.9528 93.4126 80.8547 95.793C81.6974 98.0403 82.6733 100.243 83.7378 102.417C85.9112 106.837 88.4246 111.066 90.9232 115.309C95.8023 123.574 100.726 132.075 102.766 141.552C102.869 142.055 102.973 142.558 103.062 143.06C105.782 134.056 106.876 124.565 106.255 115.176C105.605 105.595 103.535 95.2755 97.3695 87.6169C95.9649 85.8723 94.3681 84.2903 92.5644 82.9597C90.6867 81.5699 88.5429 80.2836 86.2069 79.8992C84.0039 79.5296 81.5496 80.0322 80.1155 81.8656C78.637 83.6989 78.4152 86.168 78.7405 88.4301Z" fill="#AFDDD8"/>
<path d="M85.3492 93.3831C87.7444 94.418 90.0952 95.586 92.3721 96.8723C92.2982 96.7245 92.2094 96.5766 92.1355 96.4435C90.317 93.2352 88.2767 90.1452 86.0293 87.2177C85.7632 86.8629 85.4823 86.5081 85.2014 86.1532C85.0388 85.9462 85.3492 85.6505 85.5119 85.8723C87.8035 88.7702 89.903 91.8306 91.7807 95.0094C92.0616 95.4825 92.3277 95.9704 92.5939 96.4435C92.8896 93.7231 93.1705 91.0027 93.4662 88.297C93.4957 88.0309 93.9245 88.0457 93.8949 88.3266C93.5844 91.2392 93.274 94.1667 92.9635 97.0793C94.3681 99.6371 95.6543 102.254 96.778 104.945C97.6651 107.059 98.4635 109.203 99.1732 111.376C99.5428 107.281 99.9272 103.185 100.297 99.09C100.326 98.8239 100.74 98.8387 100.726 99.1196C100.326 103.422 99.942 107.724 99.5428 112.012C99.5428 112.027 99.528 112.042 99.528 112.056C99.5576 112.071 99.5871 112.101 99.6167 112.116C99.7941 112.234 99.6906 112.456 99.5428 112.5C99.8533 113.476 100.149 114.452 100.415 115.427C101.391 119.005 102.145 122.642 102.633 126.324C103.121 129.976 103.372 133.657 103.372 137.339C103.372 137.797 103.372 138.27 103.357 138.729C103.357 138.995 102.929 138.98 102.929 138.699C103.002 135.003 102.81 131.306 102.381 127.655C101.953 124.017 101.273 120.41 100.356 116.847C99.9568 115.28 99.4984 113.742 99.0105 112.204C96.157 110.282 93.3183 108.36 90.4648 106.438C90.243 106.29 90.4648 105.935 90.7014 106.083C93.407 107.902 96.1127 109.735 98.8035 111.554C98.2269 109.794 97.5912 108.05 96.8963 106.32C95.6839 103.304 94.2793 100.362 92.7121 97.5081C92.6826 97.5081 92.6382 97.4933 92.6086 97.4785C90.2135 96.1035 87.7444 94.8763 85.2162 93.7823C84.9648 93.6788 85.0979 93.2648 85.3492 93.3831Z" fill="white"/>
<path d="M55.3951 102.106C56.7405 104.265 58.5147 106.187 60.2889 107.991C61.9744 109.706 63.7486 111.332 65.5967 112.884C69.3669 116.048 73.3736 118.917 77.3655 121.8C85.1572 127.403 93.0967 133.199 98.7741 141.065C99.0698 141.478 99.3655 141.892 99.6464 142.321C98.508 132.977 95.6989 123.855 91.3373 115.516C86.887 107 80.84 98.3951 72.1169 93.871C70.1357 92.836 68.0362 92.0376 65.8481 91.5349C63.5712 91.0175 61.0873 90.707 58.7956 91.2984C56.6222 91.8454 54.5967 93.2943 54.0053 95.5564C53.3991 97.8185 54.1975 100.169 55.3951 102.106Z" fill="#89C9C3"/>
<path d="M59.8454 101.16C62.4623 100.923 65.0793 100.864 67.711 100.953C65.8924 99.578 64.0147 98.2621 62.0927 97.0202C61.6935 96.7688 61.2795 96.5027 60.8803 96.2514C60.6438 96.1035 60.8803 95.7487 61.1169 95.8965C63.4529 97.3454 65.715 98.8979 67.9032 100.554C67.5779 98.4691 67.1196 96.414 66.543 94.3884C66.469 94.1223 66.883 94.0336 66.9569 94.2997C67.5779 96.4731 68.051 98.6761 68.3911 100.923C69.086 101.456 69.7809 101.988 70.4462 102.535C73.4032 104.93 76.2123 107.488 78.844 110.223C79.3319 110.726 79.8051 111.243 80.2782 111.761C79.7311 108.375 78.918 105.048 77.8239 101.81C77.7352 101.559 78.1492 101.47 78.2379 101.722C79.3911 105.152 80.2486 108.671 80.7957 112.249C80.7957 112.263 80.7957 112.278 80.7957 112.293C82.7177 114.407 84.551 116.61 86.2809 118.887C88.5725 121.918 90.6868 125.082 92.594 128.364C94.5013 131.661 96.2164 135.062 97.7096 138.566C97.9018 139.009 98.0793 139.453 98.2567 139.882C98.3602 140.133 97.9758 140.325 97.8723 140.074C96.4381 136.555 94.797 133.14 92.9341 129.828C91.0712 126.516 89.0161 123.308 86.754 120.247C84.758 117.542 82.6142 114.94 80.3521 112.456C76.2715 111.894 72.1908 111.347 68.1102 110.785C67.844 110.755 67.8588 110.327 68.1397 110.356C72.0578 110.888 75.9758 111.421 79.9086 111.968C79.7755 111.82 79.6424 111.672 79.5094 111.524C76.9072 108.759 74.1276 106.142 71.215 103.703C70.254 102.905 69.2634 102.121 68.258 101.352C68.2285 101.352 68.2137 101.367 68.1841 101.367C65.4341 101.249 62.6693 101.308 59.9193 101.559C59.668 101.604 59.5793 101.175 59.8454 101.16Z" fill="white"/>
<path d="M44.188 129.207C46.3614 130.508 48.8157 131.425 51.2257 132.223C53.5026 132.992 55.8238 133.628 58.1746 134.175C62.9649 135.284 67.844 136.023 72.7082 136.762C82.2001 138.211 91.8991 139.778 100.533 144.199C100.992 144.435 101.435 144.672 101.879 144.923C96.6302 137.117 89.977 130.257 82.3036 124.816C74.4676 119.257 65.1679 114.333 55.3507 114.259C53.1181 114.245 50.8708 114.481 48.6974 115.028C46.4353 115.605 44.0845 116.462 42.2956 118.015C40.6101 119.478 39.4569 121.711 39.9595 123.973C40.4622 126.294 42.2364 128.024 44.188 129.207Z" fill="#AFDDD8"/>
<path d="M45.8293 122.125C48.1357 122.258 50.4274 122.48 52.7191 122.776C51.3736 121.46 50.043 120.144 48.6975 118.828C48.5053 118.636 48.8158 118.355 49.008 118.547C50.4717 119.996 51.9354 121.43 53.4139 122.879C54.2271 122.997 55.0403 123.116 55.8535 123.249C59.1653 123.796 62.4328 124.505 65.6707 125.392C65.8481 125.437 66.0255 125.496 66.2029 125.54C64.7688 123.884 63.3346 122.243 61.9005 120.587C61.7231 120.38 62.0336 120.099 62.211 120.306C63.793 122.125 65.375 123.944 66.957 125.762C69.7513 126.56 72.5013 127.492 75.2217 128.542C76.7002 129.118 78.1492 129.724 79.5981 130.36L74.0094 123.278C73.8467 123.071 74.1572 122.776 74.3199 122.997C76.3602 125.585 78.4005 128.157 80.4408 130.745C81.7715 131.351 83.0873 131.987 84.3884 132.652C87.375 134.19 90.3024 135.875 93.1115 137.708C93.4664 137.93 93.8064 138.167 94.1465 138.403C94.3683 138.551 94.1465 138.906 93.9099 138.758C91.1451 136.895 88.2768 135.18 85.3346 133.628C83.7674 132.8 82.1707 132.016 80.5591 131.262C80.5295 131.277 80.5148 131.292 80.4852 131.306C76.8924 132.43 73.2849 133.554 69.6922 134.663C69.426 134.737 69.3521 134.323 69.6035 134.249C73.0779 133.169 76.5376 132.09 80.0121 131.011C78.7701 130.449 77.5134 129.902 76.2419 129.399C73.1518 128.157 70.0174 127.078 66.8239 126.161C63.9704 127.64 61.1317 129.103 58.2782 130.582C58.0416 130.715 57.8346 130.331 58.086 130.198C60.8064 128.793 63.5121 127.388 66.2325 125.984C63.1868 125.126 60.1115 124.417 56.9919 123.87C55.9422 123.677 54.8924 123.53 53.8427 123.367C53.8427 123.441 53.7984 123.515 53.7392 123.559C51.9059 124.609 50.0725 125.673 48.2244 126.723C47.9879 126.856 47.7957 126.487 48.0322 126.339C49.7916 125.333 51.5363 124.328 53.2957 123.323L53.2661 123.293C51.211 123.012 49.1559 122.79 47.1008 122.642C46.6868 122.613 46.2728 122.583 45.8588 122.569C45.5336 122.539 45.5484 122.11 45.8293 122.125Z" fill="white"/>
<path d="M158.831 143.918L94.2056 143.785L88.5134 103.171C87.4193 96.7393 91.4704 91.5202 97.5618 91.535L140.157 91.6237C146.234 91.6384 152.059 96.8575 153.138 103.304L158.831 143.918Z" fill="#46878C"/>
<path d="M166.637 143.918L102.012 143.785L96.3198 103.171C95.2257 96.7393 99.2768 91.5202 105.368 91.535L147.964 91.6237C154.04 91.6384 159.865 96.8575 160.945 103.304L166.637 143.918Z" fill="#63A4A5"/>
<path d="M141.089 56.539C141.089 56.539 137.289 54.6613 132.41 56.7016C127.531 58.7567 124.574 64.0202 121.218 71.6788C117.847 79.3522 112.746 94.1963 112.746 94.1963C112.746 94.1963 128.107 100.436 140.896 99.1049C153.685 97.789 161.004 96.9167 161.004 96.9167C161.004 96.9167 156.864 76.2917 155.711 72.1815C154.558 68.1008 152.443 53.9516 141.089 56.539Z" fill="#17283F"/>
<path d="M146.589 59.3333C149.605 60.6492 151.823 63.414 153.124 66.4301C154.425 69.461 154.913 72.7728 155.267 76.0403" stroke="#0E1A2B" stroke-width="0.286458" stroke-miterlimit="10" stroke-linecap="round" stroke-linejoin="round"/>
<path d="M122.873 76.8683C120.774 81.3038 119.059 85.9019 117.728 90.6183M127.649 84.3938C126.762 86.2715 126.17 88.297 125.904 90.3669M154.425 81.5107C155.223 85.34 155.77 89.2137 156.066 93.1169M151.719 87.4395C151.689 88.371 151.881 89.3024 152.251 90.1452" stroke="#324B66" stroke-width="0.286458" stroke-miterlimit="10"/>
<path d="M152.591 81.082C155.596 81.082 158.032 78.2092 158.032 74.6653C158.032 71.1215 155.596 68.2487 152.591 68.2487C149.586 68.2487 147.15 71.1215 147.15 74.6653C147.15 78.2092 149.586 81.082 152.591 81.082Z" fill="#85CCC6"/>
<path d="M153.508 69.1062C155.312 69.8898 156.716 71.5161 157.16 73.4382C157.633 75.4637 156.997 77.6371 155.593 79.1599C155.356 79.4113 155.016 79.0121 155.238 78.7755C156.524 77.4005 157.071 75.3898 156.642 73.5565C156.228 71.8118 154.972 70.3185 153.331 69.6089C153.035 69.461 153.197 68.9731 153.508 69.1062Z" fill="#262935"/>
<path d="M144.578 93.457C144.874 93.2796 145.184 93.0578 145.465 92.8065C144.267 92.4516 143.543 92.1707 143.543 92.1707L142.833 83.3441L137.185 83.8911C137.097 84.2755 135.441 91.5645 135.189 92.7325C135.145 92.9543 134.835 93.2648 134.376 93.6048C137.23 95.6304 141.621 95.172 144.578 93.457Z" fill="#FFA476"/>
<path d="M136.609 83.7137L135.293 91.9785L143.425 90.2634L143.913 82.5309L136.609 83.7137Z" fill="#0A58AC"/>
<path d="M152.103 75.1976C151.822 78.539 150.95 83.1223 149.649 84.586C146.869 87.7204 143.306 89.6868 141.251 89.4798C138.708 89.2285 135.529 87.957 133.4 86.2124C129.349 82.8857 128.462 75.7594 129.468 70.8064C131.02 63.2366 135.899 58.9341 143.173 60.4274C150.447 61.9059 152.754 67.5094 152.103 75.1976Z" fill="#FFA476"/>
<path d="M143.617 69.8159L144.267 79.1156L140.97 79.2043" stroke="#CC6B64" stroke-width="0.572917" stroke-miterlimit="10" stroke-linecap="round" stroke-linejoin="round"/>
<path d="M134.568 81.0229C135.736 81.289 136.89 80.5497 137.156 79.3817C137.422 78.2137 136.683 77.0605 135.515 76.7944C134.347 76.5282 133.193 77.2675 132.927 78.4355C132.676 79.6035 133.4 80.7715 134.568 81.0229ZM148.363 81.7178C149.531 81.9839 150.684 81.2446 150.95 80.0766C151.216 78.9086 150.477 77.7554 149.309 77.4893C148.141 77.2231 146.988 77.9624 146.722 79.1304C146.455 80.2984 147.195 81.4516 148.363 81.7178Z" fill="#FF9578"/>
<path d="M124.988 66.6075C123.716 68.0712 124.604 70.3481 126.526 70.5847C128.61 70.8508 131.168 70.703 133.371 69.2245C136.402 67.1841 140.349 62.3051 142.73 59.1559C143.617 57.9731 142.774 56.2876 141.296 56.2876H136.254C134.347 56.2876 132.573 57.3078 131.612 58.9489L124.988 66.6075Z" fill="#17283F"/>
<path d="M128.655 68.7366C129.941 68.3078 131.242 67.8495 132.366 67.0954C133.681 66.2083 134.702 64.9368 135.677 63.6801C136.21 63.0148 136.742 62.3199 137.038 61.5215" stroke="#324B66" stroke-width="0.286458" stroke-miterlimit="10"/>
<path d="M136.964 61.4032C136.964 61.4032 145.406 62.6304 148.821 66.711C152.236 70.7917 152.074 70.5699 152.074 70.5699C152.074 70.5699 153.878 62.4234 146.337 59.496C140.97 57.3965 136.964 61.4032 136.964 61.4032Z" fill="#17283F"/>
<path d="M143.439 60.9153C146.308 62.5121 148.806 64.7742 150.669 67.465" stroke="#324B66" stroke-width="0.286458" stroke-miterlimit="10"/>
<path d="M138.294 70.5255C138.9 70.5847 139.019 71.1317 138.959 71.8414C138.886 72.5511 138.664 73.1425 138.043 73.0833C137.422 73.0242 137.17 72.418 137.23 71.7083C137.304 70.9986 137.673 70.4664 138.294 70.5255ZM146.337 70.5551C145.716 70.5847 145.509 71.1465 145.539 71.8562C145.568 72.5659 145.834 73.1573 146.455 73.1277C147.076 73.0981 147.239 72.6398 147.209 71.9301C147.18 71.2204 146.958 70.5255 146.337 70.5551Z" fill="#131D30"/>
<path d="M138.634 80.254C138.634 80.254 140.305 81.5403 142.301 81.5255C144.297 81.5107 144.903 81.0968 144.903 81.0968C144.903 81.0968 144.09 84.5712 141.207 84.4086C138.753 84.246 138.634 80.254 138.634 80.254Z" fill="white"/>
<path d="M139.743 67.1694C139.743 67.1694 139.714 67.6277 139.241 68.0565C138.767 68.4852 135.692 69.7715 135.692 69.7715C135.692 69.7715 136.757 67.7164 139.743 67.1694ZM144.918 67.5538C144.918 67.5538 145.036 67.9973 145.598 68.3078C146.16 68.6183 149.043 69.5497 149.043 69.5497C149.043 69.5497 148.185 67.8938 144.918 67.5538Z" fill="#151E2E"/>
<path d="M163.089 107.917C162.616 107.266 160.753 104.708 158.52 100.923C155.918 96.5175 151.024 94.2997 151.024 94.2997L145.761 92.703C145.761 92.703 155.386 125.437 155.755 125.969C161.048 133.524 168.485 132.415 168.589 132.371C171.782 125.703 169.195 113.801 163.089 107.917Z" fill="#0880EA"/>
<path d="M156.376 110.548C156.376 110.548 157.677 123.544 157.973 125.733C158.269 127.921 158.801 129.37 158.801 129.37L161.359 130.937L156.376 110.548Z" fill="#126CC0"/>
<path d="M163.059 107.931C163.724 109.513 164.538 111.036 165.499 112.485" stroke="#0E1A2B" stroke-width="0.286458" stroke-miterlimit="10" stroke-linecap="round" stroke-linejoin="round"/>
<path d="M160.191 103.718L168.322 114.969C168.322 114.969 169.476 119.316 169.757 121.356C169.845 122.036 170.037 125.999 170.037 125.999L160.191 103.718Z" fill="#126CC0"/>
<path d="M145.45 92.5847C144.489 92.4368 140.512 93.1613 135.293 92.8508C131.523 94.8763 127.191 97.582 127.191 97.582C127.191 97.582 133.593 106.867 141.961 106.305C150.329 105.743 151.734 96.2513 151.734 96.2513C151.734 96.2513 149.22 93.1761 145.45 92.5847Z" fill="#FFA476"/>
<path d="M131.759 99.6667C131.759 99.6667 137.821 104.56 142.966 103.407C148.111 102.269 150.891 99.0753 150.891 99.0753C150.891 99.0753 153.197 116.477 152.562 124.579C151.926 132.681 148.585 141.848 148.585 141.848C148.585 141.848 145.923 142.306 140.482 141.405C135.042 140.503 130.857 139.054 130.857 139.054L131.759 99.6667Z" fill="white"/>
<path d="M145.746 92.703C145.746 92.703 148.511 101.796 148.925 109.129C149.339 116.462 145.775 140.473 145.775 140.473H152.754H159.466C159.466 140.473 158.106 125.496 157.781 122.007C156.775 111.066 154.099 101.16 152.813 96.8723C152.384 95.453 151.305 94.3441 149.886 93.9005C148.703 93.5309 147.18 93.0726 145.746 92.703ZM133.696 93.871C133.696 93.871 137.082 106.453 136.564 115.974C136.106 124.505 132.617 140.473 132.617 140.473H125.757H117.3H115.658C115.658 140.473 122.134 131.055 123.435 125.836C124.736 120.617 126.614 97.1385 126.614 97.1385C126.614 97.1385 128.314 95.8078 129.955 95.4825C131.582 95.1868 133.696 93.871 133.696 93.871Z" fill="#0880EA"/>
<path d="M123.258 127.418C123.258 127.418 124.884 124.979 125.357 124.121C127.161 120.765 127.886 118.769 127.886 118.769C127.886 118.769 126.2 127.418 125.091 129.192C123.982 130.966 119.591 135.269 119.591 135.269L123.258 127.418Z" fill="#126CC0"/>
<path d="M135.293 101.855C138.605 104.28 143.676 104.013 147.224 101.958M139.418 105.418C141.34 106.113 143.543 105.965 145.362 105.048" stroke="#0E1A2B" stroke-width="0.286458" stroke-miterlimit="10" stroke-linecap="round" stroke-linejoin="round"/>
<path d="M133.622 93.8858C133.622 93.8858 136.077 103.481 136.372 108.434C136.668 113.387 133.519 140.488 133.519 140.488H132.573" stroke="#0E1A2B" stroke-width="0.286458" stroke-miterlimit="10" stroke-linecap="round" stroke-linejoin="round"/>
<path d="M145.879 140.473L147.786 129.163" stroke="#0E1A2B" stroke-width="0.286458" stroke-miterlimit="10" stroke-linecap="round" stroke-linejoin="round"/>
<path d="M158.254 140.473H157.337H148.984" stroke="#0E1A2B" stroke-width="0.286458" stroke-miterlimit="10" stroke-linecap="round" stroke-linejoin="round"/>
<path d="M115.584 140.473H116.826H121.158H127.945" stroke="#0E1A2B" stroke-width="0.286458" stroke-miterlimit="10" stroke-linecap="round" stroke-linejoin="round"/>
<path d="M155.208 106.098C157.382 114.718 158.387 123.633 158.224 132.519M146.204 140.473C146.204 140.473 137.318 141.626 133.874 139.867" stroke="#0E1A2B" stroke-width="0.286458" stroke-miterlimit="10" stroke-linecap="round" stroke-linejoin="round"/>
<path d="M175.035 91.7715C175.035 90.0121 173.867 88.578 172.433 88.578C171.501 88.578 170.688 89.1694 170.215 90.0712C170.23 89.9825 170.23 89.879 170.244 89.7903C169.845 90.6331 169.579 91.3723 169.579 91.5645C169.564 91.9637 165.292 103.969 165.292 103.969L173.645 107.414C173.645 107.414 174.443 95.172 174.547 93.5901C174.857 93.0874 175.035 92.4516 175.035 91.7715Z" fill="#FFA476"/>
<path d="M174.148 101.056C173.645 102.284 166.519 99.5188 166.519 99.5188L163.207 108.079C163.207 108.079 163.163 108.02 163.089 107.917C162.231 115.738 157.84 132.933 168.47 132.46C169.964 131.854 172.61 128.142 173.704 124.505C175.907 117.202 174.37 103.718 174.148 101.056Z" fill="#0880EA"/>
<path d="M166.548 99.4449C168.855 100.48 171.294 101.53 173.808 101.323M166.814 101.5C168.441 102.535 170.407 102.993 172.314 102.801" stroke="#0E1A2B" stroke-width="0.286458" stroke-miterlimit="10" stroke-linecap="round" stroke-linejoin="round"/>
<path d="M183.847 82.9449C183.137 80.875 181.555 84.0538 180.091 84.9852C178.628 85.9315 175.538 86.582 175.538 86.582C175.538 86.582 176.395 85.8132 176.854 84.8226C177.312 83.832 176.927 83.4032 175.686 83.7433C174.444 84.0833 173.32 86.2715 172.048 87.2178C171.368 87.7204 170.718 88.8145 170.259 89.7903C170.082 91.0175 170.2 92.2446 170.984 93.2204C171.531 93.7675 173.601 95.0833 174.577 93.5753C174.577 93.5161 174.577 93.4718 174.591 93.457C174.591 93.4126 174.651 93.3683 174.739 93.3091C174.754 93.2796 174.769 93.2648 174.769 93.2352V93.2796C175.552 92.836 178.776 92.0376 180.624 90.707C182.708 89.1842 184.542 85.0148 183.847 82.9449Z" fill="#FFA476"/>
<path d="M173.689 90.5296C174.222 89.7016 175.094 89.1102 176.055 88.8884M180.002 86.3602C180.697 85.6358 181.377 84.8965 182.072 84.172M180.875 87.8683C181.304 86.9368 181.939 86.1089 182.723 85.4435M180.52 89.3911C180.875 88.8737 181.333 88.4449 181.865 88.1048M172.595 89.5981C173.689 89.3911 174.68 88.6667 175.197 87.6909" stroke="#0E1A2B" stroke-width="0.286458" stroke-miterlimit="10" stroke-linecap="round" stroke-linejoin="round"/>
<path d="M121.609 122.127C121.621 116.198 118.903 111.387 115.539 111.381C112.175 111.374 109.438 116.174 109.426 122.102C109.414 128.03 112.132 132.841 115.496 132.848C118.86 132.855 121.597 128.055 121.609 122.127Z" fill="#0880EA"/>
<path d="M120.818 102.742C119.266 104.989 115.629 110.563 114.949 111.598C116.767 118.325 120.818 126.915 116.368 132.726C119.65 131.233 124.5 128.808 128.3 117.216L133.711 93.8858C133.696 93.871 126.762 94.1075 120.818 102.742Z" fill="#0880EA"/>
<path d="M114.668 111.672L116.117 115.147L118.793 105.995L114.668 111.672Z" fill="#126CC0"/>
<path d="M119.325 130.981C121.159 130.301 122.46 128.645 123.539 127.004C125.564 123.929 127.191 120.587 128.374 117.098" stroke="#0E1A2B" stroke-width="0.286458" stroke-miterlimit="10" stroke-linecap="round" stroke-linejoin="round"/>
<path d="M112.524 105.758C112.524 105.758 109.537 93.3831 109.552 92.9691C109.552 92.9099 109.537 92.7769 109.508 92.6142C108.325 93.9153 106.388 94.4771 104.392 94.3884C104.333 95.586 103.845 108.301 103.845 108.301L112.524 105.758Z" fill="#FFA476"/>
<path d="M108.964 95.7517C110.038 94.6777 110.038 92.9365 108.964 91.8626C107.89 90.7887 106.149 90.7887 105.075 91.8626C104.001 92.9366 104.001 94.6778 105.075 95.7517C106.149 96.8257 107.89 96.8256 108.964 95.7517Z" fill="#FFA476"/>
<path d="M114.949 111.598C114.875 111.702 114.845 111.761 114.845 111.761C114.845 111.761 112.332 105.522 112.021 103.88C111.888 103.156 104.082 104.058 103.845 104.664C103.609 105.255 102.441 119.419 105.56 125.496C108.695 131.558 111.578 134.559 114.476 133.495C114.993 133.302 115.644 133.051 116.353 132.726C120.818 126.915 116.767 118.325 114.949 111.598Z" fill="#0880EA"/>
<path d="M114.476 110.992C114.964 112.515 115.585 114.008 116.339 115.427M103.786 104.708C105.383 103.94 107.216 103.806 108.99 103.703C109.818 103.644 110.661 103.599 111.489 103.54M104.658 106.364C106.58 105.921 108.517 105.595 110.469 105.388" stroke="#0E1A2B" stroke-width="0.286458" stroke-miterlimit="10" stroke-linecap="round" stroke-linejoin="round"/>
<path d="M109.508 92.629C109.316 91.6828 108.562 89.3172 107.571 88.4005C106.403 87.3212 105.516 85.0444 104.318 84.5712C103.121 84.0981 102.692 84.4825 103.047 85.5175C103.402 86.5524 104.171 87.4099 104.171 87.4099C104.171 87.4099 101.169 86.4341 99.8091 85.3401C98.4489 84.246 97.2069 80.9341 96.2755 82.9153C95.3588 84.8965 96.7486 89.2433 98.6854 90.9731C100.622 92.703 104.422 93.9301 104.392 94.3293C104.392 94.3441 104.392 94.3737 104.392 94.4032C106.388 94.4919 108.325 93.9301 109.508 92.629Z" fill="#FFA476"/>
<path d="M108.621 89.6129C109.774 91.1505 110.646 94.2554 107.808 95.1277C106.196 95.6156 104.392 94.8911 103.638 93.1169C102.884 91.3427 103.52 89.3763 105.072 88.7258C106.625 88.0605 107.748 88.4449 108.621 89.6129Z" fill="#FFA476"/>
<path d="M97.7835 83.7285C98.2122 84.793 98.8036 85.7836 99.5133 86.6559M96.9555 84.7339C97.3399 85.7393 97.8426 86.7003 98.434 87.5874M96.512 87.0255C96.8668 87.2769 97.0738 87.6761 97.3103 88.0457C97.5913 88.4893 97.9017 88.918 98.2418 89.3024M102.603 89.9973C103.224 90.1008 103.786 90.4704 104.23 90.9288C104.673 91.3871 105.028 91.9194 105.368 92.4516M104.777 88.7406C104.984 89.7312 105.619 90.6183 106.492 91.1358" stroke="#0E1A2B" stroke-width="0.286458" stroke-miterlimit="10" stroke-linecap="round" stroke-linejoin="round"/>
<path d="M141.665 56.1693C141.665 56.1693 127.383 57.6183 126.496 71.9449L124.293 70.8508C124.293 70.8656 124.116 53.9664 141.665 56.1693Z" fill="#85CCC6"/>
<path d="M128.167 78.3763C128.167 78.3763 130.754 83.7728 135.633 85.6949C140.512 87.6169 142.804 86.8038 142.804 86.8038" stroke="#629992" stroke-width="1.43229" stroke-miterlimit="10"/>
<path d="M127.102 80.9785C130.45 80.9785 133.164 78.0593 133.164 74.4583C133.164 70.8573 130.45 67.9382 127.102 67.9382C123.754 67.9382 121.04 70.8573 121.04 74.4583C121.04 78.0593 123.754 80.9785 127.102 80.9785Z" fill="#85CCC6"/>
<path d="M128.122 68.8105C130.148 69.6089 131.7 71.2648 132.203 73.2164C132.735 75.2715 132.026 77.4893 130.458 79.0269C130.207 79.2782 129.808 78.879 130.074 78.6277C131.508 77.2231 132.129 75.1828 131.641 73.3199C131.183 71.5457 129.778 70.0229 127.945 69.2984C127.59 69.1653 127.767 68.6626 128.122 68.8105Z" fill="#262935"/>
<path d="M141.029 87.6909L140.882 86.2124L144.43 85.9167C144.43 85.9167 145.021 86.8038 144.43 87.2473C143.839 87.6909 141.029 87.6909 141.029 87.6909Z" fill="#17283F"/>
<path d="M200.302 62.7191L249.758 62.5565C251 62.5565 252.02 64.2419 252.02 66.3414L252.064 88.2083C252.064 90.3078 251.059 91.9933 249.817 92.0081L243.622 92.0229L237.767 92.0376L200.361 92.1707C199.119 92.1707 198.099 90.4852 198.099 88.3858L198.055 66.5188C198.04 64.4194 199.06 62.7191 200.302 62.7191Z" fill="white" stroke="#0880EA" stroke-width="2.00521" stroke-miterlimit="10"/>
<path d="M215.605 73.8817L217.202 67.8051L221.652 66.0161L222.184 73.8226C222.184 73.8226 222.125 77.9771 218.325 77.9771C214.526 77.9771 215.413 74.0296 215.413 74.0296" fill="#FFA476"/>
<path d="M216.728 68.8696L215.413 74.0444L222.036 71.1909L222.48 62.0833L216.728 68.8696Z" fill="#0A58AC"/>
<path d="M209.78 53.6855C209.78 53.6855 209.794 58.2688 209.632 61.9651C209.558 63.5618 210.06 67.4651 210.785 68.6922C211.036 69.1062 213.683 71.9449 215.59 71.9005C215.59 71.9005 218.843 71.6048 221.445 69.9046C221.903 69.5941 223.175 66.2823 223.47 64.582L225.156 54.7796L209.78 53.6855Z" fill="#FFA476"/>
<path d="M225.274 54.6317C227.166 55.1788 228.261 57.0564 227.728 58.8306L226.013 63.7245L222.199 68.4556L223.5 64.4341C220.853 61.625 222.613 57.6478 222.613 57.6478C222.051 57.7661 221.711 54.1438 222.967 53.9368C224.239 53.7298 225.274 54.6317 225.274 54.6317Z" fill="#0E1B2D"/>
<path d="M213.934 60.7527L213.106 64.8481L214.984 65.0255" stroke="#D17046" stroke-width="0.286458" stroke-miterlimit="10" stroke-linecap="round" stroke-linejoin="round"/>
<path d="M225.674 52.547C225.733 53.6855 225.274 54.6317 225.274 54.6317C225.274 54.6317 226.058 54.0108 227.389 54.4691" stroke="#0E1B2D" stroke-width="0.286458" stroke-miterlimit="10" stroke-linecap="round" stroke-linejoin="round"/>
<path d="M217.069 64.8629C216.98 65.7204 217.586 66.4893 218.444 66.578C219.301 66.6667 220.07 66.0605 220.159 65.203C220.247 64.3454 219.641 63.5766 218.784 63.4879C217.926 63.3992 217.157 64.0054 217.069 64.8629ZM209.839 64.0497C209.898 65.0403 210.031 66.1788 210.253 67.125C210.977 67.0511 211.569 66.4893 211.657 65.75C211.746 64.8925 211.14 64.1237 210.282 64.035C210.12 64.0202 209.972 64.0202 209.839 64.0497Z" fill="#FF9578"/>
<path d="M224.476 56.7903C224.771 57.9731 224.505 59.2742 223.781 60.2352M226.501 57.3226C226.516 57.914 226.398 58.5054 226.146 59.0524" stroke="#264066" stroke-width="0.286458" stroke-miterlimit="10" stroke-linecap="round" stroke-linejoin="round"/>
<path d="M225.836 64.3602C225.525 65.5874 224.609 66.4301 223.796 66.2231C222.982 66.0161 222.051 64.9812 222.361 63.7392C222.672 62.5121 224.091 61.5511 224.919 61.7581C225.732 61.9503 226.146 63.1183 225.836 64.3602Z" fill="#FFA476"/>
<path d="M225.378 63.0591C225.156 63.0296 224.949 63.0444 224.757 63.0887C224.565 63.1331 224.387 63.2218 224.225 63.3253C224.062 63.4288 223.899 63.5618 223.751 63.7097C223.604 63.8575 223.456 64.0054 223.278 64.1532C223.337 63.9462 223.441 63.7392 223.574 63.5618C223.707 63.3844 223.87 63.207 224.062 63.0887C224.254 62.9556 224.491 62.8817 224.727 62.8669C224.964 62.8521 225.2 62.9113 225.378 63.0591Z" fill="#0880EA"/>
<path d="M212.441 66.8589C212.441 66.8589 214.067 71.2944 216.433 66.5632L212.441 66.8589Z" fill="white"/>
<path d="M216.758 58.8898C216.684 59.1263 217.527 59.1411 217.882 59.4073C218.473 59.8508 218.769 60.4866 218.961 60.1465C219.478 59.2298 217.083 57.8696 216.758 58.8898Z" fill="#0E1B2D"/>
<path d="M209.854 58.7567C210.001 58.9785 210.341 58.4906 210.815 58.3575C211.421 58.1801 212.175 58.2984 212.056 58.0027C211.687 57.1156 209.292 57.9435 209.854 58.7567Z" fill="#0E1B2D"/>
<path d="M217.69 61.6694C217.556 62.1129 217.202 62.4086 216.891 62.3199C216.581 62.2312 216.448 61.8024 216.581 61.3589C216.714 60.9153 217.069 60.6196 217.379 60.7083C217.69 60.797 217.837 61.2258 217.69 61.6694Z" fill="#0E1B2D"/>
<path d="M211.672 60.9745C211.628 61.418 211.332 61.7433 211.007 61.6989C210.681 61.6694 210.474 61.2849 210.519 60.8414C210.563 60.3978 210.859 60.0726 211.184 60.1169C211.494 60.1613 211.716 60.5457 211.672 60.9745Z" fill="#0E1B2D"/>
<path d="M225.274 54.6317C224.683 48.1559 216.374 48.9543 211.184 50.6989C208.286 51.6747 208.153 55.4892 210.992 56.672C213.18 57.5739 216.758 58.1357 222.628 57.6478C222.628 57.6478 225.851 56.8938 225.156 54.7796" fill="#0E1B2D"/>
<path d="M209.04 52.6801C208.094 53.7742 208.523 55.6075 209.617 56.5538C210.711 57.5 212.248 57.7513 213.697 57.7957C215.412 57.84 217.142 57.6331 218.798 57.1747" stroke="#0E1B2D" stroke-width="0.286458" stroke-miterlimit="10" stroke-linecap="round" stroke-linejoin="round"/>
<path d="M211.036 52.1035C210.548 52.4583 210.667 53.2419 210.992 53.7446C211.731 54.8978 213.136 55.4301 214.466 55.7258C217.349 56.3468 220.41 56.1693 223.204 55.1935M215.353 52.2513C215.22 52.6653 215.812 52.9314 216.241 52.961C217.867 53.0941 219.508 52.9906 221.105 52.6505" stroke="#264066" stroke-width="0.286458" stroke-miterlimit="10" stroke-linecap="round" stroke-linejoin="round"/>
<path d="M213.106 74.7984C213.106 74.7984 215.368 74.207 216.64 73.9852C217.911 73.7782 222.332 73.9852 222.332 73.9852C222.332 73.9852 218.103 78.6277 216.64 78.4207C215.161 78.2137 213.106 74.7984 213.106 74.7984Z" fill="#FFA476"/>
<path d="M222.332 73.9852C222.332 73.9852 220.084 75.2715 217.615 75.035C215.146 74.7836 214.407 74.2957 214.407 74.2957C214.407 74.2957 210.859 74.9019 209.868 75.8925C207.369 78.3911 205.285 91.9785 205.285 91.9785H217.349H233.598C233.598 91.9785 230.39 86.1089 228.926 83.4032C227.447 80.6976 227.595 76.5134 227.595 75.035C227.61 74.547 222.332 73.9852 222.332 73.9852Z" fill="#126CC0"/>
<path d="M222.273 73.8965C221.312 74.5766 220.129 74.9019 218.961 74.961C217.793 75.0202 216.61 74.8427 215.457 74.6062M222.332 75.0202C221.282 75.8629 219.907 76.2473 218.562 76.2621C217.217 76.2769 215.886 75.9516 214.6 75.5081" stroke="#0E1A2B" stroke-width="0.286458" stroke-miterlimit="10" stroke-linecap="round" stroke-linejoin="round"/>
<path d="M210.445 75.3159C210.445 75.3159 207.429 76.5874 206.409 79.6331C205.388 82.6788 203.038 91.9785 203.038 91.9785H211.317C211.317 91.9785 216.891 75.2419 210.445 75.3159ZM227.359 74.7393C227.359 74.7393 229.222 75.582 230.227 76.9274C231.632 78.8051 235.298 91.9785 235.298 91.9785H223.81C223.81 91.9785 222.628 79.293 223.47 77.4301C224.313 75.582 227.359 74.7393 227.359 74.7393Z" fill="#0880EA"/>
<path d="M111.282 26.7917L61.8265 26.629C60.5845 26.629 59.5644 28.3145 59.5644 30.414L59.52 52.2809C59.52 54.3804 60.5254 56.0659 61.7673 56.0806L67.9622 56.0954L73.8171 56.1102L111.223 56.2433C112.465 56.2433 113.485 54.5578 113.485 52.4583L113.529 30.5914C113.529 28.4919 112.524 26.7917 111.282 26.7917Z" fill="white" stroke="#0880EA" stroke-width="2.00521" stroke-miterlimit="10"/>
<path d="M95.9797 37.9543L94.3829 31.8777L89.9327 30.0887L89.4004 37.8952C89.4004 37.8952 89.4595 42.0497 93.2593 42.0497C97.059 42.0497 96.1719 38.1021 96.1719 38.1021" fill="#FFA476"/>
<path d="M94.8412 32.9422L96.1718 38.1169L89.5482 35.2634L89.0898 26.1559L94.8412 32.9422Z" fill="#0A58AC"/>
<path d="M101.805 17.7581C101.805 17.7581 101.79 22.3414 101.953 26.0376C102.027 27.6344 101.524 31.5376 100.799 32.7648C100.548 33.1788 97.9016 36.0175 95.9943 35.9731C95.9943 35.9731 92.7416 35.6774 90.1395 33.9772C89.6812 33.6667 88.4096 30.3548 88.1139 28.6546L86.4285 18.8522L101.805 17.7581Z" fill="#FFA476"/>
<path d="M86.3103 18.7043C84.4178 19.2513 83.3237 21.129 83.856 22.9032L85.571 27.797L89.3855 32.5282L88.0845 28.5067C90.731 25.6976 88.9716 21.7204 88.9716 21.7204C89.5334 21.8387 89.8734 18.2164 88.6167 18.0094C87.3452 17.8024 86.3103 18.7043 86.3103 18.7043Z" fill="#0E1B2D"/>
<path d="M97.6503 24.8253L98.4783 28.9207L96.6006 29.0981" stroke="#D17046" stroke-width="0.286458" stroke-miterlimit="10" stroke-linecap="round" stroke-linejoin="round"/>
<path d="M85.9111 16.6196C85.852 17.7581 86.3103 18.7043 86.3103 18.7043C86.3103 18.7043 85.5267 18.0833 84.196 18.5417" stroke="#0E1B2D" stroke-width="0.286458" stroke-miterlimit="10" stroke-linecap="round" stroke-linejoin="round"/>
<path d="M94.5159 28.9355C94.6046 29.793 93.9984 30.5618 93.1409 30.6505C92.2834 30.7393 91.5146 30.1331 91.4258 29.2755C91.3371 28.418 91.9433 27.6492 92.8008 27.5605C93.6584 27.4718 94.4272 28.078 94.5159 28.9355ZM101.746 28.1223C101.687 29.1129 101.554 30.2514 101.332 31.1976C100.607 31.1237 100.016 30.5618 99.9272 29.8226C99.8385 28.9651 100.445 28.1962 101.302 28.1075C101.465 28.0928 101.613 28.0928 101.746 28.1223Z" fill="#FF9578"/>
<path d="M87.0938 20.8629C86.7981 22.0457 87.0642 23.3468 87.7887 24.3078M85.083 21.3952C85.0682 21.9866 85.1865 22.578 85.4379 23.125" stroke="#264066" stroke-width="0.286458" stroke-miterlimit="10" stroke-linecap="round" stroke-linejoin="round"/>
<path d="M85.7485 28.4328C86.059 29.6599 86.9757 30.5027 87.7888 30.2957C88.602 30.0887 89.5335 29.0538 89.223 27.8118C88.9125 26.5847 87.4931 25.6236 86.6652 25.8306C85.852 26.0228 85.438 27.1908 85.7485 28.4328Z" fill="#FFA476"/>
<path d="M86.2068 27.1317C86.3842 26.9839 86.6208 26.9247 86.8573 26.9395C87.0939 26.9543 87.3157 27.0282 87.5226 27.1613C87.7148 27.2943 87.8775 27.457 88.0106 27.6344C88.1436 27.8118 88.2471 28.0188 88.3063 28.2258C88.1436 28.0779 87.981 27.9301 87.8331 27.7822C87.6853 27.6344 87.5226 27.5161 87.36 27.3978C87.1974 27.2943 87.02 27.2056 86.8278 27.1613C86.6208 27.1169 86.4286 27.1021 86.2068 27.1317Z" fill="#0880EA"/>
<path d="M98.8776 32.0995C98.8776 32.0995 98.7297 29.379 95.6101 31.996L98.8776 32.0995Z" fill="white"/>
<path d="M92.446 23.5685C92.446 23.3172 93.2592 23.539 93.6732 23.3911C94.3681 23.125 94.8264 22.6075 94.9151 22.9771C95.1517 23.9825 92.4756 24.633 92.446 23.5685Z" fill="#0E1B2D"/>
<path d="M99.5282 22.3266C99.676 22.09 100.031 22.5632 100.519 22.6667C101.14 22.7997 101.879 22.6519 101.776 22.9624C101.465 23.8642 99.0255 23.1841 99.5282 22.3266Z" fill="#0E1B2D"/>
<path d="M93.8802 25.7419C94.0133 26.1855 94.3681 26.4812 94.6786 26.3925C94.9891 26.3038 95.1222 25.875 94.9891 25.4314C94.856 24.9879 94.5012 24.6922 94.1907 24.7809C93.8802 24.8696 93.7472 25.2984 93.8802 25.7419Z" fill="#0E1B2D"/>
<path d="M99.9124 25.047C99.9567 25.4906 100.252 25.8159 100.578 25.7715C100.903 25.7419 101.11 25.3575 101.066 24.914C101.021 24.4704 100.726 24.1452 100.4 24.1895C100.075 24.2339 99.8532 24.6183 99.9124 25.047Z" fill="#0E1B2D"/>
<path d="M86.3103 18.7043C86.9017 12.2285 95.2108 13.0269 100.4 14.7715C103.298 15.7473 103.431 19.5618 100.593 20.7446C98.4044 21.6465 94.8264 22.2083 88.9568 21.7204C88.9568 21.7204 85.7337 20.9664 86.4286 18.8522" fill="#0E1B2D"/>
<path d="M102.544 16.7527C103.49 17.8468 103.062 19.6801 101.968 20.6264C100.873 21.5726 99.3359 21.8239 97.8869 21.8683C96.1719 21.9126 94.442 21.7057 92.7861 21.2473" stroke="#0E1B2D" stroke-width="0.286458" stroke-miterlimit="10" stroke-linecap="round" stroke-linejoin="round"/>
<path d="M100.548 16.1761C101.036 16.5309 100.918 17.3145 100.592 17.8172C99.8532 18.9704 98.4487 19.5027 97.118 19.7984C94.235 20.4194 91.1745 20.2419 88.3801 19.2661M96.2309 16.3239C96.364 16.7379 95.7726 17.004 95.3438 17.0336C93.7175 17.1667 92.0764 17.0632 90.4796 16.7231" stroke="#264066" stroke-width="0.286458" stroke-miterlimit="10" stroke-linecap="round" stroke-linejoin="round"/>
<path d="M98.4636 38.871C98.4636 38.871 96.2015 38.2796 94.93 38.0578C93.6585 37.8508 89.2378 38.0578 89.2378 38.0578C89.2378 38.0578 93.4663 42.7003 94.93 42.4933C96.4233 42.2863 98.4636 38.871 98.4636 38.871Z" fill="#FFA476"/>
<path d="M89.2377 38.0578C89.2377 38.0578 91.485 39.3441 93.9541 39.1075C96.4232 38.8562 97.1624 38.3683 97.1624 38.3683C97.1624 38.3683 100.711 38.9745 101.701 39.965C104.2 42.4637 106.285 56.0511 106.285 56.0511H94.2202H77.9568C77.9568 56.0511 81.1651 50.1814 82.6288 47.4758C84.1073 44.7702 83.9595 40.586 83.9595 39.1075C83.9595 38.6196 89.2377 38.0578 89.2377 38.0578Z" fill="#126CC0"/>
<path d="M89.2968 37.9691C90.2578 38.6492 91.4406 38.9744 92.6086 39.0336C93.7766 39.0927 94.9594 38.9153 96.1127 38.6787M89.2524 39.0927C90.3022 39.9355 91.6772 40.3199 93.0226 40.3347C94.368 40.3494 95.6987 40.0242 96.985 39.5806" stroke="#0E1A2B" stroke-width="0.286458" stroke-miterlimit="10" stroke-linecap="round" stroke-linejoin="round"/>
<path d="M101.125 39.3884C101.125 39.3884 104.141 40.6599 105.161 43.7056C106.181 46.7513 108.532 56.0511 108.532 56.0511H100.253C100.267 56.0511 94.6934 39.3145 101.125 39.3884ZM84.2257 38.8118C84.2257 38.8118 82.3628 39.6546 81.3574 41C79.9528 42.8777 76.2861 56.0511 76.2861 56.0511H87.774C87.774 56.0511 88.9568 43.3656 88.1141 41.5027C87.2713 39.6398 84.2257 38.8118 84.2257 38.8118Z" fill="#0880EA"/>
<path d="M70.2899 37.46C74.7299 33.0198 74.7298 25.821 70.2896 21.3809C65.8494 16.9409 58.6506 16.941 54.2105 21.3812C49.7705 25.8214 49.7706 33.0202 54.2108 37.4603C58.651 41.9003 65.8499 41.9002 70.2899 37.46Z" fill="#0880EA"/>
<path d="M64.1181 26.4073C64.1181 25.4167 63.3641 24.7809 62.2109 24.7809C61.0872 24.7809 60.2149 25.3427 59.6531 26.2742L57.5093 24.8401C58.4703 23.1841 60.1262 22.1196 62.5066 22.1196C65.1531 22.1196 67.0012 23.4798 67.0012 25.8602C67.0012 29.0981 64.0294 29.4677 64.0294 31.6116H61.3681C61.3534 28.8024 64.1181 28.1667 64.1181 26.4073ZM60.9985 34.879C60.9985 33.8441 61.7082 33.0753 62.6988 33.0753C63.6894 33.0753 64.3991 33.8441 64.3991 34.879C64.3991 35.8844 63.6894 36.7272 62.6988 36.7272C61.7082 36.7124 60.9985 35.8844 60.9985 34.879Z" fill="white"/>
<path d="M245.47 76.0995C252.566 76.0995 258.318 70.3472 258.318 63.2514C258.318 56.1555 252.566 50.4032 245.47 50.4032C238.374 50.4032 232.622 56.1555 232.622 63.2514C232.622 70.3472 238.374 76.0995 245.47 76.0995Z" fill="#0880EA"/>
<path d="M239.246 59.7917H244.509C244.332 59.3925 243.918 58.4019 243.489 57.3965C242.942 56.1102 243.859 55.0013 244.406 55.1788C244.953 55.3562 244.953 55.918 245.692 56.8347C246.431 57.7513 248.279 59.7769 248.279 59.7769V68.2487H240.724C240.221 68.2487 239.807 67.8347 239.807 67.332V67.0067C239.807 66.504 240.221 66.0901 240.724 66.0901H240.177C239.674 66.0901 239.26 65.6761 239.26 65.1734V64.8481C239.26 64.5229 239.438 64.2272 239.689 64.0645C239.334 63.9315 239.068 63.6062 239.068 63.1922V62.8669C239.068 62.3643 239.482 61.9503 239.985 61.9503H239.246C238.743 61.9503 238.329 61.5363 238.329 61.0336V60.7083C238.314 60.2057 238.728 59.7917 239.246 59.7917ZM249.965 68.8253H251.547C252.286 68.8253 252.877 68.2339 252.877 67.4946V60.3831C252.877 59.6438 252.286 59.0524 251.547 59.0524H249.965C249.226 59.0524 248.634 59.6438 248.634 60.3831V67.4946C248.649 68.2339 249.24 68.8253 249.965 68.8253Z" fill="white"/>
<path d="M210.208 135.949H152.37V138.122H210.208V135.949Z" fill="#A4FCFA"/>
<path d="M209.573 138.137L166.578 137.915L171.93 107.931C172.122 106.867 173.054 106.083 174.133 106.083H213.831C214.762 106.083 215.457 106.926 215.295 107.828L210.356 135.579L209.573 138.137Z" fill="#A4FCFA"/>
<path d="M195.351 124.739C196.995 122.825 196.957 120.096 195.266 118.644C193.575 117.191 190.872 117.566 189.228 119.48C187.584 121.394 187.622 124.123 189.313 125.575C191.004 127.028 193.707 126.653 195.351 124.739Z" fill="#D7FFFD"/>
<path d="M173.793 106.009H212.263" stroke="black" stroke-width="0.286458" stroke-miterlimit="10"/>
<path d="M152.37 138.137V135.949H166.031" stroke="black" stroke-width="0.286458" stroke-miterlimit="10"/>
<path d="M166.829 136.466L170.836 114.23" stroke="black" stroke-width="0.286458" stroke-miterlimit="10"/>
<path d="M173.985 135.757L210.282 135.89L215.294 107.798C215.457 106.882 214.762 106.039 213.831 106.039H212.101" stroke="black" stroke-width="0.286458" stroke-miterlimit="10"/>
<path d="M210.297 138.034V135.979" stroke="black" stroke-width="0.286458" stroke-miterlimit="10"/>
<path d="M246.15 137.634H42.2217V145.352H246.15V137.634Z" fill="#85CCC6"/>
<path d="M187.159 48.6882H141.133C137.703 48.6882 134.923 45.9086 134.923 42.4785V40.8965C134.923 37.4664 137.703 34.6868 141.133 34.6868H187.159C190.589 34.6868 193.368 37.4664 193.368 40.8965V42.4785C193.368 45.9086 190.589 48.6882 187.159 48.6882Z" fill="white" stroke="#71B4BF" stroke-width="1.43229" stroke-miterlimit="10"/>
<path d="M147.165 37.7769L148.304 40.0686L150.832 40.4382L148.999 42.2272L149.427 44.7554L147.165 43.5578L144.903 44.7554L145.332 42.2272L143.499 40.4382L146.042 40.0686L147.165 37.7769Z" fill="#0880EA"/>
<path d="M158.49 37.7769L159.614 40.0686L162.157 40.4382L160.324 42.2272L160.752 44.7554L158.49 43.5578L156.228 44.7554L156.657 42.2272L154.824 40.4382L157.352 40.0686L158.49 37.7769Z" fill="#0880EA"/>
<path d="M169.801 37.7769L170.939 40.0686L173.468 40.4382L171.634 42.2272L172.078 44.7554L169.801 43.5578L167.539 44.7554L167.968 42.2272L166.134 40.4382L168.677 40.0686L169.801 37.7769Z" fill="#0880EA"/>
<path d="M181.126 37.7769L182.265 40.0686L184.793 40.4382L182.959 42.2272L183.388 44.7554L181.126 43.5578L178.864 44.7554L179.293 42.2272L177.459 40.4382L179.988 40.0686L181.126 37.7769Z" fill="#0880EA"/>
<path d="M73.8171 79.3078H38.9394C35.5093 79.3078 32.7297 76.5282 32.7297 73.0981V71.5161C32.7297 68.086 35.5093 65.3065 38.9394 65.3065H73.8171C77.2472 65.3065 80.0268 68.086 80.0268 71.5161V73.0981C80.0268 76.5282 77.2472 79.3078 73.8171 79.3078Z" fill="white" stroke="#71B4BF" stroke-width="1.43229" stroke-miterlimit="10"/>
<path d="M43.715 74.3844L46.1693 72.6102C46.8642 72.1075 47.0268 71.8118 47.0268 71.4718C47.0268 71.1022 46.7163 70.8656 46.2728 70.8656C45.7109 70.8656 45.2674 71.1317 44.7499 71.6492L43.5967 70.4812C44.3211 69.6089 45.223 69.1801 46.3171 69.1801C47.8843 69.1801 48.934 70.1264 48.934 71.3979C48.934 72.2702 48.594 72.9355 47.4112 73.6895L46.5537 74.2366H48.9784V75.8925H43.6854V74.3844H43.715Z" fill="#0880EA"/>
<path d="M52.8076 74.7245H49.6288L49.481 73.3199L52.3936 69.2984H54.6853V73.1868H55.4836V74.7245H54.6853V75.8925H52.8224V74.7245H52.8076ZM52.8076 73.1868V71.2056L51.3882 73.1868H52.8076Z" fill="#0880EA"/>
<path d="M58.7069 68.7513H60.629L57.3615 76.6022H55.4395L58.7069 68.7513Z" fill="#0880EA"/>
<path d="M63.8815 70.9543H60.821V69.2984H66.0253V70.703L63.4823 75.9073H61.3829L63.8815 70.9543Z" fill="#0880EA"/>
</g>
<defs>
<clipPath id="clip0_1955_153641">
<rect width="283.871" height="160" fill="white" transform="translate(0.128906)"/>
</clipPath>
</defs>
</svg>
