<svg width="32" height="32" viewBox="0 0 32 32" fill="none" xmlns="http://www.w3.org/2000/svg">
<g clip-path="url(#clip0_830_6277)">
<path d="M19.0494 21.2031L13.4211 21.2964L12.2266 26.6719L16.3804 28.9524L20.405 23.8436L19.0494 21.2031Z" fill="#FFD18D"/>
<path d="M11.9354 24.8008C13.0243 24.4166 13.793 23.4512 13.9425 22.3282C13.9647 22.1615 14.035 22.005 14.1598 21.8922C14.3168 21.7502 14.5303 21.695 14.7388 21.731C15.1491 21.8019 15.5702 21.8405 16.0008 21.8405C17.0852 21.8405 18.1147 21.6105 19.0485 21.2023V19.3008H12.9532V21.9268C12.9532 22.7882 12.41 23.556 11.5977 23.8427L11.9354 24.8008Z" fill="#FBBD80"/>
<path d="M25.6493 25.6956L20.6846 23.9434L17.6034 24.9969C17.4497 25.196 17.3256 25.4181 17.2362 25.6564L16.4757 27.6847C16.3109 28.1241 15.6893 28.1241 15.5245 27.6847L14.7639 25.6564C14.6749 25.4189 14.5512 25.1975 14.3984 24.9989L11.5969 24.1189L6.35086 25.9705C5.13242 26.4005 4.62305 27.5522 4.62305 28.8443V30.4767L5.33342 31.9138C5.4923 31.9699 5.66323 32.0005 5.84136 32.0005H22.0953L23.1112 31.3217L24.127 32.0005H26.1588C27.0004 32.0005 27.6826 31.3183 27.6826 30.4767V28.5694C27.6826 27.2774 26.8677 26.1256 25.6493 25.6956Z" fill="#77CC7D"/>
<path d="M6.68992 26.6532L11.936 24.8018L11.5977 23.8438L6.35167 25.6953C5.13317 26.1253 4.31836 27.2771 4.31836 28.5692V30.4764C4.31836 31.1389 4.74373 31.7037 5.33423 31.9136V28.5692C5.33423 27.7093 5.87892 26.9392 6.68992 26.6532Z" fill="#52BD7E"/>
<path d="M13.7961 24.4337L11.7766 23.0873C11.5751 22.953 11.3069 22.9795 11.1356 23.1507L9.90625 24.3801L11.1459 26.8594C11.2915 27.1507 11.6698 27.2316 11.9218 27.0253L14.3997 24.9975C14.2316 24.779 14.0283 24.5885 13.7961 24.4337Z" fill="#9AE59C"/>
<path d="M18.2082 24.4337L20.2278 23.0873C20.4292 22.953 20.6975 22.9795 20.8687 23.1507L22.0981 24.3801L20.8585 26.8594C20.7128 27.1507 20.3345 27.2316 20.0825 27.0253L17.6035 24.9955C17.7716 24.777 17.976 24.5885 18.2082 24.4337Z" fill="#9AE59C"/>
<path d="M22.8848 17.4824L19.5293 18.0391V21.6498C19.5293 22.5112 20.0725 23.279 20.8849 23.5657L21.8992 23.9237C22.3054 24.0671 22.5769 24.451 22.5769 24.8817L23.1119 32.0007H24.1277C24.1277 27.9372 25.6515 26.9213 25.6515 23.8737C25.6515 20.5792 23.6447 19.6216 22.8848 17.4824Z" fill="#D48C64"/>
<path d="M21.7566 23.2439L20.7425 22.8861C20.3363 22.7428 20.0647 22.3589 20.0647 21.9282V21.1991C20.0647 20.8828 20.2053 20.5767 20.4615 20.3912C21.4944 19.6433 22.3323 18.6437 22.8853 17.4823C22.7078 16.9828 22.5978 16.4196 22.5978 15.7466H22.6044L23.1123 15.2387V13.7148H19.0488V21.9282C19.0488 22.7896 19.5921 23.5574 20.4044 23.8441L21.4186 24.202C21.8248 24.3454 22.0965 24.7293 22.0965 25.16V32.0006H23.1123V25.1597C23.1123 24.2983 22.569 23.5305 21.7566 23.2439Z" fill="#C6805D"/>
<path d="M16.0012 20.764C12.3544 20.764 9.95898 17.8695 9.95898 14.2227V6.0957H22.6044V14.2227C22.6044 17.521 20.1861 20.2545 17.0259 20.7468C16.6919 20.7988 16.3497 20.764 16.0012 20.764Z" fill="#FFE09C"/>
<path d="M19.4569 6.0957H8.50586L9.39736 14.2227C9.39736 17.8695 12.3537 20.8259 16.0005 20.8259C16.3469 20.8259 16.6932 20.7983 17.0252 20.7469C13.862 20.2571 11.4292 17.5232 11.4292 14.2228V13.4666C11.4292 12.8038 11.8618 12.2286 12.4899 12.0169C15.5419 10.9879 18.052 8.8552 19.4569 6.0957Z" fill="#FFD18D"/>
<path d="M19.5571 2.53906L17.5254 6.60256C18.3975 7.68394 20.212 9.15206 21.6353 10.2316C22.2478 10.6962 22.6048 11.4211 22.6048 12.1899H23.6206V6.60256C23.6206 4.35838 21.8013 2.53906 19.5571 2.53906Z" fill="#D48C64"/>
<path d="M12.9533 13.7152C12.6725 13.7152 12.4453 13.4878 12.4453 13.2073V12.6993C12.4453 12.4188 12.6725 12.1914 12.9533 12.1914C13.234 12.1914 13.4612 12.4188 13.4612 12.6993V13.2073C13.4612 13.4878 13.234 13.7152 12.9533 13.7152Z" fill="#4E3D4D"/>
<path d="M13.4613 11.6819H12.4454C12.1647 11.6819 11.9375 11.4545 11.9375 11.174C11.9375 10.8935 12.1647 10.666 12.4454 10.666H13.4613C13.7421 10.666 13.9693 10.8935 13.9693 11.174C13.9693 11.4545 13.7421 11.6819 13.4613 11.6819Z" fill="#C6805D"/>
<path d="M8.89075 11.6819C14.2944 11.4404 18.8053 7.55094 19.5574 2.53906H17.9386L17.2136 2.9105L16.9015 2.53906H12.4463C10.2021 2.53906 8.38281 4.35837 8.38281 6.60256V11.6819H8.89075Z" fill="#C6805D"/>
<path d="M19.049 13.7152C18.7682 13.7152 18.541 13.4878 18.541 13.2073V12.6993C18.541 12.4188 18.7682 12.1914 19.049 12.1914C19.3297 12.1914 19.5569 12.4188 19.5569 12.6993V13.2073C19.5569 13.4878 19.3297 13.7152 19.049 13.7152Z" fill="#4E3D4D"/>
<path d="M19.557 11.6819H18.5411C18.2604 11.6819 18.0332 11.4545 18.0332 11.174C18.0332 10.8935 18.2604 10.666 18.5411 10.666H19.557C19.8378 10.666 20.065 10.8935 20.065 11.174C20.065 11.4545 19.8378 11.6819 19.557 11.6819Z" fill="#D48C64"/>
<path d="M13.9478 15.7461C13.6847 15.7461 13.5195 16.0188 13.6271 16.2588C14.0281 17.1532 14.9399 17.7778 16.0008 17.7778C17.0616 17.7778 17.9735 17.1532 18.3745 16.2588C18.4821 16.0188 18.3168 15.7461 18.0538 15.7461H13.9478Z" fill="white"/>
<path d="M26.1593 12.1905H25.1434V6.60319C25.1434 3.52231 22.637 1.01587 19.5561 1.01587H12.445C9.36411 1.01587 6.85767 3.52231 6.85767 6.60319V12.1905H5.8418V6.60319C5.8418 2.96206 8.80411 0 12.445 0H19.5561C23.197 0 26.1593 2.96206 26.1593 6.60319V12.1905Z" fill="#B8B2B8"/>
<path d="M25.6509 11.6836H23.6191V15.7471H25.6509C26.212 15.7471 26.6668 15.2923 26.6668 14.7312L25.6509 11.6836Z" fill="#52BD7E"/>
<path d="M26.6682 14.7312V12.6995C26.6682 12.1384 26.2134 11.6836 25.6523 11.6836V13.7153C25.6523 14.2763 26.1072 14.7312 26.6682 14.7312Z" fill="#77CC7D"/>
<path d="M11.9369 20.3176H10.4131C8.17255 20.3176 6.34961 18.4947 6.34961 16.2541V15.2383H7.36548V16.2542C7.36548 17.9347 8.73255 19.3018 10.4131 19.3018H11.9369V20.3176Z" fill="#B8B2B8"/>
<path d="M12.9535 18.793H12.4456C11.8845 18.793 11.4297 19.2478 11.4297 19.8088C11.4297 20.3699 11.8845 20.8247 12.4456 20.8247H12.9535C13.5146 20.8247 13.9694 20.3699 13.9694 19.8088C13.9694 19.2478 13.5146 18.793 12.9535 18.793Z" fill="#615260"/>
<path d="M6.34986 11.6836L5.33398 14.7312C5.33398 15.2923 5.7888 15.7471 6.34986 15.7471H8.38161V11.6836H6.34986Z" fill="#52BD7E"/>
<path d="M5.33398 14.7312V12.6995C5.33398 12.1384 5.7888 11.6836 6.34986 11.6836V13.7153C6.34986 14.2763 5.89505 14.7312 5.33398 14.7312Z" fill="#77CC7D"/>
<path d="M8.88892 15.7453H8.38098C8.10048 15.7453 7.87305 15.5178 7.87305 15.2373V11.6818C7.87305 11.4013 8.10048 11.1738 8.38098 11.1738H8.88892C9.16942 11.1738 9.39686 11.4013 9.39686 11.6818V15.2373C9.39686 15.5178 9.16948 15.7453 8.88892 15.7453Z" fill="#615260"/>
<path d="M9.39698 15.2373C8.83592 15.2373 8.38111 14.7825 8.38111 14.2215V11.1738H7.87317C7.59267 11.1738 7.36523 11.4013 7.36523 11.6818V15.7453C7.36523 16.0258 7.59267 16.2532 7.87317 16.2532H8.88905C9.16955 16.2532 9.39698 16.0258 9.39698 15.7453V15.2373Z" fill="#4E3D4D"/>
<path d="M24.1272 15.7453H23.6193C23.3388 15.7453 23.1113 15.5178 23.1113 15.2373V11.6818C23.1113 11.4013 23.3388 11.1738 23.6193 11.1738H24.1272C24.4077 11.1738 24.6351 11.4013 24.6351 11.6818V15.2373C24.6351 15.5178 24.4077 15.7453 24.1272 15.7453Z" fill="#615260"/>
<path d="M24.6353 15.2373C24.0742 15.2373 23.6194 14.7825 23.6194 14.2215V11.1738H23.1115C22.831 11.1738 22.6035 11.4013 22.6035 11.6818V15.7453C22.6035 16.0258 22.831 16.2532 23.1115 16.2532H24.1273C24.4078 16.2532 24.6353 16.0258 24.6353 15.7453V15.2373Z" fill="#4E3D4D"/>
<path d="M16.9011 2.53906C16.1117 5.847 13.533 8.41463 10.3204 9.01694C10.0446 9.0685 9.86309 9.33413 9.91516 9.60969C9.96078 9.854 10.1741 10.0241 10.4137 10.0241C10.4444 10.0241 10.4762 10.0214 10.5079 10.0154C14.1902 9.325 17.1246 6.34562 17.9382 2.53906H16.9011Z" fill="#D48C64"/>
</g>
<defs>
<clipPath id="clip0_830_6277">
<rect width="32" height="32" fill="white"/>
</clipPath>
</defs>
</svg>
