<svg width="18" height="18" viewBox="0 0 18 18" fill="none" xmlns="http://www.w3.org/2000/svg">
<path d="M5.48356 6.37779C6.06356 7.58581 6.85422 8.71801 7.85553 9.71933C8.85685 10.7206 9.98905 11.5113 11.1971 12.0913C11.301 12.1412 11.3529 12.1661 11.4187 12.1853C11.6523 12.2534 11.9392 12.2045 12.137 12.0628C12.1927 12.0229 12.2403 11.9753 12.3356 11.88C12.6269 11.5887 12.7726 11.443 12.9191 11.3478C13.4715 10.9886 14.1837 10.9886 14.7361 11.3478C14.8825 11.443 15.0282 11.5887 15.3196 11.88L15.4819 12.0424C15.9248 12.4853 16.1462 12.7067 16.2665 12.9446C16.5058 13.4175 16.5058 13.9761 16.2665 14.449C16.1462 14.6869 15.9248 14.9083 15.4819 15.3512L15.3506 15.4825C14.9092 15.9239 14.6886 16.1446 14.3885 16.3131C14.0556 16.5001 13.5385 16.6346 13.1567 16.6334C12.8126 16.6324 12.5774 16.5657 12.107 16.4322C9.57917 15.7147 7.19387 14.361 5.20388 12.371C3.2139 10.381 1.86017 7.99569 1.1427 5.46786C1.00919 4.99749 0.942437 4.7623 0.941413 4.41818C0.940277 4.03633 1.07475 3.51925 1.26176 3.18633C1.4303 2.88631 1.65098 2.66563 2.09233 2.22428L2.22369 2.09292C2.66656 1.65005 2.888 1.42861 3.12581 1.30833C3.59878 1.0691 4.15734 1.0691 4.6303 1.30832C4.86812 1.42861 5.08955 1.65005 5.53242 2.09291L5.69481 2.25531C5.98615 2.54665 6.13182 2.69231 6.22706 2.8388C6.58622 3.3912 6.58622 4.10336 6.22706 4.65576C6.13182 4.80225 5.98615 4.94791 5.69481 5.23925C5.59955 5.33451 5.55192 5.38214 5.51206 5.43782C5.37038 5.63568 5.32146 5.92256 5.38957 6.15619C5.40873 6.22193 5.43367 6.27389 5.48356 6.37779Z" stroke="white" stroke-width="1.66667" stroke-linecap="round" stroke-linejoin="round"/>
</svg>
