<svg width="104" height="100" viewBox="0 0 104 100" fill="none" xmlns="http://www.w3.org/2000/svg">
<g opacity="0.67" filter="url(#filter0_d_1163_2786)">
<mask id="path-1-inside-1_1163_2786" fill="white">
<path d="M4 33.9922L44.6533 2.51176C48.9786 -0.837255 55.0214 -0.83725 59.3467 2.51176L100 33.9922L52 71.1621L4 33.9922Z"/>
</mask>
<path d="M4 33.9922L44.6533 2.51176C48.9786 -0.837255 55.0214 -0.83725 59.3467 2.51176L100 33.9922L52 71.1621L4 33.9922Z" fill="#F9F9F9"/>
<path d="M4 33.9922L3.38774 33.2016L2.36671 33.9922L3.38774 34.7829L4 33.9922ZM44.6533 2.51176L44.0411 1.72107L44.0411 1.7211L44.6533 2.51176ZM59.3467 2.51176L59.9589 1.7211L59.9589 1.72107L59.3467 2.51176ZM100 33.9922L100.612 34.7829L101.633 33.9922L100.612 33.2016L100 33.9922ZM52 71.1621L51.3877 71.9528L52 72.4269L52.6123 71.9528L52 71.1621ZM4 33.9922L4.61226 34.7829L45.2656 3.30242L44.6533 2.51176L44.0411 1.7211L3.38774 33.2016L4 33.9922ZM44.6533 2.51176L45.2655 3.30244C49.2304 0.232517 54.7696 0.232521 58.7345 3.30244L59.3467 2.51176L59.9589 1.72107C55.2732 -1.90702 48.7268 -1.90703 44.0411 1.72107L44.6533 2.51176ZM59.3467 2.51176L58.7344 3.30242L99.3877 34.7829L100 33.9922L100.612 33.2016L59.9589 1.7211L59.3467 2.51176ZM100 33.9922L99.3877 33.2016L51.3877 70.3715L52 71.1621L52.6123 71.9528L100.612 34.7829L100 33.9922ZM52 71.1621L52.6123 70.3715L4.61226 33.2016L4 33.9922L3.38774 34.7829L51.3877 71.9528L52 71.1621Z" fill="#EBEBEB" mask="url(#path-1-inside-1_1163_2786)"/>
</g>
<rect x="34.4492" y="46.8228" width="36" height="36" rx="2" fill="#0091FF"/>
<rect x="1" y="-1" width="20" height="22" rx="9" transform="matrix(1 0 0 -1 41.4492 55.8228)" stroke="#0091FF" stroke-width="2"/>
<circle cx="52" cy="57.8228" r="3" fill="white"/>
<path d="M4.21887 33.8228L4 33.9922V33.8228H4.21887Z" fill="#F1F1F1"/>
<path d="M99.7811 33.8228L100 33.9922L59.3471 65.4724C55.0217 68.8219 48.9784 68.8219 44.6529 65.4724L4 33.9922V86.8228C4 93.4502 9.37258 98.8228 16 98.8228H88C94.6274 98.8228 100 93.4502 100 86.8228V33.9922V33.8228H99.7811Z" fill="#F1F1F1"/>
<path d="M4 33.9922L4.21887 33.8228H4V33.9922ZM4 33.9922L44.6529 65.4724C48.9784 68.8219 55.0217 68.8219 59.3471 65.4724L100 33.9922M4 33.9922V86.8228C4 93.4502 9.37258 98.8228 16 98.8228H88C94.6274 98.8228 100 93.4502 100 86.8228V33.9922M100 33.9922L99.7811 33.8228H100V33.9922Z" stroke="#EBEBEB"/>
<defs>
<filter id="filter0_d_1163_2786" x="0" y="0" width="104" height="79.1621" filterUnits="userSpaceOnUse" color-interpolation-filters="sRGB">
<feFlood flood-opacity="0" result="BackgroundImageFix"/>
<feColorMatrix in="SourceAlpha" type="matrix" values="0 0 0 0 0 0 0 0 0 0 0 0 0 0 0 0 0 0 127 0" result="hardAlpha"/>
<feOffset dy="4"/>
<feGaussianBlur stdDeviation="2"/>
<feComposite in2="hardAlpha" operator="out"/>
<feColorMatrix type="matrix" values="0 0 0 0 0 0 0 0 0 0 0 0 0 0 0 0 0 0 0.25 0"/>
<feBlend mode="normal" in2="BackgroundImageFix" result="effect1_dropShadow_1163_2786"/>
<feBlend mode="normal" in="SourceGraphic" in2="effect1_dropShadow_1163_2786" result="shape"/>
</filter>
</defs>
</svg>
