<svg width="32" height="32" viewBox="0 0 32 32" fill="none" xmlns="http://www.w3.org/2000/svg">
<path d="M30.8966 3.86133H1.10344C0.495125 3.86133 0 4.3562 0 4.96477V27.0337C0 27.6423 0.495125 28.1371 1.10344 28.1371H30.8966C31.5049 28.1371 32 27.6423 32 27.0337V4.96477C32 4.3562 31.5049 3.86133 30.8966 3.86133ZM28.6896 4.96477H30.3448C30.6495 4.96477 30.8965 5.21177 30.8966 5.51645L30.8966 7.17164C30.8966 7.47633 30.6496 7.72339 30.3449 7.72339H28.6896C28.3849 7.72339 28.1379 7.47639 28.1379 7.17164V5.51652C28.1379 5.21183 28.3849 4.96477 28.6896 4.96477ZM28.6896 8.82683H30.3449C30.6496 8.82683 30.8966 9.07383 30.8967 9.37852L30.8967 11.0337C30.8967 11.3384 30.6497 11.5855 30.345 11.5855H28.6897C28.385 11.5855 28.1379 11.3385 28.1379 11.0337V9.37852C28.1379 9.07389 28.3849 8.82683 28.6896 8.82683ZM28.6896 12.6889H30.345C30.6497 12.6889 30.8967 12.9359 30.8967 13.2406L30.8968 14.8958C30.8968 15.2005 30.6498 15.4475 30.3451 15.4475H28.6896C28.3849 15.4475 28.1379 15.2005 28.1379 14.8958V13.2406C28.1379 12.936 28.3849 12.6889 28.6896 12.6889ZM28.6896 16.551H30.3451C30.6497 16.551 30.8967 16.798 30.8968 17.1026L30.8969 18.7578C30.8969 19.0625 30.6499 19.3096 30.3451 19.3096H28.6896C28.3849 19.3096 28.1379 19.0626 28.1379 18.7578V17.1026C28.1379 16.798 28.3849 16.551 28.6896 16.551ZM28.6896 20.4131H30.3452C30.6499 20.4131 30.8969 20.6601 30.8969 20.9648L30.897 22.62C30.897 22.9246 30.65 23.1717 30.3452 23.1717H28.6896C28.3849 23.1717 28.1379 22.9247 28.1379 22.62V20.9648C28.1379 20.66 28.3849 20.4131 28.6896 20.4131ZM3.31037 27.0337H1.65519C1.3505 27.0337 1.10344 26.7867 1.10344 26.482V24.8268C1.10344 24.5221 1.35044 24.275 1.65519 24.275H3.31037C3.61506 24.275 3.86212 24.522 3.86212 24.8268V26.482C3.86206 26.7866 3.61506 27.0337 3.31037 27.0337ZM3.31037 23.1717H1.65519C1.3505 23.1717 1.10344 22.9247 1.10344 22.62V20.9648C1.10344 20.6601 1.35044 20.413 1.65519 20.413H3.31037C3.61506 20.413 3.86212 20.66 3.86212 20.9648V22.62C3.86206 22.9246 3.61506 23.1717 3.31037 23.1717ZM3.31037 19.3096H1.65519C1.3505 19.3096 1.10344 19.0626 1.10344 18.7578V17.1026C1.10344 16.798 1.35044 16.5509 1.65519 16.5509H3.31037C3.61506 16.5509 3.86212 16.7979 3.86212 17.1026V18.7578C3.86206 19.0625 3.61506 19.3096 3.31037 19.3096ZM3.31037 15.4475H1.65519C1.3505 15.4475 1.10344 15.2005 1.10344 14.8958V13.2406C1.10344 12.9359 1.35044 12.6888 1.65519 12.6888H3.31037C3.61506 12.6888 3.86212 12.9358 3.86212 13.2406V14.8958C3.86206 15.2005 3.61506 15.4475 3.31037 15.4475ZM3.31037 11.5855H1.65519C1.3505 11.5855 1.10344 11.3385 1.10344 11.0337V9.37852C1.10344 9.07383 1.35044 8.82677 1.65519 8.82677H3.31037C3.61506 8.82677 3.86212 9.07377 3.86212 9.37852V11.0337C3.86206 11.3385 3.61506 11.5855 3.31037 11.5855ZM3.31037 7.72339H1.65519C1.3505 7.72339 1.10344 7.47639 1.10344 7.17164V5.51652C1.10344 5.21183 1.35044 4.96477 1.65519 4.96477H3.31037C3.61506 4.96477 3.86212 5.21177 3.86212 5.51652V7.1717C3.86206 7.47639 3.61506 7.72339 3.31037 7.72339ZM28.1379 26.482V24.8268C28.1379 24.5221 28.3849 24.275 28.6897 24.275H30.3454C30.6501 24.275 30.8971 24.522 30.8971 24.8267L30.8972 26.4819C30.8972 26.7866 30.6502 27.0336 30.3454 27.0336H28.6898C28.3849 27.0337 28.1379 26.7866 28.1379 26.482Z" fill="#5B5D6E"/>
<path d="M5.51659 4.96484H26.4821C26.7868 4.96484 27.0338 5.21184 27.0338 5.51659V26.4821C27.0338 26.7868 26.7868 27.0338 26.4821 27.0338H5.51659C5.21191 27.0338 4.96484 26.7868 4.96484 26.4821V5.51659C4.96484 5.21191 5.21191 4.96484 5.51659 4.96484Z" fill="#FF507D"/>
<path d="M21.6663 15.3377L12.7276 10.5756C12.2132 10.3015 11.5859 10.6652 11.5859 11.2376V20.7618C11.5859 21.3342 12.2132 21.6979 12.7276 21.4237L21.6663 16.6616C22.2027 16.3759 22.2027 15.6235 21.6663 15.3377Z" fill="white"/>
<path d="M13.6232 17.1022V11.0527L12.7276 10.5756C12.2132 10.3015 11.5859 10.6652 11.5859 11.2376V20.7618C11.5859 21.3342 12.2132 21.6979 12.7276 21.4237L21.6663 16.6616C21.9355 16.5181 22.0693 16.2572 22.0682 15.9967L14.946 18.0659C14.2861 18.2577 13.6232 17.7747 13.6232 17.1022Z" fill="#E4EAF8"/>
</svg>
