<svg width="32" height="32" viewBox="0 0 32 32" fill="none" xmlns="http://www.w3.org/2000/svg">
<g clip-path="url(#clip0_830_6312)">
<path d="M16 0C7.16343 0 3.90408e-06 7.16343 3.90408e-06 16C3.90408e-06 19.2562 0.973654 22.2846 2.64429 24.8117L0.0845431 30.6429C-0.269195 31.4488 0.551215 32.2693 1.35707 31.9155L7.18829 29.3557C9.71545 31.0263 12.7438 32 16 32C24.8366 32 32 24.8366 32 16C32 7.16343 24.8366 0 16 0Z" fill="#30A46C"/>
<path d="M16 1.93164V30.0685C23.7698 30.0685 30.0684 23.7698 30.0684 16.0001C30.0684 8.2303 23.7698 1.93164 16 1.93164Z" fill="#BDF2FF"/>
<path d="M28.1369 16.0001C28.1369 8.2303 22.7031 1.93164 16.0001 1.93164C8.2303 1.93164 1.93164 8.2303 1.93164 16.0001C1.93164 23.7698 8.2303 30.0685 16.0001 30.0685C22.7031 30.0685 28.1369 23.7698 28.1369 16.0001Z" fill="white"/>
<path d="M16 5.79492V26.2054C21.6362 26.2054 26.2052 21.6363 26.2052 16.0002C26.2052 10.364 21.6362 5.79492 16 5.79492Z" fill="#2DB94D"/>
<path d="M24.2738 16.0002C24.2738 10.364 20.5696 5.79492 16.0002 5.79492C10.364 5.79492 5.79492 10.364 5.79492 16.0002C5.79492 21.6363 10.364 26.2054 16.0002 26.2054C20.5696 26.2054 24.2738 21.6363 24.2738 16.0002Z" fill="#61CE5A"/>
<path d="M11.5162 15.6131L16.3877 20.4846C17.8963 21.9932 20.3424 21.9932 21.8511 20.4846L22.534 19.8016C21.8765 18.2672 20.6538 17.0446 19.1194 16.387L17.7536 17.7529L14.248 14.2472L15.6138 12.8814C14.9562 11.347 13.7336 10.1244 12.1992 9.4668L11.5162 10.1497C10.0076 11.6584 10.0076 14.1044 11.5162 15.6131Z" fill="white"/>
</g>
<defs>
<clipPath id="clip0_830_6312">
<rect width="32" height="32" fill="white"/>
</clipPath>
</defs>
</svg>
