<svg width="22" height="21" viewBox="0 0 22 21" fill="none" xmlns="http://www.w3.org/2000/svg">
<g clip-path="url(#clip0_340_407)">
<path d="M9.1385 0.122639L1.21589 0.0891508C0.901547 0.0866235 0.599781 0.20541 0.374085 0.421501C0.144617 0.639488 0.017624 0.932032 0.0169954 1.24416L2.10179e-05 6.10621C-0.00186502 6.41834 0.123242 6.71215 0.350824 6.93203C0.566461 7.14054 0.849995 7.25996 1.15553 7.27007L1.15993 7.27133L9.10518 7.30419H9.10958C9.76592 7.30419 10.3009 6.78734 10.3034 6.14918L10.3204 1.2865C10.3229 0.652125 9.79296 0.129589 9.1385 0.122639ZM9.1888 1.28271L9.17182 6.14539C9.17182 6.15613 9.16679 6.16624 9.15799 6.17508C9.15108 6.18203 9.13536 6.19404 9.10958 6.19404L1.19514 6.16118C1.18131 6.16118 1.16245 6.15739 1.1461 6.14159C1.13667 6.13275 1.13227 6.12264 1.13227 6.11063L1.14925 1.24732C1.14925 1.23595 1.15428 1.22584 1.16308 1.21699C1.17565 1.20562 1.192 1.1993 1.21086 1.1993H1.21149L9.12719 1.23216C9.16051 1.23279 9.18943 1.25617 9.18943 1.28271H9.1888Z" fill="#126CC0"/>
<path d="M20.7906 13.8184H20.7214L12.8013 13.7849H12.7969C12.5335 13.7849 12.2368 13.9125 12.0218 14.1173C11.7929 14.3359 11.6659 14.6278 11.6647 14.9399L11.6477 19.8026C11.6477 20.1147 11.7716 20.4073 11.9985 20.6278C12.2211 20.8426 12.5159 20.9633 12.829 20.9671L20.7529 20.9999H20.7579C21.0729 20.9999 21.3696 20.8824 21.5947 20.6676C21.8235 20.449 21.9505 20.1571 21.9518 19.8456L21.9687 14.9829C21.9706 14.3479 21.4406 13.826 20.7906 13.8184ZM20.7573 19.8904L12.8485 19.8569H12.8416C12.8227 19.8569 12.8064 19.8506 12.7938 19.838C12.7844 19.8291 12.7793 19.819 12.7793 19.807L12.7963 14.9443C12.7963 14.9368 12.7982 14.9254 12.8114 14.9134C12.8233 14.9014 12.8403 14.8951 12.8592 14.8951L20.768 14.9286H20.7749C20.8082 14.9286 20.8371 14.9519 20.8371 14.9785L20.8201 19.8411C20.8201 19.855 20.812 19.8658 20.805 19.8721C20.7981 19.8791 20.7824 19.8904 20.7573 19.8904Z" fill="#126CC0"/>
<path d="M21.9197 1.1449C21.9146 0.51369 21.379 0 20.7252 0L12.8019 0.0562342C12.4851 0.0587616 12.1877 0.179444 11.9645 0.396167C11.7376 0.616049 11.6137 0.907961 11.6162 1.21883L11.6967 11.4907C11.6992 11.801 11.8275 12.091 12.0576 12.3077C12.282 12.5187 12.5775 12.635 12.8912 12.635L20.8145 12.5788C21.1313 12.5762 21.4287 12.4556 21.6519 12.2395C21.8788 12.019 22.0027 11.727 22.0001 11.4162L21.9197 1.1449ZM20.8685 11.425C20.8685 11.4313 20.8673 11.4421 20.8547 11.4541C20.8377 11.4705 20.7717 11.4724 20.7434 11.4724L12.883 11.5286C12.851 11.5255 12.8283 11.5027 12.8283 11.4819L12.7479 1.20998C12.7479 1.20366 12.7491 1.19292 12.7617 1.18155C12.7736 1.16891 12.7906 1.16259 12.8101 1.16259L20.7227 1.10573H20.7252C20.7623 1.10573 20.788 1.131 20.788 1.15312L20.8685 11.425Z" fill="#126CC0"/>
<path d="M10.3193 9.50989C10.3143 8.87868 9.77867 8.36499 9.12484 8.36499L1.2016 8.42186C0.884741 8.42375 0.587376 8.54443 0.364195 8.76116C0.137242 8.98104 0.013392 9.27358 0.0159067 9.58382L0.0963776 19.8557C0.0988923 20.166 0.226514 20.4566 0.457239 20.6727C0.681049 20.8844 0.977157 21 1.29024 21L9.21411 20.9438C9.53034 20.9412 9.82833 20.8212 10.0515 20.6045C10.2785 20.3846 10.4023 20.092 10.3998 19.7818L10.3193 9.50989ZM9.26818 19.79C9.26818 19.797 9.26692 19.8071 9.25435 19.8191C9.24177 19.8311 9.22543 19.8374 9.20594 19.8374L1.29087 19.8943C1.25378 19.8943 1.228 19.8696 1.228 19.8469L1.14753 9.57497C1.14753 9.56865 1.14879 9.55791 1.16073 9.54654C1.1733 9.53454 1.19028 9.52758 1.20977 9.52758L9.12232 9.47135H9.12484C9.16193 9.47135 9.18771 9.49599 9.18771 9.51811L9.26818 19.79Z" fill="#126CC0"/>
</g>
<defs>
<clipPath id="clip0_340_407">
<rect width="22" height="21" fill="white"/>
</clipPath>
</defs>
</svg>
