<svg width="43" height="32" viewBox="0 0 43 32" fill="none" xmlns="http://www.w3.org/2000/svg">
<path d="M42.2733 13.4501C42.2706 13.0271 42.104 12.6286 41.8058 12.33C41.5102 12.0359 41.1197 11.8734 40.7059 11.8734L38.5465 11.8897C38.1274 11.8933 37.7342 12.0613 37.4413 12.3645C37.1475 12.6667 36.9872 13.0662 36.9917 13.4901L37.0078 15.744H36.1552L36.1444 7.95552C36.1444 7.58062 35.8435 7.27562 35.4727 7.27562H26.5477L26.5342 5.37297L29.0635 5.35391C29.4818 5.35028 29.8741 5.18234 30.1678 4.88006C30.4616 4.57778 30.621 4.17747 30.6183 3.75355L30.6022 1.57676C30.5986 1.15284 30.4329 0.755248 30.1356 0.457506C29.8409 0.162487 29.4495 0 29.0313 0H29.0232L18.375 0.0807897C17.9567 0.083513 17.5644 0.252355 17.2697 0.554635C16.976 0.857824 16.8157 1.25723 16.8201 1.68115L16.8354 3.85885C16.8434 4.72756 17.5474 5.4347 18.4036 5.4347L20.881 5.41654L20.8935 7.27562H16.4019C16.2147 7.27562 16.0338 7.3555 15.9066 7.4962L11.715 12.143H7.66581C7.29502 12.143 6.99408 12.448 6.99408 12.8238V15.7431H5.29864L5.28252 13.4501C5.27625 12.5805 4.57317 11.8734 3.71425 11.8734L1.55577 11.8897C0.691475 11.8961 -0.00622754 12.6141 4.19238e-05 13.4901L0.0797537 24.2814C0.0824407 24.7053 0.249029 25.1038 0.546381 25.4016C0.841942 25.6966 1.23334 25.8591 1.64712 25.8591L3.8065 25.8427C4.6708 25.8364 5.3685 25.1184 5.36223 24.2415L5.34252 21.4774H6.99408V26.0806C6.99408 26.4564 7.29502 26.7614 7.66581 26.7614H11.7222L15.8887 31.7576C16.0158 31.912 16.203 32 16.4019 32H28.5216C28.7008 32 28.87 31.9292 28.9972 31.8003L35.9725 24.7298C36.0961 24.6027 36.1677 24.4276 36.1677 24.2496V21.57H37.0508L37.0705 24.2823C37.0777 25.1519 37.7817 25.8591 38.6388 25.8591L40.7982 25.8427C41.6616 25.8364 42.3593 25.1184 42.353 24.2415L42.2733 13.4501ZM40.7874 24.4811L38.6388 24.4974C38.5161 24.4974 38.4149 24.3958 38.414 24.2714L38.3889 20.8891C38.3889 20.8428 38.3844 20.7956 38.3737 20.7448C38.3647 20.7021 38.3513 20.6595 38.3334 20.6186C38.3199 20.586 38.3029 20.5551 38.2859 20.5279C38.2787 20.5152 38.2707 20.5034 38.2662 20.497C38.2572 20.4843 38.2474 20.4716 38.2322 20.4525C38.2196 20.4371 38.2053 20.4217 38.191 20.4062C38.1757 20.3908 38.1605 20.3781 38.1417 20.3617C38.1211 20.3445 38.1005 20.33 38.0781 20.3154L38.07 20.31C38.0503 20.2991 38.0297 20.2873 38.0029 20.2737C37.9733 20.2601 37.9339 20.2428 37.8873 20.231C37.8766 20.2283 37.8649 20.2256 37.8542 20.2229C37.8408 20.2201 37.8264 20.2174 37.8121 20.2156C37.7816 20.2111 37.7503 20.2083 37.7172 20.2083H35.496C35.1252 20.2083 34.8243 20.5133 34.8243 20.8891V23.9673L28.244 30.6384H16.7135L12.547 25.6403C12.4181 25.4878 12.2318 25.3998 12.0338 25.3998H8.33754V20.7966C8.33754 20.4207 8.0366 20.1157 7.66581 20.1157H4.66005C4.48092 20.1166 4.31254 20.1893 4.18715 20.3182C4.06087 20.448 3.9928 20.6195 3.99369 20.8002L3.99638 21.1433L4.01877 24.2515C4.01877 24.3767 3.91936 24.4802 3.79576 24.4811L1.64712 24.4974C1.58711 24.4974 1.53248 24.4748 1.49038 24.4321C1.4465 24.3885 1.42321 24.3331 1.42321 24.2714L1.3435 13.4801C1.3435 13.3548 1.44292 13.2522 1.56651 13.2513L3.71425 13.235C3.77426 13.235 3.82979 13.2586 3.87278 13.3013C3.91488 13.343 3.93906 13.3993 3.93906 13.4601L3.96055 16.4303C3.96055 16.4502 3.96055 16.4684 3.96324 16.4875V16.5329L3.9713 16.5465C3.9713 16.5492 3.9713 16.5519 3.97309 16.5546C3.97668 16.5755 3.98205 16.5955 3.99011 16.6227L4.04564 16.7552V16.758C4.05012 16.7634 4.0537 16.7698 4.05728 16.7752C4.06982 16.797 4.08326 16.8179 4.09669 16.8351C4.1155 16.8605 4.1352 16.8841 4.15849 16.9078L4.17282 16.9214C4.18357 16.9304 4.19342 16.9404 4.19969 16.9459C4.20686 16.9513 4.21312 16.9568 4.22029 16.9622L4.25253 16.9858C4.26507 16.9949 4.27851 17.0031 4.29194 17.0112L4.30448 17.0185L4.30896 17.0212L4.34837 17.0439H4.35374C4.36359 17.0494 4.37434 17.0539 4.38509 17.0575L4.4021 17.0639C4.41196 17.0675 4.42181 17.0711 4.43435 17.0748C4.46749 17.0857 4.49973 17.0929 4.53108 17.0966C4.54272 17.0984 4.55436 17.1002 4.56601 17.1011L4.57228 17.102C4.57765 17.1029 4.58302 17.1038 4.5884 17.1029C4.59108 17.1038 4.59288 17.1038 4.59556 17.1038H7.61118L7.66581 17.1047C7.73119 17.1047 7.79657 17.0947 7.86733 17.0739L7.87091 17.073L7.91748 17.0557C7.96048 17.0376 8.00167 17.0149 8.04019 16.9885C8.22648 16.8624 8.33754 16.6509 8.33754 16.4239V13.5046H12.0106C12.1986 13.5046 12.3796 13.4238 12.5067 13.2831L16.6974 8.63724H21.5742C21.6225 8.63724 21.6709 8.63179 21.7184 8.6209C21.7569 8.61182 21.7945 8.60002 21.8339 8.58368C21.9727 8.52286 22.0901 8.41484 22.1617 8.27868C22.1832 8.23965 22.1993 8.20152 22.2137 8.15341C22.2325 8.08714 22.2423 8.01997 22.2423 7.95098L22.219 4.72484C22.2164 4.35266 21.9154 4.04947 21.5419 4.04947L18.4036 4.07307C18.2809 4.07307 18.1797 3.97231 18.1788 3.84795L18.1636 1.67026C18.1636 1.60944 18.186 1.55316 18.2272 1.5105C18.2702 1.46602 18.3248 1.44332 18.3857 1.44241L29.0322 1.36162C29.094 1.36162 29.1495 1.38432 29.1916 1.42698C29.2355 1.47056 29.2588 1.52593 29.2588 1.58765L29.2749 3.76353C29.2758 3.82526 29.2534 3.88063 29.2095 3.92511C29.1683 3.96778 29.1128 3.99228 29.0528 3.99228L25.8517 4.01679C25.6968 4.01861 25.5463 4.07398 25.4281 4.17293L25.412 4.18745C25.4003 4.19834 25.3887 4.20924 25.378 4.22013C25.2526 4.34903 25.1836 4.5206 25.1854 4.70305L25.2096 7.95915C25.2096 7.98094 25.2096 8.00272 25.2132 8.02542C25.2149 8.04448 25.2176 8.06264 25.2212 8.08261C25.223 8.09078 25.2248 8.09985 25.2275 8.10984C25.2302 8.12527 25.2347 8.14161 25.24 8.15795C25.2445 8.17429 25.2499 8.19154 25.257 8.20788C25.2588 8.21332 25.2606 8.21786 25.2633 8.22331L25.2776 8.26688L25.2893 8.27959C25.2893 8.27959 25.2929 8.28594 25.2956 8.28957C25.3027 8.30228 25.3108 8.31499 25.3188 8.32679L25.3287 8.34676L25.3403 8.35947V8.37218L25.4057 8.43844C25.4111 8.44298 25.4156 8.44752 25.4209 8.45206C25.4263 8.45751 25.4335 8.46477 25.4433 8.47203C25.4478 8.47657 25.4532 8.48111 25.4586 8.48565L25.4657 8.49109L25.481 8.50199C25.5024 8.51923 25.5284 8.53739 25.5526 8.551C25.5669 8.56008 25.5822 8.56644 25.5947 8.57279C25.6081 8.57915 25.6216 8.58459 25.6305 8.58731C25.6637 8.60184 25.6986 8.61364 25.7416 8.62272C25.7434 8.62362 25.7461 8.62362 25.7487 8.62453C25.7944 8.6327 25.8383 8.63724 25.8795 8.63724H34.801L34.8117 16.4248C34.8117 16.8006 35.1126 17.1056 35.4834 17.1056H37.684C37.7458 17.1056 37.8067 17.0975 37.8632 17.0802C37.8829 17.0748 37.9017 17.0693 37.9151 17.0639C37.9339 17.0575 37.9509 17.0494 37.9697 17.0412C37.9885 17.0321 38.0065 17.0221 38.0244 17.0112C38.0548 16.9931 38.0844 16.9731 38.1139 16.9477C38.1301 16.9341 38.1462 16.9196 38.1605 16.905C38.2044 16.8596 38.2429 16.807 38.2751 16.7471C38.2966 16.708 38.3128 16.6699 38.3271 16.6227C38.3405 16.5782 38.3486 16.5329 38.3513 16.4965C38.354 16.4729 38.3558 16.4484 38.3558 16.4194L38.3343 13.4792C38.3343 13.4193 38.3566 13.3621 38.3978 13.3194C38.4408 13.2749 38.4955 13.2513 38.5564 13.2513L40.705 13.235C40.7641 13.235 40.8205 13.2577 40.8617 13.2994C40.9047 13.3421 40.928 13.3993 40.9289 13.4601L41.0086 24.2515C41.0095 24.3767 40.911 24.4802 40.7874 24.4811Z" fill="white"/>
<path d="M26.2116 16.6583H25.9861C25.7748 14.3638 24.5425 13 22.664 13C20.7855 13 19.5532 14.3638 19.341 16.6583H19.1164C17.9497 16.6583 17 17.6208 17 18.8033V23.6277C17 24.8111 17.9497 25.7736 19.1164 25.7736H26.2116C27.3783 25.7736 28.328 24.8111 28.328 23.6277V18.8033C28.328 17.6208 27.3783 16.6583 26.2116 16.6583ZM22.664 14.3667C24.0467 14.3667 24.5016 15.5675 24.6282 16.6583H20.6999C20.8264 15.5675 21.2813 14.3667 22.664 14.3667ZM26.9786 23.6277C26.9786 24.0568 26.6342 24.406 26.2116 24.406H19.1164C18.6939 24.406 18.3494 24.0568 18.3494 23.6277V18.8033C18.3494 18.3741 18.6939 18.025 19.1164 18.025H26.2116C26.6342 18.025 26.9786 18.3741 26.9786 18.8033V23.6277Z" fill="white"/>
<path d="M23.7415 20.8825C23.7415 21.1265 23.6406 21.3609 23.4664 21.5258V22.2694C23.4664 22.579 23.2171 22.8317 22.9116 22.8317C22.6062 22.8317 22.3569 22.579 22.3569 22.2694V21.5953C22.1342 21.4294 22 21.1661 22 20.8825C22 20.3954 22.3902 20 22.8707 20C23.3513 20 23.7415 20.3954 23.7415 20.8825Z" fill="white"/>
</svg>
