<svg width="28" height="32" viewBox="0 0 28 32" fill="none" xmlns="http://www.w3.org/2000/svg">
<path d="M28 26.5943C28 28.1558 26.4621 29.5646 23.6697 30.5629C21.0772 31.4895 17.6432 32 14.0005 32C10.3577 32 6.92283 31.4895 4.33026 30.5629C1.53791 29.5646 0 28.1558 0 26.5943C0 24.9492 1.68459 23.4895 4.74331 22.483C4.90169 22.4312 5.06997 22.4458 5.21755 22.5239C5.36603 22.6011 5.47402 22.7328 5.52261 22.8936C5.6189 23.2142 5.43982 23.5603 5.12306 23.6648C2.68526 24.4687 1.23015 25.5633 1.23015 26.5943C1.23015 28.5636 6.47469 30.7582 14.0005 30.7582C21.5262 30.7582 26.7699 28.5636 26.7699 26.5943C26.7699 25.5633 25.3147 24.4678 22.8769 23.6648C22.5611 23.5612 22.382 23.2151 22.4783 22.8954C22.526 22.7337 22.634 22.602 22.7825 22.5239C22.93 22.4467 23.0992 22.4321 23.2576 22.4839C26.3154 23.4895 28 24.9492 28 26.5943Z" fill="white"/>
<path d="M23.2568 6.14239C21.6109 2.41081 17.9331 0 13.8863 0C9.83949 0 6.5234 2.15828 4.75873 5.6337C4.01272 7.10162 3.63477 8.68764 3.63477 10.349C3.63477 12.0104 4.01272 13.5965 4.75873 15.0644C4.84062 15.2252 4.9261 15.3823 5.01339 15.5349L5.02059 15.5467C5.25996 15.9628 5.53083 16.3652 5.82599 16.744L12.711 26.9586C12.9756 27.3519 13.4147 27.5871 13.8854 27.5881H13.8881C14.3578 27.5881 14.797 27.3546 15.0624 26.9622L22.2282 16.3661L22.2354 16.3561C22.635 15.792 22.9787 15.1861 23.2568 14.5548C23.8417 13.2268 24.1387 11.8124 24.1387 10.349C24.1387 8.88566 23.8417 7.47042 23.2568 6.14239ZM22.1329 14.0497C21.889 14.602 21.5893 15.1325 21.2384 15.6294L14.0474 26.2618C14.0105 26.3163 13.9538 26.3463 13.8872 26.3463C13.8206 26.3463 13.7657 26.3163 13.7288 26.2609L6.82667 16.0209L6.80417 15.9909C6.5369 15.6503 6.29303 15.2869 6.07616 14.91L6.06896 14.8972C5.99427 14.7673 5.92228 14.6329 5.85299 14.4976C5.19697 13.2068 4.86491 11.8115 4.86491 10.349C4.86491 8.88657 5.19697 7.49131 5.85299 6.20052C7.40619 3.14205 10.4847 1.24174 13.8863 1.24174C17.2879 1.24174 20.684 3.36369 22.1329 6.64744C22.6476 7.81469 22.9086 9.06007 22.9086 10.349C22.9086 11.638 22.6476 12.8825 22.1329 14.0497Z" fill="white"/>
<path d="M13.8864 6.01978C11.5223 6.01978 9.59839 7.96187 9.59839 10.3491C9.59839 12.7363 11.5223 14.6774 13.8864 14.6774C16.2504 14.6774 18.1752 12.7353 18.1752 10.3491C18.1752 7.96278 16.2513 6.01978 13.8864 6.01978ZM13.8864 13.4357C12.2009 13.4357 10.8285 12.0513 10.8285 10.3491C10.8285 8.64678 12.2009 7.26152 13.8864 7.26152C15.5718 7.26152 16.9451 8.64678 16.9451 10.3491C16.9451 12.0513 15.5727 13.4357 13.8864 13.4357Z" fill="white"/>
</svg>
