<svg width="23" height="22" viewBox="0 0 23 22" fill="none" xmlns="http://www.w3.org/2000/svg">
<g clip-path="url(#clip0_340_423)">
<path d="M18.75 20.2694L21.1818 20.4839L21.0458 21.9998L15.5782 21.5176L16.6508 16.1131L18.1558 16.4071L17.5951 19.2343C21.4196 16.3013 22.5961 10.9085 20.2375 6.64565C17.6725 2.01054 11.9141 0.199809 7.12793 2.52394C4.68915 3.7078 2.88012 5.77246 2.03557 8.3353C1.19033 10.9002 1.41978 13.6243 2.68066 16.0058C2.69531 16.0335 4.26026 18.8959 7.26462 20.2625C7.63424 20.4306 7.80719 20.8568 7.65795 21.2325C7.58124 21.4263 7.42572 21.5812 7.23115 21.6594C7.03588 21.7376 6.8148 21.7321 6.62372 21.6456C3.12351 20.0577 1.39397 16.8493 1.32214 16.7136C-0.132619 13.9654 -0.396931 10.822 0.578024 7.86272C1.55228 4.9048 3.63888 2.52325 6.45355 1.15603C9.13015 -0.143379 12.1757 -0.355103 15.0308 0.558911C17.8852 1.47293 20.2319 3.41166 21.6393 6.01809C24.2545 10.8601 22.9964 16.8562 18.75 20.2694Z" fill="#126CC0"/>
<path d="M9.48599 6.36831C9.36046 6.29636 9.21959 6.26038 9.07871 6.26038C8.93784 6.26038 8.79697 6.29636 8.67144 6.36831C8.42038 6.51223 8.26416 6.78069 8.26416 7.06784V14.9314C8.26416 15.2192 8.42038 15.4877 8.67144 15.6316C8.91762 15.7728 9.23911 15.7728 9.48599 15.6316L17.5716 11L9.48599 6.36831ZM9.72868 8.18527L14.6425 11L9.72868 13.8147V8.18527Z" fill="#126CC0"/>
</g>
<defs>
<clipPath id="clip0_340_423">
<rect width="23" height="22" fill="white"/>
</clipPath>
</defs>
</svg>
