<svg width="14" height="13" viewBox="0 0 14 13" fill="none" xmlns="http://www.w3.org/2000/svg">
<path d="M8.52887 12.4456C8.44889 12.4456 8.38161 12.419 8.32704 12.366C8.27247 12.313 8.24519 12.2461 8.24519 12.1655C8.24519 12.0856 8.27191 12.0189 8.32536 11.9655C8.37918 11.9121 8.4459 11.8854 8.52551 11.8854C9.61166 11.8854 10.5354 11.5048 11.2968 10.7438C12.0581 9.98267 12.439 9.05969 12.4394 7.97483C12.4394 7.89528 12.4661 7.82862 12.5195 7.77484C12.573 7.72144 12.6397 7.69474 12.7197 7.69474C12.7993 7.69474 12.8658 7.72144 12.9193 7.77484C12.9731 7.82862 13 7.89528 13 7.97483C13 8.594 12.883 9.17527 12.649 9.71864C12.4151 10.2616 12.0966 10.735 11.6937 11.1387C11.2908 11.542 10.8174 11.8607 10.2736 12.0949C9.72977 12.3287 9.1482 12.4456 8.52887 12.4456ZM8.52887 10.5499C8.44889 10.5499 8.38161 10.5232 8.32704 10.4698C8.27247 10.4164 8.24519 10.3498 8.24519 10.2698C8.24519 10.1899 8.27191 10.1233 8.32536 10.0699C8.37918 10.0165 8.4459 9.98976 8.52551 9.98976C9.08615 9.98976 9.56232 9.79408 9.95403 9.4027C10.3457 9.01133 10.5416 8.53556 10.5416 7.97539C10.5416 7.89584 10.5683 7.82918 10.6218 7.7754C10.6756 7.722 10.7423 7.6953 10.8219 7.6953C10.9015 7.6953 10.9682 7.722 11.0221 7.7754C11.0755 7.82918 11.1022 7.89584 11.1022 7.97539C11.1 8.69278 10.8501 9.30075 10.3526 9.7993C9.85479 10.2975 9.24687 10.5477 8.52887 10.5499ZM3.83069 11.7941C3.71968 11.7941 3.61204 11.775 3.50776 11.7369C3.40348 11.6988 3.30966 11.6393 3.22631 11.5582L1.23603 9.56963C1.15492 9.48636 1.09512 9.39262 1.05662 9.28843C1.01887 9.18424 1 9.0765 1 8.96521C1 8.85168 1.01906 8.74525 1.05719 8.64591C1.09531 8.54657 1.15511 8.4562 1.23659 8.37479L2.80078 6.81191C2.96524 6.64759 3.16502 6.56487 3.40011 6.56375C3.63521 6.56263 3.83498 6.64423 3.99944 6.80855L4.81854 7.62752L5.61017 6.83656L4.79051 6.01815C4.62605 5.85383 4.54382 5.65515 4.54382 5.42212C4.54382 5.18946 4.62605 4.99098 4.79051 4.82666L5.37357 4.24408C5.5384 4.07976 5.73612 3.99761 5.96673 3.99761C6.19735 3.99761 6.39469 4.07976 6.55877 4.24408L7.37843 5.06249L8.1695 4.27153L7.3504 3.45312C7.18595 3.2888 7.10372 3.08975 7.10372 2.85598C7.10372 2.6222 7.18595 2.42296 7.3504 2.25827L8.9146 0.695393C8.99794 0.612114 9.09008 0.549562 9.19099 0.507736C9.29153 0.466283 9.3975 0.445557 9.50888 0.445557C9.62026 0.445557 9.72753 0.464602 9.83068 0.502694C9.93384 0.540786 10.0271 0.601471 10.1104 0.68475L12.1007 2.67336C12.1841 2.7544 12.2443 2.84645 12.2813 2.94952C12.3186 3.0526 12.3373 3.1609 12.3373 3.27442C12.3373 3.38571 12.3186 3.49345 12.2813 3.59764C12.2443 3.70146 12.1841 3.7952 12.1007 3.87885L10.5365 5.44173C10.3721 5.60605 10.1727 5.6882 9.93833 5.6882C9.70435 5.6882 9.50514 5.60605 9.34068 5.44173L8.52102 4.62276L7.72996 5.41372L8.54906 6.23213C8.71351 6.39645 8.79536 6.59568 8.79462 6.82983C8.7935 7.06361 8.71071 7.26266 8.54625 7.42698L7.97664 7.99611C7.81218 8.16043 7.61297 8.24445 7.37899 8.24819C7.14502 8.25192 6.94562 8.17145 6.78079 8.00675L5.96169 7.18778L5.17006 7.97875L5.98972 8.79716C6.15418 8.96147 6.23584 9.16127 6.23472 9.39654C6.23397 9.63107 6.15119 9.83067 5.98636 9.99537L4.42216 11.5582C4.34068 11.6393 4.25023 11.699 4.15081 11.7375C4.05139 11.7752 3.94431 11.7941 3.83069 11.7941ZM3.64792 11.1835C3.69837 11.2339 3.75948 11.2591 3.83125 11.2591C3.90301 11.2591 3.96412 11.2339 4.01458 11.1835L4.63577 10.5628L2.24631 8.17593L1.62512 8.79604C1.57503 8.84645 1.54999 8.90751 1.54999 8.97921C1.54999 9.05129 1.57503 9.11235 1.62512 9.16239L3.64792 11.1835ZM4.9901 10.1976L5.61129 9.57748C5.66175 9.52706 5.68697 9.466 5.68697 9.3943C5.68697 9.32222 5.66175 9.26117 5.61129 9.21112L3.58849 7.19002C3.5384 7.13961 3.47729 7.1144 3.40516 7.1144C3.3334 7.1144 3.27229 7.13961 3.22183 7.19002L2.6012 7.8107L4.9901 10.1976ZM9.75163 5.05297C9.80172 5.10301 9.86264 5.12803 9.9344 5.12803C10.0065 5.12803 10.0677 5.10301 10.1177 5.05297L10.7389 4.4323L8.35003 2.04485L7.72884 2.66552C7.67838 2.71593 7.65315 2.77699 7.65315 2.84869C7.65315 2.9204 7.67838 2.98145 7.72884 3.03187L9.75163 5.05297ZM11.1045 4.07827L11.7257 3.4576C11.7757 3.40719 11.8008 3.34613 11.8008 3.27442C11.8008 3.20235 11.7757 3.14129 11.7257 3.09125L9.70286 1.07015C9.6524 1.01973 9.59129 0.994525 9.51953 0.994525C9.44777 0.994525 9.38666 1.01973 9.3362 1.07015L8.71501 1.69082L11.1045 4.07827Z" fill="#666666" stroke="#666666" stroke-width="0.2"/>
</svg>
