<svg width="25" height="32" viewBox="0 0 25 32" fill="none" xmlns="http://www.w3.org/2000/svg">
<g clip-path="url(#clip0_340_431)">
<path d="M24.8246 5.1051L24.7622 4.70167L12.6859 0L0.323323 4.70073L0.267117 5.11914C-0.277098 9.1815 0.0128526 13.1128 1.12716 16.8045C2.01842 19.7558 3.43516 22.5573 5.33813 25.1305C8.57488 29.5074 12.0605 31.6855 12.2077 31.7763L12.5708 32L12.9206 31.7538C16.2091 29.4334 18.882 26.5898 20.8661 23.3006C22.4541 20.6694 23.605 17.7499 24.2866 14.6264C25.4473 9.30506 24.8505 5.27452 24.8246 5.1051ZM1.53933 5.73224L12.6806 1.49484L23.5497 5.72662C23.6648 6.86109 23.878 10.2317 22.9743 14.3493C21.9742 18.9059 19.3494 25.3645 12.5334 30.3301C11.5886 29.6749 8.88981 27.6428 6.39534 24.2703C3.61449 20.5093 0.524058 14.2482 1.53933 5.73224Z" fill="white"/>
<path d="M12.4982 6.88916C10.5828 6.88916 9.02417 8.52347 9.02417 10.5341C9.02417 12.5446 10.5828 14.1789 12.4982 14.1789C14.4137 14.1789 15.9723 12.5437 15.9723 10.5341C15.9723 8.5244 14.4137 6.88916 12.4982 6.88916ZM12.4982 12.8685C11.2715 12.8685 10.2732 11.8211 10.2732 10.5341C10.2732 9.24702 11.2715 8.1996 12.4982 8.1996C13.7249 8.1996 14.7233 9.24608 14.7233 10.5341C14.7233 11.822 13.7249 12.8685 12.4982 12.8685Z" fill="white"/>
<path d="M12.4982 14.6741C9.3391 14.6741 6.7688 17.3708 6.7688 20.6852V21.3405H18.2277V20.6852C18.2277 17.3708 15.6574 14.6741 12.4982 14.6741ZM12.4982 15.9845C14.7545 15.9845 16.6289 17.7096 16.9358 20.03H8.06153C8.36843 17.7096 10.242 15.9845 12.4982 15.9845Z" fill="white"/>
</g>
<defs>
<clipPath id="clip0_340_431">
<rect width="25" height="32" fill="white"/>
</clipPath>
</defs>
</svg>
