<svg width="41" height="32" viewBox="0 0 41 32" fill="none" xmlns="http://www.w3.org/2000/svg">
<path d="M39.513 15.4735C39.513 14.9292 39.6558 14.3829 39.9465 13.8897C40.0724 13.676 40.2236 13.4769 40.3947 13.2986C40.9509 12.7251 41.1409 11.8963 40.8932 11.1362C40.3936 9.61397 39.6285 8.21895 38.6167 6.98866C38.0699 6.32347 37.1873 6.03467 36.3697 6.25362C35.5615 6.4684 34.7167 6.36101 33.9967 5.95334C33.2809 5.52587 32.7729 4.84713 32.5651 4.04327C32.3573 3.2269 31.673 2.60341 30.8208 2.45536C30.3348 2.36987 29.8363 2.31252 29.3367 2.28437V0H27.7624V3.52613H20.3275C19.8636 3.52613 19.4301 3.73257 19.1394 4.09227L10.8816 14.3214L1.35286 15.3849C0.581445 15.4714 0 16.1178 0 16.8883V25.1928C0 26.0268 0.68325 26.7056 1.52288 26.7056H9.48783C10.0283 29.7396 12.7225 32 15.847 32C18.9715 32 21.6667 29.7396 22.2061 26.7056H27.7624V29.5384H29.3367V27.9453C29.8048 27.9192 30.2813 27.865 30.7567 27.7857C31.4799 27.6627 32.0823 27.1904 32.3699 26.52C32.4192 26.4053 32.4801 26.2854 32.5494 26.1666C33.2295 25.0134 34.5718 24.415 35.89 24.6777C36.6163 24.8237 37.352 24.6026 37.8579 24.0865C38.5853 23.3452 39.2234 22.5111 39.7565 21.6072C40.1155 20.9993 40.4261 20.3561 40.6801 19.6971C40.9656 18.9589 40.8166 18.128 40.2908 17.5306C39.7765 16.9457 39.513 16.2127 39.513 15.4735ZM15.847 30.4361C13.1539 30.4361 10.9635 28.2601 10.9635 25.5848C10.9635 22.9094 13.1539 20.7324 15.847 20.7324C18.5401 20.7324 20.7315 22.9094 20.7315 25.5848C20.7315 28.2601 18.5401 30.4361 15.847 30.4361ZM27.7624 25.1417H22.2901C22.182 23.5663 21.4977 22.0993 20.3474 20.9879C19.1341 19.8149 17.5357 19.1685 15.847 19.1685C14.1583 19.1685 12.5598 19.8149 11.3466 20.9879C10.1973 22.0993 9.51302 23.5663 9.40492 25.1417H1.57431V16.9342L11.0758 15.8738C11.4788 15.8311 11.8409 15.633 12.0959 15.316L20.3516 5.09006H27.7624V25.1417ZM29.3367 11.8963C29.6558 11.9692 29.9612 12.0891 30.2488 12.2539L30.3044 12.3039H30.3338C31.0842 12.7606 31.6121 13.479 31.822 14.3318C31.886 14.5935 31.9186 14.8594 31.9186 15.1221C31.9186 15.7393 31.7412 16.3451 31.4043 16.8768C30.9373 17.614 30.191 18.1363 29.3367 18.3323V11.8963ZM39.1562 18.5148C39.3126 18.6941 39.3577 18.9412 39.2738 19.1591L39.2559 19.206C39.0366 19.7701 38.7679 20.3227 38.4562 20.8513C37.9839 21.652 37.4203 22.3892 36.779 23.0418C36.6321 23.192 36.4106 23.2556 36.1871 23.2107C34.2381 22.8208 32.2534 23.7049 31.2479 25.4117C31.1493 25.5796 31.0601 25.7547 30.9834 25.9341C30.8984 26.1322 30.719 26.2729 30.5038 26.3094C30.1144 26.374 29.7229 26.4199 29.3367 26.446V19.8546C30.7211 19.6398 31.9354 18.8495 32.6805 17.6734C33.3837 16.562 33.5989 15.2493 33.2861 13.9763C32.9755 12.7168 32.1883 11.6596 31.0695 10.9965L31.0307 10.9735C30.5017 10.667 29.9318 10.4647 29.3367 10.372V3.7847C29.7397 3.81077 30.1512 3.85873 30.5605 3.92962C30.6455 3.94526 30.7253 3.97446 30.7998 4.0172C30.9551 4.10687 31.0632 4.24658 31.1052 4.41235C31.4117 5.60407 32.1652 6.60811 33.2253 7.23993L33.2452 7.25036C34.3168 7.8582 35.5647 8.01772 36.7601 7.69973C37.0067 7.63404 37.2775 7.72579 37.4486 7.93536C38.3428 9.02281 39.0198 10.2562 39.4595 11.5991C39.5361 11.8327 39.4774 12.0871 39.3084 12.2622C39.0544 12.525 38.8308 12.819 38.6451 13.1338C37.6323 14.8531 37.8369 17.0155 39.1562 18.5148Z" fill="white"/>
</svg>
