<svg width="20" height="20" viewBox="0 0 20 20" fill="none" xmlns="http://www.w3.org/2000/svg">
<path d="M6.25 8.33333V11.6667M9.58333 8.33333V11.6667M12.9167 8.33333V11.6667M17.5 10.8333V9.16667M5.16667 15H14C14.9334 15 15.4002 15 15.7567 14.8183C16.0703 14.6586 16.3252 14.4036 16.485 14.09C16.6667 13.7335 16.6667 13.2667 16.6667 12.3333V7.66667C16.6667 6.73325 16.6667 6.26653 16.485 5.91002C16.3252 5.59641 16.0703 5.34144 15.7567 5.18166C15.4002 5 14.9334 5 14 5H5.16667C4.23325 5 3.76653 5 3.41002 5.18166C3.09641 5.34144 2.84144 5.59641 2.68166 5.91002C2.5 6.26653 2.5 6.73324 2.5 7.66667V12.3333C2.5 13.2667 2.5 13.7335 2.68166 14.09C2.84144 14.4036 3.09641 14.6586 3.41002 14.8183C3.76653 15 4.23324 15 5.16667 15Z" stroke="#808080" stroke-width="1.25" stroke-linecap="round" stroke-linejoin="round"/>
</svg>
