<svg width="20" height="16" viewBox="0 0 20 16" fill="none" xmlns="http://www.w3.org/2000/svg">
<path d="M18.3333 7.33333H17.6667C17.4015 7.33333 17.1471 7.43869 16.9596 7.62623C16.772 7.81376 16.6667 8.06812 16.6667 8.33333V8.66667H16V7C16 6.73478 15.8946 6.48043 15.7071 6.29289C15.5196 6.10536 15.2652 6 15 6H14C13.9116 6 13.8268 5.96488 13.7643 5.90237C13.7018 5.83986 13.6667 5.75507 13.6667 5.66667V5C13.6667 4.73478 13.5613 4.48043 13.3738 4.29289C13.1862 4.10536 12.9319 4 12.6667 4H11.3333V3H13C13.2652 3 13.5196 2.89464 13.7071 2.70711C13.8946 2.51957 14 2.26522 14 2C14 1.73478 13.8946 1.48043 13.7071 1.29289C13.5196 1.10536 13.2652 1 13 1H6.33333C6.06812 1 5.81376 1.10536 5.62623 1.29289C5.43869 1.48043 5.33333 1.73478 5.33333 2C5.33333 2.26522 5.43869 2.51957 5.62623 2.70711C5.81376 2.89464 6.06812 3 6.33333 3H8V4H6.33333C6.06812 4 5.81376 4.10536 5.62623 4.29289C5.43869 4.48043 5.33333 4.73478 5.33333 5C5.33333 5.08841 5.29821 5.17319 5.2357 5.2357C5.17319 5.29821 5.08841 5.33333 5 5.33333H4C3.73478 5.33333 3.48043 5.43869 3.29289 5.62623C3.10536 5.81376 3 6.06812 3 6.33333V7.66667H2V6.33333C2 6.06812 1.89464 5.81376 1.70711 5.62623C1.51957 5.43869 1.26522 5.33333 1 5.33333C0.734784 5.33333 0.48043 5.43869 0.292893 5.62623C0.105357 5.81376 0 6.06812 0 6.33333L0 11.6667C0 11.9319 0.105357 12.1862 0.292893 12.3738C0.48043 12.5613 0.734784 12.6667 1 12.6667C1.26522 12.6667 1.51957 12.5613 1.70711 12.3738C1.89464 12.1862 2 11.9319 2 11.6667V10.3333H3V12C3 12.2652 3.10536 12.5196 3.29289 12.7071C3.48043 12.8946 3.73478 13 4 13H5.39067C5.47907 13 5.56384 13.0352 5.62633 13.0977L7.23567 14.707C7.32826 14.8002 7.43843 14.8741 7.5598 14.9244C7.68116 14.9747 7.8113 15.0004 7.94267 15H15C15.2652 15 15.5196 14.8946 15.7071 14.7071C15.8946 14.5196 16 14.2652 16 14V12.6667H16.6667V13C16.6667 13.2652 16.772 13.5196 16.9596 13.7071C17.1471 13.8946 17.4015 14 17.6667 14H18.3333C18.7752 13.9995 19.1988 13.8237 19.5113 13.5113C19.8237 13.1988 19.9995 12.7752 20 12.3333V9C19.9995 8.55814 19.8237 8.13452 19.5113 7.82207C19.1988 7.50963 18.7752 7.33386 18.3333 7.33333ZM6 2C6 1.91159 6.03512 1.82681 6.09763 1.7643C6.16014 1.70179 6.24493 1.66667 6.33333 1.66667H13C13.0884 1.66667 13.1732 1.70179 13.2357 1.7643C13.2982 1.82681 13.3333 1.91159 13.3333 2C13.3333 2.08841 13.2982 2.17319 13.2357 2.2357C13.1732 2.29821 13.0884 2.33333 13 2.33333H6.33333C6.24493 2.33333 6.16014 2.29821 6.09763 2.2357C6.03512 2.17319 6 2.08841 6 2ZM8.66667 3H10.6667V4H8.66667V3ZM1.33333 11.6667C1.33333 11.7551 1.29821 11.8399 1.2357 11.9024C1.17319 11.9649 1.08841 12 1 12C0.911595 12 0.82681 11.9649 0.764298 11.9024C0.701786 11.8399 0.666667 11.7551 0.666667 11.6667V6.33333C0.666667 6.24493 0.701786 6.16014 0.764298 6.09763C0.82681 6.03512 0.911595 6 1 6C1.08841 6 1.17319 6.03512 1.2357 6.09763C1.29821 6.16014 1.33333 6.24493 1.33333 6.33333V11.6667ZM2 9.66667V8.33333H3V9.66667H2ZM15.3333 14C15.3333 14.0884 15.2982 14.1732 15.2357 14.2357C15.1732 14.2982 15.0884 14.3333 15 14.3333H7.94267C7.85427 14.3333 7.7695 14.2982 7.707 14.2357L6.09767 12.6263C6.00503 12.5332 5.89485 12.4594 5.7735 12.4091C5.65214 12.3588 5.52203 12.333 5.39067 12.3333H4C3.91159 12.3333 3.82681 12.2982 3.7643 12.2357C3.70179 12.1732 3.66667 12.0884 3.66667 12V6.33333C3.66667 6.24493 3.70179 6.16014 3.7643 6.09763C3.82681 6.03512 3.91159 6 4 6H5C5.26522 6 5.51957 5.89464 5.70711 5.70711C5.89464 5.51957 6 5.26522 6 5C6 4.91159 6.03512 4.82681 6.09763 4.7643C6.16014 4.70179 6.24493 4.66667 6.33333 4.66667H12.6667C12.7551 4.66667 12.8399 4.70179 12.9024 4.7643C12.9649 4.82681 13 4.91159 13 5V5.66667C13 5.93188 13.1054 6.18624 13.2929 6.37377C13.4804 6.56131 13.7348 6.66667 14 6.66667H15C15.0884 6.66667 15.1732 6.70179 15.2357 6.7643C15.2982 6.82681 15.3333 6.91159 15.3333 7V14ZM16 12V9.33333H16.6667V12H16ZM19.3333 12.3333C19.3333 12.5986 19.228 12.8529 19.0404 13.0404C18.8529 13.228 18.5986 13.3333 18.3333 13.3333H17.6667C17.5783 13.3333 17.4935 13.2982 17.431 13.2357C17.3685 13.1732 17.3333 13.0884 17.3333 13V8.33333C17.3333 8.24493 17.3685 8.16014 17.431 8.09763C17.4935 8.03512 17.5783 8 17.6667 8H18.3333C18.5986 8 18.8529 8.10536 19.0404 8.29289C19.228 8.48043 19.3333 8.73478 19.3333 9V12.3333Z" fill="#808080" stroke="#808080" stroke-width="0.3"/>
</svg>
