<svg width="18" height="14" viewBox="0 0 18 14" fill="none" xmlns="http://www.w3.org/2000/svg">
<path d="M2.20866 13.5834C1.71102 13.5834 1.28796 13.4092 0.939492 13.0609C0.591159 12.7124 0.416992 12.2894 0.416992 11.7917V2.20841C0.416992 1.71078 0.591159 1.28772 0.939492 0.939248C1.28796 0.590915 1.71102 0.416748 2.20866 0.416748H8.79199C9.28963 0.416748 9.71269 0.590915 10.0612 0.939248C10.4095 1.28772 10.5837 1.71078 10.5837 2.20841V7.45842H12.1062C12.5339 7.45842 12.8978 7.60841 13.1978 7.90841C13.4978 8.20842 13.6478 8.5723 13.6478 9.00008V11.0609C13.6478 11.2415 13.7053 11.3892 13.8201 11.504C13.9348 11.6189 14.0825 11.6763 14.263 11.6763C14.4437 11.6763 14.5914 11.6189 14.7062 11.504C14.821 11.3892 14.8785 11.2442 14.8785 11.069V5.77092C14.3998 5.70147 14.0046 5.48994 13.6926 5.13633C13.3807 4.78272 13.2247 4.36654 13.2247 3.88779V2.86258C13.2247 2.68189 13.2886 2.52772 13.4164 2.40008C13.544 2.2723 13.698 2.20841 13.8785 2.20841H14.1285V1.2405C14.1285 1.13314 14.1636 1.04432 14.2339 0.97404C14.304 0.903762 14.3927 0.868623 14.4999 0.868623C14.6073 0.868623 14.6962 0.903762 14.7666 0.97404C14.837 1.04432 14.8722 1.13314 14.8722 1.2405V2.20841H15.9682V1.2405C15.9682 1.13314 16.0033 1.04432 16.0735 0.97404C16.1436 0.903762 16.2323 0.868623 16.3397 0.868623C16.4469 0.868623 16.5357 0.903762 16.6062 0.97404C16.6766 1.04432 16.7118 1.13314 16.7118 1.2405V2.20841H16.9618C17.1422 2.20841 17.2963 2.2723 17.4241 2.40008C17.5519 2.52772 17.6157 2.68189 17.6157 2.86258V3.88779C17.6157 4.36654 17.4598 4.78272 17.1478 5.13633C16.8357 5.48994 16.4404 5.70147 15.9618 5.77092V11.0722C15.9618 11.5495 15.7963 11.9555 15.4653 12.2901C15.1344 12.6245 14.7326 12.7917 14.2601 12.7917C13.7878 12.7917 13.3871 12.6245 13.058 12.2901C12.729 11.9555 12.5645 11.5495 12.5645 11.0722V8.79821C12.5645 8.72334 12.5405 8.66189 12.4924 8.61383C12.4442 8.56578 12.3828 8.54175 12.308 8.54175H10.5837V10.694C10.5837 11.4968 10.2987 12.179 9.72866 12.7407C9.1588 13.3025 8.47373 13.5834 7.67345 13.5834H2.20866ZM2.20866 12.5001H7.67595C8.19137 12.5001 8.62428 12.3232 8.9747 11.9695C9.32512 11.6158 9.50033 11.1907 9.50033 10.694C9.50033 10.1802 9.32449 9.74022 8.97283 9.37425C8.62116 9.00842 8.18803 8.83244 7.67345 8.84633H4.44908C4.24171 8.84633 4.07234 8.91203 3.94095 9.04342C3.80956 9.1748 3.74387 9.34411 3.74387 9.55133C3.74387 9.75869 3.80956 9.92807 3.94095 10.0595C4.07234 10.1908 4.24171 10.2565 4.44908 10.2565H7.54845C7.70192 10.2565 7.83053 10.3081 7.93428 10.4111C8.03817 10.514 8.09012 10.6417 8.09012 10.794C8.09012 10.9464 8.03817 11.0754 7.93428 11.1811C7.83053 11.287 7.70192 11.3399 7.54845 11.3399H4.44908C3.95991 11.3399 3.53956 11.164 3.18803 10.8124C2.83637 10.4608 2.66053 10.0405 2.66053 9.55133C2.66053 9.0623 2.83637 8.64196 3.18803 8.29029C3.53956 7.93876 3.95991 7.763 4.44908 7.763H7.67345C7.99915 7.763 8.32095 7.80543 8.63887 7.89029C8.95678 7.97529 9.24394 8.123 9.50033 8.33342V2.20841C9.50033 2.01328 9.43102 1.84647 9.29241 1.708C9.15394 1.56939 8.98713 1.50008 8.79199 1.50008H2.20866C2.01352 1.50008 1.84671 1.56939 1.70824 1.708C1.56963 1.84647 1.50033 2.01328 1.50033 2.20841V11.7917C1.50033 11.9869 1.56963 12.1537 1.70824 12.2922C1.84671 12.4308 2.01352 12.5001 2.20866 12.5001ZM2.20866 12.5001H7.67345H1.50033H2.20866Z" fill="#808080"/>
</svg>
