<svg width="16" height="16" viewBox="0 0 16 16" fill="none" xmlns="http://www.w3.org/2000/svg">
<path d="M6.29201 7.79176H9.20867V8.49364C9.20867 8.62364 9.27652 8.71357 9.41221 8.76343C9.54791 8.81329 9.66187 8.79211 9.75409 8.69989L10.7951 7.65864C10.916 7.54155 10.9764 7.40496 10.9764 7.24884C10.9764 7.09259 10.9149 6.95343 10.792 6.83134L9.75409 5.8003C9.66187 5.70808 9.54791 5.68537 9.41221 5.73218C9.27652 5.77884 9.20867 5.86759 9.20867 5.99843V6.70843H5.87346C5.69124 6.70843 5.53485 6.77259 5.4043 6.90093C5.27388 7.0294 5.20867 7.1885 5.20867 7.37822V9.25009C5.20867 9.40357 5.2602 9.53218 5.36326 9.63593C5.46631 9.73982 5.59395 9.79176 5.74617 9.79176C5.89853 9.79176 6.02756 9.73982 6.13326 9.63593C6.23909 9.53218 6.29201 9.40357 6.29201 9.25009V7.79176ZM8.00201 15.4711C7.83284 15.4711 7.66617 15.4404 7.50201 15.3791C7.33784 15.3177 7.18721 15.2186 7.05013 15.0818L0.918672 8.9503C0.781866 8.81391 0.682769 8.66398 0.62138 8.50051C0.559991 8.33704 0.529297 8.17079 0.529297 8.00176C0.529297 7.83259 0.559991 7.66593 0.62138 7.50176C0.682769 7.33759 0.781866 7.18697 0.918672 7.04989L7.05013 0.918428C7.18652 0.781622 7.33645 0.682525 7.49992 0.621136C7.66339 0.559747 7.82964 0.529053 7.99867 0.529053C8.16784 0.529053 8.33451 0.559747 8.49867 0.621136C8.66284 0.682525 8.81346 0.781622 8.95055 0.918428L15.082 7.04989C15.2188 7.18628 15.3179 7.33621 15.3793 7.49968C15.4407 7.66315 15.4714 7.8294 15.4714 7.99843C15.4714 8.16759 15.4407 8.33426 15.3793 8.49843C15.3179 8.66259 15.2188 8.81322 15.082 8.9503L8.95055 15.0818C8.81416 15.2186 8.66423 15.3177 8.50076 15.3791C8.33728 15.4404 8.17103 15.4711 8.00201 15.4711ZM7.82409 14.3238C7.87214 14.3719 7.93089 14.3959 8.00034 14.3959C8.06978 14.3959 8.12853 14.3719 8.17659 14.3238L14.3241 8.17634C14.3721 8.12829 14.3962 8.06954 14.3962 8.00009C14.3962 7.93065 14.3721 7.8719 14.3241 7.82384L8.17659 1.67634C8.12853 1.62829 8.06978 1.60426 8.00034 1.60426C7.93089 1.60426 7.87214 1.62829 7.82409 1.67634L1.67659 7.82384C1.62853 7.8719 1.60451 7.93065 1.60451 8.00009C1.60451 8.06954 1.62853 8.12829 1.67659 8.17634L7.82409 14.3238Z" fill="#808080"/>
</svg>
