<svg width="20" height="20" viewBox="0 0 20 20" fill="none" xmlns="http://www.w3.org/2000/svg">
<path d="M13.5443 7.18872H13.3424C12.0163 7.18872 10.9375 8.26756 10.9375 9.59366V10.4086C10.9375 11.7347 12.0163 12.8135 13.3424 12.8135H13.5443C14.5192 12.8135 15.3124 12.0204 15.3124 11.0454V8.95677C15.3124 7.98191 14.5192 7.18872 13.5443 7.18872ZM14.0624 11.0455C14.0624 11.3312 13.83 11.5636 13.5443 11.5636H13.3424C12.7056 11.5636 12.1875 11.0455 12.1875 10.4086V9.5937C12.1875 8.95684 12.7056 8.43873 13.3424 8.43873H13.5443C13.83 8.43873 14.0624 8.67115 14.0624 8.95688V11.0455Z" fill="#808080"/>
<path d="M18.1136 6.9527C17.9942 5.68457 16.9239 4.68885 15.6251 4.68885H13.0779C11.1003 4.68885 9.29185 5.78019 8.36191 7.50129H7.25373C6.2184 2.44683 2.70935 1.84736 0.981768 5.30231C-1.1174 9.5005 0.308425 16.8761 3.75038 16.8761C5.72486 16.8761 6.84972 14.4737 7.25373 12.5012H8.36187C9.29185 14.2223 11.1002 15.3136 13.0779 15.3136H15.6251C16.9239 15.3136 17.9941 14.3179 18.1135 13.0497C19.1963 12.7755 20 11.7931 20 10.6262V9.37624C20 8.20939 19.1964 7.22696 18.1136 6.9527ZM8.12527 11.2512H4.37536V8.75126H8.12527V11.2512ZM3.75038 15.6261C2.56794 15.6261 1.25043 13.316 1.25043 10.0012C1.25043 6.68642 2.56794 4.37636 3.75038 4.37636C4.65653 4.37636 5.54236 5.65332 5.97411 7.50129H4.37536V7.18879C4.37536 6.84361 4.09556 6.56381 3.75038 6.56381C3.40519 6.56381 3.12539 6.84361 3.12539 7.18879V12.8137C3.12539 13.1588 3.40519 13.4386 3.75038 13.4386C4.09556 13.4386 4.37536 13.1588 4.37536 12.8137V12.5012H5.97411C5.54236 14.3491 4.65653 15.6261 3.75038 15.6261ZM16.8751 12.8137C16.8751 13.5029 16.3143 14.0636 15.6251 14.0636H13.0779C11.4978 14.0636 10.0584 13.1553 9.37524 11.7386V8.26385C10.0584 6.84712 11.4978 5.93886 13.0779 5.93886H15.6251C16.3143 5.93886 16.8751 6.49959 16.8751 7.18883V12.8137ZM18.75 10.6262C18.75 11.0879 18.4984 11.492 18.125 11.7084V8.29404C18.4984 8.51048 18.75 8.91453 18.75 9.37624V10.6262Z" fill="#808080"/>
</svg>
