<svg width="14" height="16" viewBox="0 0 14 16" fill="none" xmlns="http://www.w3.org/2000/svg">
<path d="M0.75 14.3301V2.42321C0.75 2.00223 0.895833 1.64591 1.1875 1.35425C1.47917 1.06258 1.83549 0.916748 2.25646 0.916748H6.74354C7.16451 0.916748 7.52083 1.06258 7.8125 1.35425C8.10417 1.64591 8.25 2.00223 8.25 2.42321V7.83987H9.05125C9.46556 7.83987 9.82021 7.98737 10.1152 8.28237C10.4102 8.57737 10.5577 8.93196 10.5577 9.34612V13.1282C10.5577 13.3964 10.6509 13.6237 10.8373 13.8101C11.0237 13.9966 11.251 14.0899 11.5192 14.0899C11.7874 14.0899 12.0147 13.9966 12.201 13.8101C12.3876 13.6237 12.4808 13.3964 12.4808 13.1282V7.28862C12.3558 7.36335 12.2239 7.41515 12.085 7.44404C11.9461 7.47279 11.8003 7.48716 11.6475 7.48716C11.136 7.48716 10.7035 7.31057 10.3502 6.95737C9.99701 6.60418 9.82042 6.17182 9.82042 5.66029C9.82042 5.24793 9.93799 4.88071 10.1731 4.55862C10.4081 4.23654 10.719 4.02043 11.1058 3.91029L9.57688 2.38154C9.47854 2.28321 9.42806 2.16807 9.42542 2.03612C9.42278 1.90418 9.47403 1.78564 9.57917 1.6805C9.67278 1.58689 9.78632 1.538 9.91979 1.53383C10.0534 1.52953 10.172 1.57494 10.2756 1.67008L12.8973 4.25341C13.0844 4.44036 13.2273 4.65696 13.326 4.90321C13.4249 5.14946 13.4744 5.40182 13.4744 5.66029V13.1282C13.4744 13.6757 13.2855 14.1384 12.9077 14.5163C12.5301 14.8944 12.0678 15.0834 11.5208 15.0834C10.9738 15.0834 10.5108 14.8944 10.1321 14.5163C9.75347 14.1384 9.56417 13.6757 9.56417 13.1282V9.08987C9.56417 9.01501 9.54007 8.95355 9.49187 8.9055C9.44382 8.85744 9.38243 8.83342 9.30771 8.83342H8.25V14.3301C8.25 14.5436 8.17813 14.7224 8.03438 14.8667C7.89063 15.0112 7.7125 15.0834 7.5 15.0834H1.49979C1.28729 15.0834 1.10924 15.0112 0.965625 14.8667C0.821875 14.7224 0.75 14.5436 0.75 14.3301ZM2 6.54175H7V2.42321C7 2.35904 6.97326 2.30029 6.91979 2.24696C6.86646 2.19348 6.80771 2.16675 6.74354 2.16675H2.25646C2.19229 2.16675 2.13354 2.19348 2.08021 2.24696C2.02674 2.30029 2 2.35904 2 2.42321V6.54175ZM11.6475 6.49362C11.8836 6.49362 12.0815 6.41376 12.2413 6.25404C12.401 6.09432 12.4808 5.8964 12.4808 5.66029C12.4808 5.42418 12.401 5.22626 12.2413 5.06654C12.0815 4.90682 11.8836 4.82696 11.6475 4.82696C11.4114 4.82696 11.2135 4.90682 11.0538 5.06654C10.894 5.22626 10.8142 5.42418 10.8142 5.66029C10.8142 5.8964 10.894 6.09432 11.0538 6.25404C11.2135 6.41376 11.4114 6.49362 11.6475 6.49362ZM2 13.8334H7V7.79175H2V13.8334Z" fill="#808080"/>
</svg>
