<svg width="16" height="19" viewBox="0 0 16 19" fill="none" xmlns="http://www.w3.org/2000/svg">
<path d="M8.00112 17.5135C9.95746 15.7622 11.4545 14.0823 12.4924 12.474C13.5302 10.8657 14.0491 9.457 14.0491 8.248C14.0491 6.425 13.47 4.92633 12.3116 3.752C11.1533 2.57767 9.71646 1.9905 8.00112 1.9905C6.28579 1.9905 4.84896 2.57767 3.69062 3.752C2.53229 4.92633 1.95312 6.425 1.95312 8.248C1.95312 9.457 2.47204 10.8657 3.50988 12.474C4.54771 14.0823 6.04479 15.7622 8.00112 17.5135ZM8.00112 18.9403C7.80629 18.9403 7.61146 18.9067 7.41662 18.8395C7.22162 18.7722 7.04529 18.668 6.88763 18.527C5.99029 17.7 5.15054 16.8483 4.36838 15.972C3.58637 15.0958 2.90662 14.2199 2.32912 13.3443C1.75146 12.4686 1.29438 11.6007 0.957875 10.7405C0.621375 9.88017 0.453125 9.04933 0.453125 8.248C0.453125 5.94033 1.19954 4.07208 2.69237 2.64325C4.18537 1.21442 5.95496 0.5 8.00112 0.5C10.0473 0.5 11.8169 1.21442 13.3099 2.64325C14.8027 4.07208 15.5491 5.94033 15.5491 8.248C15.5491 9.04933 15.3809 9.8785 15.0444 10.7355C14.7079 11.5927 14.2525 12.4607 13.6781 13.3395C13.1036 14.2183 12.4254 15.0942 11.6434 15.9672C10.8614 16.8404 10.0216 17.6904 9.12412 18.5173C8.96879 18.6583 8.79221 18.764 8.59438 18.8345C8.39671 18.905 8.19896 18.9403 8.00112 18.9403ZM8.00287 9.86525C8.50037 9.86525 8.92571 9.68808 9.27887 9.33375C9.63221 8.97942 9.80888 8.5535 9.80888 8.056C9.80888 7.5585 9.63171 7.13308 9.27737 6.77975C8.92304 6.42658 8.49704 6.25 7.99937 6.25C7.50187 6.25 7.07654 6.42717 6.72338 6.7815C6.37004 7.13583 6.19338 7.56183 6.19338 8.0595C6.19338 8.557 6.37054 8.98233 6.72488 9.3355C7.07921 9.68867 7.50521 9.86525 8.00287 9.86525Z" fill="#808080"/>
</svg>
