<svg width="8" height="16" viewBox="0 0 8 16" fill="none" xmlns="http://www.w3.org/2000/svg">
<path d="M4 15.0834C2.95944 15.0834 2.07431 14.7186 1.34458 13.9888C0.614861 13.2591 0.25 12.374 0.25 11.3334C0.25 10.6988 0.398542 10.112 0.695625 9.573C0.99257 9.03397 1.39958 8.58446 1.91667 8.22446V3.00008C1.91667 2.41786 2.11833 1.92508 2.52167 1.52175C2.925 1.11841 3.41778 0.916748 4 0.916748C4.58222 0.916748 5.075 1.11841 5.47833 1.52175C5.88167 1.92508 6.08333 2.41786 6.08333 3.00008V8.22446C6.60042 8.58446 7.00611 9.03397 7.30042 9.573C7.59472 10.112 7.74458 10.6988 7.75 11.3334C7.74458 12.374 7.37708 13.2591 6.6475 13.9888C5.91778 14.7186 5.03528 15.0834 4 15.0834ZM4 13.8334C4.69444 13.8334 5.28472 13.5904 5.77083 13.1042C6.25694 12.6181 6.5 12.0279 6.5 11.3334C6.5 10.9306 6.41319 10.5556 6.23958 10.2084C6.06597 9.86119 5.81944 9.56953 5.5 9.33342L4.83333 8.83342V3.00008C4.83333 2.76397 4.75347 2.56605 4.59375 2.40633C4.43403 2.24661 4.23611 2.16675 4 2.16675C3.76389 2.16675 3.56597 2.24661 3.40625 2.40633C3.24653 2.56605 3.16667 2.76397 3.16667 3.00008V8.83342L2.5 9.33342C2.18056 9.56953 1.93403 9.86119 1.76042 10.2084C1.58681 10.5556 1.5 10.9306 1.5 11.3334C1.5 12.0279 1.74306 12.6181 2.22917 13.1042C2.71528 13.5904 3.30556 13.8334 4 13.8334Z" fill="#808080"/>
</svg>
