<svg width="16" height="14" viewBox="0 0 16 14" fill="none" xmlns="http://www.w3.org/2000/svg">
<path d="M6.83613 9.78854C7.13211 10.0844 7.51329 10.2249 7.97967 10.21C8.44592 10.195 8.78808 10.0267 9.00613 9.70521L12.3672 4.83667C12.4865 4.65708 12.4729 4.4941 12.3265 4.34771C12.1802 4.20146 12.017 4.18785 11.8372 4.30687L6.96113 7.66021C6.63433 7.87826 6.4578 8.21347 6.43155 8.66583C6.40544 9.11833 6.5403 9.49257 6.83613 9.78854ZM7.99967 0.75C8.54773 0.75 9.07148 0.799722 9.57092 0.899166C10.0705 0.998472 10.5575 1.15174 11.0318 1.35896C11.2005 1.42632 11.3685 1.54653 11.5357 1.71958C11.7029 1.89264 11.7456 2.0566 11.6638 2.21146C11.5822 2.36646 11.4056 2.46931 11.1343 2.52C10.8629 2.57083 10.6386 2.56257 10.4613 2.49521C10.0713 2.32743 9.67384 2.20299 9.26884 2.12187C8.86398 2.04062 8.44092 2 7.99967 2C6.15245 2 4.57954 2.64931 3.28092 3.94792C1.98231 5.24653 1.33301 6.81944 1.33301 8.66667C1.33301 9.25 1.41287 9.82639 1.57259 10.3958C1.73231 10.9653 1.95801 11.5 2.24967 12H13.7497C14.0691 11.4722 14.3018 10.9236 14.4476 10.3542C14.5934 9.78472 14.6663 9.19444 14.6663 8.58333C14.6663 8.19014 14.6271 7.78653 14.5486 7.3725C14.47 6.95861 14.3468 6.5609 14.179 6.17937C14.1118 6.00215 14.0979 5.8291 14.1374 5.66021C14.177 5.49146 14.2704 5.35167 14.4178 5.24083C14.5546 5.14014 14.704 5.11222 14.8659 5.15708C15.0277 5.20194 15.1423 5.30021 15.2097 5.45188C15.45 5.97535 15.6256 6.49056 15.7368 6.9975C15.8479 7.50444 15.9077 8.02451 15.9163 8.55771C15.9248 9.31201 15.8399 10.0249 15.6616 10.6963C15.4831 11.3678 15.2144 12.0246 14.8555 12.6667C14.7454 12.8472 14.5904 12.9896 14.3907 13.0938C14.1909 13.1979 13.9772 13.25 13.7497 13.25H2.24967C2.02745 13.25 1.8178 13.1966 1.62072 13.0898C1.42363 12.9828 1.26467 12.8311 1.14384 12.6346C0.825508 12.079 0.569119 11.4733 0.374674 10.8173C0.18023 10.1613 0.0830078 9.44444 0.0830078 8.66667C0.0830078 7.57806 0.289536 6.55465 0.702591 5.59646C1.11565 4.63826 1.67947 3.79903 2.39405 3.07875C3.10877 2.35847 3.94898 1.79028 4.91467 1.37417C5.88051 0.958056 6.90884 0.75 7.99967 0.75Z" fill="#808080"/>
</svg>
