<svg width="15" height="20" viewBox="0 0 15 20" fill="none" xmlns="http://www.w3.org/2000/svg">
<path d="M14.8779 4.28875L10.7096 0.12207C10.6315 0.0439453 10.5257 0 10.415 0H1.66668C0.747461 0 0 0.747461 0 1.66668V18.3334C0 19.2525 0.747461 20 1.66668 20H13.3334C14.2525 20 15 19.2525 15 18.3333V4.58332C15 4.47266 14.9561 4.36688 14.8779 4.28875ZM6.25 7.91668C6.25 7.68637 6.43637 7.5 6.66668 7.5H8.33336C8.56367 7.5 8.75004 7.68637 8.75004 7.91668V9.58336C8.75004 9.81367 8.56367 10 8.33336 10H6.66668C6.43637 10 6.25 9.81367 6.25 9.58336V7.91668ZM2.5 8.75C2.5 8.0607 3.0607 7.5 3.75 7.5H5C5.23031 7.5 5.41668 7.68637 5.41668 7.91668V9.58336C5.41668 9.81367 5.23031 10 5 10H2.91668C2.68637 10 2.5 9.81367 2.5 9.58336V8.75ZM5 17.0833C5 17.3136 4.81363 17.5 4.58332 17.5H3.75C3.0607 17.5 2.5 16.9393 2.5 16.25V15.4167C2.5 15.1864 2.68637 15 2.91668 15H4.58336C4.81367 15 5.00004 15.1864 5.00004 15.4167V17.0833H5ZM8.33332 17.0833C8.33332 17.3136 8.14695 17.5 7.91664 17.5H6.25C6.01969 17.5 5.83332 17.3136 5.83332 17.0833V15.4166C5.83332 15.1863 6.01969 15 6.25 15H7.91668C8.14699 15 8.33336 15.1863 8.33336 15.4166V17.0833H8.33332ZM12.5 16.25C12.5 16.9393 11.9393 17.5 11.25 17.5H9.58332C9.35301 17.5 9.16664 17.3136 9.16664 17.0833V14.5833C9.16664 14.3534 8.97988 14.1666 8.74996 14.1666H2.91668C2.68637 14.1666 2.5 13.9803 2.5 13.75V11.25C2.5 11.0196 2.68637 10.8333 2.91668 10.8333H12.0834C12.3137 10.8333 12.5 11.0196 12.5 11.25V16.25H12.5ZM12.5 9.58332C12.5 9.81363 12.3136 10 12.0833 10H10C9.76969 10 9.58332 9.81363 9.58332 9.58332V7.91664C9.58332 7.68633 9.76969 7.49996 10 7.49996H11.25C11.9393 7.49996 12.5 8.06066 12.5 8.74996V9.58332Z" fill="#808080"/>
</svg>
