<svg width="18" height="12" viewBox="0 0 18 12" fill="none" xmlns="http://www.w3.org/2000/svg">
<path d="M8.45866 6.34612L7.43137 7.38154C7.31734 7.49682 7.18755 7.55446 7.04199 7.55446C6.8963 7.55446 6.77074 7.49946 6.66533 7.38946C6.54463 7.27404 6.4856 7.14508 6.48824 7.00258C6.49102 6.85994 6.55005 6.73092 6.66533 6.6155L8.53845 4.74237C8.67331 4.60751 8.82852 4.54008 9.00408 4.54008C9.17977 4.54008 9.33345 4.60848 9.46512 4.74529L11.3353 6.6155C11.4506 6.73092 11.5082 6.85751 11.5082 6.99529C11.5082 7.13307 11.4506 7.25772 11.3353 7.36925C11.2199 7.48425 11.0896 7.53904 10.9443 7.53362C10.799 7.52835 10.6713 7.468 10.5612 7.35258L9.54199 6.34612V10.2436C9.54199 10.3078 9.56873 10.3665 9.6222 10.4199C9.67553 10.4733 9.73428 10.5001 9.79845 10.5001H14.5003C15.0603 10.5001 15.5337 10.3072 15.9203 9.92154C16.307 9.53571 16.5003 9.06348 16.5003 8.50487C16.5003 7.94612 16.307 7.4723 15.9203 7.08342C15.5337 6.69453 15.0603 6.50008 14.5003 6.50008H13.0003V5.00008C13.0003 3.98619 12.601 3.14939 11.8024 2.48966C11.0038 1.82994 10.0663 1.50008 8.98991 1.50008C7.91352 1.50008 7.00033 1.89244 6.25033 2.67716C5.50033 3.46189 5.04894 4.40286 4.89616 5.50008H3.98428C3.30984 5.50008 2.72727 5.74453 2.23658 6.23342C1.74574 6.7223 1.50033 7.31258 1.50033 8.00425C1.50033 8.69592 1.74435 9.2848 2.23241 9.77092C2.7206 10.257 3.30991 10.5001 4.00033 10.5001H6.20866C6.36213 10.5001 6.49081 10.5516 6.5947 10.6547C6.69845 10.7577 6.75033 10.8854 6.75033 11.0376C6.75033 11.1899 6.69845 11.319 6.5947 11.4247C6.49081 11.5305 6.36213 11.5834 6.20866 11.5834H4.00033C3.00144 11.5834 2.15449 11.229 1.45949 10.5203C0.764492 9.81154 0.416992 8.95654 0.416992 7.95529C0.416992 6.94779 0.781298 6.08932 1.50991 5.37987C2.23852 4.67043 3.09588 4.33335 4.08199 4.36862C4.32727 3.20973 4.90991 2.2614 5.82991 1.52362C6.74991 0.785707 7.80672 0.416748 9.00033 0.416748C10.3703 0.416748 11.56 0.852026 12.5695 1.72258C13.5789 2.59314 14.0837 3.68564 14.0837 5.00008V5.41675H14.3401C15.2322 5.37397 15.9958 5.65418 16.631 6.25737C17.2661 6.86043 17.5837 7.60105 17.5837 8.47925C17.5837 9.34508 17.2875 10.0789 16.6951 10.6807C16.1026 11.2825 15.3764 11.5834 14.5164 11.5834H9.79845C9.42331 11.5834 9.10623 11.4539 8.8472 11.1949C8.58817 10.9358 8.45866 10.6188 8.45866 10.2436V6.34612Z" fill="#808080"/>
</svg>
