<svg width="16" height="16" viewBox="0 0 16 16" fill="none" xmlns="http://www.w3.org/2000/svg">
<path d="M4.15342 15.1042C3.71231 15.0904 3.29273 14.9765 2.89467 14.7628C2.49676 14.5492 2.12044 14.2356 1.76572 13.8222C1.23683 13.2036 0.824188 12.4552 0.527799 11.577C0.231272 10.6988 0.0830078 9.79223 0.0830078 8.85737C0.0830078 7.75807 0.289744 6.7255 0.703216 5.75967C1.11669 4.79383 1.68106 3.95328 2.39634 3.238C3.11162 2.52272 3.95086 1.95703 4.91405 1.54092C5.8771 1.1248 6.90565 0.916748 7.99967 0.916748C9.0937 0.916748 10.1222 1.12696 11.0853 1.54737C12.0485 1.96779 12.8864 2.53855 13.599 3.25967C14.3117 3.98092 14.8761 4.82737 15.2922 5.79904C15.7083 6.77071 15.9163 7.8121 15.9163 8.92321C15.9163 9.9071 15.7574 10.839 15.4395 11.7188C15.1217 12.5986 14.6754 13.3472 14.1007 13.9649C13.7438 14.3431 13.3727 14.6275 12.9876 14.8182C12.6025 15.0089 12.2037 15.1042 11.7913 15.1042C11.568 15.1042 11.3474 15.077 11.1295 15.0226C10.9115 14.968 10.6936 14.8863 10.4757 14.7774L9.30905 14.194C9.1103 14.0946 8.89981 14.0201 8.67759 13.9705C8.45537 13.9208 8.22676 13.8959 7.99176 13.8959C7.75134 13.8959 7.52134 13.9208 7.30176 13.9705C7.08217 14.0201 6.87572 14.0946 6.68238 14.194L5.52363 14.7774C5.29183 14.9002 5.06481 14.9888 4.84259 15.0434C4.62037 15.0979 4.39065 15.1181 4.15342 15.1042ZM4.18717 13.8542C4.31217 13.8542 4.44065 13.8404 4.57259 13.8126C4.70454 13.7848 4.83301 13.7362 4.95801 13.6667L6.12467 13.0834C6.41634 12.9306 6.71842 12.8195 7.03092 12.7501C7.34342 12.6806 7.6594 12.6459 7.97884 12.6459C8.29829 12.6459 8.61773 12.6806 8.93717 12.7501C9.25662 12.8195 9.56217 12.9306 9.85384 13.0834L11.0413 13.6667C11.1663 13.7362 11.2913 13.7848 11.4163 13.8126C11.5413 13.8404 11.6663 13.8542 11.7913 13.8542C12.0552 13.8542 12.3065 13.7848 12.5453 13.6459C12.784 13.507 13.0215 13.2987 13.2576 13.0209C13.702 12.4931 14.0479 11.8612 14.2953 11.1251C14.5427 10.389 14.6663 9.62939 14.6663 8.84633C14.6663 6.98522 14.0205 5.40668 12.7288 4.11071C11.4372 2.81473 9.86079 2.16675 7.99967 2.16675C6.13856 2.16675 4.56217 2.81953 3.27051 4.12508C1.97884 5.43064 1.33301 7.01397 1.33301 8.87508C1.33301 9.66675 1.4628 10.4376 1.72238 11.1876C1.98197 11.9376 2.33829 12.5695 2.79134 13.0834C3.02745 13.3612 3.25662 13.5591 3.47884 13.6772C3.70106 13.7952 3.93717 13.8542 4.18717 13.8542ZM7.99967 10.2917C8.40454 10.2917 8.74884 10.1499 9.03259 9.86633C9.3162 9.58258 9.45801 9.23828 9.45801 8.83342C9.45801 8.71703 9.44356 8.60189 9.41467 8.488C9.38592 8.37425 9.34537 8.26453 9.29301 8.15883L10.583 6.46633C10.7679 6.66619 10.9236 6.87612 11.0501 7.09612C11.1768 7.31626 11.2775 7.55078 11.3522 7.79966C11.4056 7.96314 11.4858 8.1055 11.5926 8.22675C11.6994 8.348 11.8345 8.40862 11.998 8.40862C12.2118 8.40862 12.3771 8.31647 12.494 8.13216C12.611 7.948 12.6401 7.7448 12.5813 7.52258C12.2876 6.49369 11.7174 5.65633 10.8707 5.0105C10.024 4.36466 9.06703 4.04175 7.99967 4.04175C6.92384 4.04175 5.96335 4.36466 5.11822 5.0105C4.27322 5.65633 3.70377 6.49369 3.40988 7.52258C3.35113 7.7448 3.38162 7.948 3.50134 8.13216C3.62092 8.31647 3.78488 8.40862 3.99322 8.40862C4.15669 8.40862 4.29051 8.348 4.39467 8.22675C4.49884 8.1055 4.57766 7.96314 4.63113 7.79966C4.85224 7.05286 5.27266 6.44821 5.89238 5.98571C6.51197 5.52307 7.2144 5.29175 7.99967 5.29175C8.28065 5.29175 8.55683 5.32723 8.82822 5.39821C9.0996 5.46932 9.35655 5.57057 9.59905 5.70196L8.29613 7.41987C8.25238 7.40932 8.20301 7.39918 8.14801 7.38946C8.09287 7.37987 8.04342 7.37508 7.99967 7.37508C7.59481 7.37508 7.25051 7.51689 6.96676 7.8005C6.68315 8.08425 6.54134 8.42855 6.54134 8.83342C6.54134 9.23828 6.68315 9.58258 6.96676 9.86633C7.25051 10.1499 7.59481 10.2917 7.99967 10.2917Z" fill="#808080"/>
</svg>
