<svg width="14" height="14" viewBox="0 0 14 14" fill="none" xmlns="http://www.w3.org/2000/svg">
<path d="M1.59199 13.5834C1.26644 13.5834 0.989214 13.4675 0.760325 13.2357C0.531437 13.0037 0.416992 12.725 0.416992 12.3994C0.416992 12.0738 0.532895 11.7966 0.764701 11.5677C0.996645 11.3388 1.2754 11.2244 1.60095 11.2244C1.92651 11.2244 2.20373 11.3403 2.43262 11.5721C2.66151 11.8041 2.77595 12.0828 2.77595 12.4084C2.77595 12.7339 2.66005 13.0111 2.42824 13.24C2.1963 13.4689 1.91755 13.5834 1.59199 13.5834ZM12.9055 13.5834C12.7133 13.5834 12.5542 13.5063 12.4282 13.3521C12.3024 13.1979 12.2287 13.0154 12.207 12.8044C12.1141 11.328 11.7634 9.94704 11.1549 8.66148C10.5463 7.37593 9.74796 6.23558 8.75991 5.24044C7.76477 4.25239 6.62442 3.45405 5.33887 2.84544C4.05331 2.23697 2.67234 1.88628 1.19595 1.79336C0.984978 1.77114 0.802409 1.69558 0.648242 1.56669C0.494076 1.4378 0.416992 1.2776 0.416992 1.08607C0.416992 0.890651 0.50352 0.727526 0.676576 0.596693C0.849631 0.465998 1.04623 0.4119 1.26637 0.4344C2.93512 0.541206 4.48734 0.933567 5.92303 1.61148C7.35873 2.28926 8.62581 3.17892 9.72428 4.28044C10.8229 5.38197 11.7111 6.64905 12.3889 8.08169C13.0668 9.51447 13.4591 11.0652 13.566 12.734C13.5885 12.9541 13.535 13.1507 13.4055 13.3238C13.2761 13.4968 13.1094 13.5834 12.9055 13.5834ZM8.09033 13.5834C7.90213 13.5834 7.74074 13.5093 7.60616 13.3613C7.47158 13.2134 7.39408 13.0433 7.37366 12.8511C7.28394 12.0283 7.06845 11.2582 6.7272 10.5409C6.38581 9.8235 5.93519 9.18489 5.37533 8.62503C4.81546 8.06517 4.17685 7.61454 3.45949 7.27315C2.74213 6.9319 1.97206 6.71641 1.14928 6.62669C0.957062 6.60628 0.786992 6.52905 0.639076 6.39503C0.49102 6.261 0.416992 6.09773 0.416992 5.90523C0.416992 5.71232 0.489631 5.55405 0.634909 5.43044C0.780187 5.30697 0.949006 5.25114 1.14137 5.26294C2.15637 5.34725 3.10671 5.59697 3.99241 6.01211C4.87796 6.42711 5.66158 6.97544 6.34324 7.65711C7.02491 8.33878 7.57324 9.12239 7.98824 10.0079C8.40338 10.8936 8.6531 11.844 8.73741 12.859C8.74922 13.0513 8.69234 13.2202 8.56678 13.3654C8.44123 13.5107 8.28241 13.5834 8.09033 13.5834Z" fill="#808080"/>
</svg>
