<svg width="16" height="16" viewBox="0 0 16 16" fill="none" xmlns="http://www.w3.org/2000/svg">
<path d="M8.54199 7.45529V3.54175C8.54199 3.38828 8.49046 3.25959 8.38741 3.15571C8.28435 3.05196 8.15671 3.00008 8.00449 3.00008C7.85213 3.00008 7.7231 3.05196 7.61741 3.15571C7.51158 3.25959 7.45866 3.38828 7.45866 3.54175V7.64758C7.45866 7.74564 7.47685 7.83369 7.51324 7.91175C7.54949 7.9898 7.5997 8.06091 7.66387 8.12508L10.5564 11.0178C10.6739 11.1353 10.8026 11.1919 10.9426 11.1876C11.0826 11.1833 11.213 11.1208 11.3337 11.0001C11.4544 10.8794 11.5147 10.7504 11.5147 10.613C11.5147 10.4758 11.452 10.3451 11.3266 10.2209L8.54199 7.45529ZM8.00178 15.5834C6.9572 15.5834 5.97526 15.3861 5.05595 14.9913C4.13678 14.5966 3.3313 14.0535 2.63949 13.362C1.94769 12.6704 1.40428 11.8642 1.00928 10.9434C0.614423 10.0227 0.416992 9.0389 0.416992 7.99196C0.416992 6.94501 0.614353 5.96064 1.00908 5.03883C1.4038 4.11703 1.94692 3.31369 2.63845 2.62883C3.32998 1.94397 4.13616 1.40404 5.05699 1.00904C5.97769 0.614178 6.96151 0.416748 8.00845 0.416748C9.0554 0.416748 10.0398 0.615775 10.9616 1.01383C11.8835 1.41189 12.6855 1.9521 13.3674 2.63446C14.0494 3.31682 14.5892 4.11925 14.987 5.04175C15.3848 5.96425 15.5837 6.94987 15.5837 7.99862C15.5837 9.04321 15.3863 10.0252 14.9916 10.9445C14.5969 11.8636 14.0572 12.6691 13.3726 13.3609C12.688 14.0527 11.8841 14.5961 10.961 14.9911C10.0378 15.386 9.05137 15.5834 8.00178 15.5834ZM8.01033 14.5001C9.80852 14.5001 11.3398 13.8647 12.6041 12.5938C13.8682 11.323 14.5003 9.78841 14.5003 7.99008C14.5003 6.19189 13.8682 4.66064 12.6041 3.39633C11.3398 2.13217 9.80852 1.50008 8.01033 1.50008C6.21199 1.50008 4.67741 2.13217 3.40658 3.39633C2.13574 4.66064 1.50033 6.19189 1.50033 7.99008C1.50033 9.78841 2.13574 11.323 3.40658 12.5938C4.67741 13.8647 6.21199 14.5001 8.01033 14.5001Z" fill="#808080"/>
</svg>
