<svg width="16" height="16" viewBox="0 0 16 16" fill="none" xmlns="http://www.w3.org/2000/svg">
<path d="M5.49967 15.2917C4.63648 15.2917 3.89981 14.9867 3.28967 14.3767C2.67967 13.7666 2.37467 13.0299 2.37467 12.1667V5.21004C1.88856 5.02949 1.48926 4.74074 1.17676 4.34379C0.864258 3.94685 0.708008 3.49983 0.708008 3.00275C0.708008 2.36539 0.930716 1.82365 1.37613 1.37754C1.82155 0.931429 2.36238 0.708374 2.99863 0.708374C3.63502 0.708374 4.1762 0.931429 4.62217 1.37754C5.06829 1.82365 5.29134 2.36539 5.29134 3.00275C5.29134 3.49983 5.13509 3.94685 4.82259 4.34379C4.51009 4.74074 4.11079 5.02949 3.62467 5.21004V12.1667C3.62467 12.6824 3.80842 13.1238 4.17592 13.4909C4.54342 13.8581 4.98516 14.0417 5.50113 14.0417C6.01724 14.0417 6.45856 13.8581 6.82509 13.4909C7.19148 13.1238 7.37467 12.6824 7.37467 12.1667V3.83337C7.37467 2.97018 7.67967 2.23351 8.28967 1.62337C8.89981 1.01337 9.63648 0.708374 10.4997 0.708374C11.3629 0.708374 12.0995 1.01337 12.7097 1.62337C13.3197 2.23351 13.6247 2.97018 13.6247 3.83337V10.79C14.1108 10.9706 14.5101 11.2593 14.8226 11.6563C15.1351 12.0532 15.2913 12.5002 15.2913 12.9973C15.2913 13.6347 15.0686 14.1764 14.6232 14.6225C14.1778 15.0687 13.637 15.2917 13.0007 15.2917C12.3643 15.2917 11.8231 15.0687 11.3772 14.6225C10.9311 14.1764 10.708 13.6347 10.708 12.9973C10.708 12.5002 10.8643 12.0498 11.1768 11.6459C11.4893 11.242 11.8886 10.9567 12.3747 10.79V3.83337C12.3747 3.31768 12.1909 2.87629 11.8234 2.50921C11.4559 2.14199 11.0142 1.95837 10.4982 1.95837C9.9821 1.95837 9.54078 2.14199 9.17426 2.50921C8.80787 2.87629 8.62467 3.31768 8.62467 3.83337V12.1667C8.62467 13.0299 8.31967 13.7666 7.70967 14.3767C7.09953 14.9867 6.36287 15.2917 5.49967 15.2917Z" fill="#808080"/>
</svg>
