<svg width="24" height="24" viewBox="0 0 24 24" fill="none" xmlns="http://www.w3.org/2000/svg">
<path d="M21.992 10.5372C21.992 12.3608 21.992 14.192 21.992 16.0156C21.992 17.0103 21.3515 17.8015 20.3944 18.005C20.2061 18.0427 20.0101 18.0502 19.8142 18.0502C18.2769 18.0502 16.7472 18.0502 15.2099 18.0502C15.0291 18.0502 14.9161 18.1105 14.8106 18.2461C14.2454 18.962 13.6651 19.6779 13.0924 20.3938C12.467 21.1699 11.51 21.1699 10.892 20.3938C10.3193 19.6779 9.73908 18.9695 9.17391 18.2461C9.06841 18.1105 8.95538 18.0502 8.77452 18.0502C7.22218 18.0577 5.66231 18.0502 4.10997 18.0502C3.13034 18.0502 2.38432 17.5453 2.1055 16.6938C2.03768 16.4828 2 16.2492 2 16.0231C2 12.3608 2 8.70603 2 5.04372C2 3.92091 2.83645 3.06938 3.95926 3.02417C4.01955 3.02417 4.08737 3.02417 4.14765 3.02417C9.38491 3.02417 14.6222 3.02417 19.8519 3.02417C20.613 3.02417 21.2234 3.28038 21.6529 3.91337C21.9016 4.27508 21.9995 4.67447 21.9995 5.11154C21.9995 6.92009 21.9995 8.73617 21.9995 10.5447L21.992 10.5372ZM11.9922 19.6251C12.0676 19.5347 12.1203 19.4669 12.1806 19.3991C12.7985 18.6304 13.424 17.8693 14.0268 17.0932C14.2378 16.8219 14.4865 16.7089 14.8332 16.7164C16.5211 16.7239 18.2091 16.7164 19.8971 16.7164C20.4095 16.7164 20.6657 16.4602 20.6657 15.9478C20.6657 12.3382 20.6657 8.72863 20.6657 5.11907C20.6657 4.60665 20.4095 4.35044 19.8971 4.35044C14.6297 4.35044 9.35477 4.35044 4.08737 4.35044C3.59002 4.35044 3.33381 4.60665 3.33381 5.104C3.33381 8.7211 3.33381 12.3382 3.33381 15.9553C3.33381 16.0382 3.3338 16.1211 3.35641 16.204C3.4393 16.5355 3.70305 16.7089 4.11751 16.7089C5.81302 16.7089 7.50854 16.7089 9.19652 16.7089C9.51302 16.7089 9.74662 16.8144 9.95008 17.063C10.6208 17.9146 11.299 18.751 11.9998 19.6176L11.9922 19.6251Z" fill="black"/>
<path d="M10.1988 10.5296C9.43771 9.8589 8.69922 9.2033 7.96073 8.5477C7.74973 8.35931 7.62163 8.14078 7.68191 7.85443C7.78741 7.34201 8.38273 7.15362 8.78965 7.50779C9.34729 7.99007 9.89738 8.47988 10.4475 8.9697C10.8243 9.30127 11.201 9.63283 11.5703 9.9644C11.9772 10.3336 11.9848 10.7406 11.5778 11.1023C10.6585 11.9161 9.73914 12.73 8.81226 13.5438C8.39026 13.9131 7.80248 13.7473 7.68191 13.2273C7.62163 12.9485 7.72713 12.73 7.93059 12.5416C8.59372 11.9613 9.24932 11.3736 9.91246 10.7933C10.0029 10.718 10.0858 10.6351 10.1913 10.5446L10.1988 10.5296Z" fill="black"/>
<path d="M14.0194 13.7401C13.4994 13.7401 12.9795 13.7401 12.4595 13.7401C12.0375 13.7401 11.7437 13.4537 11.7437 13.0694C11.7437 12.6926 12.0451 12.4138 12.452 12.4138C13.507 12.4138 14.562 12.4138 15.617 12.4138C16.0239 12.4138 16.3253 12.7002 16.3253 13.077C16.3253 13.4537 16.0314 13.7401 15.6245 13.7476C15.0895 13.7476 14.5544 13.7476 14.0194 13.7476V13.7401Z" fill="black"/>
</svg>
