<svg width="24" height="24" viewBox="0 0 24 24" fill="none" xmlns="http://www.w3.org/2000/svg">
<path d="M12.1516 16.0458C10.9391 16.0458 6.55664 10.2389 6.55664 7.49674C6.55664 4.46299 9.06995 2 12.1516 2C15.2332 2 17.7465 4.46919 17.7465 7.49674C17.7465 10.2389 13.3577 16.0458 12.1516 16.0458ZM12.1516 3.14774C9.70775 3.14774 7.72489 5.102 7.72489 7.49674C7.72489 9.89148 11.2107 14.073 12.1642 14.8299C13.1935 14.0606 16.5846 9.68054 16.5846 7.49674C16.5846 5.09579 14.5954 3.14774 12.1579 3.14774H12.1516Z" fill="black"/>
<path d="M12.1526 10.2394C10.7254 10.2394 9.56348 9.09784 9.56348 7.69574C9.56348 6.29363 10.7254 5.1521 12.1526 5.1521C13.5797 5.1521 14.7416 6.29363 14.7416 7.69574C14.7416 9.09784 13.5797 10.2394 12.1526 10.2394ZM12.1526 6.29984C11.3695 6.29984 10.7317 6.92644 10.7317 7.69574C10.7317 8.46503 11.3695 9.09163 12.1526 9.09163C12.9356 9.09163 13.5734 8.46503 13.5734 7.69574C13.5734 6.92644 12.9356 6.29984 12.1526 6.29984Z" fill="black"/>
<path d="M17.4939 11.0413C17.3694 11.3737 17.2341 11.7121 17.0771 12.0505C20.747 12.8934 22.9932 14.5912 22.9932 16.2059C22.9932 18.4676 18.571 20.8956 11.9946 20.8956C5.41813 20.8956 1.00135 18.4736 1.00135 16.2118C1.00135 14.5675 3.31258 12.846 7.08525 12.0149C6.92828 11.6706 6.78755 11.3263 6.66847 10.9998C2.68471 11.9318 0 13.8907 0 16.2118C0 19.459 5.27199 21.9998 12 21.9998C18.728 21.9998 24 19.459 24 16.2118C24 13.9204 21.3911 11.9911 17.4993 11.0413H17.4939Z" fill="black"/>
</svg>
