<svg width="24" height="24" viewBox="0 0 24 24" fill="none" xmlns="http://www.w3.org/2000/svg">
<path d="M16.4298 5.51047C17.4388 5.51047 18.4358 5.7447 19.3427 6.20116C20.2436 6.65762 21.0304 7.31227 21.637 8.12308C22.2436 8.93389 22.646 9.87683 22.8202 10.8738C22.9943 11.8708 22.9343 12.8918 22.646 13.8648C22.3577 14.8318 21.8412 15.7207 21.1505 16.4594C20.4538 17.1922 19.6009 17.7567 18.652 18.1051C17.703 18.4534 16.682 18.5675 15.679 18.4534C14.676 18.3333 13.709 17.9849 12.8682 17.4264V17.4144H12.8502C11.691 16.6456 10.8081 15.5165 10.3337 14.2072C9.85919 12.8979 9.82315 11.4684 10.2256 10.1291C10.628 8.78975 11.4508 7.62458 12.5679 6.79575C13.685 5.96692 15.0424 5.51647 16.4418 5.51647L16.4298 5.51047ZM10.2195 16.3273C10.4898 16.7177 10.7961 17.078 11.1325 17.4084H6.15348C6.00934 17.4084 5.8712 17.4624 5.7691 17.5645C5.667 17.6666 5.61294 17.8048 5.61294 17.9489C5.61294 18.0931 5.667 18.2312 5.7691 18.3333C5.8712 18.4354 6.00934 18.4894 6.15348 18.4894H12.5259C13.673 19.1801 14.9883 19.5525 16.3277 19.5705C17.667 19.5885 18.9883 19.2522 20.1535 18.5915C21.3186 17.9309 22.2916 16.9759 22.9643 15.8168C23.637 14.6576 23.9973 13.3423 23.9973 12.003C23.9973 10.6636 23.643 9.34831 22.9643 8.18915C22.2916 7.02999 21.3186 6.07503 20.1535 5.41437C18.9943 4.75371 17.673 4.41137 16.3277 4.42939C14.9883 4.44741 13.673 4.81978 12.5259 5.51047C11.5589 6.05101 11.1325 6.59155 11.1325 6.59155C10.4117 7.29425 9.84117 8.13509 9.45078 9.06602C9.06039 9.99695 8.86219 10.994 8.86219 11.997C8.86219 13.1561 9.12646 14.2552 9.58892 15.2402H8.32165C7.61895 15.2402 7.65498 16.3213 8.32165 16.3213H10.2195V16.3273ZM13.4027 9.73269C12.9162 10.3873 12.646 11.1801 12.646 11.997C12.646 12.8138 12.9283 13.6306 13.4027 14.2612L14.5679 13.0961C14.3697 12.7657 14.2676 12.3813 14.2676 11.997C14.2676 11.5946 14.3757 11.2222 14.5679 10.8979L13.4027 9.73269ZM14.1655 8.96993L15.3307 10.1351C15.661 9.93689 16.0454 9.83479 16.4298 9.83479C16.8322 9.83479 17.2045 9.9429 17.5289 10.1351L18.694 8.96993C18.0394 8.48344 17.2466 8.21317 16.4298 8.21317C15.6129 8.21317 14.7961 8.49545 14.1655 8.96993ZM19.4628 9.73269L18.2976 10.8979C18.4958 11.2282 18.5979 11.6126 18.5979 11.997C18.5979 12.3813 18.4958 12.7657 18.2976 13.0961L19.4628 14.2612C19.9373 13.6306 20.2196 12.8438 20.2196 11.997C20.2196 11.1501 19.9373 10.3633 19.4688 9.73269H19.4628ZM18.7 15.036L17.5349 13.8708C17.2045 14.069 16.8202 14.1711 16.4358 14.1711C16.0334 14.1711 15.661 14.063 15.3367 13.8708L14.1715 15.036C14.8021 15.5105 15.5889 15.7928 16.4358 15.7928C17.2826 15.7928 18.0694 15.5105 18.7 15.036ZM11.5649 12.003C11.5649 11.3663 11.691 10.7297 11.9373 10.1411C12.1835 9.55251 12.5379 9.01197 12.9943 8.56152C13.4448 8.11107 13.9853 7.75071 14.5739 7.50446C15.1625 7.25822 15.7991 7.13209 16.4358 7.13209C17.0724 7.13209 17.709 7.25822 18.2976 7.50446C18.8862 7.75071 19.4268 8.10506 19.8772 8.56152C20.3277 9.01197 20.688 9.55251 20.9343 10.1411C21.1805 10.7297 21.3066 11.3663 21.3066 12.003C21.3066 13.2943 20.7961 14.5315 19.8832 15.4444C18.9703 16.3573 17.7331 16.8678 16.4418 16.8678C15.1505 16.8678 13.9132 16.3573 13.0003 15.4444C12.0874 14.5315 11.5769 13.2943 11.5769 12.003H11.5649ZM15.3487 12.003C15.3487 12.2912 15.4628 12.5675 15.667 12.7657C15.8712 12.9699 16.1475 13.084 16.4298 13.084C16.712 13.084 16.9943 12.9699 17.1925 12.7657C17.3967 12.5615 17.5108 12.2852 17.5108 12.003C17.5108 11.7207 17.3967 11.4384 17.1925 11.2402C16.9883 11.036 16.712 10.9219 16.4298 10.9219C16.1475 10.9219 15.8652 11.036 15.667 11.2402C15.4628 11.4444 15.3487 11.7207 15.3487 12.003Z" fill="black"/>
<path d="M2.4718 15.3843C2.23156 15.3843 2.02736 15.3363 1.90724 15.1141C1.73907 14.8138 1.93126 14.5555 2.13546 14.2792L2.54988 13.7147L0.808138 13.078C0.345675 12.9099 -0.0146852 12.7777 0.00333283 12.3813C0.0213508 11.9849 0.393723 11.8888 0.868198 11.7747L2.41174 11.3903L2.04537 10.2252C1.91324 9.80476 1.80513 9.46843 2.11144 9.2402C2.41775 9.01197 2.71805 9.21617 3.0724 9.4444L4.82015 10.6096L5.44477 9.12608C5.59492 8.77173 5.72105 8.48344 6.08141 8.47143C6.43577 8.47143 6.56189 8.78374 6.70604 9.13209L7.88922 12.1952C7.9673 12.3934 7.86519 12.6216 7.667 12.6997C7.46279 12.7777 7.24057 12.6756 7.16249 12.4774L6.0754 9.64861L5.49883 11.018C5.45078 11.1381 5.34267 11.3843 5.08441 11.4624C4.82616 11.5405 4.59793 11.3903 4.48982 11.3183L2.88021 10.2492L3.19252 11.2522C3.24658 11.4144 3.30664 11.6246 3.19252 11.8228C3.07841 12.027 2.8682 12.075 2.70604 12.1171L1.37871 12.4474L2.94027 13.018C3.0724 13.066 3.34868 13.1681 3.43276 13.4384C3.51685 13.7147 3.34267 13.9489 3.25859 14.063L2.89222 14.5615L4.96429 14.3633C5.1745 14.3393 5.3667 14.5015 5.39072 14.7177C5.40874 14.9339 5.25258 15.1201 5.03637 15.1441L2.74207 15.3603C2.64598 15.3603 2.55589 15.3723 2.4718 15.3723V15.3843ZM6.24958 13.9489C6.18952 13.9489 6.12345 13.9369 6.0694 13.9009L5.09042 13.3843C4.89823 13.2822 4.82616 13.048 4.92826 12.8558C5.03036 12.6636 5.26459 12.5915 5.45679 12.6937L6.43577 13.2102C6.62796 13.3123 6.70003 13.5465 6.59793 13.7387C6.52586 13.8708 6.39372 13.9489 6.24958 13.9489Z" fill="black"/>
</svg>
