<svg width="24" height="24" viewBox="0 0 24 24" fill="none" xmlns="http://www.w3.org/2000/svg">
<path d="M9.19975 5.06952C10.163 5.06952 11.1077 5.2999 11.9722 5.74788C12.8305 6.19586 13.5776 6.84222 14.1519 7.64218C14.7262 8.44214 15.109 9.37009 15.2757 10.3492C15.4424 11.3284 15.3868 12.3395 15.109 13.2931C14.8311 14.2466 14.3433 15.1234 13.6826 15.8466C13.0219 16.5697 12.2069 17.1265 11.3053 17.4657C10.4038 17.8048 9.43439 17.9264 8.47731 17.8048C7.52022 17.6833 6.60636 17.3441 5.80364 16.7937V16.7809H5.78512C4.67984 16.0193 3.84007 14.9122 3.38932 13.6195C2.93856 12.3267 2.90151 10.9188 3.28435 9.60048C3.66718 8.28215 4.45137 7.13021 5.51343 6.31105C6.57549 5.49189 7.86601 5.05032 9.19358 5.05032L9.19975 5.06952ZM3.29052 15.725C3.54986 16.1089 3.84007 16.4609 4.16116 16.7937C4.17351 16.8065 5.48873 17.8624 5.48873 17.8624C6.58166 18.5408 7.82896 18.912 9.10096 18.9248C10.373 18.9376 11.6326 18.6112 12.7441 17.9584C13.8555 17.3057 14.7755 16.3649 15.4177 15.2258C16.0599 14.0866 16.3995 12.7875 16.3995 11.4692C16.3995 10.1508 16.0599 8.85172 15.4177 7.71258C14.7755 6.57344 13.8555 5.62629 12.7441 4.97992C11.6326 4.32076 10.3791 3.98157 9.10096 4.00077C7.82896 4.01997 6.58166 4.38475 5.48873 5.06312C4.56869 5.59429 4.16116 6.13186 4.16116 6.13186C3.47576 6.82302 2.93239 7.65498 2.5619 8.57013C2.19142 9.48528 2 10.4708 2 11.4628C2 12.6083 2.24699 13.6899 2.69157 14.6626L3.29052 15.7314V15.725ZM6.31615 9.2293C5.85304 9.87566 5.59988 10.6564 5.59988 11.4628C5.59988 12.2691 5.86539 13.0755 6.31615 13.6963L7.4276 12.5443C7.24236 12.2179 7.14356 11.8404 7.14356 11.4628C7.14356 11.066 7.24853 10.6948 7.4276 10.3812L6.31615 9.2293ZM7.04477 8.47414L8.15622 9.62608C8.47113 9.43409 8.83544 9.33169 9.19975 9.33169C9.58259 9.33169 9.94072 9.44049 10.2433 9.62608L11.3547 8.47414C10.7311 7.99416 9.97777 7.73178 9.19975 7.73178C8.42174 7.73178 7.64372 8.00696 7.04477 8.47414ZM12.0834 9.2293L10.9719 10.3812C11.1571 10.7076 11.2559 11.0852 11.2559 11.4628C11.2559 11.8468 11.1571 12.2179 10.9719 12.5443L12.0834 13.6963C12.5341 13.0755 12.7996 12.3011 12.7996 11.4628C12.7996 10.6244 12.5341 9.85007 12.0834 9.2293ZM11.3547 14.4514L10.2433 13.2995C9.92837 13.4915 9.56406 13.5939 9.19975 13.5939C8.81692 13.5939 8.45878 13.4851 8.15622 13.2995L7.04477 14.4514C7.64372 14.9186 8.39086 15.1938 9.19975 15.1938C10.0086 15.1938 10.7558 14.9186 11.3547 14.4514ZM4.56869 11.4628C4.56869 10.8356 4.68601 10.2084 4.92065 9.62608C5.1553 9.04371 5.49491 8.51254 5.92714 8.07096C6.35937 7.62298 6.8657 7.271 7.4276 7.02781C7.9895 6.78463 8.58845 6.66303 9.19975 6.66303C9.81105 6.66303 10.41 6.78463 10.9719 7.02781C11.5338 7.271 12.0463 7.62298 12.4724 8.07096C12.9046 8.51894 13.2442 9.04371 13.4789 9.62608C13.7135 10.2084 13.8308 10.8292 13.8308 11.4628C13.8308 12.7363 13.343 13.9522 12.4724 14.8546C11.6017 15.757 10.4285 16.2625 9.19975 16.2625C7.97098 16.2625 6.79778 15.757 5.92714 14.8546C5.0565 13.9522 4.56869 12.7363 4.56869 11.4628ZM8.17475 11.4628C8.17475 11.7444 8.28589 12.0196 8.47731 12.2179C8.66873 12.4163 8.93424 12.5315 9.20593 12.5315C9.47762 12.5315 9.74313 12.4163 9.93455 12.2179C10.126 12.0196 10.2371 11.7444 10.2371 11.4628C10.2371 11.1812 10.126 10.906 9.93455 10.7076C9.74313 10.5092 9.47762 10.394 9.20593 10.394C8.93424 10.394 8.66873 10.5092 8.47731 10.7076C8.28589 10.906 8.17475 11.1812 8.17475 11.4628Z" fill="black"/>
<path d="M10.9287 20C10.2618 20 9.60111 19.9808 8.94659 19.968C8.29207 19.9552 7.64372 19.936 6.99537 19.936C6.7422 19.936 6.53226 19.7184 6.53226 19.456C6.53226 19.1936 6.7422 18.9761 6.99537 18.9761C7.64989 18.9761 8.30441 18.9889 8.96511 19.0081C11.33 19.0656 13.7814 19.1232 16.0537 18.4065C17.8567 17.8369 19.2214 16.7298 19.9994 15.1939C20.9626 13.2996 21.0738 11.0085 21.0738 9.44695V4.89679C21.0738 4.6344 21.2837 4.41682 21.5369 4.41682C21.7901 4.41682 22 4.6344 22 4.89679V9.44695C22 11.1109 21.8765 13.5619 20.8144 15.6418C19.9129 17.4017 18.3631 18.6753 16.3192 19.3216C14.5533 19.8784 12.7255 20 10.9225 20H10.9287Z" fill="black"/>
</svg>
