<svg width="24" height="24" viewBox="0 0 24 24" fill="none" xmlns="http://www.w3.org/2000/svg">
<path d="M13.7651 5.14165C14.8666 5.14165 15.9482 5.39304 16.9303 5.87003C17.9124 6.34702 18.7684 7.04316 19.4254 7.90046C20.0823 8.75775 20.5202 9.75041 20.7127 10.8075C20.9051 11.8582 20.8388 12.9411 20.5202 13.966C20.2017 14.9909 19.6443 15.9255 18.8945 16.7054C18.138 17.4854 17.209 18.0784 16.1739 18.4458C15.1387 18.8132 14.0305 18.9357 12.9423 18.8132C11.8474 18.6908 10.7989 18.3169 9.88321 17.7303V17.7174H9.86331C8.60252 16.9053 7.64035 15.7128 7.12276 14.3269C6.60518 12.9411 6.56536 11.4328 7.00332 10.0211C7.44127 8.6095 8.33709 7.3719 9.55143 6.49527C10.7658 5.61864 12.2455 5.14165 13.7651 5.14165ZM7.00332 16.5701C7.30192 16.9826 7.63371 17.3629 7.99867 17.711H2.59058C2.43132 17.711 2.28534 17.769 2.17253 17.8786C2.05972 17.9882 2 18.13 2 18.2847C2 18.4394 2.05972 18.5812 2.17253 18.6908C2.28534 18.8003 2.43132 18.8584 2.59058 18.8584H9.52488C10.7724 19.5867 12.1991 19.9799 13.6589 19.9993C15.1188 20.0186 16.5521 19.6576 17.8195 18.9615C19.0869 18.2653 20.142 17.2533 20.8786 16.0286C21.6151 14.8039 22 13.4116 22 12C22 10.5884 21.6151 9.19607 20.8786 7.97136C20.142 6.74666 19.0869 5.73466 17.8195 5.03852C16.5455 4.34237 15.1121 3.9814 13.6523 4.00074C12.1924 4.02008 10.7658 4.41327 9.51825 5.14165H3.7651C3.60584 5.14165 3.45985 5.19966 3.34705 5.30924C3.23424 5.41882 3.17452 5.56063 3.17452 5.71533C3.17452 5.87003 3.23424 6.01183 3.34705 6.12141C3.45985 6.23099 3.60584 6.289 3.7651 6.289H7.99867C7.21566 7.03027 6.5919 7.9198 6.16722 8.90601C5.74254 9.88577 5.52356 10.9429 5.52356 12.0064C5.52356 13.2312 5.80889 14.3978 6.31321 15.4356H4.93298C4.77372 15.4356 4.62774 15.4936 4.51493 15.6032C4.40212 15.7128 4.3424 15.8546 4.3424 16.0093C4.3424 16.164 4.40212 16.3058 4.51493 16.4154C4.62774 16.525 4.77372 16.583 4.93298 16.583H6.99668L7.00332 16.5701ZM10.4672 9.60215C9.9363 10.2919 9.64433 11.1363 9.64433 12C9.64433 12.8637 9.94957 13.7275 10.4672 14.3978L11.7346 13.1667C11.5222 12.8122 11.4094 12.4125 11.4094 12.0064C11.4094 11.581 11.5289 11.1878 11.7346 10.8462L10.4672 9.61505V9.60215ZM11.2966 8.79643L12.564 10.0276C12.929 9.82131 13.3404 9.71173 13.7585 9.71173C14.1964 9.71173 14.6012 9.82776 14.9529 10.0276L16.2203 8.79643C15.5103 8.28076 14.641 7.99715 13.7518 7.99715C12.8626 7.99715 11.9735 8.29365 11.2833 8.79643H11.2966ZM17.063 9.60215L15.7956 10.8333C16.008 11.1878 16.1208 11.5875 16.1208 11.9936C16.1208 12.3996 16.008 12.8057 15.7956 13.1538L17.063 14.385C17.5806 13.7146 17.8859 12.8895 17.8859 11.9871C17.8859 11.0847 17.5806 10.2596 17.0697 9.58926L17.063 9.60215ZM16.2269 15.2036L14.9595 13.9724C14.5946 14.1787 14.1831 14.2883 13.7651 14.2883C13.3271 14.2883 12.9224 14.1722 12.5707 13.9724L11.3033 15.2036C11.9934 15.7063 12.8427 16.0029 13.7717 16.0029C14.7007 16.0029 15.5501 15.7063 16.2402 15.2036M8.46981 12C8.46981 11.3232 8.60916 10.6528 8.87459 10.034C9.14001 9.40878 9.53152 8.84155 10.0226 8.36456C10.5136 7.88757 11.0975 7.50726 11.7412 7.24943C12.3849 6.9916 13.075 6.85624 13.7651 6.85624C14.4552 6.85624 15.152 6.9916 15.789 7.24943C16.4326 7.50726 17.0166 7.88757 17.5076 8.36456C17.9987 8.84155 18.3902 9.40878 18.6556 10.034C18.921 10.6593 19.0604 11.3296 19.0604 12C19.0604 13.3665 18.503 14.675 17.5076 15.6354C16.5123 16.6023 15.1652 17.1438 13.7651 17.1438C12.365 17.1438 11.0113 16.6023 10.0226 15.6354C9.02721 14.6686 8.46981 13.3601 8.46981 12ZM12.5906 12C12.5906 12.303 12.7167 12.593 12.9356 12.8057C13.1546 13.0184 13.4532 13.1409 13.7651 13.1409C14.077 13.1409 14.3756 13.0184 14.5946 12.8057C14.8135 12.593 14.9396 12.303 14.9396 12C14.9396 11.697 14.8135 11.407 14.5946 11.1943C14.3756 10.9816 14.077 10.8591 13.7651 10.8591C13.4532 10.8591 13.1546 10.9816 12.9356 11.1943C12.7167 11.407 12.5906 11.697 12.5906 12Z" fill="black"/>
</svg>
