<svg width="24" height="24" viewBox="0 0 24 24" fill="none" xmlns="http://www.w3.org/2000/svg">
<path d="M3.95803 15.3327C3.83326 15.3327 3.70274 15.301 3.57168 15.237C2.65327 14.7898 2.58669 12.3975 2.65222 11.8266C2.65746 11.7795 2.66323 11.7288 2.66899 11.6743C2.75077 10.9173 2.90279 9.50781 3.88516 9.50781C4.13993 9.50781 4.64002 9.6754 4.70817 10.3109C4.76217 10.8147 4.72495 13.679 4.71237 14.545C4.7087 14.7845 4.60752 15.006 4.43401 15.153C4.29247 15.2724 4.13049 15.3327 3.95803 15.3327ZM3.88306 10.0365C3.37301 10.0402 3.24982 11.1821 3.19058 11.7314C3.18482 11.7869 3.17905 11.8393 3.17328 11.8874C3.08993 12.6127 3.27603 14.5059 3.79972 14.7607C3.95698 14.8374 4.03823 14.7972 4.09694 14.7475C4.15356 14.6994 4.18658 14.6227 4.18816 14.5371C4.21437 12.7681 4.22747 10.7444 4.18711 10.368C4.15618 10.0793 3.96537 10.0402 3.88254 10.0365H3.88306Z" fill="black" stroke="black" stroke-width="0.5"/>
<path d="M19.3687 9.79746C19.3461 9.74883 19.3152 9.70495 19.2775 9.66688L19.2528 9.64203C19.2125 9.60133 19.1574 9.57807 19.1003 9.57807H10.963C10.1059 8.14008 8.54322 7.17578 6.76143 7.17578H4.69708C2.5777 7.17578 0.859863 8.90824 0.859863 11.0457V13.7958C0.859863 15.9295 2.58085 17.6657 4.69708 17.6657H6.76143C8.63128 17.6657 10.2595 16.6041 11.0846 15.0472H13.7696C13.8902 15.0472 14.0002 14.979 14.0553 14.8711L14.5197 13.9518C14.5444 13.9037 14.5937 13.873 14.6476 13.873H15.6997C15.7522 13.873 15.8004 13.9021 15.8255 13.9481L16.3293 14.8791C16.3854 14.9827 16.4934 15.0472 16.6103 15.0472H18.9016C18.9745 15.0472 19.0447 15.016 19.094 14.9615C19.776 14.2119 19.9925 13.3137 19.9925 12.4741C19.9925 11.2212 19.5102 10.0993 19.3687 9.79746ZM6.76143 17.137H4.69708C2.86759 17.137 1.38407 15.6414 1.38407 13.7963V11.0457C1.38407 9.20006 2.86759 7.70445 4.69708 7.70445H6.76143C8.41478 7.70445 9.85532 8.63439 10.5992 10.0026V14.8405C9.85532 16.2081 8.41426 17.137 6.76143 17.137ZM18.7826 14.5185H16.8132C16.7628 14.5185 16.7167 14.491 16.6926 14.4461L16.1894 13.5161C16.1317 13.4104 16.0216 13.3443 15.9016 13.3443H14.439C14.3158 13.3443 14.2031 13.4141 14.147 13.5246L13.6831 14.4429C13.6595 14.4894 13.6118 14.5185 13.5599 14.5185H11.1234V11.3745H16.6475V10.8458H11.1234V10.1078H11.2408V10.1067H18.9315C19.1899 10.702 20.057 12.998 18.7826 14.5185Z" fill="black" stroke="black" stroke-width="0.5"/>
<path d="M21.8977 6.75161C21.0705 5.29935 19.9544 4.5 18.7556 4.5C17.5567 4.5 16.4406 5.29935 15.6134 6.75161C15.3314 7.24645 15.0945 7.79732 14.9058 8.39049H15.4572C15.6255 7.8946 15.8299 7.43307 16.0679 7.01489C16.7976 5.73392 17.7522 5.02867 18.7556 5.02867C19.7589 5.02867 20.7135 5.73392 21.4432 7.01489C22.1996 8.34239 22.6158 10.1129 22.6158 11.9997C22.6158 13.8866 22.1996 15.6576 21.4432 16.9846C20.7135 18.2661 19.7589 18.9713 18.7556 18.9713C17.7522 18.9713 16.7976 18.2661 16.0679 16.9846C15.9426 16.7647 15.8268 16.5326 15.7204 16.2894H15.1511C15.2884 16.6277 15.4426 16.9486 15.6134 17.2484C16.4406 18.7001 17.5567 19.5 18.7556 19.5C19.9544 19.5 21.0705 18.7001 21.8977 17.2484C22.6987 15.8421 23.1401 13.978 23.1401 11.9997C23.1401 10.0214 22.6987 8.15788 21.8977 6.75161Z" fill="black" stroke="black" stroke-width="0.5"/>
</svg>
