<svg width="24" height="24" viewBox="0 0 24 24" fill="none" xmlns="http://www.w3.org/2000/svg">
<path d="M20.6931 20.6919C20.4895 20.895 20.2157 21 19.9489 21C19.6821 21 19.4083 20.895 19.2048 20.6919L15.6525 17.1494L14.6486 16.1552L13.2165 14.727C12.6899 15.021 12.0862 15.189 11.4403 15.189C9.41147 15.189 7.76872 13.5438 7.76872 11.5204C7.76872 11.2264 7.80383 10.9323 7.87403 10.6523L10.0573 12.5216C10.9489 12.8436 11.9318 12.5496 12.4653 11.8215C12.9357 11.1844 12.9848 10.3092 12.5846 9.5881L10.6611 7.94282C10.9138 7.88681 11.1736 7.85881 11.4403 7.85881C13.4692 7.85881 15.1119 9.49708 15.1119 11.5204C15.1119 12.1365 14.9645 12.7176 14.6907 13.2217L20.6931 19.2077C21.1002 19.6208 21.1002 20.2789 20.6931 20.6919Z" fill="black"/>
<path d="M19.7804 10.4492L19.7383 12.8226L18.2851 13.3267C18.1728 13.7258 18.0324 14.1179 17.8569 14.4889L16.7828 13.4177C17.0215 12.7946 17.1478 12.1155 17.1478 11.4084C17.1478 8.23687 14.5644 5.65344 11.3842 5.65344C8.20398 5.65344 5.6135 8.23687 5.6135 11.4084C5.6135 14.5799 8.19696 17.1634 11.3842 17.1634C12.1634 17.1634 12.9076 17.0093 13.5885 16.7293L14.6416 17.7795C14.1923 18.0105 13.7079 18.1995 13.2094 18.3326L12.5917 19.8098L10.2118 19.7958L9.68526 18.3606C9.03237 18.1995 8.40757 17.9545 7.83893 17.6254L7.86701 17.6534L6.36467 18.2695L4.68682 16.5823L5.32567 15.231C4.96061 14.6639 4.6798 14.0478 4.49025 13.3897L3.00195 12.7456L3.04407 10.3792L4.37091 9.91015C4.52535 9.18903 4.7851 8.50992 5.14314 7.88682L4.53939 6.45858L6.21022 4.7713L7.53705 5.3734C8.16186 4.97433 8.85687 4.66628 9.594 4.47725L10.2188 3L12.5987 3.014L13.1252 4.46324C13.8483 4.64527 14.5293 4.93932 15.147 5.31739L16.6002 4.72229L18.2781 6.40957L17.5971 7.84481C17.9552 8.46791 18.2219 9.14002 18.3764 9.84714L19.7804 10.4492Z" fill="black"/>
</svg>
