<svg width="24" height="24" viewBox="0 0 24 24" fill="none" xmlns="http://www.w3.org/2000/svg">
<path d="M16.1791 15.3233C16.1791 15.1423 16.1966 14.967 16.2375 14.7977H9.9176C9.67812 13.7463 8.73189 12.9578 7.60459 12.9578C6.30207 12.9578 5.23901 14.0208 5.23901 15.3233C5.23901 16.6259 6.30207 17.6948 7.60459 17.6948C8.69101 17.6948 9.60804 16.9646 9.8884 15.9658H16.2667C16.2083 15.7614 16.1791 15.5453 16.1791 15.3233ZM8.76694 15.96C8.53914 16.3689 8.10691 16.6434 7.60459 16.6434C6.88032 16.6434 6.29038 16.0535 6.29038 15.3233C6.29038 14.5932 6.88032 14.0091 7.60459 14.0091C8.1478 14.0091 8.60923 14.3304 8.81367 14.7977C8.88376 14.9554 8.92465 15.1364 8.92465 15.3233C8.92465 15.5511 8.86623 15.7673 8.76694 15.96Z" fill="black"/>
<path d="M23.9705 12.3736C23.9179 12.2101 23.8654 12.0757 23.8128 11.9706C22.8783 10.0314 20.2323 9.58167 18.5384 9.50574C18.1997 8.82819 17.7207 8.23825 17.1366 7.77682C16.4065 7.21025 15.5304 6.85979 14.6017 6.7605H3.8485C3.52141 6.7605 3.2644 7.02334 3.2644 7.35627C3.2644 7.68921 3.52141 7.95205 3.8485 7.95205H14.514C15.0047 8.00462 15.7348 8.19153 16.424 8.72889C17.0607 9.23121 17.4111 9.82699 17.5864 10.2359C17.709 10.5104 17.9602 10.6856 18.2289 10.6856C19.3445 10.7148 22.0196 10.9484 22.7731 12.5138C22.7965 12.5605 22.814 12.6014 22.8315 12.6482V14.6574C22.8315 14.7217 22.779 14.7743 22.7147 14.7743H20.8515C20.6061 13.7346 19.6657 12.9577 18.5443 12.9577C17.4228 12.9577 16.4766 13.7463 16.2371 14.7976C16.1962 14.967 16.1787 15.1422 16.1787 15.3233C16.1787 15.5453 16.2079 15.7614 16.2663 15.9658C16.5467 16.9646 17.4637 17.6947 18.5443 17.6947C19.6249 17.6947 20.5477 16.9646 20.8281 15.9658H22.7147C23.4215 15.9658 23.9997 15.3759 23.9997 14.6574V12.5547L23.9705 12.3736ZM19.8351 15.5803C19.7183 16.1878 19.1868 16.6434 18.5443 16.6434C17.9018 16.6434 17.3819 16.1936 17.2593 15.5861C17.2359 15.4985 17.2301 15.4109 17.2301 15.3233C17.2301 15.2649 17.2359 15.2065 17.2418 15.1481C17.3294 14.5056 17.8784 14.0091 18.5443 14.0091C19.2102 14.0091 19.765 14.5056 19.8527 15.1481C19.8585 15.2065 19.8643 15.2649 19.8643 15.3233C19.8643 15.4109 19.8585 15.4985 19.8351 15.5803Z" fill="black"/>
<path d="M10.21 11.7837C9.91796 11.7837 9.68433 11.5501 9.68433 11.258C9.68433 10.966 9.91796 10.7324 10.21 10.7265L14.8185 10.7031C15.204 10.7031 15.5545 10.5338 15.718 10.2768L15.8231 10.1074C15.975 9.86205 16.3021 9.78612 16.5474 9.94383C16.7927 10.0957 16.8687 10.4228 16.711 10.6681L16.6058 10.8375C16.2495 11.3982 15.5661 11.7545 14.8243 11.7545L10.2159 11.7779L10.21 11.7837Z" fill="black"/>
<path d="M6.67619 10.5635H0.584093C0.262842 10.5635 0 10.3006 0 9.97936C0 9.65811 0.262842 9.39526 0.584093 9.39526H6.67619C6.99744 9.39526 7.26028 9.65811 7.26028 9.97936C7.26028 10.3006 6.99744 10.5635 6.67619 10.5635Z" fill="black"/>
<path d="M10.6015 4.14402H4.76061C4.43936 4.14402 4.17651 3.88117 4.17651 3.55992C4.17651 3.23867 4.43936 2.97583 4.76061 2.97583H10.6015C10.9228 2.97583 11.1856 3.23867 11.1856 3.55992C11.1856 3.88117 10.9228 4.14402 10.6015 4.14402Z" fill="black"/>
<path d="M3.41115 15.7092H2.83873C2.51748 15.7092 2.25464 15.4464 2.25464 15.1251C2.25464 14.8039 2.51748 14.541 2.83873 14.541H3.41115C3.7324 14.541 3.99524 14.8039 3.99524 15.1251C3.99524 15.4464 3.7324 15.7092 3.41115 15.7092Z" fill="black"/>
<path d="M3.17175 4.14939H2.32482C2.00356 4.14939 1.74072 3.88655 1.74072 3.56529C1.74072 3.24404 2.00356 2.9812 2.32482 2.9812H3.17175C3.49301 2.9812 3.75585 3.24404 3.75585 3.56529C3.75585 3.88655 3.49301 4.14939 3.17175 4.14939Z" fill="black"/>
<path d="M17.0444 21.0185H11.2035C10.8822 21.0185 10.6194 20.7557 10.6194 20.4344C10.6194 20.1132 10.8822 19.8503 11.2035 19.8503H17.0444C17.3657 19.8503 17.6285 20.1132 17.6285 20.4344C17.6285 20.7557 17.3657 21.0185 17.0444 21.0185Z" fill="black"/>
<path d="M9.61365 21.0241H8.76671C8.44546 21.0241 8.18262 20.7613 8.18262 20.4401C8.18262 20.1188 8.44546 19.856 8.76671 19.856H9.61365C9.9349 19.856 10.1977 20.1188 10.1977 20.4401C10.1977 20.7613 9.9349 21.0241 9.61365 21.0241Z" fill="black"/>
</svg>
