<svg width="24" height="24" viewBox="0 0 24 24" fill="none" xmlns="http://www.w3.org/2000/svg">
<path d="M12.0506 19.775C11.8219 19.775 11.6303 19.6977 11.4756 19.543C11.3209 19.3883 11.2433 19.1963 11.2426 18.967V17.121L8.45259 14.331C8.30726 14.1863 8.19126 14.0137 8.10459 13.813C8.01792 13.6123 7.97426 13.4017 7.97359 13.181V9.391C7.97359 9.10233 8.03026 8.832 8.14359 8.58C8.25559 8.328 8.44192 8.136 8.70259 8.004L9.58859 8.891H9.35859C9.25592 8.891 9.16592 8.93567 9.08859 9.025C9.01192 9.115 8.97359 9.237 8.97359 9.391V13.425L12.2436 16.695V18.775H13.7036V16.695L14.8406 15.558L3.15059 3.868C3.05725 3.774 3.00725 3.659 3.00059 3.523C2.99392 3.387 3.04392 3.26567 3.15059 3.159C3.25726 3.053 3.37525 3 3.50459 3C3.63392 3 3.75159 3.05333 3.85759 3.16L21.5506 20.852C21.6439 20.9453 21.6939 21.06 21.7006 21.196C21.7073 21.332 21.6573 21.4533 21.5506 21.56C21.4439 21.6667 21.3259 21.72 21.1966 21.72C21.0673 21.72 20.9493 21.6667 20.8426 21.56L15.5546 16.271L14.7046 17.121V18.967C14.7046 19.1963 14.6273 19.3883 14.4726 19.543C14.3179 19.6977 14.1259 19.775 13.8966 19.775H12.0506ZM17.5466 14.037L16.9736 13.463V9.391C16.9736 9.237 16.9096 9.09567 16.7816 8.967C16.6536 8.83833 16.5126 8.77433 16.3586 8.775H12.2856L10.3196 6.809V4.275C10.3196 4.133 10.3676 4.01433 10.4636 3.919C10.5596 3.823 10.6786 3.775 10.8206 3.775C10.9626 3.775 11.0813 3.823 11.1766 3.919C11.2719 4.015 11.3196 4.13367 11.3196 4.275V7.775H14.6276V4.275C14.6276 4.133 14.6756 4.01433 14.7716 3.919C14.8676 3.82367 14.9866 3.77567 15.1286 3.775C15.2706 3.77433 15.3893 3.82233 15.4846 3.919C15.5799 4.01567 15.6276 4.13433 15.6276 4.275V8.275L15.1276 7.775H16.3576C16.8023 7.775 17.1829 7.93333 17.4996 8.25C17.8163 8.56667 17.9743 8.94667 17.9736 9.39V13.092C17.9736 13.26 17.9419 13.42 17.8786 13.572C17.8153 13.724 17.7256 13.8577 17.6096 13.973L17.5466 14.037Z" fill="black"/>
</svg>
