<svg width="22" height="18" viewBox="0 0 22 18" fill="none" xmlns="http://www.w3.org/2000/svg">
<path d="M21.2179 9.41226L20.543 9.93651C20.1723 10.2178 19.7879 10.1539 19.4792 9.76112L15.8019 5.14018C15.623 5.2348 15.4673 5.21576 15.2793 5.15999L14.8692 5.03758L14.5659 5.27326L14.5664 5.47126C14.5737 5.67746 14.4959 5.82686 14.2781 5.99609L13.9198 6.27107C13.7017 6.44403 13.4349 6.429 13.2613 6.22892L12.0809 4.86874C11.9073 4.66849 11.9432 4.42166 12.1615 4.24872L12.5202 3.97001C12.7378 3.80076 12.9125 3.75059 13.1207 3.80098L13.3294 3.84371L13.6198 3.61824L13.545 3.17356C13.5114 2.95364 13.5871 2.78537 13.8557 2.58003L14.9101 1.76404C16.4597 0.566983 18.2725 0.785863 19.3985 2.09584C19.5546 2.27554 19.5484 2.49925 19.423 2.65135C19.3194 2.78331 19.1196 2.84951 18.864 2.76092C18.2725 2.55735 17.6624 2.54221 17.0311 2.86525L17.2224 3.48952C17.2945 3.72074 17.2688 3.90128 17.1587 4.05863L21.243 8.39088C21.5858 8.75671 21.5938 9.12017 21.2179 9.41226ZM18.7627 2.18298C17.77 1.32309 16.4296 1.31492 15.379 2.13127L14.2311 3.01651C14.1285 3.09619 14.1098 3.16525 14.1263 3.27903L14.2167 3.88586L13.5292 4.42018L13.1493 4.34919C13.0373 4.32707 13.0015 4.33092 12.8993 4.40686L12.6299 4.61966L13.6254 5.77111L13.8987 5.55887C13.997 5.48254 14.0081 5.4499 14.0068 5.34138L14.0077 4.97158L14.6908 4.4406L15.3279 4.62261C15.439 4.65594 15.4976 4.66168 15.6044 4.57883L16.553 3.83861C16.6555 3.75893 16.6724 3.70819 16.6332 3.58482L16.335 2.68105C17.033 2.16283 17.9125 1.9239 18.7048 2.25213C18.7388 2.26659 18.763 2.26143 18.7762 2.24783C18.7897 2.23049 18.7915 2.21183 18.7627 2.18298ZM20.7359 9.0958C20.9537 8.92657 20.8946 8.80484 20.7732 8.677L16.7611 4.41178L16.2269 4.8303L19.8806 9.37101C19.9895 9.50875 20.1382 9.56067 20.3173 9.42497L20.7359 9.0958Z" fill="black"/>
<path d="M17.9216 15.5879L17.7486 15.5516C17.826 14.2679 17.521 13.2836 16.8427 12.6214C16.2191 12.0136 15.4179 11.8186 14.8079 11.7732V11.1518C14.8079 11.0837 14.7532 11.0293 14.6849 11.0293H14.2252V9.64133C14.2252 8.85209 13.5833 8.21253 12.7912 8.21253H1.93397C1.14187 8.21253 0.5 8.85209 0.5 9.64133V15.0164C0.5 15.8056 1.14187 16.4452 1.93397 16.4452H12.7912C13.5833 16.4452 14.2252 15.8056 14.2252 15.0164V13.6284H14.6849C14.7532 13.6284 14.8079 13.5739 14.8079 13.5059V12.6804C15.2494 12.7257 15.8003 12.8709 16.21 13.2746C16.6697 13.7236 16.8837 14.4267 16.8473 15.3611L16.6106 15.3112C16.4785 15.284 16.3465 15.3702 16.3192 15.5017L16.1189 16.4452C16.0871 16.5812 16.1735 16.7128 16.3101 16.74L17.6212 17.0167C17.7532 17.0439 17.8852 16.9577 17.9125 16.8262L18.1128 15.8827C18.1447 15.7512 18.0582 15.6196 17.9216 15.5879ZM13.3147 15.0164C13.3147 15.3021 13.078 15.538 12.7912 15.538H1.93397C1.64718 15.538 1.41046 15.3021 1.41046 15.0164V9.64133C1.41046 9.35557 1.64718 9.1197 1.93397 9.1197H12.7912C13.078 9.1197 13.3147 9.35557 13.3147 9.64133V15.0164Z" fill="black"/>
<path d="M5.82872 13.7628C5.48133 13.9579 5.05182 14.0586 4.54021 14.0586C3.97174 14.0586 3.52329 13.9013 3.19484 13.5866C2.86639 13.2719 2.70217 12.8377 2.70217 12.2902C2.70217 11.7426 2.87903 11.2832 3.23905 10.9371C3.59908 10.5909 4.0728 10.4147 4.67285 10.4147C5.04551 10.4147 5.38027 10.465 5.6645 10.572V11.3147C5.3929 11.1573 5.05814 11.0755 4.66021 11.0755C4.33177 11.0755 4.06017 11.1825 3.85173 11.3965C3.6433 11.6105 3.54223 11.8937 3.54223 12.2524C3.54223 12.6111 3.63698 12.8943 3.82015 13.0957C4.00332 13.2971 4.25597 13.3915 4.5781 13.3915C4.76759 13.3915 4.91918 13.3663 5.03287 13.3097V12.6237H4.32545V11.9881H5.82872V13.7628Z" fill="black"/>
<path d="M7.31938 12.7811V13.9958H6.52353V10.4714H7.77415C8.66474 10.4714 9.1132 10.849 9.1132 11.5979C9.1132 11.9504 8.98687 12.2399 8.7279 12.4601C8.46894 12.6804 8.12786 12.7874 7.70467 12.7874H7.32569L7.31938 12.7811ZM7.31938 11.0819V12.1832H7.63519C8.05838 12.1832 8.27313 12.0007 8.27313 11.6294C8.27313 11.2581 8.05838 11.0882 7.63519 11.0882H7.31938V11.0819Z" fill="black"/>
<path d="M9.46051 13.8635V13.0768C9.60579 13.1964 9.75738 13.2845 9.92791 13.3475C10.0985 13.4104 10.2627 13.4356 10.4332 13.4356C10.5343 13.4356 10.6227 13.4293 10.6985 13.4104C10.7743 13.3915 10.8375 13.3663 10.888 13.3349C10.9385 13.3034 10.9764 13.2657 11.0017 13.2216C11.0269 13.1775 11.0396 13.1335 11.0396 13.0831C11.0396 13.0139 11.0206 12.951 10.9827 12.9006C10.9448 12.8503 10.888 12.7936 10.8185 12.7496C10.749 12.7055 10.6669 12.6615 10.5785 12.6174C10.4901 12.5734 10.3827 12.5293 10.2753 12.4853C9.99739 12.372 9.79527 12.2335 9.65631 12.0636C9.51736 11.8937 9.45419 11.6986 9.45419 11.4657C9.45419 11.2832 9.49209 11.1259 9.56789 10.9937C9.64368 10.8615 9.74474 10.7545 9.87107 10.6664C9.99739 10.5783 10.149 10.5217 10.3132 10.4776C10.4774 10.4336 10.6606 10.4147 10.8438 10.4147C11.0269 10.4147 11.1912 10.4273 11.3364 10.4462C11.4817 10.465 11.608 10.5028 11.7281 10.5469V11.2832C11.6712 11.2454 11.6017 11.2077 11.5322 11.1762C11.4628 11.1447 11.3933 11.1196 11.3175 11.1007C11.2417 11.0818 11.1722 11.0629 11.0964 11.0566C11.0206 11.0503 10.9511 11.044 10.888 11.044C10.7996 11.044 10.7174 11.0503 10.6417 11.0692C10.5659 11.0881 10.5027 11.1133 10.4522 11.1447C10.4016 11.1762 10.3637 11.214 10.3322 11.258C10.3006 11.3021 10.2879 11.3524 10.2879 11.4028C10.2879 11.4594 10.3006 11.5161 10.3322 11.5601C10.3637 11.6042 10.408 11.6482 10.4648 11.6923C10.5216 11.7363 10.5911 11.7741 10.6732 11.8181C10.7553 11.8622 10.8501 11.9 10.9511 11.944C11.0901 12.0007 11.2164 12.0636 11.3301 12.1328C11.4438 12.2021 11.5386 12.2713 11.6207 12.3594C11.7028 12.4475 11.7659 12.5356 11.8038 12.6489C11.8417 12.7622 11.867 12.8818 11.867 13.0265C11.867 13.2216 11.8291 13.3852 11.7533 13.5237C11.6775 13.6621 11.5765 13.7628 11.4501 13.8509C11.3238 13.9391 11.1722 13.9957 11.0017 14.0272C10.8311 14.0586 10.6543 14.0838 10.4648 14.0838C10.2753 14.0838 10.0858 14.0649 9.90897 14.0335C9.73211 14.002 9.58052 13.9516 9.45419 13.8887L9.46051 13.8635Z" fill="black"/>
<path d="M9.64934 4.30264L6.62479 1.60601L8.17663 4.80845L4.90434 3.95855L9.11944 6.6975V5.57577C9.8317 5.77534 11.2528 6.17793 11.2528 6.17793L10.0141 2.97789L9.64934 4.30264Z" fill="black"/>
</svg>
