<svg width="24" height="24" viewBox="0 0 24 24" fill="none" xmlns="http://www.w3.org/2000/svg">
<path d="M1.96191 9.5C2.10391 9.5 2.22258 9.548 2.31791 9.644C2.41325 9.74 2.46091 9.85867 2.46091 10V14C2.46091 14.142 2.41325 14.2607 2.31791 14.356C2.22191 14.452 2.10291 14.5 1.96091 14.5C1.81891 14.5 1.70025 14.452 1.60491 14.356C1.50958 14.26 1.46191 14.1413 1.46191 14V10C1.46191 9.858 1.50991 9.73933 1.60591 9.644C1.70191 9.54867 1.82058 9.50067 1.96191 9.5ZM4.73191 7.5C4.87325 7.5 4.99191 7.548 5.08791 7.644C5.18391 7.74 5.23125 7.85867 5.22991 8V16C5.22991 16.142 5.18191 16.2607 5.08591 16.356C4.98991 16.452 4.87091 16.5 4.72891 16.5C4.58691 16.5 4.46825 16.452 4.37291 16.356C4.27758 16.26 4.23025 16.1413 4.23091 16V8C4.23091 7.858 4.27891 7.73933 4.37491 7.644C4.47091 7.54867 4.58925 7.50067 4.72991 7.5M22.0379 9.5C22.1799 9.5 22.2986 9.548 22.3939 9.644C22.4892 9.74 22.5372 9.85867 22.5379 10V14C22.5379 14.142 22.4896 14.2607 22.3929 14.356C22.2962 14.4513 22.1776 14.4993 22.0369 14.5C21.8962 14.5007 21.7776 14.4527 21.6809 14.356C21.5842 14.2593 21.5366 14.1407 21.5379 14V10C21.5379 9.858 21.5856 9.73933 21.6809 9.644C21.7769 9.548 21.8959 9.5 22.0379 9.5ZM19.2689 7.5C19.4109 7.5 19.5296 7.548 19.6249 7.644C19.7202 7.74 19.7679 7.85867 19.7679 8V16C19.7679 16.142 19.7199 16.2607 19.6239 16.356C19.5279 16.4513 19.4092 16.4993 19.2679 16.5C19.1266 16.5007 19.0079 16.4527 18.9119 16.356C18.8159 16.2593 18.7679 16.1407 18.7679 16V8C18.7679 7.858 18.8159 7.73933 18.9119 7.644C19.0079 7.548 19.1269 7.5 19.2689 7.5ZM8.61591 20C8.17125 20 7.79091 19.8417 7.47491 19.525C7.15891 19.2083 7.00058 18.8287 6.99991 18.386V5.615C6.99991 5.171 7.15825 4.791 7.47491 4.475C7.79158 4.159 8.17158 4.00067 8.61491 4H15.3849C15.8289 4 16.2089 4.15833 16.5249 4.475C16.8409 4.79167 16.9992 5.17167 16.9999 5.615V18.385C16.9999 18.829 16.8416 19.209 16.5249 19.525C16.2082 19.841 15.8282 19.9993 15.3849 20H8.61591ZM8.61591 19H15.3849C15.5642 19 15.7116 18.9423 15.8269 18.827C15.9422 18.7117 15.9999 18.5643 15.9999 18.385V5.615C15.9999 5.43567 15.9422 5.28833 15.8269 5.173C15.7116 5.05767 15.5642 5 15.3849 5H8.61491C8.43558 5 8.28825 5.05767 8.17291 5.173C8.05758 5.28833 7.99991 5.436 7.99991 5.616V18.385C7.99991 18.5643 8.05758 18.7117 8.17291 18.827C8.28825 18.9423 8.43591 19 8.61591 19Z" fill="black"/>
<path d="M4.73191 7.5C4.87325 7.5 4.99191 7.548 5.08791 7.644C5.18391 7.74 5.23125 7.85867 5.22991 8V16C5.22991 16.142 5.18191 16.2607 5.08591 16.356C4.98991 16.452 4.87091 16.5 4.72891 16.5C4.58691 16.5 4.46825 16.452 4.37291 16.356C4.27758 16.26 4.23025 16.1413 4.23091 16V8C4.23091 7.858 4.27891 7.73933 4.37491 7.644C4.47091 7.54867 4.58925 7.50067 4.72991 7.5M7.99991 19V5M1.96191 9.5C2.10391 9.5 2.22258 9.548 2.31791 9.644C2.41325 9.74 2.46091 9.85867 2.46091 10V14C2.46091 14.142 2.41325 14.2607 2.31791 14.356C2.22191 14.452 2.10291 14.5 1.96091 14.5C1.81891 14.5 1.70025 14.452 1.60491 14.356C1.50958 14.26 1.46191 14.1413 1.46191 14V10C1.46191 9.858 1.50991 9.73933 1.60591 9.644C1.70191 9.54867 1.82058 9.50067 1.96191 9.5ZM22.0379 9.5C22.1799 9.5 22.2986 9.548 22.3939 9.644C22.4892 9.74 22.5372 9.85867 22.5379 10V14C22.5379 14.142 22.4896 14.2607 22.3929 14.356C22.2962 14.4513 22.1776 14.4993 22.0369 14.5C21.8962 14.5007 21.7776 14.4527 21.6809 14.356C21.5842 14.2593 21.5366 14.1407 21.5379 14V10C21.5379 9.858 21.5856 9.73933 21.6809 9.644C21.7769 9.548 21.8959 9.5 22.0379 9.5ZM19.2689 7.5C19.4109 7.5 19.5296 7.548 19.6249 7.644C19.7202 7.74 19.7679 7.85867 19.7679 8V16C19.7679 16.142 19.7199 16.2607 19.6239 16.356C19.5279 16.4513 19.4092 16.4993 19.2679 16.5C19.1266 16.5007 19.0079 16.4527 18.9119 16.356C18.8159 16.2593 18.7679 16.1407 18.7679 16V8C18.7679 7.858 18.8159 7.73933 18.9119 7.644C19.0079 7.548 19.1269 7.5 19.2689 7.5ZM8.61591 20C8.17125 20 7.79091 19.8417 7.47491 19.525C7.15891 19.2083 7.00058 18.8287 6.99991 18.386V5.615C6.99991 5.171 7.15825 4.791 7.47491 4.475C7.79158 4.159 8.17158 4.00067 8.61491 4H15.3849C15.8289 4 16.2089 4.15833 16.5249 4.475C16.8409 4.79167 16.9992 5.17167 16.9999 5.615V18.385C16.9999 18.829 16.8416 19.209 16.5249 19.525C16.2082 19.841 15.8282 19.9993 15.3849 20H8.61591ZM8.61591 19H15.3849C15.5642 19 15.7116 18.9423 15.8269 18.827C15.9422 18.7117 15.9999 18.5643 15.9999 18.385V5.615C15.9999 5.43567 15.9422 5.28833 15.8269 5.173C15.7116 5.05767 15.5642 5 15.3849 5H8.61491C8.43558 5 8.28825 5.05767 8.17291 5.173C8.05758 5.28833 7.99991 5.436 7.99991 5.616V18.385C7.99991 18.5643 8.05758 18.7117 8.17291 18.827C8.28825 18.9423 8.43591 19 8.61591 19Z" stroke="black" stroke-width="0.2"/>
</svg>
