<svg width="24" height="24" viewBox="0 0 24 24" fill="none" xmlns="http://www.w3.org/2000/svg">
<g clip-path="url(#clip0_1_2938)">
<path d="M12.3046 4C11.1372 4.00285 9.9967 4.3512 9.02693 5.00115C8.05716 5.6511 7.30147 6.57356 6.8551 7.65229C6.40873 8.73101 6.29166 9.91772 6.51863 11.0629C6.7456 12.208 7.30646 13.2604 8.13053 14.0873L12.3046 18.2613L16.4786 14.0873C17.3027 13.2604 17.8636 12.208 18.0905 11.0629C18.3175 9.91772 18.2004 8.73101 17.7541 7.65229C17.3077 6.57356 16.552 5.6511 15.5822 5.00115C14.6125 4.3512 13.472 4.00285 12.3046 4ZM15.4351 9.91324C15.4351 10.5324 15.2515 11.1377 14.9075 11.6525C14.5635 12.1673 14.0746 12.5685 13.5026 12.8055C12.9306 13.0424 12.3011 13.1044 11.6938 12.9836C11.0866 12.8628 10.5288 12.5647 10.091 12.1269C9.65315 11.6891 9.35499 11.1312 9.2342 10.524C9.11341 9.91671 9.1754 9.28727 9.41234 8.71524C9.64929 8.1432 10.0505 7.65428 10.5654 7.31029C11.0802 6.9663 11.6854 6.7827 12.3046 6.7827C13.1349 6.7827 13.9311 7.11253 14.5182 7.69962C15.1053 8.28671 15.4351 9.08297 15.4351 9.91324Z" stroke="#787680" stroke-width="1.3" stroke-linecap="round" stroke-linejoin="round"/>
<path d="M9.1671 15.1301H7.08703L5 19.9998H19.6092L17.5222 15.1301H15.4421" stroke="#787680" stroke-width="1.3" stroke-linecap="round" stroke-linejoin="round"/>
</g>
<defs>
<clipPath id="clip0_1_2938">
<rect width="24" height="24" fill="white"/>
</clipPath>
</defs>
</svg>
