<svg width="12" height="12" viewBox="0 0 12 12" fill="none" xmlns="http://www.w3.org/2000/svg">
<path d="M8.12669 4.31317H8.00559C7.20993 4.31317 6.56262 4.96048 6.56262 5.75614V6.2451C6.56262 7.04076 7.20993 7.68807 8.00559 7.68807H8.12669C8.71165 7.68807 9.18756 7.21216 9.18756 6.6272V5.374C9.18756 4.78908 8.71165 4.31317 8.12669 4.31317ZM8.43758 6.62722C8.43758 6.79864 8.29813 6.93811 8.12669 6.93811H8.00559C7.62347 6.93811 7.3126 6.62722 7.3126 6.24513V5.75616C7.3126 5.37404 7.6235 5.06318 8.00559 5.06318H8.12669C8.29811 5.06318 8.43758 5.20263 8.43758 5.37407V6.62722Z" fill="#34C759"/>
<path d="M10.8681 4.17151C10.7965 3.41063 10.1544 2.8132 9.37506 2.8132H7.84676C6.66017 2.8132 5.57511 3.46801 5.01714 4.50066H4.35224C3.73104 1.46799 1.62561 1.1083 0.589061 3.18128C-0.670441 5.70019 0.185055 10.1255 2.25023 10.1255C3.43492 10.1255 4.10983 8.68413 4.35224 7.50059H5.01712C5.57511 8.53325 6.66014 9.18805 7.84673 9.18805H9.37503C10.1543 9.18805 10.7965 8.59062 10.8681 7.82974C11.5178 7.66519 12 7.07573 12 6.37562V5.62564C12 4.92553 11.5178 4.33606 10.8681 4.17151ZM4.87516 6.75061H2.62522V5.25064H4.87516V6.75061ZM2.25023 9.37555C1.54077 9.37555 0.75026 7.98951 0.75026 6.00063C0.75026 4.01174 1.54077 2.62571 2.25023 2.62571C2.79392 2.62571 3.32542 3.39188 3.58447 4.50066H2.62522V4.31317C2.62522 4.10605 2.45734 3.93817 2.25023 3.93817C2.04311 3.93817 1.87523 4.10605 1.87523 4.31317V7.68809C1.87523 7.8952 2.04311 8.06308 2.25023 8.06308C2.45734 8.06308 2.62522 7.8952 2.62522 7.68809V7.50059H3.58447C3.32542 8.60937 2.79392 9.37555 2.25023 9.37555ZM10.125 7.68809C10.125 8.10163 9.7886 8.43807 9.37506 8.43807H7.84676C6.89869 8.43807 6.03503 7.89309 5.62515 7.04308V4.9582C6.03503 4.10816 6.89869 3.56321 7.84676 3.56321H9.37506C9.7886 3.56321 10.125 3.89964 10.125 4.31319V7.68809ZM11.25 6.37562C11.25 6.65264 11.0991 6.89507 10.875 7.02494V4.97631C11.0991 5.10618 11.25 5.34861 11.25 5.62564V6.37562Z" fill="#34C759"/>
</svg>
