<svg width="20" height="20" viewBox="0 0 20 20" fill="none" xmlns="http://www.w3.org/2000/svg">
<path d="M7.46334 16.3108H12.8367V8.01167C12.8367 7.56986 12.6612 7.14615 12.3488 6.83374C12.0364 6.52134 11.6126 6.34583 11.1708 6.34583H9.47501M4.61501 16.3108H4.44501C4.22618 16.3108 4.00949 16.2677 3.80733 16.1839C3.60517 16.1002 3.42149 15.9774 3.26679 15.8226C3.11209 15.6679 2.98941 15.4841 2.90574 15.2819C2.82207 15.0797 2.77907 14.863 2.77918 14.6442V11.3275" stroke="#E5484D" stroke-width="1.5" stroke-linecap="round" stroke-linejoin="round"/>
<path d="M12.9183 9.21584H15.04C15.5425 9.21584 16.0025 9.49834 16.2292 9.94667L18.2242 13.8933C18.3524 14.1473 18.4134 14.4298 18.4015 14.714C18.3896 14.9983 18.305 15.2747 18.156 15.517C18.0069 15.7593 17.7983 15.9594 17.55 16.0982C17.3017 16.237 17.022 16.3099 16.7375 16.31H16.5167M12.1658 16.31H14.2092" stroke="#E5484D" stroke-width="1.5"/>
<path d="M5.97168 17.6692C6.66204 17.6692 7.22168 17.1095 7.22168 16.4192C7.22168 15.7288 6.66204 15.1692 5.97168 15.1692C5.28132 15.1692 4.72168 15.7288 4.72168 16.4192C4.72168 17.1095 5.28132 17.6692 5.97168 17.6692Z" stroke="#E5484D" stroke-width="1.5" stroke-linecap="round" stroke-linejoin="round"/>
<path d="M15.1892 17.6692C15.8795 17.6692 16.4392 17.1095 16.4392 16.4192C16.4392 15.7288 15.8795 15.1692 15.1892 15.1692C14.4988 15.1692 13.9392 15.7288 13.9392 16.4192C13.9392 17.1095 14.4988 17.6692 15.1892 17.6692Z" stroke="#E5484D" stroke-width="1.5" stroke-linecap="round" stroke-linejoin="round"/>
<path d="M6.24332 4.61333V3.75833C6.24332 3.27741 6.05227 2.81618 5.71221 2.47611C5.37214 2.13605 4.91091 1.945 4.42999 1.945C4.19196 1.94401 3.95608 1.98992 3.7358 2.08009C3.51552 2.17027 3.31516 2.30295 3.14615 2.47056C2.97715 2.63817 2.84282 2.83743 2.75082 3.05695C2.65882 3.27648 2.61097 3.51198 2.60999 3.75V4.61333" stroke="#E5484D" stroke-width="1.5" stroke-linecap="round" stroke-linejoin="round"/>
<path fill-rule="evenodd" clip-rule="evenodd" d="M5.94833 9.315H2.905C2.5043 9.315 2.12001 9.15582 1.83668 8.87249C1.55334 8.58915 1.39417 8.20486 1.39417 7.80417V6.09583C1.39417 5.26083 2.07083 4.585 2.905 4.585H5.94833C6.7825 4.585 7.45917 5.26083 7.45917 6.09583V7.80417C7.45917 8.20486 7.29999 8.58915 7.01665 8.87249C6.73332 9.15582 6.34903 9.315 5.94833 9.315Z" fill="#E5484D" stroke="#E5484D" stroke-width="1.5" stroke-linecap="round" stroke-linejoin="round"/>
<path d="M4.42667 6.5075V7.39167" stroke="white" stroke-width="1.5" stroke-linecap="round" stroke-linejoin="round"/>
</svg>
