<svg width="18" height="20" viewBox="0 0 18 20" fill="none" xmlns="http://www.w3.org/2000/svg">
<path d="M17.43 15.5273H0.571088C0.0967741 15.5273 -0.168142 14.8208 0.118771 14.4282C0.78453 13.5174 1.42712 12.1815 1.42712 10.5728L1.45458 8.24179C1.45458 3.91091 4.83278 0.400024 9 0.400024C13.2286 0.400024 16.6566 3.96262 16.6566 8.3573L16.6291 10.5728C16.6291 12.1926 17.2495 13.5357 17.8882 14.4469C18.164 14.8404 17.8984 15.5273 17.43 15.5273Z" fill="#191C20"/>
<path d="M6.60385 16.8333C6.1636 16.4998 5.53638 16.5864 5.20291 17.0266C4.86945 17.4669 4.95602 18.0941 5.39627 18.4276C6.37229 19.1669 7.63733 19.6001 9.00006 19.6001C10.3628 19.6001 11.6278 19.1669 12.6038 18.4276C13.0441 18.0941 13.1307 17.4669 12.7972 17.0266C12.4637 16.5864 11.8365 16.4998 11.3963 16.8333C10.78 17.3001 9.94239 17.6001 9.00006 17.6001C8.05772 17.6001 7.22009 17.3001 6.60385 16.8333Z" fill="#191C20"/>
</svg>
