<svg width="20" height="20" viewBox="0 0 20 20" fill="none" xmlns="http://www.w3.org/2000/svg">
<path fill-rule="evenodd" clip-rule="evenodd" d="M1.875 10C1.875 5.5125 5.5125 1.875 10 1.875C14.4875 1.875 18.125 5.5125 18.125 10C18.125 14.4875 14.4875 18.125 10 18.125C5.5125 18.125 1.875 14.4875 1.875 10ZM10 6.875C10.1658 6.875 10.3247 6.94085 10.4419 7.05806C10.5592 7.17527 10.625 7.33424 10.625 7.5V10.625C10.625 10.7908 10.5592 10.9497 10.4419 11.0669C10.3247 11.1842 10.1658 11.25 10 11.25C9.83424 11.25 9.67527 11.1842 9.55806 11.0669C9.44085 10.9497 9.375 10.7908 9.375 10.625V7.5C9.375 7.33424 9.44085 7.17527 9.55806 7.05806C9.67527 6.94085 9.83424 6.875 10 6.875ZM10 13.75C10.1658 13.75 10.3247 13.6842 10.4419 13.5669C10.5592 13.4497 10.625 13.2908 10.625 13.125C10.625 12.9592 10.5592 12.8003 10.4419 12.6831C10.3247 12.5658 10.1658 12.5 10 12.5C9.83424 12.5 9.67527 12.5658 9.55806 12.6831C9.44085 12.8003 9.375 12.9592 9.375 13.125C9.375 13.2908 9.44085 13.4497 9.55806 13.5669C9.67527 13.6842 9.83424 13.75 10 13.75Z" fill="white"/>
</svg>
