<svg width="22" height="22" viewBox="0 0 22 22" fill="none" xmlns="http://www.w3.org/2000/svg">
<path d="M10.2508 20.45V19.4693C8.16745 19.2551 6.41361 18.4359 4.98928 17.0115C3.56495 15.5872 2.7457 13.8334 2.53153 11.75H1.55078C1.33828 11.75 1.1602 11.6781 1.01653 11.5343C0.872698 11.3905 0.800781 11.2123 0.800781 10.9998C0.800781 10.7871 0.872698 10.609 1.01653 10.4655C1.1602 10.3219 1.33828 10.25 1.55078 10.25H2.53153C2.7457 8.16672 3.56495 6.41288 4.98928 4.98855C6.41361 3.56421 8.16745 2.74496 10.2508 2.5308V1.55005C10.2508 1.33755 10.3227 1.15947 10.4665 1.0158C10.6104 0.871966 10.7885 0.800049 11.001 0.800049C11.2137 0.800049 11.3918 0.871966 11.5353 1.0158C11.6789 1.15947 11.7508 1.33755 11.7508 1.55005V2.5308C13.8341 2.74496 15.5879 3.56421 17.0123 4.98855C18.4366 6.41288 19.2559 8.16672 19.47 10.25H20.4508C20.6633 10.25 20.8414 10.322 20.985 10.4658C21.1289 10.6096 21.2008 10.7878 21.2008 11.0003C21.2008 11.213 21.1289 11.391 20.985 11.5345C20.8414 11.6782 20.6633 11.75 20.4508 11.75H19.47C19.2559 13.8334 18.4366 15.5872 17.0123 17.0115C15.5879 18.4359 13.8341 19.2551 11.7508 19.4693V20.45C11.7508 20.6625 11.6789 20.8406 11.535 20.9843C11.3912 21.1281 11.213 21.2 11.0005 21.2C10.7879 21.2 10.6098 21.1281 10.4663 20.9843C10.3226 20.8406 10.2508 20.6625 10.2508 20.45ZM11.0008 18C12.9341 18 14.5841 17.3167 15.9508 15.95C17.3174 14.5834 18.0008 12.9334 18.0008 11C18.0008 9.06672 17.3174 7.41672 15.9508 6.05005C14.5841 4.68338 12.9341 4.00005 11.0008 4.00005C9.06745 4.00005 7.41745 4.68338 6.05078 6.05005C4.68411 7.41672 4.00078 9.06672 4.00078 11C4.00078 12.9334 4.68411 14.5834 6.05078 15.95C7.41745 17.3167 9.06745 18 11.0008 18ZM11.0008 14.5C10.0383 14.5 9.21437 14.1573 8.52903 13.4718C7.84353 12.7865 7.50078 11.9625 7.50078 11C7.50078 10.0375 7.84353 9.21363 8.52903 8.5283C9.21437 7.8428 10.0383 7.50005 11.0008 7.50005C11.9633 7.50005 12.7872 7.8428 13.4725 8.5283C14.158 9.21363 14.5008 10.0375 14.5008 11C14.5008 11.9625 14.158 12.7865 13.4725 13.4718C12.7872 14.1573 11.9633 14.5 11.0008 14.5ZM11.0008 13C11.5508 13 12.0216 12.8042 12.4133 12.4125C12.8049 12.0209 13.0008 11.55 13.0008 11C13.0008 10.45 12.8049 9.97922 12.4133 9.58755C12.0216 9.19588 11.5508 9.00005 11.0008 9.00005C10.4508 9.00005 9.97995 9.19588 9.58828 9.58755C9.19662 9.97922 9.00078 10.45 9.00078 11C9.00078 11.55 9.19662 12.0209 9.58828 12.4125C9.97995 12.8042 10.4508 13 11.0008 13Z" fill="#808080"/>
</svg>
