<svg width="14" height="18" viewBox="0 0 14 18" fill="none" xmlns="http://www.w3.org/2000/svg">
<path d="M7 0.5625C5.25952 0.5625 3.59032 1.2539 2.35961 2.48461C1.1289 3.71532 0.4375 5.38452 0.4375 7.125C0.4375 12.4375 7 17.4375 7 17.4375C7 17.4375 13.5625 12.4375 13.5625 7.125C13.5625 5.38452 12.8711 3.71532 11.6404 2.48461C10.4097 1.2539 8.74048 0.5625 7 0.5625ZM7 10.25C6.38193 10.25 5.77775 10.0667 5.26384 9.72334C4.74994 9.37996 4.3494 8.8919 4.11288 8.32089C3.87635 7.74987 3.81447 7.12153 3.93505 6.51534C4.05562 5.90915 4.35325 5.35233 4.79029 4.91529C5.22733 4.47825 5.78415 4.18062 6.39034 4.06005C6.99653 3.93947 7.62487 4.00135 8.19589 4.23788C8.7669 4.4744 9.25496 4.87494 9.59834 5.38884C9.94172 5.90275 10.125 6.50693 10.125 7.125C10.125 7.9538 9.79576 8.74866 9.20971 9.33471C8.62366 9.92076 7.8288 10.25 7 10.25Z" fill="#0091FF"/>
</svg>
