<svg width="36" height="36" viewBox="0 0 36 36" fill="none" xmlns="http://www.w3.org/2000/svg">
<rect width="36" height="36" rx="18" fill="#0880EA"/>
<path d="M18 9.5625C16.2595 9.5625 14.5903 10.2539 13.3596 11.4846C12.1289 12.7153 11.4375 14.3845 11.4375 16.125C11.4375 21.4375 18 26.4375 18 26.4375C18 26.4375 24.5625 21.4375 24.5625 16.125C24.5625 14.3845 23.8711 12.7153 22.6404 11.4846C21.4097 10.2539 19.7405 9.5625 18 9.5625ZM18 19.25C17.3819 19.25 16.7777 19.0667 16.2638 18.7233C15.7499 18.38 15.3494 17.8919 15.1129 17.3209C14.8764 16.7499 14.8145 16.1215 14.935 15.5153C15.0556 14.9092 15.3533 14.3523 15.7903 13.9153C16.2273 13.4783 16.7842 13.1806 17.3903 13.06C17.9965 12.9395 18.6249 13.0014 19.1959 13.2379C19.7669 13.4744 20.255 13.8749 20.5983 14.3888C20.9417 14.9027 21.125 15.5069 21.125 16.125C21.125 16.9538 20.7958 17.7487 20.2097 18.3347C19.6237 18.9208 18.8288 19.25 18 19.25Z" fill="white"/>
</svg>
