<svg width="16" height="16" viewBox="0 0 16 16" fill="none" xmlns="http://www.w3.org/2000/svg">
<path d="M4.15342 15.104C3.71231 15.0901 3.29273 14.9763 2.89467 14.7625C2.49676 14.5489 2.12044 14.2354 1.76572 13.8219C1.23683 13.2033 0.824188 12.4549 0.527799 11.5767C0.231272 10.6985 0.0830078 9.79199 0.0830078 8.85713C0.0830078 7.75782 0.289744 6.72525 0.703216 5.75942C1.11669 4.79359 1.68106 3.95303 2.39634 3.23775C3.11162 2.52248 3.95086 1.95678 4.91405 1.54067C5.8771 1.12456 6.90565 0.916504 7.99967 0.916504C9.0937 0.916504 10.1222 1.12671 11.0853 1.54713C12.0485 1.96755 12.8864 2.53831 13.599 3.25942C14.3117 3.98067 14.8761 4.82713 15.2922 5.7988C15.7083 6.77046 15.9163 7.81185 15.9163 8.92296C15.9163 9.90685 15.7574 10.8387 15.4395 11.7186C15.1217 12.5983 14.6754 13.347 14.1007 13.9646C13.7438 14.3428 13.3727 14.6273 12.9876 14.818C12.6025 15.0087 12.2037 15.104 11.7913 15.104C11.568 15.104 11.3474 15.0768 11.1295 15.0223C10.9115 14.9678 10.6936 14.886 10.4757 14.7771L9.30905 14.1938C9.1103 14.0944 8.89981 14.0198 8.67759 13.9703C8.45537 13.9205 8.22676 13.8957 7.99176 13.8957C7.75134 13.8957 7.52134 13.9205 7.30176 13.9703C7.08217 14.0198 6.87572 14.0944 6.68238 14.1938L5.52363 14.7771C5.29183 14.8999 5.06481 14.9886 4.84259 15.0432C4.62037 15.0976 4.39065 15.1179 4.15342 15.104ZM4.18717 13.854C4.31217 13.854 4.44065 13.8401 4.57259 13.8123C4.70454 13.7846 4.83301 13.7359 4.95801 13.6665L6.12467 13.0832C6.41634 12.9304 6.71842 12.8193 7.03092 12.7498C7.34342 12.6804 7.6594 12.6457 7.97884 12.6457C8.29829 12.6457 8.61773 12.6804 8.93717 12.7498C9.25662 12.8193 9.56217 12.9304 9.85384 13.0832L11.0413 13.6665C11.1663 13.7359 11.2913 13.7846 11.4163 13.8123C11.5413 13.8401 11.6663 13.854 11.7913 13.854C12.0552 13.854 12.3065 13.7846 12.5453 13.6457C12.784 13.5068 13.0215 13.2984 13.2576 13.0207C13.702 12.4929 14.0479 11.8609 14.2953 11.1248C14.5427 10.3887 14.6663 9.62914 14.6663 8.84609C14.6663 6.98498 14.0205 5.40643 12.7288 4.11046C11.4372 2.81449 9.86079 2.1665 7.99967 2.1665C6.13856 2.1665 4.56217 2.81928 3.27051 4.12484C1.97884 5.43039 1.33301 7.01373 1.33301 8.87484C1.33301 9.6665 1.4628 10.4373 1.72238 11.1873C1.98197 11.9373 2.33829 12.5693 2.79134 13.0832C3.02745 13.3609 3.25662 13.5589 3.47884 13.6769C3.70106 13.795 3.93717 13.854 4.18717 13.854ZM7.99967 10.2915C8.40454 10.2915 8.74884 10.1497 9.03259 9.86609C9.3162 9.58234 9.45801 9.23803 9.45801 8.83317C9.45801 8.71678 9.44356 8.60164 9.41467 8.48775C9.38592 8.374 9.34537 8.26428 9.29301 8.15859L10.583 6.46609C10.7679 6.66595 10.9236 6.87588 11.0501 7.09588C11.1768 7.31602 11.2775 7.55053 11.3522 7.79942C11.4056 7.96289 11.4858 8.10525 11.5926 8.2265C11.6994 8.34775 11.8345 8.40838 11.998 8.40838C12.2118 8.40838 12.3771 8.31623 12.494 8.13192C12.611 7.94775 12.6401 7.74456 12.5813 7.52234C12.2876 6.49345 11.7174 5.65609 10.8707 5.01025C10.024 4.36442 9.06703 4.0415 7.99967 4.0415C6.92384 4.0415 5.96335 4.36442 5.11822 5.01025C4.27322 5.65609 3.70377 6.49345 3.40988 7.52234C3.35113 7.74456 3.38162 7.94775 3.50134 8.13192C3.62092 8.31623 3.78488 8.40838 3.99322 8.40838C4.15669 8.40838 4.29051 8.34775 4.39467 8.2265C4.49884 8.10525 4.57766 7.96289 4.63113 7.79942C4.85224 7.05262 5.27266 6.44796 5.89238 5.98546C6.51197 5.52282 7.2144 5.2915 7.99967 5.2915C8.28065 5.2915 8.55683 5.32699 8.82822 5.39796C9.0996 5.46907 9.35655 5.57032 9.59905 5.70171L8.29613 7.41963C8.25238 7.40907 8.20301 7.39893 8.14801 7.38921C8.09287 7.37963 8.04342 7.37484 7.99967 7.37484C7.59481 7.37484 7.25051 7.51664 6.96676 7.80025C6.68315 8.084 6.54134 8.42831 6.54134 8.83317C6.54134 9.23803 6.68315 9.58234 6.96676 9.86609C7.25051 10.1497 7.59481 10.2915 7.99967 10.2915Z" fill="#808080"/>
</svg>
