<svg width="12" height="12" viewBox="0 0 12 12" fill="none" xmlns="http://www.w3.org/2000/svg">
<g clip-path="url(#clip0_1001_8322)">
<path d="M9.99999 0C8.89721 0 8 0.897211 8 1.99999C8 2.95657 9.41724 4.89262 9.7493 5.33327C9.74921 5.47561 9.7493 5.61537 9.74586 5.74364C9.7422 5.88157 9.85109 5.99658 9.98926 6.00023C9.99146 6.00023 9.99366 6.00023 9.9961 6.00023C10.1309 6.00023 10.2422 5.89256 10.2459 5.75684C10.2493 5.62521 10.2492 5.48154 10.2493 5.33515C10.5792 4.89752 12 2.9577 12 1.99999C12 0.897211 11.1028 0 9.99999 0ZM9.99999 2.50001C9.72437 2.50001 9.5 2.27564 9.5 2.00002C9.5 1.72439 9.72437 1.50002 9.99999 1.50002C10.2756 1.50002 10.5 1.72437 10.5 1.99999C10.5 2.27564 10.2756 2.50001 9.99999 2.50001Z" fill="#808080"/>
<path d="M7.65192 7.20526C7.23932 7.4394 7.01008 7.84588 6.87335 8.13104C6.81354 8.25557 6.86601 8.40498 6.99054 8.46453C7.02546 8.48139 7.06233 8.48919 7.09844 8.48919C7.1917 8.48919 7.28107 8.43695 7.32403 8.34735C7.49761 7.98528 7.67486 7.76727 7.89897 7.63982C8.01886 7.57171 8.06109 7.4191 7.99272 7.29899C7.92487 7.17889 7.77276 7.13666 7.65192 7.20526Z" fill="#808080"/>
<path d="M5.37734 10.8345C5.12684 11.033 4.84219 11.1824 4.50673 11.2915C4.37539 11.3342 4.3036 11.4754 4.34632 11.6067C4.38075 11.7122 4.47865 11.7793 4.58412 11.7793C4.60976 11.7793 4.63587 11.7754 4.66151 11.7671C5.04896 11.6411 5.39417 11.4593 5.68789 11.2266C5.79605 11.1406 5.81436 10.9834 5.72867 10.8752C5.64223 10.7674 5.48525 10.7481 5.37734 10.8345Z" fill="#808080"/>
<path d="M6.78668 9.0103C6.65728 8.96001 6.51323 9.02422 6.4632 9.15313C6.35114 9.44268 6.21101 9.78032 6.02203 10.0896C5.95001 10.2076 5.98737 10.3614 6.10505 10.4334C6.14583 10.4583 6.19073 10.47 6.23517 10.47C6.31941 10.47 6.40167 10.4275 6.44881 10.3504C6.65829 10.0071 6.80939 9.64386 6.92951 9.33381C6.97931 9.20511 6.91535 9.06034 6.78668 9.0103Z" fill="#808080"/>
<path d="M9.90731 6.58621C9.79378 6.50931 9.63778 6.53885 9.56013 6.6531C9.47787 6.7747 9.3094 6.94192 8.79987 6.98758C8.66241 7.00002 8.56085 7.12136 8.5733 7.25906C8.58502 7.38895 8.69414 7.48659 8.82209 7.48659C8.82966 7.48659 8.83723 7.48635 8.8448 7.4856C9.38606 7.43702 9.75544 7.25636 9.9742 6.93335C10.0516 6.81911 10.0216 6.6636 9.90731 6.58621Z" fill="#808080"/>
<path d="M3.59238 11.5032C4.38122 10.662 6 8.72673 6 7C6 5.31787 4.68213 4 3 4C1.31787 4 0 5.31787 0 7C0 9.21754 2.67347 11.7847 2.82288 11.9263C2.82288 11.9263 2.82349 11.9269 2.82377 11.9272C2.82459 11.928 2.82773 11.931 2.82839 11.9316C2.83873 11.9415 2.85162 11.946 2.86308 11.9537C2.87726 11.9633 2.89008 11.9745 2.90613 11.9811C2.93625 11.9933 2.96798 12 3 12C3.18213 12 3.35522 11.9936 3.51928 11.9812C3.65698 11.9707 3.76024 11.8508 3.74974 11.7131C3.74224 11.6146 3.67847 11.5377 3.59238 11.5032ZM3 8.5C2.17284 8.5 1.5 7.82716 1.5 7C1.5 6.17284 2.17284 5.5 3 5.5C3.82716 5.5 4.5 6.17284 4.5 7C4.5 7.82713 3.82716 8.5 3 8.5Z" fill="#808080"/>
</g>
<defs>
<clipPath id="clip0_1001_8322">
<rect width="12" height="12" fill="white"/>
</clipPath>
</defs>
</svg>
