<svg width="12" height="18" viewBox="0 0 12 18" fill="none" xmlns="http://www.w3.org/2000/svg">
<path d="M6.00033 17.3332C5.80588 17.3332 5.63922 17.2776 5.50033 17.1665C5.36144 17.0554 5.25727 16.9096 5.18783 16.729C4.92394 15.9512 4.5906 15.2221 4.18783 14.5415C3.79894 13.8609 3.25033 13.0623 2.54199 12.1457C1.83366 11.229 1.25727 10.354 0.812826 9.52067C0.38227 8.68734 0.166992 7.68039 0.166992 6.49984C0.166992 4.87484 0.729492 3.49984 1.85449 2.37484C2.99338 1.23595 4.37533 0.666504 6.00033 0.666504C7.62533 0.666504 9.00033 1.23595 10.1253 2.37484C11.2642 3.49984 11.8337 4.87484 11.8337 6.49984C11.8337 7.76373 11.5906 8.81928 11.1045 9.6665C10.6323 10.4998 10.0837 11.3262 9.45866 12.1457C8.70866 13.1457 8.13922 13.979 7.75033 14.6457C7.37533 15.2984 7.06283 15.9929 6.81283 16.729C6.74338 16.9234 6.63227 17.0762 6.47949 17.1873C6.3406 17.2846 6.18088 17.3332 6.00033 17.3332ZM6.00033 8.58317C6.58366 8.58317 7.07672 8.38178 7.47949 7.979C7.88227 7.57623 8.08366 7.08317 8.08366 6.49984C8.08366 5.9165 7.88227 5.42345 7.47949 5.02067C7.07672 4.61789 6.58366 4.4165 6.00033 4.4165C5.41699 4.4165 4.92394 4.61789 4.52116 5.02067C4.11838 5.42345 3.91699 5.9165 3.91699 6.49984C3.91699 7.08317 4.11838 7.57623 4.52116 7.979C4.92394 8.38178 5.41699 8.58317 6.00033 8.58317Z" fill="#30A46C"/>
</svg>
