<svg width="12" height="13" viewBox="0 0 12 13" fill="none" xmlns="http://www.w3.org/2000/svg">
<path d="M5.99977 12.0088C7.304 10.8413 8.30205 9.72139 8.99394 8.64917C9.68583 7.57695 10.0318 6.63784 10.0318 5.83184C10.0318 4.6165 9.64566 3.61739 8.87344 2.8345C8.10122 2.05162 7.14333 1.66017 5.99977 1.66017C4.85622 1.66017 3.89833 2.05162 3.12611 2.8345C2.35388 3.61739 1.96777 4.6165 1.96777 5.83184C1.96777 6.63784 2.31372 7.57695 3.00561 8.64917C3.6975 9.72139 4.69555 10.8413 5.99977 12.0088ZM5.99977 12.96C5.86988 12.96 5.74 12.9376 5.61011 12.8928C5.48011 12.8479 5.36255 12.7785 5.25744 12.6845C4.65922 12.1332 4.09938 11.5654 3.57794 10.9812C3.05661 10.3971 2.60344 9.81312 2.21844 9.22934C1.83333 8.64556 1.52861 8.06695 1.30427 7.4935C1.07994 6.91995 0.967773 6.36606 0.967773 5.83184C0.967773 4.29339 1.46538 3.04789 2.46061 2.09534C3.45594 1.14278 4.63566 0.666504 5.99977 0.666504C7.36388 0.666504 8.54361 1.14278 9.53894 2.09534C10.5342 3.04789 11.0318 4.29339 11.0318 5.83184C11.0318 6.36606 10.9196 6.91884 10.6953 7.49017C10.4709 8.06161 10.1673 8.64028 9.78444 9.22617C9.40144 9.81206 8.94927 10.396 8.42794 10.978C7.90661 11.5601 7.34677 12.1268 6.74844 12.678C6.64488 12.772 6.52716 12.8425 6.39527 12.8895C6.2635 12.9365 6.13166 12.96 5.99977 12.96ZM6.00094 6.91C6.33261 6.91 6.61616 6.79189 6.85161 6.55567C7.08716 6.31945 7.20494 6.0355 7.20494 5.70384C7.20494 5.37217 7.08683 5.08856 6.85061 4.853C6.61438 4.61756 6.33038 4.49984 5.99861 4.49984C5.66694 4.49984 5.38338 4.61795 5.14794 4.85417C4.91238 5.09039 4.79461 5.37439 4.79461 5.70617C4.79461 6.03784 4.91272 6.32139 5.14894 6.55684C5.38516 6.79228 5.66916 6.91 6.00094 6.91Z" fill="#808080"/>
</svg>
