<svg width="16" height="19" viewBox="0 0 16 19" fill="none" xmlns="http://www.w3.org/2000/svg">
<path d="M2.22917 10.0002H4.66667C4.81944 10.0002 4.96528 10.0384 5.10417 10.1147C5.24306 10.1911 5.34722 10.3057 5.41667 10.4585L6.33333 12.2918L8.91667 7.12516C9.06944 6.80572 9.31944 6.646 9.66667 6.646C10.0139 6.646 10.2639 6.80572 10.4167 7.12516L11.8542 10.0002H13.7708C13.5625 8.5835 12.9167 7.396 11.8333 6.43766C10.75 5.47933 9.47222 5.00016 8 5.00016C6.52778 5.00016 5.25 5.47933 4.16667 6.43766C3.08333 7.396 2.4375 8.5835 2.22917 10.0002ZM8 16.6668C9.47222 16.6668 10.75 16.1877 11.8333 15.2293C12.9167 14.271 13.5625 13.0835 13.7708 11.6668H11.3333C11.1806 11.6668 11.0347 11.6286 10.8958 11.5522C10.7569 11.4759 10.6528 11.3613 10.5833 11.2085L9.66667 9.37516L7.08333 14.5418C6.93056 14.8613 6.68056 15.021 6.33333 15.021C5.98611 15.021 5.73611 14.8613 5.58333 14.5418L4.14583 11.6668H2.22917C2.4375 13.0835 3.08333 14.271 4.16667 15.2293C5.25 16.1877 6.52778 16.6668 8 16.6668ZM8 18.3335C6.97222 18.3335 6.00347 18.1356 5.09375 17.7397C4.18403 17.3439 3.38889 16.8057 2.70833 16.1252C2.02778 15.4446 1.48958 14.6495 1.09375 13.7397C0.697917 12.83 0.5 11.8613 0.5 10.8335H2.16667C2.16667 12.4446 2.73611 13.8196 3.875 14.9585C5.01389 16.0974 6.38889 16.6668 8 16.6668C9.61111 16.6668 10.9861 16.0974 12.125 14.9585C13.2639 13.8196 13.8333 12.4446 13.8333 10.8335H15.5C15.5 11.8613 15.3021 12.83 14.9062 13.7397C14.5104 14.6495 13.9722 15.4446 13.2917 16.1252C12.6111 16.8057 11.816 17.3439 10.9062 17.7397C9.99653 18.1356 9.02778 18.3335 8 18.3335ZM0.5 10.8335C0.5 9.80572 0.697917 8.83697 1.09375 7.92725C1.48958 7.01752 2.02778 6.22238 2.70833 5.54183C3.38889 4.86127 4.18403 4.32308 5.09375 3.92725C6.00347 3.53141 6.97222 3.3335 8 3.3335C8.86111 3.3335 9.6875 3.47238 10.4792 3.75016C11.2708 4.02794 12.0139 4.43072 12.7083 4.9585L13.2917 4.37516C13.4444 4.22238 13.6389 4.146 13.875 4.146C14.1111 4.146 14.3056 4.22238 14.4583 4.37516C14.6111 4.52794 14.6875 4.72239 14.6875 4.9585C14.6875 5.19461 14.6111 5.38905 14.4583 5.54183L13.875 6.12516C14.4028 6.81961 14.8056 7.56266 15.0833 8.35433C15.3611 9.146 15.5 9.97238 15.5 10.8335H13.8333C13.8333 9.22238 13.2639 7.84738 12.125 6.7085C10.9861 5.56961 9.61111 5.00016 8 5.00016C6.38889 5.00016 5.01389 5.56961 3.875 6.7085C2.73611 7.84738 2.16667 9.22238 2.16667 10.8335H0.5ZM6.33333 2.50016C6.09722 2.50016 5.89931 2.4203 5.73958 2.26058C5.57986 2.10086 5.5 1.90294 5.5 1.66683C5.5 1.43072 5.57986 1.2328 5.73958 1.07308C5.89931 0.913357 6.09722 0.833496 6.33333 0.833496H9.66667C9.90278 0.833496 10.1007 0.913357 10.2604 1.07308C10.4201 1.2328 10.5 1.43072 10.5 1.66683C10.5 1.90294 10.4201 2.10086 10.2604 2.26058C10.1007 2.4203 9.90278 2.50016 9.66667 2.50016H6.33333ZM8 16.6668C6.38889 16.6668 5.01389 16.0974 3.875 14.9585C2.73611 13.8196 2.16667 12.4446 2.16667 10.8335C2.16667 9.22238 2.73611 7.84738 3.875 6.7085C5.01389 5.56961 6.38889 5.00016 8 5.00016C9.61111 5.00016 10.9861 5.56961 12.125 6.7085C13.2639 7.84738 13.8333 9.22238 13.8333 10.8335C13.8333 12.4446 13.2639 13.8196 12.125 14.9585C10.9861 16.0974 9.61111 16.6668 8 16.6668Z" fill="#808080"/>
</svg>
