<svg width="20" height="20" viewBox="0 0 20 20" fill="none" xmlns="http://www.w3.org/2000/svg">
<path d="M7.49967 17.2918C6.63648 17.2918 5.89981 16.9868 5.28967 16.3768C4.67967 15.7667 4.37467 15.03 4.37467 14.1668V7.21016C3.88856 7.02961 3.48926 6.74086 3.17676 6.34391C2.86426 5.94697 2.70801 5.49995 2.70801 5.00287C2.70801 4.36551 2.93072 3.82377 3.37613 3.37766C3.82155 2.93155 4.36238 2.7085 4.99863 2.7085C5.63502 2.7085 6.1762 2.93155 6.62217 3.37766C7.06829 3.82377 7.29134 4.36551 7.29134 5.00287C7.29134 5.49995 7.13509 5.94697 6.82259 6.34391C6.51009 6.74086 6.11079 7.02961 5.62467 7.21016V14.1668C5.62467 14.6825 5.80842 15.1239 6.17592 15.491C6.54342 15.8582 6.98516 16.0418 7.50113 16.0418C8.01724 16.0418 8.45856 15.8582 8.82509 15.491C9.19148 15.1239 9.37467 14.6825 9.37467 14.1668V5.8335C9.37467 4.9703 9.67967 4.23363 10.2897 3.6235C10.8998 3.0135 11.6365 2.7085 12.4997 2.7085C13.3629 2.7085 14.0995 3.0135 14.7097 3.6235C15.3197 4.23363 15.6247 4.9703 15.6247 5.8335V12.7902C16.1108 12.9707 16.5101 13.2595 16.8226 13.6564C17.1351 14.0534 17.2913 14.5004 17.2913 14.9975C17.2913 15.6348 17.0686 16.1766 16.6232 16.6227C16.1778 17.0688 15.637 17.2918 15.0007 17.2918C14.3643 17.2918 13.8231 17.0688 13.3772 16.6227C12.9311 16.1766 12.708 15.6348 12.708 14.9975C12.708 14.5004 12.8643 14.0499 13.1768 13.646C13.4893 13.2421 13.8886 12.9568 14.3747 12.7902V5.8335C14.3747 5.3178 14.1909 4.87641 13.8234 4.50933C13.4559 4.14211 13.0142 3.9585 12.4982 3.9585C11.9821 3.9585 11.5408 4.14211 11.1743 4.50933C10.8079 4.87641 10.6247 5.3178 10.6247 5.8335V14.1668C10.6247 15.03 10.3197 15.7667 9.70967 16.3768C9.09953 16.9868 8.36287 17.2918 7.49967 17.2918Z" fill="#808080"/>
</svg>
