<svg width="13" height="12" viewBox="0 0 13 12" fill="none" xmlns="http://www.w3.org/2000/svg">
<g clip-path="url(#clip0_1001_8346)">
<path d="M6.66699 0.5C5.5792 0.5 4.51583 0.822569 3.61136 1.42692C2.70689 2.03126 2.00194 2.89025 1.58566 3.89524C1.16938 4.90023 1.06046 6.0061 1.27268 7.073C1.48489 8.13989 2.00872 9.1199 2.77791 9.88909C3.5471 10.6583 4.5271 11.1821 5.594 11.3943C6.66089 11.6065 7.76676 11.4976 8.77175 11.0813C9.77675 10.6651 10.6357 9.96011 11.2401 9.05564C11.8444 8.15117 12.167 7.0878 12.167 6C12.1653 4.54184 11.5853 3.14389 10.5542 2.11281C9.5231 1.08174 8.12516 0.50172 6.66699 0.5ZM8.52049 7.8535C8.42673 7.94724 8.29958 7.99989 8.16699 7.99989C8.03441 7.99989 7.90726 7.94724 7.81349 7.8535L6.31349 6.3535C6.21972 6.25975 6.16702 6.1326 6.16699 6V3C6.16699 2.86739 6.21967 2.74021 6.31344 2.64645C6.40721 2.55268 6.53439 2.5 6.66699 2.5C6.7996 2.5 6.92678 2.55268 7.02055 2.64645C7.11432 2.74021 7.16699 2.86739 7.16699 3V5.793L8.52049 7.1465C8.61423 7.24026 8.66689 7.36742 8.66689 7.5C8.66689 7.63258 8.61423 7.75974 8.52049 7.8535Z" fill="#808080"/>
</g>
<defs>
<clipPath id="clip0_1001_8346">
<rect width="12" height="12" fill="white" transform="translate(0.666992)"/>
</clipPath>
</defs>
</svg>
