<svg width="16" height="19" viewBox="0 0 16 19" fill="none" xmlns="http://www.w3.org/2000/svg">
<path d="M6.33333 14.1668C6.56944 14.1668 6.76736 14.087 6.92708 13.9272C7.08681 13.7675 7.16667 13.5696 7.16667 13.3335V8.3335C7.16667 8.09738 7.08681 7.89947 6.92708 7.73975C6.76736 7.58002 6.56944 7.50016 6.33333 7.50016C6.09722 7.50016 5.89931 7.58002 5.73958 7.73975C5.57986 7.89947 5.5 8.09738 5.5 8.3335V13.3335C5.5 13.5696 5.57986 13.7675 5.73958 13.9272C5.89931 14.087 6.09722 14.1668 6.33333 14.1668ZM9.66667 14.1668C9.90278 14.1668 10.1007 14.087 10.2604 13.9272C10.4201 13.7675 10.5 13.5696 10.5 13.3335V8.3335C10.5 8.09738 10.4201 7.89947 10.2604 7.73975C10.1007 7.58002 9.90278 7.50016 9.66667 7.50016C9.43056 7.50016 9.23264 7.58002 9.07292 7.73975C8.91319 7.89947 8.83333 8.09738 8.83333 8.3335V13.3335C8.83333 13.5696 8.91319 13.7675 9.07292 13.9272C9.23264 14.087 9.43056 14.1668 9.66667 14.1668ZM6.33333 2.50016C6.09722 2.50016 5.89931 2.4203 5.73958 2.26058C5.57986 2.10086 5.5 1.90294 5.5 1.66683C5.5 1.43072 5.57986 1.2328 5.73958 1.07308C5.89931 0.913357 6.09722 0.833496 6.33333 0.833496H9.66667C9.90278 0.833496 10.1007 0.913357 10.2604 1.07308C10.4201 1.2328 10.5 1.43072 10.5 1.66683C10.5 1.90294 10.4201 2.10086 10.2604 2.26058C10.1007 2.4203 9.90278 2.50016 9.66667 2.50016H6.33333ZM8 18.3335C6.97222 18.3335 6.00347 18.1356 5.09375 17.7397C4.18403 17.3439 3.38889 16.8057 2.70833 16.1252C2.02778 15.4446 1.48958 14.6495 1.09375 13.7397C0.697917 12.83 0.5 11.8613 0.5 10.8335C0.5 9.80572 0.697917 8.83697 1.09375 7.92725C1.48958 7.01752 2.02778 6.22238 2.70833 5.54183C3.38889 4.86127 4.18403 4.32308 5.09375 3.92725C6.00347 3.53141 6.97222 3.3335 8 3.3335C8.86111 3.3335 9.6875 3.47238 10.4792 3.75016C11.2708 4.02794 12.0139 4.43072 12.7083 4.9585L13.2917 4.37516C13.4444 4.22238 13.6389 4.146 13.875 4.146C14.1111 4.146 14.3056 4.22238 14.4583 4.37516C14.6111 4.52794 14.6875 4.72239 14.6875 4.9585C14.6875 5.19461 14.6111 5.38905 14.4583 5.54183L13.875 6.12516C14.4028 6.81961 14.8056 7.56266 15.0833 8.35433C15.3611 9.146 15.5 9.97238 15.5 10.8335C15.5 11.8613 15.3021 12.83 14.9062 13.7397C14.5104 14.6495 13.9722 15.4446 13.2917 16.1252C12.6111 16.8057 11.816 17.3439 10.9062 17.7397C9.99653 18.1356 9.02778 18.3335 8 18.3335ZM8 16.6668C9.61111 16.6668 10.9861 16.0974 12.125 14.9585C13.2639 13.8196 13.8333 12.4446 13.8333 10.8335C13.8333 9.22238 13.2639 7.84738 12.125 6.7085C10.9861 5.56961 9.61111 5.00016 8 5.00016C6.38889 5.00016 5.01389 5.56961 3.875 6.7085C2.73611 7.84738 2.16667 9.22238 2.16667 10.8335C2.16667 12.4446 2.73611 13.8196 3.875 14.9585C5.01389 16.0974 6.38889 16.6668 8 16.6668Z" fill="#808080"/>
</svg>
