<svg width="20" height="20" viewBox="0 0 20 20" fill="none" xmlns="http://www.w3.org/2000/svg">
<circle cx="10" cy="10" r="10" fill="#D93D42"/>
<g clip-path="url(#clip0_1001_8524)">
<path d="M9.07049 9.57857V4.92976C9.07049 4.41674 9.48722 4 10.0002 4C10.5133 4 10.93 4.41674 10.93 4.92976V9.57857C10.93 10.0916 10.5133 10.5083 10.0002 10.5083C9.48722 10.5083 9.07049 10.0916 9.07049 9.57857ZM13.6857 5.36329C13.3845 5.1248 12.9451 5.17714 12.7066 5.47883C12.4681 5.78101 12.5199 6.21948 12.8221 6.45846C13.9282 7.33095 14.5622 8.63745 14.5622 10.0437C14.5622 12.5589 12.5155 14.6056 10.0007 14.6056C7.4855 14.6056 5.43883 12.5589 5.43883 10.0437C5.43883 8.63795 6.07234 7.33193 7.17739 6.45994C7.47957 6.22145 7.53142 5.78299 7.29293 5.48031C7.05444 5.17813 6.61647 5.12677 6.31329 5.36477C4.871 6.5029 4.04395 8.20837 4.04395 10.0437C4.04395 13.3282 6.71621 16 10.0002 16C13.2843 16 15.9565 13.3277 15.9565 10.0437C15.9565 8.20738 15.1285 6.50191 13.6857 5.36329Z" fill="white"/>
</g>
<defs>
<clipPath id="clip0_1001_8524">
<rect width="12" height="12" fill="white" transform="translate(4 4)"/>
</clipPath>
</defs>
</svg>
