<svg width="10" height="11" viewBox="0 0 10 11" fill="none" xmlns="http://www.w3.org/2000/svg">
<path d="M4 8.5C4.14167 8.5 4.26042 8.45208 4.35625 8.35625C4.45208 8.26042 4.5 8.14167 4.5 8V5C4.5 4.85833 4.45208 4.73958 4.35625 4.64375C4.26042 4.54792 4.14167 4.5 4 4.5C3.85833 4.5 3.73958 4.54792 3.64375 4.64375C3.54792 4.73958 3.5 4.85833 3.5 5V8C3.5 8.14167 3.54792 8.26042 3.64375 8.35625C3.73958 8.45208 3.85833 8.5 4 8.5ZM6 8.5C6.14167 8.5 6.26042 8.45208 6.35625 8.35625C6.45208 8.26042 6.5 8.14167 6.5 8V5C6.5 4.85833 6.45208 4.73958 6.35625 4.64375C6.26042 4.54792 6.14167 4.5 6 4.5C5.85833 4.5 5.73958 4.54792 5.64375 4.64375C5.54792 4.73958 5.5 4.85833 5.5 5V8C5.5 8.14167 5.54792 8.26042 5.64375 8.35625C5.73958 8.45208 5.85833 8.5 6 8.5ZM4 1.5C3.85833 1.5 3.73958 1.45208 3.64375 1.35625C3.54792 1.26042 3.5 1.14167 3.5 1C3.5 0.858333 3.54792 0.739583 3.64375 0.64375C3.73958 0.547917 3.85833 0.5 4 0.5H6C6.14167 0.5 6.26042 0.547917 6.35625 0.64375C6.45208 0.739583 6.5 0.858333 6.5 1C6.5 1.14167 6.45208 1.26042 6.35625 1.35625C6.26042 1.45208 6.14167 1.5 6 1.5H4ZM5 11C4.38333 11 3.80208 10.8813 3.25625 10.6438C2.71042 10.4062 2.23333 10.0833 1.825 9.675C1.41667 9.26667 1.09375 8.78958 0.85625 8.24375C0.61875 7.69792 0.5 7.11667 0.5 6.5C0.5 5.88333 0.61875 5.30208 0.85625 4.75625C1.09375 4.21042 1.41667 3.73333 1.825 3.325C2.23333 2.91667 2.71042 2.59375 3.25625 2.35625C3.80208 2.11875 4.38333 2 5 2C5.51667 2 6.0125 2.08333 6.4875 2.25C6.9625 2.41667 7.40833 2.65833 7.825 2.975L8.175 2.625C8.26667 2.53333 8.38333 2.4875 8.525 2.4875C8.66667 2.4875 8.78333 2.53333 8.875 2.625C8.96667 2.71667 9.0125 2.83333 9.0125 2.975C9.0125 3.11667 8.96667 3.23333 8.875 3.325L8.525 3.675C8.84167 4.09167 9.08333 4.5375 9.25 5.0125C9.41667 5.4875 9.5 5.98333 9.5 6.5C9.5 7.11667 9.38125 7.69792 9.14375 8.24375C8.90625 8.78958 8.58333 9.26667 8.175 9.675C7.76667 10.0833 7.28958 10.4062 6.74375 10.6438C6.19792 10.8813 5.61667 11 5 11ZM5 10C5.96667 10 6.79167 9.65833 7.475 8.975C8.15833 8.29167 8.5 7.46667 8.5 6.5C8.5 5.53333 8.15833 4.70833 7.475 4.025C6.79167 3.34167 5.96667 3 5 3C4.03333 3 3.20833 3.34167 2.525 4.025C1.84167 4.70833 1.5 5.53333 1.5 6.5C1.5 7.46667 1.84167 8.29167 2.525 8.975C3.20833 9.65833 4.03333 10 5 10Z" fill="#808080"/>
</svg>
