<svg width="20" height="20" viewBox="0 0 20 20" fill="none" xmlns="http://www.w3.org/2000/svg">
<circle cx="10" cy="10" r="10" fill="#30A46C"/>
<path d="M6.62525 11.5V11.6875C6.62525 11.8947 6.45744 12.0625 6.25026 12.0625C6.04308 12.0625 5.87527 11.8947 5.87527 11.6875V8.31256C5.87527 8.10538 6.04308 7.93757 6.25026 7.93757C6.45744 7.93757 6.62525 8.10538 6.62525 8.31256V8.50005H8.35232C7.74366 5.52275 5.64421 5.0699 4.58905 7.18079C3.80392 8.75057 3.80338 11.2484 4.58905 12.8192C5.64601 14.9338 7.74479 14.4717 8.35232 11.5C7.98839 11.5 6.98953 11.5 6.62525 11.5Z" fill="white"/>
<path d="M14.868 8.1709C14.7965 7.40991 14.1541 6.8125 13.3748 6.8125H11.8465C10.5738 6.8125 9.42189 7.56489 8.90729 8.72261C8.86454 8.81891 8.87494 8.85833 8.87494 9.24994C8.55836 9.24994 7.18629 9.24994 6.625 9.24994V10.7499H8.87494C8.87494 11.1239 8.8636 11.1788 8.90729 11.2772C9.42215 12.4356 10.5746 13.1873 11.8465 13.1873H13.3748C14.1541 13.1873 14.7965 12.5899 14.868 11.8289C15.5177 11.6644 15.9998 11.075 15.9998 10.3749V9.62493C15.9998 8.92487 15.5177 8.33543 14.868 8.1709ZM12.8124 10.6264C12.8124 11.0054 12.5053 11.3124 12.1264 11.3124H12.0054C11.4155 11.3124 10.9374 10.8343 10.9374 10.2444V9.75547C10.9374 9.16557 11.4155 8.68745 12.0054 8.68745H12.1264C12.5053 8.68745 12.8124 8.99448 12.8124 9.37345V10.6264ZM15.2498 10.3749C15.2498 10.6519 15.0989 10.8943 14.8748 11.0243V8.97552C15.0989 9.10559 15.2498 9.34793 15.2498 9.62495V10.3749Z" fill="white"/>
</svg>
