<svg width="18" height="18" viewBox="0 0 18 18" fill="none" xmlns="http://www.w3.org/2000/svg">
<path d="M9.00033 17.3332C7.84755 17.3332 6.76421 17.1144 5.75033 16.6769C4.73644 16.2394 3.85449 15.6457 3.10449 14.8957C2.35449 14.1457 1.76074 13.2637 1.32324 12.2498C0.885742 11.2359 0.666992 10.1526 0.666992 8.99984C0.666992 7.84706 0.885742 6.76373 1.32324 5.74984C1.76074 4.73595 2.35449 3.854 3.10449 3.104C3.85449 2.354 4.73644 1.76025 5.75033 1.32275C6.76421 0.885254 7.84755 0.666504 9.00033 0.666504C10.1531 0.666504 11.2364 0.885254 12.2503 1.32275C13.2642 1.76025 14.1462 2.354 14.8962 3.104C15.6462 3.854 16.2399 4.73595 16.6774 5.74984C17.1149 6.76373 17.3337 7.84706 17.3337 8.99984C17.3337 10.1526 17.1149 11.2359 16.6774 12.2498C16.2399 13.2637 15.6462 14.1457 14.8962 14.8957C14.1462 15.6457 13.2642 16.2394 12.2503 16.6769C11.2364 17.1144 10.1531 17.3332 9.00033 17.3332ZM9.00033 15.6665C9.75033 15.6665 10.4725 15.545 11.167 15.3019C11.8614 15.0589 12.5003 14.7082 13.0837 14.2498L3.75033 4.9165C3.29199 5.49984 2.9413 6.13873 2.69824 6.83317C2.45519 7.52762 2.33366 8.24984 2.33366 8.99984C2.33366 10.8609 2.97949 12.4373 4.27116 13.729C5.56283 15.0207 7.13921 15.6665 9.00033 15.6665ZM14.2503 13.0832C14.7087 12.4998 15.0594 11.8609 15.3024 11.1665C15.5455 10.4721 15.667 9.74984 15.667 8.99984C15.667 7.13873 15.0212 5.56234 13.7295 4.27067C12.4378 2.979 10.8614 2.33317 9.00033 2.33317C8.25033 2.33317 7.5281 2.4547 6.83366 2.69775C6.13921 2.94081 5.50033 3.2915 4.91699 3.74984L14.2503 13.0832Z" fill="#808080"/>
</svg>
