<svg width="14" height="16" viewBox="0 0 14 16" fill="none" xmlns="http://www.w3.org/2000/svg">
<path d="M0.75 14.3298V2.42296C0.75 2.00199 0.895833 1.64567 1.1875 1.354C1.47917 1.06234 1.83549 0.916504 2.25646 0.916504H6.74354C7.16451 0.916504 7.52083 1.06234 7.8125 1.354C8.10417 1.64567 8.25 2.00199 8.25 2.42296V7.83963H9.05125C9.46556 7.83963 9.82021 7.98713 10.1152 8.28213C10.4102 8.57713 10.5577 8.93171 10.5577 9.34588V13.128C10.5577 13.3962 10.6509 13.6234 10.8373 13.8098C11.0237 13.9964 11.251 14.0896 11.5192 14.0896C11.7874 14.0896 12.0147 13.9964 12.201 13.8098C12.3876 13.6234 12.4808 13.3962 12.4808 13.128V7.28838C12.3558 7.3631 12.2239 7.41491 12.085 7.4438C11.9461 7.47255 11.8003 7.48692 11.6475 7.48692C11.136 7.48692 10.7035 7.31032 10.3502 6.95713C9.99701 6.60393 9.82042 6.17157 9.82042 5.66005C9.82042 5.24768 9.93799 4.88046 10.1731 4.55838C10.4081 4.2363 10.719 4.02018 11.1058 3.91005L9.57688 2.3813C9.47854 2.28296 9.42806 2.16782 9.42542 2.03588C9.42278 1.90393 9.47403 1.78539 9.57917 1.68025C9.67278 1.58664 9.78632 1.53775 9.91979 1.53359C10.0534 1.52928 10.172 1.5747 10.2756 1.66984L12.8973 4.25317C13.0844 4.44011 13.2273 4.65671 13.326 4.90296C13.4249 5.14921 13.4744 5.40157 13.4744 5.66005V13.128C13.4744 13.6755 13.2855 14.1382 12.9077 14.5161C12.5301 14.8941 12.0678 15.0832 11.5208 15.0832C10.9738 15.0832 10.5108 14.8941 10.1321 14.5161C9.75347 14.1382 9.56417 13.6755 9.56417 13.128V9.08963C9.56417 9.01477 9.54007 8.95331 9.49187 8.90525C9.44382 8.8572 9.38243 8.83317 9.30771 8.83317H8.25V14.3298C8.25 14.5433 8.17813 14.7222 8.03438 14.8665C7.89063 15.0109 7.7125 15.0832 7.5 15.0832H1.49979C1.28729 15.0832 1.10924 15.0109 0.965625 14.8665C0.821875 14.7222 0.75 14.5433 0.75 14.3298ZM2 6.5415H7V2.42296C7 2.3588 6.97326 2.30005 6.91979 2.24671C6.86646 2.19324 6.80771 2.1665 6.74354 2.1665H2.25646C2.19229 2.1665 2.13354 2.19324 2.08021 2.24671C2.02674 2.30005 2 2.3588 2 2.42296V6.5415ZM11.6475 6.49338C11.8836 6.49338 12.0815 6.41352 12.2413 6.2538C12.401 6.09407 12.4808 5.89616 12.4808 5.66005C12.4808 5.42393 12.401 5.22602 12.2413 5.0663C12.0815 4.90657 11.8836 4.82671 11.6475 4.82671C11.4114 4.82671 11.2135 4.90657 11.0538 5.0663C10.894 5.22602 10.8142 5.42393 10.8142 5.66005C10.8142 5.89616 10.894 6.09407 11.0538 6.2538C11.2135 6.41352 11.4114 6.49338 11.6475 6.49338ZM2 13.8332H7V7.7915H2V13.8332Z" fill="#808080"/>
</svg>
