<svg width="18" height="16" viewBox="0 0 18 16" fill="none" xmlns="http://www.w3.org/2000/svg">
<path d="M14.8337 15.5C14.292 15.5 13.8059 15.3438 13.3753 15.0312C12.9448 14.7188 12.6462 14.3194 12.4795 13.8333H8.16699C7.25033 13.8333 6.4656 13.5069 5.81283 12.8542C5.16005 12.2014 4.83366 11.4167 4.83366 10.5C4.83366 9.58333 5.16005 8.79861 5.81283 8.14583C6.4656 7.49306 7.25033 7.16667 8.16699 7.16667H9.83366C10.292 7.16667 10.6844 7.00347 11.0107 6.67708C11.3371 6.35069 11.5003 5.95833 11.5003 5.5C11.5003 5.04167 11.3371 4.64931 11.0107 4.32292C10.6844 3.99653 10.292 3.83333 9.83366 3.83333H5.52116C5.3406 4.31944 5.03852 4.71875 4.61491 5.03125C4.1913 5.34375 3.70866 5.5 3.16699 5.5C2.47255 5.5 1.88227 5.25694 1.39616 4.77083C0.910048 4.28472 0.666992 3.69444 0.666992 3C0.666992 2.30556 0.910048 1.71528 1.39616 1.22917C1.88227 0.743056 2.47255 0.5 3.16699 0.5C3.70866 0.5 4.1913 0.65625 4.61491 0.96875C5.03852 1.28125 5.3406 1.68056 5.52116 2.16667H9.83366C10.7503 2.16667 11.535 2.49306 12.1878 3.14583C12.8406 3.79861 13.167 4.58333 13.167 5.5C13.167 6.41667 12.8406 7.20139 12.1878 7.85417C11.535 8.50694 10.7503 8.83333 9.83366 8.83333H8.16699C7.70866 8.83333 7.3163 8.99653 6.98991 9.32292C6.66352 9.64931 6.50033 10.0417 6.50033 10.5C6.50033 10.9583 6.66352 11.3507 6.98991 11.6771C7.3163 12.0035 7.70866 12.1667 8.16699 12.1667H12.4795C12.66 11.6806 12.9621 11.2812 13.3857 10.9688C13.8094 10.6562 14.292 10.5 14.8337 10.5C15.5281 10.5 16.1184 10.7431 16.6045 11.2292C17.0906 11.7153 17.3337 12.3056 17.3337 13C17.3337 13.6944 17.0906 14.2847 16.6045 14.7708C16.1184 15.2569 15.5281 15.5 14.8337 15.5ZM3.16699 3.83333C3.4031 3.83333 3.60102 3.75347 3.76074 3.59375C3.92046 3.43403 4.00033 3.23611 4.00033 3C4.00033 2.76389 3.92046 2.56597 3.76074 2.40625C3.60102 2.24653 3.4031 2.16667 3.16699 2.16667C2.93088 2.16667 2.73296 2.24653 2.57324 2.40625C2.41352 2.56597 2.33366 2.76389 2.33366 3C2.33366 3.23611 2.41352 3.43403 2.57324 3.59375C2.73296 3.75347 2.93088 3.83333 3.16699 3.83333Z" fill="#808080"/>
</svg>
