<svg width="12" height="8" viewBox="0 0 12 8" fill="none" xmlns="http://www.w3.org/2000/svg">
<path fill-rule="evenodd" clip-rule="evenodd" d="M6.33287 2.22149C4.31973 2.22149 2.68182 3.85956 2.68182 5.87253C2.68182 6.09027 2.50545 6.26664 2.28772 6.26664C2.07029 6.26664 1.89376 6.09027 1.89376 5.87253C1.89376 3.42482 3.88515 1.43343 6.33287 1.43343C6.85916 1.43343 7.37441 1.52483 7.8642 1.70479C8.06848 1.77988 8.17306 2.00619 8.09823 2.21047C8.02313 2.41475 7.79654 2.51945 7.59226 2.44436C7.19002 2.29658 6.76616 2.22149 6.33287 2.22149ZM6.33287 0.479004C3.359 0.479004 0.939453 2.89883 0.939453 5.87253C0.939453 6.30184 0.990102 6.72913 1.09009 7.14254C1.14472 7.36914 1.33815 7.5212 1.57102 7.5212H11.095C11.3279 7.5212 11.5213 7.36914 11.5759 7.14254C11.6759 6.72913 11.7264 6.30184 11.7264 5.87253C11.7264 2.89883 9.30687 0.479004 6.33287 0.479004ZM5.22153 5.87253C5.22153 6.48564 5.72019 6.98404 6.33289 6.98404C7.14439 6.98404 7.67523 6.14218 7.34612 5.41677L9.47197 3.29078C9.62591 3.13714 9.62591 2.88768 9.47197 2.73374C9.31806 2.5798 9.06856 2.5798 8.91465 2.73374L6.78894 4.85945C6.05816 4.52936 5.22153 5.06514 5.22153 5.87253Z" fill="#808080"/>
</svg>
