<svg width="20" height="18" viewBox="0 0 20 18" fill="none" xmlns="http://www.w3.org/2000/svg">
<path fill-rule="evenodd" clip-rule="evenodd" d="M17.2004 17.7602H2.80039C1.47491 17.7602 0.400391 16.6857 0.400391 15.3602V5.52023C0.400391 4.19475 1.47491 3.12023 2.80039 3.12023H5.20039L6.59098 0.736364C6.77019 0.429146 7.09909 0.240234 7.45476 0.240234H12.546C12.9017 0.240234 13.2306 0.429146 13.4098 0.736363L14.8004 3.12023H17.2004C18.5259 3.12023 19.6004 4.19475 19.6004 5.52023V15.3602C19.6004 16.6857 18.5259 17.7602 17.2004 17.7602ZM10.0004 13.4402C11.9886 13.4402 13.6004 11.8285 13.6004 9.84023C13.6004 7.85201 11.9886 6.24023 10.0004 6.24023C8.01217 6.24023 6.40039 7.85201 6.40039 9.84023C6.40039 11.8285 8.01217 13.4402 10.0004 13.4402Z" fill="#808080"/>
</svg>
