<svg width="16" height="20" viewBox="0 0 16 20" fill="none" xmlns="http://www.w3.org/2000/svg">
<path fill-rule="evenodd" clip-rule="evenodd" d="M2.60078 5.88611C2.60078 2.84719 5.00935 0.400391 8.00078 0.400391C10.9922 0.400391 13.4008 2.84719 13.4008 5.88611V6.80039C14.3908 6.80039 15.2008 7.62325 15.2008 8.62896V17.7718C15.2008 18.7775 14.3908 19.6004 13.4008 19.6004H2.60078C1.61078 19.6004 0.800781 18.7775 0.800781 17.7718V8.62896C0.800781 7.62325 1.61078 6.80039 2.60078 6.80039V5.88611ZM11.6008 5.88611C11.6008 3.80502 10.0494 2.22896 8.00078 2.22896C5.95221 2.22896 4.40078 3.80502 4.40078 5.88611V6.80039H11.6008V5.88611ZM9 11.8004C9 11.2481 8.55229 10.8004 8 10.8004C7.44771 10.8004 7 11.2481 7 11.8004V14.2004C7 14.7527 7.44771 15.2004 8 15.2004C8.55229 15.2004 9 14.7527 9 14.2004V11.8004Z" fill="#808080"/>
</svg>
