<svg width="15" height="12" viewBox="0 0 15 12" fill="none" xmlns="http://www.w3.org/2000/svg">
<path d="M7.78792 11.3337C6.29903 11.3337 5.03237 10.817 3.98792 9.78366C2.94348 8.75033 2.42126 7.48921 2.42126 6.00033V5.88366L1.82126 6.48366C1.69903 6.60588 1.54348 6.66699 1.35459 6.66699C1.1657 6.66699 1.01015 6.60588 0.887923 6.48366C0.765701 6.36144 0.70459 6.20588 0.70459 6.01699C0.70459 5.8281 0.765701 5.67255 0.887923 5.55033L2.62126 3.81699C2.75459 3.68366 2.91015 3.61699 3.08792 3.61699C3.2657 3.61699 3.42126 3.68366 3.55459 3.81699L5.28792 5.55033C5.41015 5.67255 5.47126 5.8281 5.47126 6.01699C5.47126 6.20588 5.41015 6.36144 5.28792 6.48366C5.1657 6.60588 5.01015 6.66699 4.82126 6.66699C4.63237 6.66699 4.47681 6.60588 4.35459 6.48366L3.75459 5.88366V6.00033C3.75459 7.11144 4.14626 8.05588 4.92959 8.83366C5.71292 9.61144 6.6657 10.0003 7.78792 10.0003C7.9657 10.0003 8.1407 9.98921 8.31292 9.96699C8.48515 9.94477 8.65459 9.90588 8.82126 9.85033C9.01015 9.79477 9.18792 9.80033 9.35459 9.86699C9.52126 9.93366 9.64903 10.0503 9.73792 10.217C9.82681 10.3948 9.83514 10.5698 9.76292 10.742C9.6907 10.9142 9.56014 11.0281 9.37126 11.0837C9.1157 11.1725 8.85459 11.2364 8.58792 11.2753C8.32126 11.3142 8.05459 11.3337 7.78792 11.3337ZM7.72126 2.00033C7.54348 2.00033 7.36848 2.01144 7.19626 2.03366C7.02403 2.05588 6.85459 2.09477 6.68792 2.15033C6.49903 2.20588 6.31848 2.20033 6.14626 2.13366C5.97403 2.06699 5.84348 1.95033 5.75459 1.78366C5.6657 1.61699 5.65737 1.44755 5.72959 1.27533C5.80181 1.1031 5.92681 0.989214 6.10459 0.933659C6.37126 0.84477 6.63792 0.778103 6.90459 0.733659C7.17126 0.689214 7.44348 0.666992 7.72126 0.666992C9.21014 0.666992 10.4768 1.18366 11.5213 2.21699C12.5657 3.25033 13.0879 4.51144 13.0879 6.00033V6.11699L13.6879 5.51699C13.8101 5.39477 13.9657 5.33366 14.1546 5.33366C14.3435 5.33366 14.499 5.39477 14.6213 5.51699C14.7435 5.63921 14.8046 5.79477 14.8046 5.98366C14.8046 6.17255 14.7435 6.3281 14.6213 6.45033L12.8879 8.18366C12.7546 8.31699 12.599 8.38366 12.4213 8.38366C12.2435 8.38366 12.0879 8.31699 11.9546 8.18366L10.2213 6.45033C10.099 6.3281 10.0379 6.17255 10.0379 5.98366C10.0379 5.79477 10.099 5.63921 10.2213 5.51699C10.3435 5.39477 10.499 5.33366 10.6879 5.33366C10.8768 5.33366 11.0324 5.39477 11.1546 5.51699L11.7546 6.11699V6.00033C11.7546 4.88921 11.3629 3.94477 10.5796 3.16699C9.79626 2.38921 8.84348 2.00033 7.72126 2.00033Z" fill="#181818"/>
</svg>
