<svg width="20" height="18" viewBox="0 0 20 18" fill="none" xmlns="http://www.w3.org/2000/svg">
<path d="M4 18C3.71667 18 3.47917 17.9042 3.2875 17.7125C3.09583 17.5208 3 17.2833 3 17C3 16.7167 3.09583 16.4792 3.2875 16.2875C3.47917 16.0958 3.71667 16 4 16H16C16.2833 16 16.5208 16.0958 16.7125 16.2875C16.9042 16.4792 17 16.7167 17 17C17 17.2833 16.9042 17.5208 16.7125 17.7125C16.5208 17.9042 16.2833 18 16 18H4ZM4.7 14.5C4.21667 14.5 3.7875 14.3417 3.4125 14.025C3.0375 13.7083 2.80833 13.3083 2.725 12.825L1.725 6.475C1.69167 6.475 1.65417 6.47917 1.6125 6.4875C1.57083 6.49583 1.53333 6.5 1.5 6.5C1.08333 6.5 0.729167 6.35417 0.4375 6.0625C0.145833 5.77083 0 5.41667 0 5C0 4.58333 0.145833 4.22917 0.4375 3.9375C0.729167 3.64583 1.08333 3.5 1.5 3.5C1.91667 3.5 2.27083 3.64583 2.5625 3.9375C2.85417 4.22917 3 4.58333 3 5C3 5.11667 2.9875 5.225 2.9625 5.325C2.9375 5.425 2.90833 5.51667 2.875 5.6L6 7L9.125 2.725C8.94167 2.59167 8.79167 2.41667 8.675 2.2C8.55833 1.98333 8.5 1.75 8.5 1.5C8.5 1.08333 8.64583 0.729167 8.9375 0.4375C9.22917 0.145833 9.58333 0 10 0C10.4167 0 10.7708 0.145833 11.0625 0.4375C11.3542 0.729167 11.5 1.08333 11.5 1.5C11.5 1.75 11.4417 1.98333 11.325 2.2C11.2083 2.41667 11.0583 2.59167 10.875 2.725L14 7L17.125 5.6C17.0917 5.51667 17.0625 5.425 17.0375 5.325C17.0125 5.225 17 5.11667 17 5C17 4.58333 17.1458 4.22917 17.4375 3.9375C17.7292 3.64583 18.0833 3.5 18.5 3.5C18.9167 3.5 19.2708 3.64583 19.5625 3.9375C19.8542 4.22917 20 4.58333 20 5C20 5.41667 19.8542 5.77083 19.5625 6.0625C19.2708 6.35417 18.9167 6.5 18.5 6.5C18.4667 6.5 18.4292 6.49583 18.3875 6.4875C18.3458 6.47917 18.3083 6.475 18.275 6.475L17.275 12.825C17.1917 13.3083 16.9625 13.7083 16.5875 14.025C16.2125 14.3417 15.7833 14.5 15.3 14.5H4.7Z" fill="#808080"/>
</svg>
