<svg width="20" height="20" viewBox="0 0 20 20" fill="none" xmlns="http://www.w3.org/2000/svg">
<g id="GPS fixed">
<path id="primary" d="M15.6875 10C15.6875 11.1249 15.3539 12.2245 14.729 13.1598C14.104 14.0951 13.2158 14.8241 12.1765 15.2546C11.1373 15.685 9.99369 15.7977 8.89042 15.5782C7.78716 15.3588 6.77374 14.8171 5.97833 14.0217C5.18292 13.2263 4.64124 12.2128 4.42178 11.1096C4.20233 10.0063 4.31496 8.86274 4.74544 7.82349C5.17591 6.78423 5.90489 5.89597 6.84019 5.27102C7.7755 4.64607 8.87512 4.3125 10 4.3125C11.5084 4.3125 12.9551 4.91172 14.0217 5.97833C15.0883 7.04494 15.6875 8.49158 15.6875 10ZM10 2.6875V4.3125V2.6875ZM17.3125 10H15.6875H17.3125ZM10 17.3125V15.6875V17.3125ZM2.6875 10H4.3125H2.6875ZM12.4375 10C12.4375 9.51791 12.2945 9.04664 12.0267 8.6458C11.7589 8.24495 11.3782 7.93253 10.9328 7.74804C10.4874 7.56355 9.9973 7.51528 9.52447 7.60934C9.05164 7.70339 8.61732 7.93554 8.27643 8.27643C7.93554 8.61732 7.70339 9.05164 7.60934 9.52447C7.51528 9.9973 7.56355 10.4874 7.74804 10.9328C7.93253 11.3782 8.24495 11.7589 8.6458 12.0267C9.04664 12.2945 9.51791 12.4375 10 12.4375C10.6465 12.4375 11.2665 12.1807 11.7236 11.7236C12.1807 11.2665 12.4375 10.6465 12.4375 10Z" stroke="white" stroke-width="1.625" stroke-linecap="round" stroke-linejoin="round"/>
</g>
</svg>
