<svg width="17" height="16" viewBox="0 0 17 16" fill="none" xmlns="http://www.w3.org/2000/svg">
<g clip-path="url(#clip0_1_2775)">
<path d="M6.66663 5.33337H1.66663C1.02332 5.33337 0.5 4.81006 0.5 4.16663V1.16663C0.5 0.523315 1.02332 0 1.66663 0H6.66663C7.31006 0 7.83337 0.523315 7.83337 1.16663V4.16663C7.83337 4.81006 7.31006 5.33337 6.66663 5.33337ZM1.66663 1C1.57471 1 1.5 1.07471 1.5 1.16663V4.16663C1.5 4.25867 1.57471 4.33337 1.66663 4.33337H6.66663C6.75867 4.33337 6.83337 4.25867 6.83337 4.16663V1.16663C6.83337 1.07471 6.75867 1 6.66663 1H1.66663Z" fill="#787680"/>
<path d="M6.66663 16H1.66663C1.02332 16 0.5 15.4767 0.5 14.8334V7.83337C0.5 7.18994 1.02332 6.66663 1.66663 6.66663H6.66663C7.31006 6.66663 7.83337 7.18994 7.83337 7.83337V14.8334C7.83337 15.4767 7.31006 16 6.66663 16ZM1.66663 7.66663C1.57471 7.66663 1.5 7.74133 1.5 7.83337V14.8334C1.5 14.9253 1.57471 15 1.66663 15H6.66663C6.75867 15 6.83337 14.9253 6.83337 14.8334V7.83337C6.83337 7.74133 6.75867 7.66663 6.66663 7.66663H1.66663Z" fill="#787680"/>
<path d="M15.3334 16H10.3334C9.68994 16 9.16663 15.4767 9.16663 14.8334V11.8334C9.16663 11.1899 9.68994 10.6666 10.3334 10.6666H15.3334C15.9767 10.6666 16.5 11.1899 16.5 11.8334V14.8334C16.5 15.4767 15.9767 16 15.3334 16ZM10.3334 11.6666C10.2413 11.6666 10.1666 11.7413 10.1666 11.8334V14.8334C10.1666 14.9253 10.2413 15 10.3334 15H15.3334C15.4253 15 15.5 14.9253 15.5 14.8334V11.8334C15.5 11.7413 15.4253 11.6666 15.3334 11.6666H10.3334Z" fill="#787680"/>
<path d="M15.3334 9.33337H10.3334C9.68994 9.33337 9.16663 8.81006 9.16663 8.16663V1.16663C9.16663 0.523315 9.68994 0 10.3334 0H15.3334C15.9767 0 16.5 0.523315 16.5 1.16663V8.16663C16.5 8.81006 15.9767 9.33337 15.3334 9.33337ZM10.3334 1C10.2413 1 10.1666 1.07471 10.1666 1.16663V8.16663C10.1666 8.25867 10.2413 8.33337 10.3334 8.33337H15.3334C15.4253 8.33337 15.5 8.25867 15.5 8.16663V1.16663C15.5 1.07471 15.4253 1 15.3334 1H10.3334Z" fill="#787680"/>
</g>
<defs>
<clipPath id="clip0_1_2775">
<rect width="16" height="16" fill="white" transform="translate(0.5)"/>
</clipPath>
</defs>
</svg>
