<svg width="20" height="21" viewBox="0 0 20 21" fill="none" xmlns="http://www.w3.org/2000/svg">
<path d="M6 0C5.44772 0 5 0.447715 5 1C5 1.55228 5.44772 2 6 2H14.5C15.0523 2 15.5 1.55228 15.5 1C15.5 0.447715 15.0523 0 14.5 0H6Z" fill="#E5484D"/>
<path fill-rule="evenodd" clip-rule="evenodd" d="M14.8004 20.2H5.20039C3.87491 20.2 2.80039 19.1254 2.80039 17.8L1.99961 5.39999H1.7C1.03726 5.39999 0.5 4.86273 0.5 4.19999C0.5 3.53725 1.03726 2.99999 1.7 2.99999C1.7 2.99999 3.80762 2.99013 5.09419 2.99999C7.08815 3.01527 10.1992 2.99999 10.1992 2.99999H18.6992C19.362 2.99999 19.8992 3.53725 19.8992 4.19999C19.8992 4.86273 19.362 5.39999 18.6992 5.39999H18.3996L17.2004 17.8C17.2004 19.1254 16.1259 20.2 14.8004 20.2ZM8.80039 9.39995C8.80039 8.73721 8.26313 8.19995 7.60039 8.19995C6.93765 8.19995 6.40039 8.73721 6.40039 9.39995V15.4C6.40039 16.0627 6.93765 16.6 7.60039 16.6C8.26313 16.6 8.80039 16.0627 8.80039 15.4V9.39995ZM13.6004 9.39995C13.6004 8.73721 13.0631 8.19995 12.4004 8.19995C11.7376 8.19995 11.2004 8.73721 11.2004 9.39995V15.4C11.2004 16.0627 11.7376 16.6 12.4004 16.6C13.0631 16.6 13.6004 16.0627 13.6004 15.4V9.39995Z" fill="#E5484D"/>
</svg>
