<svg width="21" height="20" viewBox="0 0 21 20" fill="none" xmlns="http://www.w3.org/2000/svg">
<path d="M6.33301 9.16667V6.66667C6.33301 4.36548 8.19849 2.5 10.4997 2.5C12.5155 2.5 14.1969 3.93147 14.583 5.83333M7.83301 17.5H13.1663C14.5665 17.5 15.2665 17.5 15.8013 17.2275C16.2717 16.9878 16.6542 16.6054 16.8939 16.135C17.1663 15.6002 17.1663 14.9001 17.1663 13.5V13.1667C17.1663 11.7665 17.1663 11.0665 16.8939 10.5317C16.6542 10.0613 16.2717 9.67883 15.8013 9.43915C15.2665 9.16667 14.5665 9.16667 13.1663 9.16667H7.83301C6.43288 9.16667 5.73281 9.16667 5.19803 9.43915C4.72763 9.67883 4.34517 10.0613 4.10549 10.5317C3.83301 11.0665 3.83301 11.7665 3.83301 13.1667V13.5C3.83301 14.9001 3.83301 15.6002 4.10549 16.135C4.34517 16.6054 4.72763 16.9878 5.19803 17.2275C5.73281 17.5 6.43288 17.5 7.83301 17.5Z" stroke="white" stroke-width="1.66667" stroke-linecap="round" stroke-linejoin="round"/>
</svg>
