<svg width="25" height="24" viewBox="0 0 25 24" fill="none" stroke="currentColor" xmlns="http://www.w3.org/2000/svg" class="h-4 w-4"><path d="M10.508 10L7.93 7.95302C7.63 7.70102 7.48 7.57602 7.515 7.44602C7.549 7.31602 7.742 7.28202 8.127 7.21602L9.3 7.01002C9.747 6.93202 9.803 6.81702 9.604 6.41002L8.36 3.87002C8.114 3.36602 7.99 3.11402 8.103 3.00802C8.216 2.90102 8.458 3.04002 8.943 3.31802L11.034 4.52002C11.394 4.72702 11.43 4.71702 11.616 4.34302L12.46 2.64602C12.68 2.20402 12.79 1.98302 12.936 2.00102C13.083 2.01902 13.136 2.26102 13.243 2.74302L13.923 5.82302C14.013 6.22702 14.117 6.28302 14.497 6.11902L16.766 5.14102C17.161 4.97102 17.358 4.88602 17.458 4.98402C17.558 5.08202 17.478 5.28302 17.318 5.68402L15.506 10M12.994 10L12.494 8.50002M2.5 13H7.245C8.013 13.501 8.657 13.57 9.475 13.986C10.49 14.58 10.973 15.5 10.968 17C10.968 18 11.098 19.02 10.782 19.57C10.42 20.2 8.197 19.998 7.997 19.998C7.997 21.1 7.191 22 5.997 22C4.901 22 4.006 21.1 4.006 19.998M7.245 12.999C6.221 12.331 5.66 11.087 5.032 10.079C4.16 8.57902 2.966 8.09902 2.512 8.00402M4.006 19.998C4.00652 19.4697 4.2161 18.963 4.58895 18.5886C4.96181 18.2143 5.46765 18.0027 5.996 18C7.19 18 7.996 18.95 7.996 19.998M4.006 19.998H2.5M17.756 12.997H22.5M17.756 12.997C16.987 13.499 16.344 13.567 15.526 13.984C14.51 14.578 14.028 15.498 14.032 16.999C14.032 17.999 13.902 19.019 14.219 19.569C14.581 20.199 16.804 19.997 17.004 19.997M17.756 12.997C18.779 12.328 19.341 11.084 19.968 10.077C20.84 8.57702 22.035 8.09602 22.488 8.00002M17.004 19.997C17.004 21.1 17.81 22 19.004 22C20.099 22 20.994 21.1 20.994 19.997M17.004 19.997C17.004 18.949 17.81 17.999 19.004 17.999C19.5324 18.0017 20.0382 18.2133 20.411 18.5876C20.7839 18.962 20.9935 19.4687 20.994 19.997M20.994 19.997H22.5" stroke-width="1.3" stroke-linecap="round" stroke-linejoin="round"></path></svg>