<svg width="24" height="24" viewBox="0 0 24 24" fill="currentColor" xmlns="http://www.w3.org/2000/svg" class="h-4 w-4"><path d="M16.1793 15.3233C16.1793 15.1423 16.1968 14.967 16.2377 14.7977H9.91785C9.67837 13.7463 8.73214 12.9578 7.60484 12.9578C6.30231 12.9578 5.23926 14.0208 5.23926 15.3233C5.23926 16.6259 6.30231 17.6948 7.60484 17.6948C8.69125 17.6948 9.60828 16.9646 9.88864 15.9658H16.2669C16.2085 15.7614 16.1793 15.5453 16.1793 15.3233ZM8.76718 15.96C8.53939 16.3689 8.10716 16.6434 7.60484 16.6434C6.88056 16.6434 6.29063 16.0535 6.29063 15.3233C6.29063 14.5932 6.88056 14.0091 7.60484 14.0091C8.14804 14.0091 8.60948 14.3304 8.81391 14.7977C8.884 14.9554 8.92489 15.1364 8.92489 15.3233C8.92489 15.5511 8.86648 15.7673 8.76718 15.96Z"></path><path d="M23.9708 12.3736C23.9182 12.2101 23.8656 12.0757 23.8131 11.9706C22.8785 10.0314 20.2326 9.58167 18.5387 9.50574C18.1999 8.82819 17.721 8.23825 17.1369 7.77682C16.4067 7.21025 15.5306 6.85979 14.6019 6.7605H3.84874C3.52165 6.7605 3.26465 7.02334 3.26465 7.35627C3.26465 7.68921 3.52165 7.95205 3.84874 7.95205H14.5143C15.0049 8.00462 15.735 8.19153 16.4243 8.72889C17.0609 9.23121 17.4114 9.82699 17.5866 10.2359C17.7093 10.5104 17.9604 10.6856 18.2291 10.6856C19.3447 10.7148 22.0199 10.9484 22.7734 12.5138C22.7967 12.5605 22.8143 12.6014 22.8318 12.6482V14.6574C22.8318 14.7217 22.7792 14.7743 22.715 14.7743H20.8517C20.6064 13.7346 19.666 12.9577 18.5445 12.9577C17.4231 12.9577 16.4768 13.7463 16.2374 14.7976C16.1965 14.967 16.179 15.1422 16.179 15.3233C16.179 15.5453 16.2082 15.7614 16.2666 15.9658C16.5469 16.9646 17.464 17.6947 18.5445 17.6947C19.6251 17.6947 20.548 16.9646 20.8283 15.9658H22.715C23.4217 15.9658 24 15.3759 24 14.6574V12.5547L23.9708 12.3736ZM19.8354 15.5803C19.7186 16.1878 19.187 16.6434 18.5445 16.6434C17.902 16.6434 17.3822 16.1936 17.2595 15.5861C17.2362 15.4985 17.2303 15.4109 17.2303 15.3233C17.2303 15.2649 17.2362 15.2065 17.242 15.1481C17.3296 14.5056 17.8787 14.0091 18.5445 14.0091C19.2104 14.0091 19.7653 14.5056 19.8529 15.1481C19.8587 15.2065 19.8646 15.2649 19.8646 15.3233C19.8646 15.4109 19.8587 15.4985 19.8354 15.5803Z"></path><path d="M10.2103 11.7837C9.91821 11.7837 9.68457 11.5501 9.68457 11.258C9.68457 10.966 9.91821 10.7324 10.2103 10.7265L14.8188 10.7031C15.2043 10.7031 15.5547 10.5338 15.7183 10.2768L15.8234 10.1074C15.9753 9.86205 16.3023 9.78612 16.5477 9.94383C16.793 10.0957 16.8689 10.4228 16.7112 10.6681L16.6061 10.8375C16.2498 11.3982 15.5664 11.7545 14.8246 11.7545L10.2161 11.7779L10.2103 11.7837Z"></path><path d="M6.67619 10.5635H0.584093C0.262842 10.5635 0 10.3006 0 9.97936C0 9.65811 0.262842 9.39526 0.584093 9.39526H6.67619C6.99744 9.39526 7.26028 9.65811 7.26028 9.97936C7.26028 10.3006 6.99744 10.5635 6.67619 10.5635Z"></path><path d="M10.6018 4.14402H4.76085C4.4396 4.14402 4.17676 3.88117 4.17676 3.55992C4.17676 3.23867 4.4396 2.97583 4.76085 2.97583H10.6018C10.923 2.97583 11.1859 3.23867 11.1859 3.55992C11.1859 3.88117 10.923 4.14402 10.6018 4.14402Z"></path><path d="M3.41139 15.7092H2.83898C2.51772 15.7092 2.25488 15.4464 2.25488 15.1251C2.25488 14.8039 2.51772 14.541 2.83898 14.541H3.41139C3.73264 14.541 3.99548 14.8039 3.99548 15.1251C3.99548 15.4464 3.73264 15.7092 3.41139 15.7092Z"></path><path d="M3.17127 4.14939H2.32433C2.00308 4.14939 1.74023 3.88655 1.74023 3.56529C1.74023 3.24404 2.00308 2.9812 2.32433 2.9812H3.17127C3.49252 2.9812 3.75536 3.24404 3.75536 3.56529C3.75536 3.88655 3.49252 4.14939 3.17127 4.14939Z"></path><path d="M17.0442 21.0185H11.2032C10.882 21.0185 10.6191 20.7557 10.6191 20.4344C10.6191 20.1132 10.882 19.8503 11.2032 19.8503H17.0442C17.3654 19.8503 17.6283 20.1132 17.6283 20.4344C17.6283 20.7557 17.3654 21.0185 17.0442 21.0185Z"></path><path d="M9.61365 21.0241H8.76671C8.44546 21.0241 8.18262 20.7613 8.18262 20.4401C8.18262 20.1188 8.44546 19.856 8.76671 19.856H9.61365C9.9349 19.856 10.1977 20.1188 10.1977 20.4401C10.1977 20.7613 9.9349 21.0241 9.61365 21.0241Z"></path></svg>