<svg width="24" height="24" viewBox="0 0 24 24" fill="currentColor" stroke="none" xmlns="http://www.w3.org/2000/svg" class="h-4 w-4"><path d="M18.8423 16.8256L18.8815 17.3348L18.8749 17.3479L23.9995 17.3283L23.9538 16.7342C23.4969 10.8001 18.9206 5.87139 13.3064 5.26428C10.2709 4.93787 7.1112 5.92362 4.62398 7.96693C1.95397 10.1604 0.308909 13.2678 0.00208618 16.7277C-0.0240264 17.0345 0.197903 17.3022 0.504726 17.3283H0.570031C0.876854 17.3544 1.15103 17.1324 1.17714 16.8256C1.38604 14.6191 2.48276 12.6019 4.26494 11.1396C6.10588 9.62507 8.48215 8.89392 10.7801 9.12241C13.0409 9.35095 15.1124 10.4374 16.5926 12.0002L17.7225 11.6091C16.0465 9.65781 13.5892 8.28741 10.891 8.01915C10.5777 7.98651 10.2643 7.97345 9.95096 7.97345C8.00558 7.97345 6.05366 8.56752 4.39551 9.67077C4.68928 9.37048 5.00263 9.08324 5.33557 8.80906C7.5943 6.95507 10.4601 6.06071 13.1954 6.35448C18.0981 6.88326 22.1325 11.0678 22.7918 16.212L19.8868 16.225C19.7153 15.0517 19.2908 13.9284 18.6692 12.909L17.7225 13.4727C18.3471 14.4962 18.7447 15.6369 18.8423 16.8256Z"></path><path d="M11.727 13.2089C11.4332 13.1436 11.1134 13.1501 10.8131 13.1828C9.93176 13.2807 9.12227 13.7899 8.73058 14.5863C7.69261 16.708 9.22018 18.797 11.2113 18.797C12.3994 18.797 13.4178 18.0593 13.8356 17.0083L22.8118 9.70328C22.9554 9.58577 22.8248 9.35728 22.6551 9.41604L11.727 13.2154V13.2089ZM11.5834 17.524C10.4344 17.7851 9.42909 16.7928 9.6641 15.6439C9.80772 14.9323 10.4736 14.4035 11.1982 14.3905C11.3288 14.3905 11.4528 14.4035 11.5703 14.4362C11.6095 14.4427 11.6356 14.4492 11.6617 14.4558C12.4516 14.6908 12.9804 15.5133 12.7389 16.4077C12.5952 16.956 12.1317 17.3934 11.5768 17.5175L11.5834 17.524ZM13.2154 13.9923L19.9996 11.0003L13.9531 15.324C13.8291 14.8083 13.5679 14.3513 13.2154 13.9923Z"></path></svg>