<svg width="22" height="18" viewBox="0 0 22 18" fill="currentColor" xmlns="http://www.w3.org/2000/svg" class="h-4 w-4"><path d="M0.961914 6.5C1.10391 6.5 1.22258 6.548 1.31791 6.644C1.41325 6.74 1.46091 6.85867 1.46091 7V11C1.46091 11.142 1.41325 11.2607 1.31791 11.356C1.22191 11.452 1.10291 11.5 0.960914 11.5C0.818914 11.5 0.700247 11.452 0.604914 11.356C0.509581 11.26 0.461914 11.1413 0.461914 11V7C0.461914 6.858 0.509914 6.73933 0.605914 6.644C0.701914 6.54867 0.820581 6.50067 0.961914 6.5ZM3.73191 4.5C3.87325 4.5 3.99191 4.548 4.08791 4.644C4.18391 4.74 4.23125 4.85867 4.22991 5V13C4.22991 13.142 4.18191 13.2607 4.08591 13.356C3.98991 13.452 3.87091 13.5 3.72891 13.5C3.58691 13.5 3.46825 13.452 3.37291 13.356C3.27758 13.26 3.23025 13.1413 3.23091 13V5C3.23091 4.858 3.27891 4.73933 3.37491 4.644C3.47091 4.54867 3.58925 4.50067 3.72991 4.5M21.0379 6.5C21.1799 6.5 21.2986 6.548 21.3939 6.644C21.4892 6.74 21.5372 6.85867 21.5379 7V11C21.5379 11.142 21.4896 11.2607 21.3929 11.356C21.2962 11.4513 21.1776 11.4993 21.0369 11.5C20.8962 11.5007 20.7776 11.4527 20.6809 11.356C20.5842 11.2593 20.5366 11.1407 20.5379 11V7C20.5379 6.858 20.5856 6.73933 20.6809 6.644C20.7769 6.548 20.8959 6.5 21.0379 6.5ZM18.2689 4.5C18.4109 4.5 18.5296 4.548 18.6249 4.644C18.7202 4.74 18.7679 4.85867 18.7679 5V13C18.7679 13.142 18.7199 13.2607 18.6239 13.356C18.5279 13.4513 18.4092 13.4993 18.2679 13.5C18.1266 13.5007 18.0079 13.4527 17.9119 13.356C17.8159 13.2593 17.7679 13.1407 17.7679 13V5C17.7679 4.858 17.8159 4.73933 17.9119 4.644C18.0079 4.548 18.1269 4.5 18.2689 4.5ZM7.61591 17C7.17125 17 6.79091 16.8417 6.47491 16.525C6.15891 16.2083 6.00058 15.8287 5.99991 15.386V2.615C5.99991 2.171 6.15825 1.791 6.47491 1.475C6.79158 1.159 7.17158 1.00067 7.61491 1H14.3849C14.8289 1 15.2089 1.15833 15.5249 1.475C15.8409 1.79167 15.9992 2.17167 15.9999 2.615V15.385C15.9999 15.829 15.8416 16.209 15.5249 16.525C15.2082 16.841 14.8282 16.9993 14.3849 17H7.61591ZM7.61591 16H14.3849C14.5642 16 14.7116 15.9423 14.8269 15.827C14.9422 15.7117 14.9999 15.5643 14.9999 15.385V2.615C14.9999 2.43567 14.9422 2.28833 14.8269 2.173C14.7116 2.05767 14.5642 2 14.3849 2H7.61491C7.43558 2 7.28825 2.05767 7.17291 2.173C7.05758 2.28833 6.99991 2.436 6.99991 2.616V15.385C6.99991 15.5643 7.05758 15.7117 7.17291 15.827C7.28825 15.9423 7.43591 16 7.61591 16Z"></path><path d="M3.73191 4.5C3.87325 4.5 3.99191 4.548 4.08791 4.644C4.18391 4.74 4.23125 4.85867 4.22991 5V13C4.22991 13.142 4.18191 13.2607 4.08591 13.356C3.98991 13.452 3.87091 13.5 3.72891 13.5C3.58691 13.5 3.46825 13.452 3.37291 13.356C3.27758 13.26 3.23025 13.1413 3.23091 13V5C3.23091 4.858 3.27891 4.73933 3.37491 4.644C3.47091 4.54867 3.58925 4.50067 3.72991 4.5M6.99991 16V2M0.961914 6.5C1.10391 6.5 1.22258 6.548 1.31791 6.644C1.41325 6.74 1.46091 6.85867 1.46091 7V11C1.46091 11.142 1.41325 11.2607 1.31791 11.356C1.22191 11.452 1.10291 11.5 0.960914 11.5C0.818914 11.5 0.700247 11.452 0.604914 11.356C0.509581 11.26 0.461914 11.1413 0.461914 11V7C0.461914 6.858 0.509914 6.73933 0.605914 6.644C0.701914 6.54867 0.820581 6.50067 0.961914 6.5ZM21.0379 6.5C21.1799 6.5 21.2986 6.548 21.3939 6.644C21.4892 6.74 21.5372 6.85867 21.5379 7V11C21.5379 11.142 21.4896 11.2607 21.3929 11.356C21.2962 11.4513 21.1776 11.4993 21.0369 11.5C20.8962 11.5007 20.7776 11.4527 20.6809 11.356C20.5842 11.2593 20.5366 11.1407 20.5379 11V7C20.5379 6.858 20.5856 6.73933 20.6809 6.644C20.7769 6.548 20.8959 6.5 21.0379 6.5ZM18.2689 4.5C18.4109 4.5 18.5296 4.548 18.6249 4.644C18.7202 4.74 18.7679 4.85867 18.7679 5V13C18.7679 13.142 18.7199 13.2607 18.6239 13.356C18.5279 13.4513 18.4092 13.4993 18.2679 13.5C18.1266 13.5007 18.0079 13.4527 17.9119 13.356C17.8159 13.2593 17.7679 13.1407 17.7679 13V5C17.7679 4.858 17.8159 4.73933 17.9119 4.644C18.0079 4.548 18.1269 4.5 18.2689 4.5ZM7.61591 17C7.17125 17 6.79091 16.8417 6.47491 16.525C6.15891 16.2083 6.00058 15.8287 5.99991 15.386V2.615C5.99991 2.171 6.15825 1.791 6.47491 1.475C6.79158 1.159 7.17158 1.00067 7.61491 1H14.3849C14.8289 1 15.2089 1.15833 15.5249 1.475C15.8409 1.79167 15.9992 2.17167 15.9999 2.615V15.385C15.9999 15.829 15.8416 16.209 15.5249 16.525C15.2082 16.841 14.8282 16.9993 14.3849 17H7.61591ZM7.61591 16H14.3849C14.5642 16 14.7116 15.9423 14.8269 15.827C14.9422 15.7117 14.9999 15.5643 14.9999 15.385V2.615C14.9999 2.43567 14.9422 2.28833 14.8269 2.173C14.7116 2.05767 14.5642 2 14.3849 2H7.61491C7.43558 2 7.28825 2.05767 7.17291 2.173C7.05758 2.28833 6.99991 2.436 6.99991 2.616V15.385C6.99991 15.5643 7.05758 15.7117 7.17291 15.827C7.28825 15.9423 7.43591 16 7.61591 16Z" stroke-width="0.2"></path></svg>