<svg width="20" height="18" viewBox="0 0 20 18" fill="currentColor" stroke="none" xmlns="http://www.w3.org/2000/svg" class="h-4 w-4"><path d="M19.992 7.53694C19.992 9.36056 19.992 11.1917 19.992 13.0153C19.992 14.01 19.3515 14.8013 18.3944 15.0047C18.2061 15.0424 18.0101 15.05 17.8142 15.05C16.2769 15.05 14.7472 15.05 13.2099 15.05C13.0291 15.05 12.9161 15.1102 12.8106 15.2459C12.2454 15.9618 11.6651 16.6776 11.0924 17.3935C10.467 18.1697 9.50996 18.1697 8.89203 17.3935C8.31933 16.6776 7.73908 15.9693 7.17391 15.2459C7.06841 15.1102 6.95538 15.05 6.77452 15.05C5.22218 15.0575 3.66231 15.05 2.10997 15.05C1.13034 15.05 0.384316 14.5451 0.105498 13.6935C0.0376776 13.4825 0 13.2489 0 13.0229C0 9.36056 0 5.70578 0 2.04347C0 0.920665 0.836453 0.0691395 1.95926 0.0239258C2.01955 0.0239258 2.08737 0.0239258 2.14765 0.0239258C7.38491 0.0239258 12.6222 0.0239258 17.8519 0.0239258C18.613 0.0239258 19.2234 0.280137 19.6529 0.913129C19.9016 1.27484 19.9995 1.67423 19.9995 2.11129C19.9995 3.91984 19.9995 5.73593 19.9995 7.54447L19.992 7.53694ZM9.99223 16.6249C10.0676 16.5345 10.1203 16.4666 10.1806 16.3988C10.7985 15.6302 11.424 14.8691 12.0268 14.0929C12.2378 13.8216 12.4865 13.7086 12.8332 13.7161C14.5211 13.7237 16.2091 13.7161 17.8971 13.7161C18.4095 13.7161 18.6657 13.4599 18.6657 12.9475C18.6657 9.33795 18.6657 5.72839 18.6657 2.11883C18.6657 1.60641 18.4095 1.3502 17.8971 1.3502C12.6297 1.3502 7.35477 1.3502 2.08737 1.3502C1.59002 1.3502 1.33381 1.60641 1.33381 2.10376C1.33381 5.72086 1.33381 9.33795 1.33381 12.9551C1.33381 13.0379 1.3338 13.1208 1.35641 13.2037C1.4393 13.5353 1.70305 13.7086 2.11751 13.7086C3.81302 13.7086 5.50854 13.7086 7.19652 13.7086C7.51302 13.7086 7.74662 13.8141 7.95008 14.0628C8.62075 14.9143 9.29895 15.7508 9.99977 16.6174L9.99223 16.6249Z"></path><path d="M8.19881 7.52933C7.43771 6.85866 6.69922 6.20306 5.96073 5.54746C5.74973 5.35907 5.62163 5.14054 5.68191 4.85418C5.78741 4.34176 6.38273 4.15337 6.78965 4.50755C7.34729 4.98983 7.89738 5.47964 8.44748 5.96946C8.82427 6.30102 9.20104 6.63259 9.57029 6.96416C9.97721 7.3334 9.98475 7.74033 9.57783 8.10204C8.65848 8.91588 7.73914 9.72973 6.81226 10.5436C6.39026 10.9128 5.80248 10.747 5.68191 10.2271C5.62163 9.94826 5.72713 9.72973 5.93059 9.54134C6.59372 8.9611 7.24932 8.37332 7.91246 7.79308C8.00288 7.71772 8.08578 7.63483 8.19128 7.5444L8.19881 7.52933Z"></path><path d="M12.0189 10.7398C11.499 10.7398 10.979 10.7398 10.459 10.7398C10.0371 10.7398 9.74316 10.4535 9.74316 10.0692C9.74316 9.69239 10.0446 9.41357 10.4515 9.41357C11.5065 9.41357 12.5615 9.41357 13.6165 9.41357C14.0234 9.41357 14.3248 9.69993 14.3248 10.0767C14.3248 10.4535 14.0309 10.7398 13.624 10.7474C13.089 10.7474 12.5539 10.7474 12.0189 10.7474V10.7398Z"></path></svg>