<svg width="24" height="16" viewBox="0 0 24 16" fill="currentColor" stroke="currentColor" xmlns="http://www.w3.org/2000/svg" class="h-4 w-4"><path d="M3.95705 11.3327C3.83229 11.3327 3.70176 11.301 3.57071 11.237C2.65229 10.7898 2.58572 8.39753 2.65124 7.82657C2.65648 7.77951 2.66225 7.72876 2.66802 7.67431C2.74979 6.91725 2.90181 5.50781 3.88418 5.50781C4.13895 5.50781 4.63905 5.6754 4.7072 6.31086C4.76119 6.81469 4.72397 9.67903 4.71139 10.545C4.70772 10.7845 4.60655 11.006 4.43303 11.153C4.2915 11.2724 4.12952 11.3327 3.95705 11.3327ZM3.88209 6.03648C3.37203 6.04018 3.24884 7.18211 3.18961 7.7314C3.18384 7.78692 3.17807 7.83925 3.17231 7.88736C3.08896 8.6127 3.27505 10.5059 3.79874 10.7607C3.956 10.8374 4.03725 10.7972 4.09597 10.7475C4.15258 10.6994 4.18561 10.6227 4.18718 10.5371C4.21339 8.76813 4.22649 6.74438 4.18613 6.36796C4.1552 6.07931 3.96439 6.04018 3.88156 6.03648H3.88209Z" stroke-width="0.5"></path><path d="M19.3682 5.79746C19.3457 5.74883 19.3147 5.70495 19.277 5.66688L19.2523 5.64203C19.212 5.60133 19.1569 5.57807 19.0998 5.57807H10.9625C10.1054 4.14008 8.54273 3.17578 6.76094 3.17578H4.6966C2.57721 3.17578 0.859375 4.90824 0.859375 7.04566V9.79581C0.859375 11.9295 2.58036 13.6657 4.6966 13.6657H6.76094C8.6308 13.6657 10.259 12.6041 11.0841 11.0472H13.7691C13.8897 11.0472 13.9998 10.979 14.0548 10.8711L14.5193 9.95177C14.5439 9.90366 14.5932 9.87299 14.6472 9.87299H15.6992C15.7517 9.87299 15.7999 9.90207 15.8251 9.94807L16.3288 10.8791C16.3849 10.9827 16.4929 11.0472 16.6098 11.0472H18.9011C18.974 11.0472 19.0442 11.016 19.0935 10.9615C19.7755 10.2119 19.992 9.31366 19.992 8.47413C19.992 7.22118 19.5097 6.09934 19.3682 5.79746ZM6.76094 13.137H4.6966C2.8671 13.137 1.38359 11.6414 1.38359 9.79634V7.04566C1.38359 5.20006 2.8671 3.70445 4.6966 3.70445H6.76094C8.4143 3.70445 9.85483 4.63439 10.5987 6.00259V10.8405C9.85483 12.2081 8.41377 13.137 6.76094 13.137ZM18.7821 10.5185H16.8127C16.7623 10.5185 16.7162 10.491 16.6921 10.4461L16.1889 9.51614C16.1312 9.41041 16.0211 9.34432 15.9011 9.34432H14.4385C14.3153 9.34432 14.2026 9.41411 14.1465 9.5246L13.6826 10.4429C13.659 10.4894 13.6113 10.5185 13.5594 10.5185H11.1229V7.37449H16.647V6.84582H11.1229V6.10779H11.2403V6.10674H18.931C19.1894 6.70202 20.0565 8.99804 18.7821 10.5185Z" stroke-width="0.5"></path><path d="M21.8972 2.75161C21.07 1.29935 19.9539 0.5 18.7551 0.5C17.5562 0.5 16.4402 1.29935 15.613 2.75161C15.3309 3.24645 15.094 3.79732 14.9053 4.39049H15.4567C15.625 3.8946 15.8295 3.43307 16.0674 3.01489C16.7971 1.73392 17.7517 1.02867 18.7551 1.02867C19.7584 1.02867 20.713 1.73392 21.4427 3.01489C22.1991 4.34239 22.6154 6.11291 22.6154 7.99974C22.6154 9.88656 22.1991 11.6576 21.4427 12.9846C20.713 14.2661 19.7584 14.9713 18.7551 14.9713C17.7517 14.9713 16.7971 14.2661 16.0674 12.9846C15.9422 12.7647 15.8263 12.5326 15.7199 12.2894H15.1506C15.2879 12.6277 15.4421 12.9486 15.613 13.2484C16.4402 14.7001 17.5562 15.5 18.7551 15.5C19.9539 15.5 21.07 14.7001 21.8972 13.2484C22.6982 11.8421 23.1396 9.97802 23.1396 7.99974C23.1396 6.02145 22.6982 4.15788 21.8972 2.75161Z" stroke-width="0.5"></path></svg>