<svg width="24" height="24" viewBox="0 0 24 24" fill="currentColor" xmlns="http://www.w3.org/2000/svg" class="h-4 w-4"><path d="M12 19.8571C12.789 19.8571 13.4286 19.2176 13.4286 18.4286C13.4286 17.6396 12.789 17 12 17C11.211 17 10.5714 17.6396 10.5714 18.4286C10.5714 19.2176 11.211 19.8571 12 19.8571Z"></path><path d="M22 3.01L20.99 2L2 20.99L3.01 22L10.64 14.37C11.3734 14.1202 12.1613 14.076 12.918 14.2422C13.6748 14.4084 14.3716 14.7787 14.9329 15.3129L15.9429 14.3029C14.9521 13.3542 13.6522 12.7952 12.2821 12.7286L14.7021 10.3086C15.9233 10.7139 17.0375 11.3889 17.9621 12.2836L18.9714 11.2736C18.0591 10.3876 16.9861 9.68388 15.81 9.2L17.9507 7.05929C19.0655 7.63902 20.0892 8.37903 20.9893 9.25571L22 8.245V8.24357C21.1049 7.36853 20.0987 6.61494 19.0071 6.00214L22 3.01ZM11.0571 9.91286L12.5157 8.45429C12.3429 8.445 12.1736 8.42857 12 8.42857C9.3898 8.42846 6.88378 9.45257 5.02071 11.2807L6.03071 12.29C7.39455 10.9597 9.16362 10.1231 11.0571 9.91286ZM12 5.57143C13.0189 5.57621 14.0337 5.70209 15.0229 5.94643L16.1964 4.77357C13.7373 4.01629 11.1191 3.93895 8.61961 4.54977C6.12012 5.16059 3.83265 6.43677 2 8.24286V8.25929L3.00286 9.26214C5.39959 6.8962 8.63221 5.57015 12 5.57143Z"></path></svg>