<svg width="20" height="20" viewBox="0 0 20 20" fill="none" xmlns="http://www.w3.org/2000/svg">
<path fill-rule="evenodd" clip-rule="evenodd" d="M17.2004 19.6004H2.80039C1.47491 19.6004 0.400391 18.4693 0.400391 17.0741V2.9267C0.400391 1.53146 1.47491 0.400391 2.80039 0.400391H17.2004C18.5259 0.400391 19.6004 1.53146 19.6004 2.92671V17.0741C19.6004 18.4693 18.5259 19.6004 17.2004 19.6004ZM4.93426 13.6003C4.53491 13.6003 4.29672 13.1552 4.51823 12.8229L6.66169 9.60775C6.83671 9.34522 7.20816 9.30844 7.43127 9.53155L8.56873 10.669C8.79184 10.8921 9.16329 10.8553 9.33831 10.5928L11.5512 7.27342C11.7574 6.96416 12.217 6.97999 12.4014 7.3027L15.5725 12.8522C15.763 13.1855 15.5223 13.6003 15.1384 13.6003H4.93426Z" fill="#808080"/>
</svg>
