<svg width="24" height="20" viewBox="0 0 24 20" fill="currentColor" stroke="none" xmlns="http://www.w3.org/2000/svg" class=" h-4 w-4"><path d="M12.1516 14.0458C10.9391 14.0458 6.55664 8.2389 6.55664 5.49674C6.55664 2.46299 9.06995 0 12.1516 0C15.2332 0 17.7465 2.46919 17.7465 5.49674C17.7465 8.2389 13.3577 14.0458 12.1516 14.0458ZM12.1516 1.14774C9.70775 1.14774 7.72489 3.102 7.72489 5.49674C7.72489 7.89148 11.2107 12.073 12.1642 12.8299C13.1935 12.0606 16.5846 7.68054 16.5846 5.49674C16.5846 3.09579 14.5954 1.14774 12.1579 1.14774H12.1516Z"></path><path d="M12.1526 8.23937C10.7254 8.23937 9.56348 7.09784 9.56348 5.69574C9.56348 4.29363 10.7254 3.1521 12.1526 3.1521C13.5797 3.1521 14.7416 4.29363 14.7416 5.69574C14.7416 7.09784 13.5797 8.23937 12.1526 8.23937ZM12.1526 4.29984C11.3695 4.29984 10.7317 4.92644 10.7317 5.69574C10.7317 6.46503 11.3695 7.09163 12.1526 7.09163C12.9356 7.09163 13.5734 6.46503 13.5734 5.69574C13.5734 4.92644 12.9356 4.29984 12.1526 4.29984Z"></path><path d="M17.4939 9.04131C17.3694 9.37374 17.2341 9.71211 17.0771 10.0505C20.747 10.8934 22.9932 12.5912 22.9932 14.2059C22.9932 16.4676 18.571 18.8956 11.9946 18.8956C5.41813 18.8956 1.00135 16.4736 1.00135 14.2118C1.00135 12.5675 3.31258 10.846 7.08525 10.0149C6.92828 9.67056 6.78755 9.32625 6.66847 8.99976C2.68471 9.93176 0 11.8907 0 14.2118C0 17.459 5.27199 19.9998 12 19.9998C18.728 19.9998 24 17.459 24 14.2118C24 11.9204 21.3911 9.99112 17.4993 9.04131H17.4939Z"></path></svg>