<?xml version="1.0" standalone="no"?>
<!DOCTYPE svg PUBLIC "-//W3C//DTD SVG 20010904//EN"
 "http://www.w3.org/TR/2001/REC-SVG-20010904/DTD/svg10.dtd">
<svg version="1.0" xmlns="http://www.w3.org/2000/svg"
 width="512.000000pt" height="512.000000pt" viewBox="0 0 512.000000 512.000000"
 preserveAspectRatio="xMidYMid meet">

<g transform="translate(0.000000,512.000000) scale(0.100000,-0.100000)"
fill="#000000" stroke="none">
<path d="M870 4314 c-348 -67 -642 -443 -779 -996 -183 -736 -78 -1613 254
-2125 77 -119 227 -266 322 -316 249 -131 520 -90 734 110 193 182 336 456
429 823 l27 105 139 3 140 3 61 -93 c203 -310 505 -518 871 -599 90 -21 130
-23 542 -26 375 -4 457 -2 520 11 241 50 445 252 495 490 7 38 15 69 17 71 2
1 37 17 79 34 194 81 341 256 384 458 20 95 20 491 0 586 -43 202 -190 376
-390 460 l-79 34 -12 67 c-35 186 -179 364 -363 448 -121 55 -176 60 -659 55
-393 -4 -446 -6 -527 -24 -184 -42 -351 -113 -505 -216 -110 -74 -294 -262
-371 -380 l-63 -98 -139 3 -140 3 -28 114 c-42 165 -83 279 -149 418 -139 290
-331 488 -540 554 -63 21 -216 33 -270 23z m216 -347 c108 -55 207 -172 299
-357 41 -81 118 -294 139 -382 l6 -28 -204 0 -204 0 -4 69 c-3 56 -9 75 -32
106 -68 89 -190 85 -260 -9 -21 -27 -21 -35 -21 -806 0 -771 0 -779 21 -806
39 -53 71 -69 134 -69 100 0 152 55 158 165 l4 70 204 0 204 0 -6 -27 c-21
-89 -100 -308 -139 -385 -63 -125 -109 -193 -180 -264 -110 -111 -224 -147
-335 -105 -246 93 -451 499 -527 1041 -24 175 -24 585 0 760 38 269 106 502
203 690 159 309 354 431 540 337z m3062 -406 c70 -38 100 -69 140 -145 l27
-51 0 -805 0 -805 -36 -65 c-42 -76 -106 -130 -185 -155 -47 -15 -102 -16
-481 -13 -424 4 -429 4 -524 30 -280 76 -522 261 -653 500 l-36 65 0 442 0
443 30 57 c121 226 352 413 609 493 136 42 196 47 631 45 l415 -2 63 -34z
m552 -612 c23 -22 54 -66 68 -97 27 -57 27 -58 27 -297 l0 -240 -28 -53 c-26
-50 -100 -132 -118 -132 -5 0 -9 189 -9 430 0 241 4 430 9 430 5 0 28 -18 51
-41z m-2620 -389 l0 -320 -480 0 -480 0 0 320 0 320 480 0 480 0 0 -320z"/>
<path d="M3282 3265 c-223 -49 -420 -247 -467 -471 -20 -93 -20 -375 0 -467
25 -117 77 -210 169 -303 127 -127 266 -183 451 -184 237 0 414 130 470 347
22 83 22 663 0 746 -44 169 -163 288 -332 332 -70 18 -206 18 -291 0z m247
-323 c68 -37 71 -51 71 -382 0 -267 -2 -299 -18 -329 -30 -55 -73 -73 -167
-68 -124 6 -208 58 -263 162 -26 49 -27 54 -27 235 0 175 1 187 24 230 41 79
108 135 191 161 50 15 154 10 189 -9z"/>
</g>
</svg>
