<svg width="17" height="16" viewBox="0 0 17 16" fill="none" xmlns="http://www.w3.org/2000/svg">
<path d="M7.83331 7.5L7.86065 7.48667C7.94613 7.44396 8.04207 7.42664 8.13709 7.43677C8.23211 7.4469 8.32224 7.48404 8.39681 7.54381C8.47137 7.60357 8.52725 7.68345 8.55782 7.77399C8.5884 7.86453 8.59238 7.96193 8.56931 8.05467L8.09731 9.94533C8.07408 10.0381 8.07794 10.1356 8.10844 10.2263C8.13894 10.3169 8.19481 10.3969 8.2694 10.4568C8.344 10.5166 8.4342 10.5538 8.52931 10.564C8.62442 10.5741 8.72044 10.5568 8.80598 10.514L8.83331 10.5M14.3333 8C14.3333 8.78793 14.1781 9.56815 13.8766 10.2961C13.5751 11.0241 13.1331 11.6855 12.576 12.2426C12.0188 12.7998 11.3574 13.2417 10.6294 13.5433C9.90146 13.8448 9.12124 14 8.33331 14C7.54538 14 6.76517 13.8448 6.03721 13.5433C5.30926 13.2417 4.64782 12.7998 4.09067 12.2426C3.53352 11.6855 3.09156 11.0241 2.79004 10.2961C2.48851 9.56815 2.33331 8.78793 2.33331 8C2.33331 6.4087 2.96545 4.88258 4.09067 3.75736C5.21589 2.63214 6.74201 2 8.33331 2C9.92461 2 11.4507 2.63214 12.576 3.75736C13.7012 4.88258 14.3333 6.4087 14.3333 8ZM8.33331 5.5H8.33865V5.50533H8.33331V5.5Z" stroke="#787680" stroke-linecap="round" stroke-linejoin="round"/>
</svg>
