<svg width="14" height="20" viewBox="0 0 14 20" fill="none" xmlns="http://www.w3.org/2000/svg">
<path d="M7 20C5.23333 20 3.79167 19.7208 2.675 19.1625C1.55833 18.6042 1 17.8833 1 17C1 16.6833 1.07083 16.3917 1.2125 16.125C1.35417 15.8583 1.56667 15.6083 1.85 15.375C2.08333 15.2083 2.3375 15.1417 2.6125 15.175C2.8875 15.2083 3.10833 15.3417 3.275 15.575C3.44167 15.8083 3.50417 16.0625 3.4625 16.3375C3.42083 16.6125 3.28333 16.8333 3.05 17C3.26667 17.2667 3.76667 17.5 4.55 17.7C5.33333 17.9 6.15 18 7 18C7.85 18 8.66667 17.9 9.45 17.7C10.2333 17.5 10.7333 17.2667 10.95 17C10.7167 16.8333 10.5792 16.6125 10.5375 16.3375C10.4958 16.0625 10.5583 15.8083 10.725 15.575C10.8917 15.3417 11.1125 15.2083 11.3875 15.175C11.6625 15.1417 11.9167 15.2083 12.15 15.375C12.4333 15.6083 12.6458 15.8583 12.7875 16.125C12.9292 16.3917 13 16.6833 13 17C13 17.8833 12.4417 18.6042 11.325 19.1625C10.2083 19.7208 8.76667 20 7 20ZM7 16.525C6.8 16.525 6.6 16.4917 6.4 16.425C6.2 16.3583 6.01667 16.2583 5.85 16.125C3.88333 14.5583 2.41667 13.0292 1.45 11.5375C0.483333 10.0458 0 8.58333 0 7.15C0 5.96667 0.2125 4.92917 0.6375 4.0375C1.0625 3.14583 1.60833 2.4 2.275 1.8C2.94167 1.2 3.69167 0.75 4.525 0.45C5.35833 0.15 6.18333 0 7 0C7.81667 0 8.64167 0.15 9.475 0.45C10.3083 0.75 11.0583 1.2 11.725 1.8C12.3917 2.4 12.9375 3.14583 13.3625 4.0375C13.7875 4.92917 14 5.96667 14 7.15C14 8.58333 13.5167 10.0458 12.55 11.5375C11.5833 13.0292 10.1167 14.5583 8.15 16.125C7.98333 16.2583 7.8 16.3583 7.6 16.425C7.4 16.4917 7.2 16.525 7 16.525ZM7 9C7.55 9 8.02083 8.80417 8.4125 8.4125C8.80417 8.02083 9 7.55 9 7C9 6.45 8.80417 5.97917 8.4125 5.5875C8.02083 5.19583 7.55 5 7 5C6.45 5 5.97917 5.19583 5.5875 5.5875C5.19583 5.97917 5 6.45 5 7C5 7.55 5.19583 8.02083 5.5875 8.4125C5.97917 8.80417 6.45 9 7 9Z" fill="#808080"/>
</svg>
