<svg width="18" height="21" viewBox="0 0 18 21" fill="none" xmlns="http://www.w3.org/2000/svg">
<path d="M2 21C1.45 21 0.979167 20.8042 0.5875 20.4125C0.195833 20.0208 0 19.55 0 19V7C0 6.45 0.195833 5.97917 0.5875 5.5875C0.979167 5.19583 1.45 5 2 5H4C4 3.61667 4.4875 2.4375 5.4625 1.4625C6.4375 0.4875 7.61667 0 9 0C10.3833 0 11.5625 0.4875 12.5375 1.4625C13.5125 2.4375 14 3.61667 14 5H16C16.55 5 17.0208 5.19583 17.4125 5.5875C17.8042 5.97917 18 6.45 18 7V19C18 19.55 17.8042 20.0208 17.4125 20.4125C17.0208 20.8042 16.55 21 16 21H2ZM6 5H12C12 4.16667 11.7083 3.45833 11.125 2.875C10.5417 2.29167 9.83333 2 9 2C8.16667 2 7.45833 2.29167 6.875 2.875C6.29167 3.45833 6 4.16667 6 5ZM8.975 13C10.2083 13 11.325 12.5917 12.325 11.775C13.325 10.9583 13.8167 10.0417 13.8 9.025C13.8 8.74167 13.7083 8.5 13.525 8.3C13.3417 8.1 13.1083 8 12.825 8C12.5917 8 12.3833 8.075 12.2 8.225C12.0167 8.375 11.8833 8.6 11.8 8.9C11.6167 9.53333 11.2583 10.0417 10.725 10.425C10.1917 10.8083 9.60833 11 8.975 11C8.34167 11 7.75417 10.8083 7.2125 10.425C6.67083 10.0417 6.31667 9.53333 6.15 8.9C6.06667 8.58333 5.94167 8.35417 5.775 8.2125C5.60833 8.07083 5.40833 8 5.175 8C4.89167 8 4.65417 8.1 4.4625 8.3C4.27083 8.5 4.175 8.74167 4.175 9.025C4.175 10.0417 4.66667 10.9583 5.65 11.775C6.63333 12.5917 7.74167 13 8.975 13Z" fill="#808080"/>
</svg>
