<svg width="36" height="42" viewBox="0 0 36 42" fill="none" xmlns="http://www.w3.org/2000/svg">
<path fill-rule="evenodd" clip-rule="evenodd" d="M6 12.6C6 9.25827 7.26428 6.05341 9.51472 3.69045C11.7652 1.3275 14.8174 0 18 0C21.1826 0 24.2348 1.3275 26.4853 3.69045C28.7357 6.05341 30 9.25827 30 12.6H32C33.0609 12.6 34.0783 13.0425 34.8284 13.8302C35.5786 14.6178 36 15.6861 36 16.8V37.8C36 38.9139 35.5786 39.9822 34.8284 40.7698C34.0783 41.5575 33.0609 42 32 42H4C2.93913 42 1.92172 41.5575 1.17157 40.7698C0.421427 39.9822 0 38.9139 0 37.8V16.8C0 15.6861 0.421427 14.6178 1.17157 13.8302C1.92172 13.0425 2.93913 12.6 4 12.6H6ZM18 4.2C20.1217 4.2 22.1566 5.085 23.6569 6.6603C25.1571 8.23561 26 10.3722 26 12.6H10C10 10.3722 10.8429 8.23561 12.3431 6.6603C13.8434 5.085 15.8783 4.2 18 4.2ZM22 25.2C22 25.9372 21.8151 26.6615 21.4641 27.2999C21.113 27.9384 20.6081 28.4686 20 28.8372V31.5C20 32.057 19.7893 32.5911 19.4142 32.9849C19.0391 33.3787 18.5304 33.6 18 33.6C17.4696 33.6 16.9609 33.3787 16.5858 32.9849C16.2107 32.5911 16 32.057 16 31.5V28.8372C15.2375 28.3749 14.6415 27.6613 14.3046 26.8072C13.9677 25.953 13.9086 25.006 14.1365 24.1129C14.3644 23.2199 14.8665 22.4308 15.5651 21.868C16.2636 21.3051 17.1195 21 18 21C19.0609 21 20.0783 21.4425 20.8284 22.2302C21.5786 23.0178 22 24.0861 22 25.2Z" fill="#126CC0"/>
</svg>
