<svg width="20" height="20" viewBox="0 0 20 20" fill="none" xmlns="http://www.w3.org/2000/svg">
<path d="M12.6471 5.8001V3.7001C12.6471 3.14314 12.424 2.609 12.0268 2.21517C11.6297 1.82135 11.091 1.6001 10.5294 1.6001H3.11765C2.55601 1.6001 2.01738 1.82135 1.62024 2.21517C1.22311 2.609 1 3.14314 1 3.7001V16.3001C1 16.8571 1.22311 17.3912 1.62024 17.785C2.01738 18.1788 2.55601 18.4001 3.11765 18.4001H10.5294C11.091 18.4001 11.6297 18.1788 12.0268 17.785C12.424 17.3912 12.6471 16.8571 12.6471 16.3001V14.2001M6.29412 10.0001H19M19 10.0001L15.8235 6.8501M19 10.0001L15.8235 13.1501" stroke="#E5484D" stroke-width="1.5" stroke-linecap="round" stroke-linejoin="round"/>
</svg>
