<?xml version="1.0" encoding="UTF-8"?>
<svg id="Layer_1" data-name="Layer 1" xmlns="http://www.w3.org/2000/svg" viewBox="0 0 1693.19 378.1">
  <defs>
    <style>
      .cls-1 {
        fill: #126cc0;
      }

      .cls-2 {
        fill: #fff;
      }
    </style>
  </defs>
  <path class="cls-1" d="M427.97,101.19c0-3.39.68-6.78,2.1-9.89,1.36-2.98,3.18-5.76,5.49-8.13,4.67-4.74,11.04-7.45,17.68-7.45,3.39,0,6.78.68,9.89,1.96,3.12,1.22,5.96,3.05,8.4,5.35,2.44,2.3,4.4,5.08,5.76,8.13,1.42,3.12,2.17,6.5,2.17,9.96v24.12h57.79c3.32,0,6.64.68,9.69,1.96,6.1,2.57,10.98,7.45,13.55,13.55,1.29,3.05,1.96,6.37,1.96,9.69s-.68,6.44-1.96,9.42c-1.29,2.85-3.18,5.49-5.49,7.66-2.37,2.24-5.15,4-8.13,5.15-3.05,1.29-6.37,1.9-9.69,1.9h-57.79v48.65c0,5.56,1.02,11.04,3.12,16.19,1.96,4.88,4.88,9.35,8.54,13.14,7.52,7.79,17.95,12.13,28.79,12.06,4.88,0,9.69-.68,14.3-2.1,4.34-1.36,8.33-3.66,11.65-6.78,2.64-2.44,5.56-4.47,8.74-6.1s6.71-2.37,10.23-2.37c2.85,0,5.69.61,8.27,1.76,2.71,1.15,5.22,2.85,7.25,5.01,2.1,2.17,3.79,4.67,5.08,7.45,1.36,2.85,2.03,5.96,1.96,9.15,0,3.93-.81,7.86-2.37,11.52-1.56,3.73-3.79,7.18-6.71,10.03-7.59,7.45-16.6,13.21-26.56,17.01-21.95,8.06-46.21,7.52-67.75-1.56-22.02-9.35-39.5-26.83-48.85-48.85-4.88-11.31-7.32-23.44-7.25-35.77v-121.82h.14Z"/>
  <path class="cls-1" d="M608.4,224.71c.27-12.47,3.12-24.8,8.27-36.18,10.03-22.36,28.05-40.11,50.54-49.8,11.45-4.95,23.78-7.66,36.25-7.79h1.69c8.27.14,14.63,2.51,19.11,7.18,4.47,4.67,6.71,10.57,6.71,17.68,0,3.46-.68,6.84-2.1,9.96-1.36,2.98-3.25,5.62-5.56,7.93-2.37,2.3-5.22,4.07-8.27,5.28-3.18,1.29-6.64,1.9-10.1,1.9-6.1,0-12.2,1.15-17.82,3.59-5.49,2.3-10.43,5.62-14.7,9.76-4.27,4.2-7.66,9.15-10.1,14.57-2.51,5.69-3.86,11.79-3.93,17.95v61.18c0,3.39-.61,6.71-1.9,9.76-1.22,2.91-2.98,5.62-5.28,7.79-2.24,2.17-4.88,3.93-7.79,5.22-2.98,1.29-6.23,1.9-9.49,1.9s-6.71-.61-9.82-1.9c-3.05-1.22-5.83-2.98-8.2-5.22-2.37-2.24-4.2-4.88-5.56-7.79-1.42-3.05-2.1-6.44-2.1-9.76v-63.28l.14.07Z"/>
  <path class="cls-1" d="M829.41,314.68c-12.26.07-24.39-2.37-35.71-7.25-10.84-4.67-20.8-11.31-29.2-19.65-8.4-8.33-15.11-18.23-19.78-29.07-9.69-22.83-9.69-48.65,0-71.48,9.42-22.02,26.97-39.64,48.99-49.05,22.7-9.62,48.38-9.69,71.07-.07,10.77,4.61,20.6,11.18,29,19.38,8.33,8.27,15.11,18.02,19.78,28.79,4.88,11.11,7.52,23.1,7.72,35.23v67.62c.07,14.09-11.25,25.54-25.34,25.61h-.27c-8.67.27-16.8-4.34-21.07-11.86-6.78,3.79-13.96,6.71-21.48,8.74-7.72,2.1-15.72,3.12-23.78,3.05h.07ZM829.34,264.41c5.62,0,11.18-1.02,16.33-3.18,4.95-2.03,9.49-5.08,13.28-8.88s6.84-8.27,8.94-13.14c4.4-10.37,4.4-22.02,0-32.39-2.1-4.95-5.15-9.42-8.94-13.14-3.79-3.79-8.33-6.78-13.28-8.88-5.15-2.17-10.7-3.25-16.33-3.18-5.49,0-10.98,1.08-16.06,3.18-4.95,2.1-9.49,5.08-13.28,8.88-3.86,3.79-6.91,8.27-9.08,13.14-4.4,10.37-4.4,22.02,0,32.39,2.17,4.95,5.22,9.42,9.08,13.14,3.86,3.79,8.33,6.78,13.28,8.88,5.08,2.17,10.5,3.25,16.06,3.25h0v-.07Z"/>
  <path class="cls-1" d="M1040.53,314.68c-12.6.07-25.07-2.3-36.72-6.98-11.11-4.4-21.21-10.91-29.88-19.17-8.54-8.27-15.38-18.02-20.12-28.93-5.01-11.38-7.59-23.65-7.45-36.04-.07-12.47,2.44-24.87,7.45-36.32,4.81-11.04,11.65-21.07,20.26-29.47,17.82-17.28,41.67-26.97,66.47-26.83,11.99-.07,23.85,2.03,35.1,6.23,10.77,4,20.46,10.37,28.46,18.63,2.85,2.91,5.15,6.37,6.78,10.16,1.49,3.39,2.24,7.05,2.24,10.7s-.81,7.18-2.64,10.37c-1.69,2.91-3.86,5.56-6.5,7.72-2.44,2.03-5.22,3.73-8.2,4.88-2.44,1.02-5.08,1.63-7.72,1.69-4.34,0-8.54-1.08-12.26-3.32-3.66-2.24-7.18-4.61-10.57-7.25-4.54-3.39-8.88-5.69-13.08-6.98-4.2-1.22-8.54-1.9-12.87-1.9-5.69,0-11.31,1.08-16.46,3.39-4.95,2.17-9.42,5.22-13.21,9.01-3.73,3.79-6.64,8.2-8.67,13.08-2.03,4.95-3.12,10.23-3.12,15.52,0,4.88,1.02,9.76,2.85,14.3,1.83,4.74,4.47,9.15,7.79,13.01,3.39,3.93,7.52,7.18,12.06,9.62,4.67,2.51,9.89,3.86,15.24,3.93.61,0,1.22,0,1.76.07.61,0,1.22.07,1.76.07,4.34,0,8.67-.61,12.87-1.9,4.2-1.22,8.47-3.66,12.87-7.18,3.25-2.64,6.71-5.01,10.37-7.18,3.66-2.17,7.79-3.25,12.06-3.18,2.71,0,5.35.61,7.93,1.63,6.23,2.37,11.38,6.84,14.7,12.6,1.76,3.18,2.71,6.78,2.64,10.43,0,3.66-.75,7.25-2.17,10.64-1.56,3.73-3.79,7.05-6.71,9.89-7.99,8.27-17.82,14.63-28.59,18.63-11.11,4.13-22.9,6.23-34.76,6.17l.07.27Z"/>
  <path class="cls-1" d="M1185.11,246.32v41.8c0,3.32-.61,6.57-1.9,9.62-1.22,2.91-2.98,5.62-5.28,7.79-2.24,2.17-4.95,3.93-7.86,5.22-3.05,1.29-6.3,1.9-9.55,1.9s-6.64-.61-9.76-1.9c-2.98-1.22-5.76-2.98-8.13-5.22-2.37-2.24-4.27-4.88-5.56-7.79-1.36-2.98-2.1-6.3-2.1-9.62V90.22c0-3.25.68-6.5,2.1-9.49,1.36-2.91,3.25-5.56,5.56-7.79,2.37-2.24,5.08-4.07,8.13-5.28,6.3-2.51,13.28-2.51,19.58,0,2.91,1.22,5.62,2.98,7.86,5.28,2.24,2.24,4,4.88,5.22,7.79,1.29,2.98,1.9,6.23,1.9,9.49l-.2,100.54,54.95-50.48c4.74-4.4,10.23-6.57,16.4-6.57,3.32,0,6.64.68,9.69,1.96s5.83,3.12,8.13,5.49c2.37,2.37,4.27,5.08,5.62,8.13,1.42,3.12,2.17,6.44,2.17,9.89.14,3.25-.54,6.5-1.9,9.42-1.42,3.05-3.39,5.83-5.83,8.13l-45.73,42.01,56.51,51.63c2.24,1.96,4,4.4,5.22,7.18,1.08,2.64,1.63,5.42,1.63,8.27,0,3.39-.68,6.78-1.96,9.89-1.29,3.12-3.05,6.03-5.35,8.47-2.24,2.44-4.88,4.4-7.79,5.83-2.98,1.42-6.23,2.17-9.49,2.17-6.91,0-13.08-2.51-18.43-7.52l-63.69-58.33h-.14Z"/>
  <path class="cls-1" d="M1512.15,220.37c-.07-11.92,2.3-23.78,7.05-34.76,9.15-21.41,26.22-38.48,47.56-47.63,10.98-4.74,22.76-7.11,34.69-7.05,12.13,0,24.12,2.3,35.23,7.05,10.84,4.54,20.73,11.04,29.2,19.17,8.4,8.13,15.24,17.75,19.99,28.46,4.95,10.91,7.45,22.76,7.32,34.76v67.75c0,3.32-.61,6.64-1.9,9.69-2.44,5.83-7.18,10.5-13.01,12.87-3.05,1.29-6.3,1.9-9.62,1.9-6.71,0-13.14-2.51-18.02-7.05-2.3-2.17-4.2-4.81-5.49-7.72-1.36-3.05-2.03-6.37-1.96-9.69v-67.62c-.14-5.28-1.36-10.5-3.66-15.24s-5.49-8.94-9.35-12.53c-3.93-3.59-8.4-6.44-13.28-8.47-4.95-2.03-10.23-3.12-15.58-3.12s-10.37.95-15.18,2.91c-4.61,1.9-8.74,4.61-12.26,8.13s-6.3,7.66-8.33,12.13c-2.1,4.74-3.25,9.89-3.32,15.04v68.7c0,3.32-.61,6.64-1.9,9.69-1.22,2.91-2.98,5.56-5.28,7.72-2.24,2.17-4.88,3.93-7.79,5.22-2.98,1.29-6.23,1.9-9.49,1.9s-6.64-.61-9.76-1.9c-3.05-1.22-5.83-2.98-8.27-5.22-2.37-2.17-4.27-4.81-5.62-7.72-1.36-3.05-2.1-6.37-2.03-9.69v-67.75l.07.07Z"/>
  <path class="cls-1" d="M1312.75,220.03c0,63.42,88.82,126.9,88.82,126.9,0,0,88.82-63.82,88.82-126.9,0-6.44-.68-12.81-2.03-19.11-.41-1.96-.95-3.86-1.49-5.76h0c-4.88-12.4-18.84-18.43-31.23-13.55-8.33,3.25-14.09,10.91-15.11,19.78-.27,2.57-.14,5.15.41,7.66.2.75.47,1.56.61,2.3,5.22,22.09-8.47,44.17-30.56,49.39-22.09,5.22-44.17-8.47-49.39-30.56-.75-3.25-1.15-6.64-1.08-10.03.34-22.22,19.24-40.65,41.46-40.45,3.12,0,6.23.41,9.28,1.15,1.56.34,3.05.81,4.54,1.36,1.49.27,3.05.47,4.61.47,13.28,0,24.05-10.98,24.05-24.46,0-9.62-5.56-18.36-14.3-22.36-1.96-.68-3.93-1.29-5.96-1.83-47.49-12.47-96.07,15.92-108.54,63.35-1.96,7.39-2.91,14.91-2.91,22.56h0v.07Z"/>
  <rect class="cls-1" x="0" y="0" width="378.1" height="378.1" rx="82.88" ry="82.88"/>
  <path class="cls-2" d="M88.68,167.54c0,71.73,100.39,143.42,100.39,143.42,0,0,100.39-72.14,100.39-143.42,0-7.27-.79-14.5-2.34-21.57-.48-2.2-1.03-4.38-1.65-6.51h0c-5.51-13.99-21.33-20.84-35.31-15.37-12.37,4.89-19.43,17.98-16.64,31.01.28.86.48,1.72.69,2.62.79,3.45,1.21,6.92,1.24,10.47.1,25.36-20.43,46.27-45.79,46.61-25.63.34-46.68-20.15-47.03-45.79v-1.31c.38-25.15,21.77-45.99,46.92-45.72,3.51.03,7.03.48,10.44,1.31,1.76.41,3.45.93,5.13,1.55,1.72.34,3.45.52,5.2.52,15.02,0,27.22-12.37,27.22-27.63.03-10.85-6.27-20.74-16.12-25.25-2.2-.76-4.48-1.45-6.75-2.03-8.37-2.2-16.98-3.31-25.6-3.31-55.47,0-100.43,44.96-100.43,100.39h.03Z"/>
</svg>