<svg width="17" height="18" viewBox="0 0 17 18" fill="none" xmlns="http://www.w3.org/2000/svg">
<path d="M16.6083 9C16.6061 10.831 15.9856 12.6075 14.8473 14.0417C13.7089 15.4758 12.1196 16.4834 10.3369 16.9011C8.55417 17.3188 6.68265 17.1221 5.02573 16.3429C3.36881 15.5638 2.02364 14.2478 1.20832 12.6083C1.16296 12.5342 1.13356 12.4515 1.12198 12.3653C1.11041 12.2792 1.11691 12.1916 1.14109 12.1082C1.16527 12.0247 1.20659 11.9472 1.2624 11.8806C1.31822 11.814 1.3873 11.7598 1.46525 11.7214C1.5432 11.683 1.6283 11.6613 1.71512 11.6576C1.80194 11.654 1.88856 11.6685 1.96946 11.7002C2.05036 11.7319 2.12377 11.7801 2.18498 11.8418C2.2462 11.9034 2.29388 11.9772 2.32499 12.0583C2.99138 13.4077 4.08165 14.5015 5.42887 15.1722C6.77609 15.843 8.30601 16.0537 9.78439 15.7722C11.2628 15.4907 12.6082 14.7324 13.6146 13.6134C14.621 12.4945 15.2329 11.0765 15.3567 9.57666C15.4805 8.0768 15.1094 6.5777 14.3001 5.30886C13.4908 4.04003 12.288 3.07139 10.8757 2.55124C9.46353 2.0311 7.91977 1.98811 6.4808 2.42887C5.04183 2.86962 3.78696 3.76983 2.90832 4.99167L4.27499 4.575C4.43412 4.52638 4.60604 4.54296 4.75295 4.6211C4.89985 4.69924 5.0097 4.83254 5.05832 4.99167C5.10694 5.1508 5.09036 5.32272 5.01222 5.46963C4.93408 5.61653 4.80078 5.72638 4.64165 5.775L1.99999 6.60833C1.93915 6.61647 1.87749 6.61647 1.81665 6.60833C1.6828 6.60756 1.55264 6.56441 1.44484 6.48506C1.33704 6.40571 1.25716 6.29424 1.21665 6.16667L0.38332 3.525C0.335802 3.36145 0.355201 3.18572 0.437248 3.03647C0.519295 2.88723 0.65727 2.77668 0.82082 2.72917C0.98437 2.68165 1.1601 2.70105 1.30935 2.78309C1.45859 2.86514 1.56914 3.00312 1.61665 3.16667L1.93332 4.225C2.94214 2.84146 4.36267 1.81241 5.9917 1.28502C7.62074 0.757636 9.37483 0.758939 11.0031 1.28874C12.6313 1.81855 14.0503 2.84972 15.0571 4.23475C16.0639 5.61978 16.6068 7.28772 16.6083 9ZM7.32499 12.9583C7.59185 12.958 7.85373 12.886 8.08332 12.75L12.1083 10.3667C12.3428 10.2239 12.5367 10.0232 12.6712 9.78384C12.8057 9.54449 12.8763 9.27455 12.8763 9C12.8763 8.72545 12.8057 8.45551 12.6712 8.21616C12.5367 7.97681 12.3428 7.7761 12.1083 7.63333L8.08332 5.25C7.85585 5.11669 7.59697 5.04642 7.33332 5.04642C7.06967 5.04642 6.81079 5.11669 6.58332 5.25C6.34149 5.38863 6.14078 5.58896 6.0017 5.83053C5.86261 6.0721 5.79013 6.34625 5.79165 6.625V11.3917C5.79013 11.6704 5.86261 11.9446 6.0017 12.1861C6.14078 12.4277 6.34149 12.628 6.58332 12.7667C6.8095 12.8944 7.06525 12.9605 7.32499 12.9583Z" fill="#787680"/>
</svg>
