<svg width="19" height="20" viewBox="0 0 19 20" fill="none" xmlns="http://www.w3.org/2000/svg">
<path d="M7.07484 7.50002C7.27076 6.94308 7.65746 6.47344 8.16647 6.1743C8.67547 5.87515 9.27392 5.7658 9.85582 5.86561C10.4377 5.96543 10.9655 6.26796 11.3457 6.71963C11.726 7.1713 11.9341 7.74296 11.9332 8.33335C11.9332 10 9.43317 10.8334 9.43317 10.8334M9.49984 14.1667H9.50817M17.8332 10C17.8332 14.6024 14.1022 18.3334 9.49984 18.3334C4.89746 18.3334 1.1665 14.6024 1.1665 10C1.1665 5.39765 4.89746 1.66669 9.49984 1.66669C14.1022 1.66669 17.8332 5.39765 17.8332 10Z" stroke="#181818" stroke-width="1.66667" stroke-linecap="round" stroke-linejoin="round"/>
</svg>
