<svg width="16" height="20" viewBox="0 0 16 20" fill="none" xmlns="http://www.w3.org/2000/svg">
<path fill-rule="evenodd" clip-rule="evenodd" d="M0.800293 3.60039C0.800293 1.83308 2.18182 0.400388 3.88601 0.400391L12.1146 0.400403C13.8188 0.400405 15.2003 1.83309 15.2003 3.6004V16.4004C15.2003 18.1677 13.8188 19.6004 12.1146 19.6004H3.88601C2.18181 19.6004 0.800293 18.1677 0.800293 16.4004V3.60039ZM8.00029 14.267C7.43223 14.267 6.97172 14.7446 6.97172 15.3337V15.402C6.97172 15.9911 7.43223 16.4687 8.00029 16.4687H8.07316C8.64122 16.4687 9.10173 15.9911 9.10173 15.402V15.3337C9.10173 14.7446 8.64122 14.267 8.07316 14.267H8.00029Z" fill="#808080"/>
<path d="M11.4974 2.53372H4.50315C4.24887 2.53372 4.10373 2.83477 4.25629 3.04572L5.27458 4.45372C5.3717 4.58802 5.52413 4.66705 5.68601 4.66705H10.3146C10.4765 4.66705 10.6289 4.58802 10.726 4.45372L11.7443 3.04572C11.8969 2.83477 11.7517 2.53372 11.4974 2.53372Z" fill="white"/>
</svg>
