<svg width="150" height="150" viewBox="0 0 150 150" fill="none" xmlns="http://www.w3.org/2000/svg">
<path d="M4.96785 108.516C4.96504 108.139 5.04304 107.766 5.1966 107.422C5.34361 107.089 5.54824 106.784 5.8011 106.522C6.05645 106.261 6.36131 106.053 6.69782 105.912C7.03433 105.77 7.39573 105.697 7.76085 105.697C8.13648 105.697 8.50839 105.771 8.8551 105.916C9.19836 106.054 9.51274 106.256 9.7821 106.51C10.0502 106.766 10.2662 107.072 10.4181 107.41C10.5775 107.756 10.6592 108.133 10.6573 108.515V111.182H17.0563C17.4253 111.181 17.7906 111.255 18.1296 111.401C18.805 111.688 19.3427 112.226 19.6296 112.901C19.7754 113.24 19.8499 113.606 19.8486 113.975C19.852 114.334 19.7773 114.689 19.6296 115.016C19.4853 115.335 19.2799 115.622 19.0251 115.861C18.7636 116.106 18.4583 116.301 18.1251 116.434C17.7845 116.573 17.4198 116.644 17.0518 116.642H10.6573V122.029C10.6526 122.642 10.7696 123.25 11.0016 123.818C11.222 124.359 11.5438 124.854 11.9496 125.274C12.3625 125.701 12.8583 126.04 13.4067 126.269C13.9551 126.498 14.5444 126.612 15.1386 126.605C15.676 126.61 16.211 126.533 16.7248 126.375C17.2065 126.225 17.6483 125.969 18.0178 125.625C18.3091 125.358 18.635 125.13 18.9868 124.95C19.339 124.773 19.7284 124.684 20.1223 124.689C20.4385 124.691 20.7507 124.759 21.0396 124.887C21.341 125.016 21.6138 125.204 21.8421 125.44C22.0749 125.681 22.265 125.96 22.4046 126.265C22.5518 126.582 22.6266 126.928 22.6236 127.278C22.6221 127.716 22.5336 128.149 22.3633 128.553C22.192 128.968 21.9404 129.344 21.6231 129.662C20.7835 130.485 19.7832 131.126 18.6846 131.545C16.2525 132.437 13.5725 132.375 11.1846 131.37C8.74847 130.337 6.80922 128.397 5.77635 125.961C5.23815 124.711 4.96491 123.362 4.97385 122.001L4.96785 108.516Z" fill="white"/>
<path d="M24.9351 122.189C24.9687 120.806 25.2807 119.445 25.8523 118.187C26.9624 115.714 28.9593 113.747 31.4488 112.674C32.7156 112.123 34.0793 111.829 35.4606 111.809H35.6481C36.5656 111.823 37.2708 112.087 37.7638 112.601C38.2568 113.116 38.5036 113.769 38.5041 114.56C38.5087 114.941 38.4304 115.318 38.2746 115.665C38.1256 115.992 37.9171 116.289 37.6596 116.54C37.3963 116.795 37.0843 116.993 36.7423 117.124C36.3873 117.263 36.0092 117.334 35.6278 117.332C34.9509 117.329 34.2805 117.463 33.6576 117.728C33.0523 117.984 32.5008 118.352 32.0323 118.812C31.5629 119.276 31.1846 119.824 30.9171 120.428C30.6372 121.054 30.4882 121.732 30.4791 122.418V129.192C30.4823 129.564 30.4114 129.932 30.2706 130.276C30.1376 130.601 29.9389 130.895 29.6871 131.141C29.4372 131.384 29.1439 131.579 28.8223 131.714C28.49 131.854 28.1328 131.925 27.7723 131.922C27.4008 131.923 27.0326 131.852 26.6878 131.714C26.3519 131.583 26.0443 131.388 25.7818 131.141C25.5225 130.895 25.3135 130.601 25.1668 130.276C25.0124 129.936 24.934 129.566 24.9373 129.192L24.9351 122.189Z" fill="white"/>
<path d="M49.4049 132.15C48.047 132.16 46.7019 131.886 45.4554 131.348C44.2517 130.831 43.1557 130.093 42.2244 129.173C41.2957 128.249 40.5528 127.156 40.0359 125.952C39.5063 124.701 39.2334 123.356 39.2334 121.997C39.2334 120.639 39.5063 119.294 40.0359 118.043C41.0764 115.603 43.0175 113.658 45.4554 112.613C46.6997 112.085 48.0371 111.812 49.3885 111.811C50.74 111.809 52.078 112.078 53.3236 112.603C54.5181 113.112 55.6068 113.84 56.5336 114.749C57.4591 115.664 58.2027 116.745 58.7251 117.937C59.2683 119.166 59.5588 120.493 59.5794 121.837V129.32C59.5813 129.692 59.5092 130.062 59.3674 130.407C59.2256 130.751 59.0168 131.065 58.7532 131.328C58.4896 131.592 58.1763 131.8 57.8315 131.942C57.4867 132.084 57.1172 132.156 56.7444 132.154C56.2728 132.167 55.8064 132.052 55.3952 131.821C54.984 131.59 54.6436 131.251 54.4104 130.841C53.6599 131.257 52.8622 131.583 52.0344 131.81C51.1771 132.041 50.2927 132.155 49.4049 132.15ZM49.3944 126.585C50.0143 126.589 50.6287 126.469 51.2011 126.231C51.7517 126.004 52.2522 125.67 52.6741 125.25C53.0939 124.831 53.4305 124.336 53.6664 123.791C53.9077 123.225 54.0322 122.615 54.0322 121.999C54.0322 121.383 53.9077 120.773 53.6664 120.206C53.4303 119.662 53.0937 119.167 52.6741 118.748C52.2521 118.328 51.7516 117.995 51.2011 117.768C50.6287 117.53 50.0143 117.409 49.3944 117.413C48.7845 117.41 48.1802 117.531 47.6184 117.768C47.0701 117.999 46.5705 118.331 46.1461 118.748C45.7212 119.165 45.3808 119.66 45.1434 120.206C44.9024 120.773 44.7781 121.383 44.7781 121.999C44.7781 122.615 44.9024 123.224 45.1434 123.791C45.3806 124.338 45.7211 124.833 46.1461 125.25C46.5705 125.667 47.0701 126 47.6184 126.23C48.1801 126.468 48.7844 126.589 49.3944 126.587V126.585Z" fill="white"/>
<path d="M72.7693 132.15C71.3773 132.16 69.9966 131.899 68.7051 131.379C67.4771 130.89 66.3549 130.168 65.3998 129.254C64.4559 128.343 63.6986 127.256 63.1701 126.055C62.6148 124.798 62.3335 123.437 62.3451 122.063C62.336 120.68 62.617 119.309 63.1701 118.041C63.6989 116.819 64.4597 115.711 65.4103 114.779C67.3792 112.864 70.021 111.798 72.7678 111.809C74.0932 111.8 75.409 112.034 76.6498 112.5C77.8401 112.945 78.9162 113.65 79.7998 114.563C80.1184 114.888 80.3729 115.269 80.5498 115.688C80.7113 116.064 80.7964 116.468 80.8003 116.876C80.8077 117.278 80.7069 117.673 80.5086 118.022C80.3208 118.347 80.0774 118.637 79.7893 118.877C79.518 119.105 79.2118 119.288 78.8826 119.419C78.6119 119.534 78.3222 119.597 78.0283 119.606C77.5515 119.613 77.0823 119.487 76.6731 119.242C76.2686 118.998 75.8789 118.73 75.5061 118.439C75.0061 118.064 74.5233 117.807 74.0578 117.668C73.5954 117.53 73.1154 117.46 72.6328 117.46C72.0051 117.454 71.3834 117.582 70.8088 117.835C70.2636 118.073 69.7686 118.413 69.3501 118.835C68.9402 119.252 68.6148 119.744 68.3916 120.284C68.1631 120.828 68.046 121.413 68.0473 122.003C68.0502 122.546 68.1564 123.084 68.3601 123.587C68.564 124.113 68.8565 124.599 69.2248 125.025C69.6015 125.457 70.0536 125.817 70.5591 126.088C71.0785 126.367 71.6575 126.518 72.2473 126.526C72.3135 126.526 72.3796 126.529 72.4453 126.536C72.5111 126.543 72.5772 126.546 72.6433 126.546C73.1259 126.546 73.6059 126.476 74.0683 126.338C74.5343 126.2 75.0093 125.936 75.4933 125.546C75.855 125.254 76.238 124.989 76.6393 124.754C77.0438 124.518 77.5049 124.395 77.9736 124.4C78.2734 124.407 78.5697 124.467 78.8488 124.577C79.5372 124.838 80.1124 125.332 80.4748 125.973C80.6724 126.326 80.7731 126.726 80.7666 127.13C80.7633 127.535 80.6818 127.935 80.5266 128.308C80.3568 128.719 80.1052 129.091 79.7871 129.402C78.8989 130.318 77.8163 131.024 76.6191 131.465C75.3876 131.924 74.0833 132.156 72.7693 132.15Z" fill="white"/>
<path d="M88.7775 124.586V129.213C88.7792 129.578 88.7078 129.939 88.5675 130.276C88.434 130.601 88.2345 130.896 87.9817 131.141C87.7307 131.384 87.4364 131.579 87.114 131.714C86.7794 131.854 86.4199 131.925 86.0572 131.922C85.6879 131.924 85.3218 131.853 84.9795 131.714C84.6462 131.581 84.341 131.386 84.0795 131.141C83.8195 130.895 83.6098 130.602 83.4622 130.276C83.3087 129.943 83.2301 129.58 83.232 129.213V107.307C83.2298 106.944 83.3085 106.586 83.4622 106.257C83.6136 105.934 83.8228 105.641 84.0795 105.392C84.339 105.142 84.6446 104.943 84.9795 104.809C85.6747 104.531 86.4502 104.531 87.1455 104.809C87.4715 104.942 87.7668 105.141 88.0132 105.392C88.2572 105.642 88.4523 105.936 88.5885 106.257C88.7288 106.589 88.8 106.947 88.7977 107.307L88.7775 118.437L94.863 112.851C95.391 112.367 95.995 112.125 96.675 112.125C97.0439 112.124 97.4092 112.199 97.7482 112.344C98.0841 112.486 98.3897 112.691 98.6482 112.949C98.9078 113.21 99.1195 113.514 99.2737 113.849C99.4338 114.191 99.5158 114.565 99.5137 114.943C99.5275 115.302 99.4561 115.659 99.3052 115.985C99.1497 116.324 98.9302 116.63 98.6587 116.885L93.594 121.535L99.8467 127.247C100.096 127.463 100.293 127.734 100.42 128.039C100.538 128.33 100.598 128.641 100.597 128.955C100.598 129.331 100.523 129.703 100.378 130.049C100.239 130.395 100.037 130.713 99.7845 130.988C99.5391 131.255 99.2458 131.474 98.9197 131.634C98.5928 131.794 98.2335 131.875 97.8697 131.873C97.1057 131.873 96.425 131.595 95.8275 131.039L88.7775 124.586Z" fill="white"/>
<path d="M124.982 121.709C124.973 120.387 125.24 119.078 125.764 117.864C126.777 115.494 128.663 113.606 131.032 112.591C132.244 112.067 133.551 111.8 134.871 111.809C136.211 111.802 137.538 112.068 138.771 112.591C139.97 113.095 141.067 113.815 142.005 114.716C142.938 115.614 143.689 116.684 144.217 117.866C144.761 119.075 145.039 120.386 145.031 121.712V129.212C145.035 129.58 144.964 129.945 144.821 130.285C144.687 130.606 144.49 130.897 144.242 131.141C143.994 131.386 143.701 131.579 143.378 131.71C143.04 131.849 142.677 131.92 142.311 131.918C141.57 131.924 140.854 131.644 140.313 131.136C140.056 130.894 139.85 130.604 139.706 130.282C139.557 129.944 139.482 129.578 139.487 129.209V121.726C139.475 121.14 139.336 120.564 139.079 120.038C138.825 119.514 138.474 119.044 138.045 118.652C137.613 118.255 137.114 117.938 136.572 117.713C136.026 117.485 135.439 117.368 134.847 117.37C134.271 117.365 133.699 117.475 133.165 117.692C132.657 117.9 132.196 118.206 131.807 118.592C131.421 118.98 131.109 119.436 130.888 119.937C130.656 120.463 130.532 121.03 130.523 121.604V129.212C130.527 129.58 130.456 129.946 130.315 130.286C130.18 130.606 129.983 130.897 129.734 131.14C129.485 131.383 129.192 131.578 128.872 131.714C128.54 131.854 128.182 131.924 127.822 131.921C127.452 131.922 127.085 131.852 126.742 131.714C126.405 131.58 126.095 131.386 125.828 131.14C125.567 130.899 125.355 130.608 125.205 130.286C125.052 129.949 124.975 129.582 124.98 129.212L124.982 121.709Z" fill="white"/>
<path d="M102.907 121.674C102.907 128.696 112.738 135.719 112.738 135.719C112.738 135.719 122.57 128.655 122.57 121.674C122.572 120.964 122.496 120.255 122.345 119.561C122.298 119.345 122.243 119.131 122.182 118.922C121.964 118.368 121.566 117.903 121.053 117.602C120.539 117.3 119.94 117.179 119.349 117.258C118.759 117.337 118.212 117.611 117.796 118.037C117.38 118.463 117.118 119.016 117.053 119.608C117.023 119.892 117.037 120.178 117.096 120.457C117.121 120.541 117.145 120.626 117.165 120.713C117.313 121.34 117.325 121.991 117.202 122.623C117.079 123.255 116.824 123.853 116.452 124.379C116.08 124.905 115.601 125.345 115.046 125.672C114.491 125.998 113.873 126.203 113.233 126.272C112.593 126.342 111.945 126.275 111.333 126.075C110.721 125.876 110.158 125.548 109.682 125.115C109.206 124.682 108.828 124.152 108.572 123.561C108.316 122.97 108.189 122.332 108.198 121.688C108.234 119.227 110.33 117.188 112.791 117.212C113.136 117.216 113.479 117.259 113.815 117.34C113.985 117.38 114.153 117.43 114.318 117.49C114.486 117.523 114.657 117.54 114.828 117.539C116.299 117.539 117.492 116.328 117.492 114.834C117.494 114.313 117.347 113.802 117.066 113.363C116.786 112.924 116.385 112.576 115.911 112.359C115.694 112.284 115.474 112.218 115.25 112.159C113.795 111.777 112.271 111.733 110.797 112.032C109.322 112.33 107.935 112.963 106.743 113.882C105.551 114.8 104.586 115.98 103.921 117.33C103.257 118.68 102.911 120.164 102.91 121.669L102.907 121.674Z" fill="white"/>
<path d="M53.1421 42.7047C53.1421 58.3174 75.0001 73.9302 75.0001 73.9302C75.0001 73.9302 96.8581 58.2252 96.8581 42.7047C96.859 41.1255 96.6893 39.5509 96.3518 38.0082C96.2468 37.5277 96.1261 37.0542 95.9896 36.5877C95.4446 35.2041 94.3994 34.0759 93.0612 33.4273C91.7231 32.7786 90.1899 32.6569 88.7662 33.0862C87.3425 33.5155 86.1322 34.4645 85.3757 35.7448C84.6192 37.025 84.3718 38.543 84.6826 39.9972C84.7396 40.1854 84.7898 40.3722 84.8326 40.5687C85.0083 41.315 85.0987 42.0789 85.1018 42.8457C85.1266 48.3649 80.6521 52.9219 75.1336 52.9932C73.783 53.0113 72.4425 52.7583 71.1914 52.2493C69.9403 51.7403 68.804 50.9855 67.8497 50.0296C66.8954 49.0737 66.1425 47.9361 65.6356 46.6841C65.1287 45.4322 64.878 44.0912 64.8983 42.7407C64.9786 37.2694 69.6383 32.7319 75.1096 32.7904C75.8762 32.7979 76.6394 32.8931 77.3843 33.0739C77.7641 33.1649 78.138 33.2786 78.5041 33.4144C78.8773 33.4882 79.2569 33.5251 79.6373 33.5247C82.9088 33.5247 85.5623 30.8307 85.5623 27.5089C85.5676 26.3515 85.2391 25.217 84.6162 24.2415C83.9933 23.2659 83.1023 22.4906 82.0501 22.0084C81.5681 21.8434 81.0778 21.6957 80.5793 21.5652C78.7592 21.0871 76.885 20.8456 75.0031 20.8467C62.9288 20.8467 53.1421 30.6334 53.1421 42.7047Z" fill="white"/>
</svg>
