<svg width="160" height="160" viewBox="0 0 160 160" fill="none" xmlns="http://www.w3.org/2000/svg">
<circle cx="79.75" cy="79.75" r="38.75" fill="#EFEFEF"/>
<circle cx="79.75" cy="79.75" r="45.75" fill="#EDEDED"/>
<circle cx="79.75" cy="79.75" r="38.75" fill="white"/>
<path d="M67 77.1765C67 86.5883 80.1765 96 80.1765 96C80.1765 96 93.353 86.5327 93.353 77.1765C93.3536 76.2246 93.2513 75.2753 93.0479 74.3454C92.9846 74.0557 92.9118 73.7703 92.8295 73.4891C92.501 72.655 91.8709 71.9749 91.0642 71.5839C90.2575 71.1929 89.3333 71.1195 88.4751 71.3783C87.6168 71.6371 86.8872 72.2092 86.4312 72.9809C85.9752 73.7527 85.826 74.6677 86.0134 75.5444C86.0477 75.6579 86.078 75.7704 86.1038 75.8889C86.2097 76.3388 86.2642 76.7993 86.2661 77.2615C86.281 80.5887 83.5837 83.3357 80.257 83.3787C79.4428 83.3896 78.6348 83.2371 77.8806 82.9302C77.1264 82.6234 76.4414 82.1684 75.8661 81.5921C75.2908 81.0159 74.837 80.3301 74.5314 79.5754C74.2258 78.8207 74.0747 78.0124 74.0869 77.1982C74.1353 73.9 76.9443 71.1647 80.2425 71.2C80.7046 71.2045 81.1647 71.2618 81.6138 71.3709C81.8427 71.4257 82.0681 71.4943 82.2888 71.5761C82.5138 71.6206 82.7426 71.6429 82.972 71.6426C84.9441 71.6426 86.5437 70.0186 86.5437 68.0162C86.5469 67.3184 86.3489 66.6345 85.9734 66.0465C85.5978 65.4584 85.0608 64.991 84.4264 64.7003C84.1359 64.6009 83.8403 64.5118 83.5398 64.4331C82.4426 64.1449 81.3128 63.9993 80.1783 64C72.8997 64 67 69.8997 67 77.1765Z" fill="#0880EA"/>
</svg>
