<svg width="17" height="16" viewBox="0 0 17 16" fill="none" xmlns="http://www.w3.org/2000/svg">
<path d="M6.5 4H9.83333C10.8333 4 12.5 4 12.5 6C12.5 8 10.8333 8 9.83333 8H6.83333C5.83333 8 4.5 8.33333 4.5 10C4.5 11.6667 5.83333 12 6.83333 12H12.5" stroke="#787680" stroke-linecap="round" stroke-linejoin="round"/>
<path d="M10.5 14L12.5 12L10.5 10" stroke="#787680" stroke-linecap="round" stroke-linejoin="round"/>
<path d="M4.5 2.5C4.89782 2.5 5.27924 2.65815 5.56055 2.93945C5.84185 3.22076 6 3.60218 6 4C6 4.39782 5.84185 4.77924 5.56055 5.06055C5.27924 5.34185 4.89782 5.5 4.5 5.5C4.10218 5.5 3.72076 5.34185 3.43945 5.06055C3.15815 4.77924 3 4.39782 3 4L3.00781 3.85156C3.04195 3.50826 3.19337 3.18554 3.43945 2.93945C3.68554 2.69337 4.00826 2.54195 4.35156 2.50781L4.5 2.5Z" stroke="#787680"/>
</svg>
