<svg width="39" height="42" viewBox="0 0 39 42" fill="none" xmlns="http://www.w3.org/2000/svg">
<path fill-rule="evenodd" clip-rule="evenodd" d="M19 0.166626C21.2729 0.166626 23.4104 0.774959 25.25 1.84163C25.499 1.97187 25.719 2.15112 25.8969 2.36861C26.0748 2.5861 26.2069 2.83732 26.2852 3.10717C26.3634 3.37702 26.3863 3.65992 26.3525 3.93885C26.3186 4.21778 26.2286 4.48697 26.088 4.73023C25.9474 4.97349 25.759 5.18579 25.5342 5.35437C25.3094 5.52294 25.0529 5.6443 24.78 5.71115C24.5071 5.778 24.2235 5.78895 23.9462 5.74335C23.6689 5.69774 23.4038 5.59653 23.1667 5.44579C21.8996 4.71422 20.4622 4.32916 18.999 4.32934C17.5359 4.32951 16.0986 4.71491 14.8316 5.44678C13.5647 6.17865 12.5128 7.2312 11.7816 8.49857C11.0505 9.76595 10.666 11.2035 10.6667 12.6666L33.5833 12.6687C34.6884 12.6687 35.7482 13.1077 36.5296 13.8891C37.311 14.6705 37.75 15.7303 37.75 16.8354V37.6687C37.75 38.7738 37.311 39.8336 36.5296 40.615C35.7482 41.3964 34.6884 41.8354 33.5833 41.8354H4.41667C3.3116 41.8354 2.25179 41.3964 1.47039 40.615C0.688987 39.8336 0.25 38.7738 0.25 37.6687V16.8333C0.25 15.7282 0.688987 14.6684 1.47039 13.887C2.25179 13.1056 3.3116 12.6666 4.41667 12.6666H6.5C6.5 9.35142 7.81696 6.172 10.1612 3.82779C12.5054 1.48359 15.6848 0.166626 19 0.166626ZM19 21C18.0828 21 17.1913 21.3027 16.4636 21.861C15.736 22.4194 15.2129 23.2023 14.9755 24.0882C14.7381 24.9741 14.7997 25.9136 15.1506 26.761C15.5016 27.6084 16.1224 28.3163 16.9167 28.775V31.4166C16.9167 31.9692 17.1362 32.4991 17.5269 32.8898C17.9176 33.2805 18.4475 33.5 19 33.5C19.5525 33.5 20.0824 33.2805 20.4731 32.8898C20.8638 32.4991 21.0833 31.9692 21.0833 31.4166V28.775C21.8776 28.3163 22.4984 27.6084 22.8494 26.761C23.2003 25.9136 23.2619 24.9741 23.0245 24.0882C22.7871 23.2023 22.264 22.4194 21.5364 21.861C20.8087 21.3027 19.9172 21 19 21ZM35.4958 6.46038L37.5083 7.00204C38.0215 7.16268 38.7116 7.98668 38.7116 7.98668C38.7116 7.98668 39.0374 9.01096 38.8981 9.53027C38.7587 10.0496 38.4239 10.4949 37.9638 10.7731C37.5036 11.0513 36.9538 11.1408 36.4292 11.0229L34.4187 10.4854C33.8873 10.3405 33.4348 9.99104 33.1604 9.51344C32.8859 9.03583 32.8118 8.46897 32.9542 7.93684C33.0966 7.40471 33.4439 6.95064 33.9202 6.67394C34.3965 6.39725 34.963 6.32046 35.4958 6.46038ZM32.8187 0.354126C33.0831 0.424956 33.3308 0.547159 33.5479 0.713754C33.765 0.88035 33.9471 1.08807 34.0838 1.32507C34.2206 1.56206 34.3094 1.82367 34.345 2.09497C34.3807 2.36626 34.3626 2.64192 34.2917 2.90621L34.0229 3.91038C33.9532 4.17578 33.8318 4.4248 33.6656 4.64314C33.4994 4.86148 33.2916 5.04483 33.0544 5.18266C32.8171 5.3205 32.5549 5.4101 32.2829 5.44632C32.0109 5.48255 31.7344 5.46468 31.4694 5.39374C31.2043 5.32281 30.9558 5.20021 30.7383 5.03298C30.5207 4.86575 30.3383 4.65718 30.2016 4.41927C30.0649 4.18135 29.9765 3.91877 29.9415 3.6466C29.9066 3.37443 29.9257 3.09804 29.9979 2.83329L30.2688 1.82704C30.4118 1.29372 30.7608 0.839015 31.2389 0.562831C31.7171 0.286647 32.2853 0.211581 32.8187 0.354126Z" fill="#126CC0"/>
</svg>
