<svg width="150" height="150" viewBox="0 0 150 150" fill="none" xmlns="http://www.w3.org/2000/svg">
<rect width="150" height="150" rx="18" fill="white"/>
<rect x="38.0625" y="21.5625" width="73.875" height="73.875" rx="17.4375" fill="white"/>
<rect x="38.0625" y="21.5625" width="73.875" height="73.875" rx="17.4375" stroke="#EBEBEB" stroke-width="1.125" stroke-dasharray="3 3"/>
<path d="M63 74C61.5417 74 60.3021 73.4896 59.2812 72.4688C58.2604 71.4479 57.75 70.2083 57.75 68.75H56C55.5042 68.75 55.0885 68.5823 54.7531 68.2469C54.4177 67.9115 54.25 67.4958 54.25 67V49.5C54.25 48.5375 54.5927 47.7135 55.2781 47.0281C55.9635 46.3427 56.7875 46 57.75 46H78.75C79.7125 46 80.5365 46.3427 81.2219 47.0281C81.9073 47.7135 82.25 48.5375 82.25 49.5V53H85.75C86.3042 53 86.8292 53.124 87.325 53.3719C87.8208 53.6198 88.2292 53.9625 88.55 54.4L92.4 59.5188C92.5167 59.6646 92.6042 59.825 92.6625 60C92.7208 60.175 92.75 60.3646 92.75 60.5688V67C92.75 67.4958 92.5823 67.9115 92.2469 68.2469C91.9115 68.5823 91.4958 68.75 91 68.75H89.25C89.25 70.2083 88.7396 71.4479 87.7188 72.4688C86.6979 73.4896 85.4583 74 84 74C82.5417 74 81.3021 73.4896 80.2812 72.4688C79.2604 71.4479 78.75 70.2083 78.75 68.75H68.25C68.25 70.2083 67.7396 71.4479 66.7188 72.4688C65.6979 73.4896 64.4583 74 63 74ZM63 70.5C63.4958 70.5 63.9115 70.3323 64.2469 69.9969C64.5823 69.6615 64.75 69.2458 64.75 68.75C64.75 68.2542 64.5823 67.8385 64.2469 67.5031C63.9115 67.1677 63.4958 67 63 67C62.5042 67 62.0885 67.1677 61.7531 67.5031C61.4177 67.8385 61.25 68.2542 61.25 68.75C61.25 69.2458 61.4177 69.6615 61.7531 69.9969C62.0885 70.3323 62.5042 70.5 63 70.5ZM84 70.5C84.4958 70.5 84.9115 70.3323 85.2469 69.9969C85.5823 69.6615 85.75 69.2458 85.75 68.75C85.75 68.2542 85.5823 67.8385 85.2469 67.5031C84.9115 67.1677 84.4958 67 84 67C83.5042 67 83.0885 67.1677 82.7531 67.5031C82.4177 67.8385 82.25 68.2542 82.25 68.75C82.25 69.2458 82.4177 69.6615 82.7531 69.9969C83.0885 70.3323 83.5042 70.5 84 70.5ZM82.25 61.75H89.6875L85.75 56.5H82.25V61.75Z" fill="#D4D4D4"/>
<path fill-rule="evenodd" clip-rule="evenodd" d="M85.5004 57.5999C90.8023 57.5999 95.1004 53.3018 95.1004 47.9999C95.1004 42.698 90.8023 38.3999 85.5004 38.3999C80.1985 38.3999 75.9004 42.698 75.9004 47.9999C75.9004 53.3018 80.1985 57.5999 85.5004 57.5999ZM85.5004 43.3994C86.0527 43.3994 86.5004 43.8471 86.5004 44.3994L86.5004 46.9994H89.1004C89.6527 46.9994 90.1004 47.4471 90.1004 47.9994C90.1004 48.5517 89.6527 48.9994 89.1004 48.9994H86.5004V51.5994C86.5004 52.1517 86.0527 52.5994 85.5004 52.5994C84.9481 52.5994 84.5004 52.1517 84.5004 51.5994V48.9994H81.9004C81.3481 48.9994 80.9004 48.5517 80.9004 47.9994C80.9004 47.4471 81.3481 46.9994 81.9004 46.9994H84.5004L84.5004 44.3994C84.5004 43.8471 84.9481 43.3994 85.5004 43.3994Z" fill="#808080"/>
<rect x="37.5" y="108" width="75" height="7.5" rx="3" fill="#F1F1F1"/>
<rect x="37.5" y="120.75" width="54.75" height="7.5" rx="3" fill="#F1F1F1"/>
</svg>
