<svg width="17" height="16" viewBox="0 0 17 16" fill="none" xmlns="http://www.w3.org/2000/svg">
<path d="M2.89997 15.78C4.10395 15.78 5.07997 14.804 5.07997 13.6C5.07997 12.396 4.10395 11.42 2.89997 11.42C1.69599 11.42 0.719971 12.396 0.719971 13.6C0.719971 14.804 1.69599 15.78 2.89997 15.78Z" fill="#126CC0"/>
<path d="M0.719971 0.220001V3.05C7.74997 3.05 13.45 8.75 13.45 15.78H16.28C16.28 7.19 9.30997 0.220001 0.719971 0.220001ZM0.719971 5.88V8.71C4.61997 8.71 7.78997 11.88 7.78997 15.78H10.62C10.62 10.31 6.18997 5.88 0.719971 5.88Z" fill="#126CC0"/>
</svg>
